<?xml version="1.0" encoding="UTF-8"?>
<svg version="1.1" xmlns="http://www.w3.org/2000/svg" width="512" height="512">
<path d="M0 0 C14.52 0 29.04 0 44 0 C44.9375 11.125 44.9375 11.125 45.22631836 14.59814453 C45.39104278 16.52122207 45.5692217 18.4431778 45.75830078 20.36401367 C45.94525149 22.4029094 46.04697413 24.44971897 46.11328125 26.49609375 C46.8472461 29.35937132 46.8472461 29.35937132 50.203125 31.15234375 C51.54136884 31.7711159 52.89109349 32.36553088 54.25 32.9375 C54.91902344 33.25267578 55.58804688 33.56785156 56.27734375 33.89257812 C59.14630124 35.16923602 61.53008588 36.00887919 64.6875 35.94921875 C67.65110916 34.73273729 69.44509549 33.09704846 71.75 30.875 C76.29616222 26.60870662 81.0178629 22.7426199 86 19 C90.29067546 20.65236651 93.1429553 23.8905207 96.296875 27.1015625 C96.89050842 27.69802582 97.48414185 28.29448914 98.09576416 28.9090271 C99.98526627 30.8096981 101.86768392 32.71721474 103.75 34.625 C105.03209065 35.91712468 106.31463761 37.20879676 107.59765625 38.5 C110.73708432 41.66144479 113.87017801 44.8290461 117 48 C115.39267274 52.34568622 113.46587086 54.94558066 110.25 58.3125 C109.36699219 59.27929688 108.48398437 60.24609375 107.57421875 61.2421875 C106.03493798 62.89125005 104.46346846 64.51236345 102.83203125 66.0703125 C100.94218783 68.06445191 99.79843019 69.36232885 99 72 C99.80747935 75.31329844 101.02288915 78.04900361 102.59765625 81.0703125 C104.04701413 84.09821894 104.60138973 86.68316888 105 90 C105.58378418 90.02505615 106.16756836 90.0501123 106.76904297 90.07592773 C109.47116313 90.19356199 112.17307299 90.31551273 114.875 90.4375 C115.7928125 90.47681641 116.710625 90.51613281 117.65625 90.55664062 C118.57148438 90.59853516 119.48671875 90.64042969 120.4296875 90.68359375 C121.25710449 90.72025146 122.08452148 90.75690918 122.93701172 90.79467773 C127.30004613 91.0871464 131.64887551 91.56488755 136 92 C136 106.52 136 121.04 136 136 C124.375 136.9375 124.375 136.9375 120.74365234 137.22631836 C119.78410645 137.30503174 118.82456055 137.38374512 117.8359375 137.46484375 C116.86188965 137.543396 115.8878418 137.62194824 114.88427734 137.70288086 C113.45656006 137.84995483 113.45656006 137.84995483 112 138 C110.92951416 138.10473633 109.85902832 138.20947266 108.75610352 138.31738281 C107.84658936 138.54264648 106.9370752 138.76791016 106 139 C104.4817962 141.71436437 103.5103704 143.90789981 102.5625 146.8125 C102.29501953 147.53759766 102.02753906 148.26269531 101.75195312 149.00976562 C100.44968032 152.7261734 99.56338817 155.28916938 101 159 C102.47186815 160.92527917 102.47186815 160.92527917 104.34375 162.75 C105.34728516 163.78640625 105.34728516 163.78640625 106.37109375 164.84375 C107.07363281 165.5553125 107.77617187 166.266875 108.5 167 C109.89215979 168.41004074 111.27787758 169.82647858 112.65625 171.25 C113.58147461 172.18585938 113.58147461 172.18585938 114.52539062 173.140625 C116.16124434 175.20331737 116.68896264 176.39888822 117 179 C116.01930237 180.58197021 116.01930237 180.58197021 114.45141602 182.11621094 C113.87073868 182.69651062 113.29006134 183.2768103 112.69178772 183.87469482 C112.05228683 184.48838928 111.41278595 185.10208374 110.75390625 185.734375 C110.108806 186.37240051 109.46370575 187.01042603 108.79905701 187.66778564 C106.73161652 189.70719002 104.64748956 191.72855527 102.5625 193.75 C101.15967502 195.12775432 99.75796706 196.50664698 98.35742188 197.88671875 C94.9177806 201.27116806 91.46307147 204.63953572 88 208 C83.62285158 206.38210917 80.9690045 204.4103915 77.5625 201.1875 C76.60214844 200.29804688 75.64179688 199.40859375 74.65234375 198.4921875 C73.13676121 197.06812025 71.62576552 195.63904733 70.12890625 194.1953125 C68.51383311 192.6461176 68.51383311 192.6461176 66 191 C60.89000644 191.50749936 56.39047335 193.89546497 51.7421875 195.94140625 C49 197 49 197 46 197 C45.96241577 197.87567627 45.96241577 197.87567627 45.92407227 198.76904297 C45.80643801 201.47116313 45.68448727 204.17307299 45.5625 206.875 C45.52318359 207.7928125 45.48386719 208.710625 45.44335938 209.65625 C45.40146484 210.57148438 45.35957031 211.48671875 45.31640625 212.4296875 C45.26141968 213.67081299 45.26141968 213.67081299 45.20532227 214.93701172 C44.9128536 219.30004613 44.43511245 223.64887551 44 228 C29.48 228 14.96 228 0 228 C-0.9375 216.375 -0.9375 216.375 -1.22631836 212.74365234 C-1.30503174 211.78410645 -1.38374512 210.82456055 -1.46484375 209.8359375 C-1.543396 208.86188965 -1.62194824 207.8878418 -1.70288086 206.88427734 C-2.16271353 202.4120238 -2.16271353 202.4120238 -3 198 C-5.74814471 196.21173317 -5.74814471 196.21173317 -9.1875 195.1875 C-10.87939453 194.59001953 -10.87939453 194.59001953 -12.60546875 193.98046875 C-14.28576172 193.49513672 -14.28576172 193.49513672 -16 193 C-17.0209375 192.69707031 -18.041875 192.39414062 -19.09375 192.08203125 C-22.14235181 191.70977768 -22.14235181 191.70977768 -24.67578125 193.84375 C-25.54589844 194.7203125 -26.41601562 195.596875 -27.3125 196.5 C-31.98299355 201.04253482 -36.78078463 205.10814064 -42 209 C-46.29067546 207.34763349 -49.1429553 204.1094793 -52.296875 200.8984375 C-52.89050842 200.30197418 -53.48414185 199.70551086 -54.09576416 199.0909729 C-55.98526627 197.1903019 -57.86768392 195.28278526 -59.75 193.375 C-61.03209065 192.08287532 -62.31463761 190.79120324 -63.59765625 189.5 C-66.73708432 186.33855521 -69.87017801 183.1709539 -73 180 C-71.39267274 175.65431378 -69.46587086 173.05441934 -66.25 169.6875 C-65.36699219 168.72070312 -64.48398438 167.75390625 -63.57421875 166.7578125 C-62.03493798 165.10874995 -60.46346846 163.48763655 -58.83203125 161.9296875 C-56.94218783 159.93554809 -55.79843019 158.63767115 -55 156 C-55.80747935 152.68670156 -57.02288915 149.95099639 -58.59765625 146.9296875 C-60.04701413 143.90178106 -60.60138973 141.31683112 -61 138 C-62.31613281 137.93941406 -63.63226563 137.87882813 -64.98828125 137.81640625 C-66.76302673 137.73189456 -68.53776598 137.64725209 -70.3125 137.5625 C-71.17423828 137.52318359 -72.03597656 137.48386719 -72.92382812 137.44335938 C-79.31680549 137.13440508 -85.6122519 136.58070437 -92 136 C-92 121.48 -92 106.96 -92 92 C-82.1 91.34 -72.2 90.68 -62 90 C-57.01770474 78.34359298 -57.01770474 78.34359298 -56 71 C-57.6315018 68.6940226 -59.07008221 66.99813577 -61.0625 65.0625 C-62.07980545 64.01208506 -63.09673481 62.96130575 -64.11328125 61.91015625 C-65.07536174 60.93994638 -66.03758771 59.96988074 -67 59 C-69.19241731 56.71809627 -71.09556188 54.53925083 -73 52 C-72.69486035 48.81783981 -71.551955 47.1813009 -69.31616211 44.97558594 C-68.47540382 44.13516754 -68.47540382 44.13516754 -67.61766052 43.277771 C-66.70670372 42.39003998 -66.70670372 42.39003998 -65.77734375 41.484375 C-65.15726944 40.86854553 -64.53719513 40.25271606 -63.89833069 39.6182251 C-61.91832095 37.65499365 -59.92813081 35.70245564 -57.9375 33.75 C-56.59241465 32.41996252 -55.24800512 31.08924121 -53.90429688 29.7578125 C-50.61065094 26.49722463 -47.30783661 23.24618812 -44 20 C-39.62285158 21.61789083 -36.9690045 23.5896085 -33.5625 26.8125 C-32.6034375 27.70195312 -31.644375 28.59140625 -30.65625 29.5078125 C-29.13272336 30.93723897 -27.6108373 32.36842862 -26.09375 33.8046875 C-24.45500101 35.33953168 -24.45500101 35.33953168 -22 37 C-17.16952073 36.37462545 -12.48467836 33.85708452 -7.99609375 32.05859375 C-5 31 -5 31 -2 31 C-1.96241577 30.12432373 -1.96241577 30.12432373 -1.92407227 29.23095703 C-1.80643801 26.52883687 -1.68448727 23.82692701 -1.5625 21.125 C-1.52318359 20.2071875 -1.48386719 19.289375 -1.44335938 18.34375 C-1.40146484 17.42851562 -1.35957031 16.51328125 -1.31640625 15.5703125 C-1.27974854 14.74289551 -1.24309082 13.91547852 -1.20532227 13.06298828 C-0.9128536 8.69995387 -0.43511245 4.35112449 0 0 Z " fill="#D0DDDF" transform="translate(234,142)"/>
<path d="M0 0 C10.5871195 7.19980817 16.6721787 16.25635542 19.7265625 28.78125 C21.37682234 39.46540647 19.12854564 49.33540654 15.10546875 59.234375 C35.20226843 86.14091298 35.20226843 86.14091298 63.86042786 100.71690369 C76.34816745 101.96567187 88.70314942 100.83835755 101.10546875 99.234375 C101.10546875 106.494375 101.10546875 113.754375 101.10546875 121.234375 C53.88882468 128.41574555 53.88882468 128.41574555 37.93847656 116.71972656 C30.86884934 111.21861128 24.6313453 104.83981202 18.60546875 98.234375 C18.10334618 97.68431541 17.6012236 97.13425583 17.08388519 96.56752777 C10.82760059 89.66761367 4.85404166 82.56471497 -0.89453125 75.234375 C-1.70277344 75.51152344 -2.51101562 75.78867188 -3.34375 76.07421875 C-4.94669922 76.61755859 -4.94669922 76.61755859 -6.58203125 77.171875 C-8.16564453 77.71134766 -8.16564453 77.71134766 -9.78125 78.26171875 C-21.68690539 81.98130243 -33.12927653 80.64564699 -44.28515625 75.03125 C-46.23892871 73.8530208 -48.06503971 72.59595511 -49.89453125 71.234375 C-51.41046875 70.1825 -51.41046875 70.1825 -52.95703125 69.109375 C-60.041445 62.95406469 -64.99962098 53.18910627 -66.19360352 43.91015625 C-66.33016242 41.55073555 -66.36273608 39.22243813 -66.33203125 36.859375 C-66.32373291 36.02937988 -66.31543457 35.19938477 -66.30688477 34.34423828 C-65.97277102 22.16632747 -61.3979516 13.94060471 -53.015625 5.296875 C-38.65834327 -8.16126383 -16.76440118 -10.22605848 0 0 Z M-39.26953125 23.671875 C-43.63344287 29.28092445 -44.67986166 34.2026473 -43.89453125 41.234375 C-41.76202962 47.63187989 -39.03881336 52.28555651 -33.01953125 55.484375 C-26.55882765 58.41672386 -21.5224713 58.6999687 -14.89453125 56.234375 C-9.31793668 53.12435111 -5.35542463 49.16575905 -2.89453125 43.234375 C-2.10862222 36.83744101 -2.18560172 30.65176655 -5.484375 24.98828125 C-8.77486664 20.8956753 -12.92884689 17.88960312 -17.89453125 16.234375 C-26.74988138 15.27491433 -33.22451808 16.98439666 -39.26953125 23.671875 Z " fill="#908EC3" transform="translate(65.89453125,5.765625)"/>
<path d="M0 0 C0.82999512 0.00829834 1.65999023 0.01659668 2.51513672 0.02514648 C14.69304753 0.35926023 22.91877029 4.93407965 31.5625 13.31640625 C41.26071281 23.66256 43.12202879 34.04132628 42.89453125 47.66015625 C42.44338774 59.0587527 36.78948712 68.36291165 28.75 76.28515625 C19.03604494 84.19798214 6.94100052 87.37370974 -5.375 86.4375 C-11.19286504 85.25080965 -16.75107399 83.3142391 -22.375 81.4375 C-23.05290588 82.30193726 -23.05290588 82.30193726 -23.74450684 83.18383789 C-29.54347872 90.49372068 -35.58571006 97.54777945 -41.875 104.4375 C-42.37341652 104.98385353 -42.87183304 105.53020706 -43.38535309 106.09311676 C-56.5659101 120.38764133 -67.59981064 129.79134475 -87.78338623 130.65924072 C-100.1142168 130.69965047 -112.2005234 129.28916543 -124.375 127.4375 C-124.375 120.1775 -124.375 112.9175 -124.375 105.4375 C-121.43464844 105.81777344 -118.49429687 106.19804688 -115.46484375 106.58984375 C-98.68003314 108.16532206 -82.16697164 109.3124962 -68.40800476 98.21214294 C-57.32564746 88.35237219 -47.55875479 77.062794 -38.375 65.4375 C-38.65214844 64.62925781 -38.92929687 63.82101563 -39.21484375 62.98828125 C-39.75818359 61.38533203 -39.75818359 61.38533203 -40.3125 59.75 C-40.85197266 58.16638672 -40.85197266 58.16638672 -41.40234375 56.55078125 C-45.12192743 44.64512586 -43.78627199 33.20275472 -38.171875 22.046875 C-36.9936458 20.09310254 -35.73658011 18.26699154 -34.375 16.4375 C-33.323125 14.9215625 -33.323125 14.9215625 -32.25 13.375 C-24.13599235 4.03623648 -12.03156657 -0.15633404 0 0 Z M-15.16796875 28.37890625 C-20.38765916 35.11119103 -21.33011095 40.97028044 -20.375 49.4375 C-18.06686924 55.38500705 -13.9970542 59.25953277 -8.58203125 62.515625 C-3.53435223 64.62403606 2.8190847 64.24575056 8.01171875 62.75 C13.75712557 60.12352831 17.25405555 56.37523811 19.9375 50.625 C21.38110824 43.93190726 21.37802102 38.36374479 17.9609375 32.29296875 C14.6942329 27.75587903 10.14178553 23.72047338 4.625 22.4375 C-3.14634988 21.57401668 -9.68078737 22.43744842 -15.16796875 28.37890625 Z " fill="#D0DEE0" transform="translate(469.375,-0.4375)"/>
<path d="M0 0 C47.21664407 -7.18137055 47.21664407 -7.18137055 63.16699219 4.51464844 C70.23661941 10.01576372 76.47412345 16.39456298 82.5 23 C83.00212257 23.55005959 83.50424515 24.10011917 84.02158356 24.66684723 C90.27786816 31.56676133 96.25142709 38.66966003 102 46 C102.80824219 45.72285156 103.61648438 45.44570313 104.44921875 45.16015625 C106.05216797 44.61681641 106.05216797 44.61681641 107.6875 44.0625 C109.27111328 43.52302734 109.27111328 43.52302734 110.88671875 42.97265625 C122.79237414 39.25307257 134.23474528 40.58872801 145.390625 46.203125 C147.34439746 47.3813542 149.17050846 48.63841989 151 50 C152.010625 50.70125 153.02125 51.4025 154.0625 52.125 C161.14691375 58.28031031 166.10508973 68.04526873 167.29907227 77.32421875 C167.43563117 79.68363945 167.46820483 82.01193687 167.4375 84.375 C167.42920166 85.20499512 167.42090332 86.03499023 167.41235352 86.89013672 C167.07823977 99.06804753 162.50342035 107.29377029 154.12109375 115.9375 C143.77494 125.63571281 133.39617372 127.49702879 119.77734375 127.26953125 C108.3787473 126.81838774 99.07458835 121.16448712 91.15234375 113.125 C83.22921575 103.39839785 80.08467161 91.32537024 81 79 C82.10775118 73.09439142 83.74039764 67.55985707 86 62 C65.90320032 35.09346202 65.90320032 35.09346202 37.24504089 20.51747131 C24.7573013 19.26870313 12.40231933 20.39601745 0 22 C0 14.74 0 7.48 0 0 Z M110 69 C104.6961895 74.89312278 103.52339268 79.1099324 103.6953125 86.9609375 C104.24081233 92.40194859 105.90646532 96.07495906 109.94140625 99.78515625 C116.12768648 104.60430272 121.20186048 105.81109921 129 105 C136.19064589 102.90220173 140.70734655 97.96003778 144.375 91.625 C145.99887861 84.80470985 145.3513055 79.22385308 142 73 C138.39624832 67.26069177 133.32587603 64.97004718 127 63.125 C120.36159322 62.84839972 115.20529202 64.8594268 110 69 Z " fill="#F374B1" transform="translate(345,385)"/>
<path d="M0 0 C0 7.26 0 14.52 0 22 C-2.94035156 21.61972656 -5.88070312 21.23945313 -8.91015625 20.84765625 C-25.69496686 19.27217794 -42.20802836 18.1250038 -55.96699524 29.22535706 C-67.04935254 39.08512781 -76.81624521 50.374706 -86 62 C-85.72285156 62.80824219 -85.44570312 63.61648438 -85.16015625 64.44921875 C-84.61681641 66.05216797 -84.61681641 66.05216797 -84.0625 67.6875 C-83.52302734 69.27111328 -83.52302734 69.27111328 -82.97265625 70.88671875 C-79.25307257 82.79237414 -80.58872801 94.23474528 -86.203125 105.390625 C-87.3813542 107.34439746 -88.63841989 109.17050846 -90 111 C-90.70125 112.010625 -91.4025 113.02125 -92.125 114.0625 C-98.28031031 121.14691375 -108.04526873 126.10508973 -117.32421875 127.29907227 C-119.68363945 127.43563117 -122.01193687 127.46820483 -124.375 127.4375 C-125.20499512 127.42920166 -126.03499023 127.42090332 -126.89013672 127.41235352 C-139.06804753 127.07823977 -147.29377029 122.50342035 -155.9375 114.12109375 C-165.63571281 103.77494 -167.49702879 93.39617372 -167.26953125 79.77734375 C-166.81838774 68.3787473 -161.16448712 59.07458835 -153.125 51.15234375 C-143.39839785 43.22921575 -131.32537024 40.08467161 -119 41 C-113.09439142 42.10775118 -107.55985707 43.74039764 -102 46 C-101.54806274 45.4237085 -101.09612549 44.84741699 -100.63049316 44.25366211 C-94.83152128 36.94377932 -88.78928994 29.88972055 -82.5 23 C-82.00158348 22.45364647 -81.50316696 21.90729294 -80.98964691 21.34438324 C-56.97243316 -4.70266863 -34.62414465 -5.26612634 0 0 Z M-138.375 68.1875 C-142.85142701 72.98367179 -145.19445803 77.36973929 -145.5 84 C-145.21734882 89.94479256 -143.43073112 94.40798815 -139.3515625 98.7578125 C-134.00617303 103.58967111 -129.49200661 105.43377093 -122.2734375 105.25390625 C-116.67149836 104.62826013 -111.93287325 101.93287325 -108 98 C-104.07069385 92.69672078 -103.31673742 87.41585585 -103.546875 80.90625 C-104.44930153 75.11827297 -107.35881409 71.52109913 -111.5625 67.625 C-120.23403674 61.8439755 -129.83294924 61.80799374 -138.375 68.1875 Z " fill="#3AB3C0" transform="translate(167,385)"/>
<path d="M0 0 C2.20090773 1.43095321 4.28848538 2.93736781 6.3671875 4.5390625 C7.2540625 5.1578125 8.1409375 5.7765625 9.0546875 6.4140625 C17.53437595 14.20620864 23.70956527 25.63905515 24.66796875 37.15234375 C24.71296289 51.35549239 21.28486811 64.04244042 11.375 74.66015625 C0.3525448 84.97494409 -11.78731165 89.10866678 -26.70703125 88.81640625 C-36.36769907 88.13391131 -44.01310126 84.30107554 -51.6328125 78.5390625 C-52.5196875 77.9203125 -53.4065625 77.3015625 -54.3203125 76.6640625 C-63.17461204 68.52767914 -68.86666093 56.92980681 -69.95703125 44.98828125 C-70.33326831 32.28703691 -67.26262453 22.62875929 -59.6328125 12.5390625 C-59.0140625 11.6521875 -58.3953125 10.7653125 -57.7578125 9.8515625 C-43.03491364 -6.17041568 -19.17510635 -10.64019255 0 0 Z " fill="#487588" transform="translate(278.6328125,214.4609375)"/>
<path d="M0 0 C8.2056933 6.85848992 13.78713429 15.21776645 16.09375 25.75 C16.97248891 40.28520594 15.64792044 52.10117921 6.09375 63.75 C-1.25908679 71.83373507 -11.19650197 77.27834483 -22.2265625 77.953125 C-36.48726375 78.12882152 -47.4215988 74.9412875 -58.15625 65.125 C-62.90978485 60.12992375 -67.90625 52.82038428 -67.90625 45.75 C-78.13625 45.75 -88.36625 45.75 -98.90625 45.75 C-98.90625 38.49 -98.90625 31.23 -98.90625 23.75 C-88.67625 23.75 -78.44625 23.75 -67.90625 23.75 C-67.57625 21.77 -67.24625 19.79 -66.90625 17.75 C-61.10867882 4.95120965 -51.59310605 -2.02065073 -38.90625 -7.25 C-25.53873543 -10.865114 -11.13294514 -8.06735155 0 0 Z " fill="#2DAACD" transform="translate(495.90625,221.25)"/>
<path d="M0 0 C9.26473342 5.93930403 14.85068256 13.02305201 18.875 23.3125 C18.875 24.3025 18.875 25.2925 18.875 26.3125 C29.105 26.3125 39.335 26.3125 49.875 26.3125 C49.875 33.5725 49.875 40.8325 49.875 48.3125 C39.645 48.3125 29.415 48.3125 18.875 48.3125 C18.545 50.2925 18.215 52.2725 17.875 54.3125 C12.07742882 67.11129035 2.56185605 74.08315073 -10.125 79.3125 C-21.81718985 82.47453876 -34.40992447 80.69102706 -44.84375 74.76953125 C-55.31065477 67.88092073 -62.41778017 58.72047007 -65.125 46.3125 C-66.00435173 31.76715744 -64.67165103 19.98062904 -55.125 8.3125 C-40.65095034 -7.15975999 -18.3546795 -10.22180178 0 0 Z " fill="#FACF4A" transform="translate(65.125,218.6875)"/>
<path d="M0 0 C46.01508486 -7.17448614 46.01508486 -7.17448614 61.48520374 3.30016041 C69.44538486 9.17048984 76.34385733 16.21857909 83 23.5 C83.77112059 24.3430261 83.77112059 24.3430261 84.55781937 25.20308304 C90.96892651 32.25830439 97.0955785 39.51475029 103 47 C102.21375244 47.62398682 101.42750488 48.24797363 100.61743164 48.89086914 C98.42430536 50.65809402 96.42117536 52.44461965 94.4375 54.4375 C93.87933594 54.99308594 93.32117188 55.54867187 92.74609375 56.12109375 C90.70290896 58.31968857 88.86526737 60.64969086 87 63 C86.6032457 62.50109756 86.20649139 62.00219513 85.79771423 61.48817444 C65.66973028 34.92258957 65.66973028 34.92258957 37.18544006 20.45787048 C24.71091216 19.18731618 12.38239702 20.3432004 0 22 C0 14.74 0 7.48 0 0 Z " fill="#467387" transform="translate(345,385)"/>
<path d="M0 0 C0 7.26 0 14.52 0 22 C-2.92875 21.608125 -5.8575 21.21625 -8.875 20.8125 C-25.83602508 19.16434728 -42.25506662 18.13946106 -56.12509155 29.38345337 C-67.48917195 39.52175552 -77.53222546 51.09465773 -87 63 C-87.93598022 61.82062866 -87.93598022 61.82062866 -88.89086914 60.61743164 C-90.65809402 58.42430536 -92.44461965 56.42117536 -94.4375 54.4375 C-94.99308594 53.87933594 -95.54867187 53.32117188 -96.12109375 52.74609375 C-98.31968857 50.70290896 -100.64969086 48.86526737 -103 47 C-96.61672352 38.90768844 -89.9556254 31.10422415 -83 23.5 C-82.48970623 22.94176922 -81.97941246 22.38353844 -81.45365524 21.80839157 C-57.18715703 -4.46177395 -35.04190105 -5.46359165 0 0 Z " fill="#457487" transform="translate(167,385)"/>
<path d="M0 0 C0.62398682 0.78624756 1.24797363 1.57249512 1.89086914 2.38256836 C3.65809402 4.57569464 5.44461965 6.57882464 7.4375 8.5625 C8.27087891 9.39974609 8.27087891 9.39974609 9.12109375 10.25390625 C11.31968857 12.29709104 13.64969086 14.13473263 16 16 C9.61672352 24.09231156 2.9556254 31.89577585 -4 39.5 C-4.51029377 40.05823078 -5.02058754 40.61646156 -5.54634476 41.19160843 C-18.87491175 55.62070561 -30.06888676 65.39592512 -50.47842407 66.29177856 C-62.79243675 66.33300754 -74.84981812 64.89440727 -87 63 C-87 55.74 -87 48.48 -87 41 C-84.07125 41.391875 -81.1425 41.78375 -78.125 42.1875 C-61.16397492 43.83565272 -44.74493338 44.86053894 -30.87490845 33.61654663 C-19.51082805 23.47824448 -9.46777454 11.90534227 0 0 Z " fill="#467487" transform="translate(432,64)"/>
<path d="M0 0 C4.50462874 3.6388732 8.21060071 7.28494604 11.77658081 11.83757019 C27.61655376 32.20013329 27.61655376 32.20013329 50.42523193 42.15733337 C63.00029751 43.30981888 75.47945923 42.3457159 88 41 C88 48.26 88 55.52 88 63 C41.98491514 70.17448614 41.98491514 70.17448614 26.51479626 59.69983959 C18.55461514 53.82951016 11.65614267 46.78142091 5 39.5 C4.22887941 38.6569739 4.22887941 38.6569739 3.44218063 37.79691696 C-2.96892651 30.74169561 -9.0955785 23.48524971 -15 16 C-14.21447754 15.37601318 -13.42895508 14.75202637 -12.61962891 14.10913086 C-7.58617329 10.0565658 -2.9902241 5.80455266 0 0 Z " fill="#467387" transform="translate(79,64)"/>
<path d="M0 0 C6.05319543 5.1573737 10.60248739 10.53250316 11.84765625 18.57421875 C12.19003251 26.06369945 10.76771138 31.85827235 5.84765625 37.57421875 C-0.39322157 43.83986196 -4.88211979 46.9867291 -13.90234375 47.01171875 C-20.59649809 46.99368938 -25.24166034 46.30132521 -30.15234375 41.57421875 C-30.7865625 40.98125 -31.42078125 40.38828125 -32.07421875 39.77734375 C-37.19127111 34.49113263 -39.93912908 29.23828955 -40.27734375 21.83984375 C-39.89055959 13.08885206 -36.63112666 7.71698225 -30.40234375 1.76171875 C-21.4752712 -5.53011434 -9.65945371 -6.92227792 0 0 Z " fill="#FCFDFD" transform="translate(270.15234375,234.42578125)"/>
<path d="M0 0 C6.23662006 3.8572709 10.01986933 9.02445175 12.32421875 15.9375 C12.97100992 22.27605347 11.4219005 27.45559672 8.32421875 32.9375 C4.52154575 37.2342558 0.15082731 40.58230448 -5.62890625 41.30859375 C-13.03346184 41.45773764 -18.07852414 41.00421142 -23.67578125 35.9375 C-28.49948276 31.21274621 -30.94652744 26.40305199 -31.11328125 19.625 C-30.98084334 13.06490865 -28.72223181 8.991742 -24.1484375 4.40625 C-17.22988921 -1.64968031 -8.78383636 -3.48788831 0 0 Z " fill="#FCFDFE" transform="translate(478.67578125,236.0625)"/>
<path d="M0 0 C5.93902433 2.67141442 9.74406231 7.14484342 13.0234375 12.66015625 C14.57621827 19.33711357 14.42495958 25.5002204 10.984375 31.52734375 C7.47968536 36.30273958 3.27380517 39.49753533 -2.3515625 41.34765625 C-8.50790373 42.24187341 -13.90035318 42.16933972 -19.2890625 38.84765625 C-24.95831484 34.44395389 -28.26219251 29.60754025 -29.4140625 22.47265625 C-29.7389462 16.0734318 -27.96407347 10.27463614 -23.6640625 5.45703125 C-16.64527161 -0.77517101 -9.26799541 -2.57102198 0 0 Z " fill="#FEFEFC" transform="translate(50.3515625,235.65234375)"/>
<path d="M0 0 C10.23 0 20.46 0 31 0 C31 7.26 31 14.52 31 22 C20.77 22 10.54 22 0 22 C0 14.74 0 7.48 0 0 Z " fill="#457487" transform="translate(397,245)"/>
<path d="M0 0 C10.23 0 20.46 0 31 0 C31 7.26 31 14.52 31 22 C20.77 22 10.54 22 0 22 C0 14.74 0 7.48 0 0 Z " fill="#467486" transform="translate(84,245)"/>
</svg>
