<?xml version="1.0" encoding="UTF-8"?>
<svg version="1.1" xmlns="http://www.w3.org/2000/svg" width="512" height="512">
<path d="M0 0 C0.62132812 0.350625 1.24265625 0.70125 1.8828125 1.0625 C6.94882687 4.22053493 10.29682754 8.71247584 13 14 C13 14.99 13 15.98 13 17 C14.29546249 16.98334541 14.29546249 16.98334541 15.61709595 16.96635437 C23.76788366 16.86604615 31.91846319 16.78998128 40.06972694 16.74093914 C44.26013203 16.71487792 48.45002586 16.67954467 52.64013672 16.62280273 C56.68614072 16.56835701 60.73165391 16.53855332 64.77799606 16.52561378 C66.31937763 16.51639625 67.86073323 16.49839596 69.40190506 16.47134972 C71.56620947 16.43488883 73.72850283 16.43006123 75.89306641 16.43237305 C77.73839462 16.41571846 77.73839462 16.41571846 79.6210022 16.39872742 C84.13428457 17.2018392 85.76476204 18.80033959 89 22 C90.18695418 24.37390836 90.12075833 25.80244951 90.11352539 28.44970703 C90.11344986 29.37051056 90.11337433 30.29131409 90.11329651 31.24002075 C90.10813522 32.23589203 90.10297394 33.23176331 90.09765625 34.2578125 C90.09553383 35.78509476 90.09553383 35.78509476 90.09336853 37.3432312 C90.087759 40.60385035 90.07520488 43.86440151 90.0625 47.125 C90.05748623 49.33203026 90.05292311 51.53906159 90.04882812 53.74609375 C90.03863622 59.16410994 90.01906262 64.58197862 90 70 C96.93 70 103.86 70 111 70 C110.91298828 64.99779297 110.91298828 64.99779297 110.82421875 59.89453125 C110.78521376 56.66107562 110.75486011 53.42764629 110.7253418 50.1940918 C110.70021277 47.94852956 110.66610385 45.703049 110.62280273 43.45776367 C110.56208224 40.22814782 110.53377369 36.99961416 110.51171875 33.76953125 C110.48591232 32.76727005 110.4601059 31.76500885 110.43351746 30.7323761 C110.43070844 23.73615587 110.43070844 23.73615587 113.40551758 19.8894043 C117.53876136 16.87941337 120.93462812 16.29026459 126 17 C129.57335521 19.17508578 131.42634978 21.16855592 133 25 C133.24050903 27.18939209 133.24050903 27.18939209 133.22705078 29.58496094 C133.22682419 30.93590851 133.22682419 30.93590851 133.22659302 32.31414795 C133.21627045 33.27782288 133.20594788 34.2414978 133.1953125 35.234375 C133.1924826 36.22753723 133.18965271 37.22069946 133.18673706 38.24395752 C133.17555143 41.41276144 133.15044962 44.58128165 133.125 47.75 C133.11496812 49.8997355 133.10584263 52.04947543 133.09765625 54.19921875 C133.07731986 59.4663428 133.03816772 64.7328542 133 70 C139.6 70 146.2 70 153 70 C152.96519531 67.60363281 152.93039063 65.20726563 152.89453125 62.73828125 C152.87111139 60.40829661 152.85290871 58.07832527 152.83520508 55.74829102 C152.82015124 54.13332211 152.79970352 52.51839387 152.77368164 50.90356445 C152.73714714 48.57753445 152.72023985 46.25204659 152.70703125 43.92578125 C152.69154739 43.20787918 152.67606354 42.48997711 152.66011047 41.75032043 C152.65831404 36.35666086 153.998098 33.51151944 157.28392029 29.38923645 C159.62143967 27.49691926 161.13952737 27.60741851 164.12646484 27.58007812 C165.17119965 27.56416626 166.21593445 27.54825439 167.29232788 27.53186035 C168.42046906 27.53165894 169.54861023 27.53145752 170.7109375 27.53125 C172.45136826 27.51982971 172.45136826 27.51982971 174.22695923 27.50817871 C176.68318529 27.49736551 179.13945737 27.49452952 181.59570312 27.49902344 C185.35364623 27.49999448 189.10954002 27.45840924 192.8671875 27.4140625 C195.2525999 27.40885474 197.63801941 27.40616732 200.0234375 27.40625 C201.14753021 27.38985474 202.27162292 27.37345947 203.42977905 27.35656738 C211.24147344 27.42572855 211.24147344 27.42572855 215.18603516 30.41210938 C218.09799741 34.56645661 218.70528289 37.9664057 218 43 C215.84015077 46.54832374 213.87201068 48.55860041 210 50 C207.28105045 50.1683504 204.66896045 50.23294575 201.953125 50.1953125 C201.18192322 50.1924826 200.41072144 50.18965271 199.6161499 50.18673706 C197.16060668 50.17557013 194.7054324 50.15047229 192.25 50.125 C190.58203653 50.11496568 188.91406732 50.10584061 187.24609375 50.09765625 C183.16380709 50.07734637 179.082315 50.03819214 175 50 C175 56.6 175 63.2 175 70 C196.12 70 217.24 70 239 70 C238.95359375 65.14925781 238.9071875 60.29851562 238.859375 55.30078125 C238.83893264 52.22458792 238.81967674 49.14847855 238.8046875 46.07226562 C238.7807916 41.19131033 238.7525472 36.31065567 238.69824219 31.42993164 C238.65472618 27.49417518 238.63085082 23.55874118 238.62049103 19.62276268 C238.61310989 18.12244784 238.59869597 16.62215031 238.57707977 15.12197304 C238.54796738 13.01753469 238.54404698 10.91442233 238.54589844 8.80981445 C238.53701599 7.61290482 238.52813354 6.41599518 238.51898193 5.18281555 C239.09596368 1.36502448 240.32308046 -0.27166717 243 -3 C245.47361392 -4.23680696 247.15403776 -4.14687766 249.92114258 -4.17700195 C251.45832695 -4.19625481 251.45832695 -4.19625481 253.02656555 -4.21589661 C254.13799423 -4.22328354 255.24942291 -4.23067047 256.39453125 -4.23828125 C257.53403732 -4.246353 258.6735434 -4.25442474 259.84757996 -4.26274109 C262.26271031 -4.27658987 264.6778603 -4.28730846 267.09301758 -4.29516602 C270.78699824 -4.31238115 274.48008471 -4.35626194 278.17382812 -4.40039062 C280.51822257 -4.41051706 282.86262464 -4.41903331 285.20703125 -4.42578125 C286.86506523 -4.45204338 286.86506523 -4.45204338 288.55659485 -4.47883606 C296.23689665 -4.45711082 296.23689665 -4.45711082 300.17456055 -2.09838867 C303.30190095 1.49656796 303.12221528 3.75931771 303.11352539 8.46923828 C303.11367142 9.13277313 303.11381744 9.79630798 303.1139679 10.47994995 C303.11327031 12.67677053 303.10548514 14.8735067 303.09765625 17.0703125 C303.09579152 18.59203037 303.09436788 20.11374884 303.09336853 21.63546753 C303.08954767 25.64351047 303.07972104 29.65151726 303.06866455 33.6595459 C303.05844118 37.74828604 303.05386892 41.83703201 303.04882812 45.92578125 C303.0380984 53.95053928 303.02050507 61.97526098 303 70 C309.93 70 316.86 70 324 70 C323.95359375 67.54304688 323.9071875 65.08609375 323.859375 62.5546875 C323.82813511 60.16180484 323.80387274 57.76894534 323.78027344 55.37597656 C323.76021991 53.71929675 323.73296971 52.06268718 323.69824219 50.40625 C323.64944488 48.01805242 323.62696936 45.63079453 323.609375 43.2421875 C323.58872986 42.50757294 323.56808472 41.77295837 323.54681396 41.01608276 C323.54458974 35.86070394 324.73516172 32.95924252 328 29 C331.71453232 27.14273384 335.95579425 27.41498911 340 28 C342.82424288 30.19022918 344.41508603 31.83017207 346 35 C346.08667255 37.62627133 346.11560135 40.22562483 346.09765625 42.8515625 C346.09553383 44.01261002 346.09553383 44.01261002 346.09336853 45.19711304 C346.08776403 47.67311442 346.07521083 50.14902588 346.0625 52.625 C346.05748558 54.30208203 346.05292257 55.97916547 346.04882812 57.65625 C346.03779315 61.77086806 346.02052554 65.88541878 346 70 C346.65734131 70.05333496 347.31468262 70.10666992 347.99194336 70.16162109 C360.92894853 71.31321282 370.36185677 75.72325641 379.25 85.3125 C385.80077558 93.44637968 389 102.63338338 389 113 C399.23 113 409.46 113 420 113 C420 94.85 420 76.7 420 58 C418.35 57.67 416.7 57.34 415 57 C407.7267456 53.07608626 402.94273595 46.763695 399.859375 39.203125 C397.54104231 30.56206678 397.84006749 20.21043302 401.75 12.10546875 C406.45001467 4.18888153 413.20543432 -1.06847811 422 -4 C432.25558137 -4.72295136 441.29931717 -5.21477345 450 1 C451.60875 2.0828125 451.60875 2.0828125 453.25 3.1875 C461.12196492 11.23837321 463.285886 18.93543551 463.3190918 29.85522461 C463.216828 35.67238507 462.13269604 40.03302799 459 45 C458.649375 45.62132812 458.29875 46.24265625 457.9375 46.8828125 C454.77946507 51.94882687 450.28752416 55.29682754 445 58 C444.01 58 443.02 58 442 58 C442.01110306 58.86364166 442.02220612 59.72728333 442.03364563 60.61709595 C442.13395385 68.76788366 442.21001872 76.91846319 442.25906086 85.06972694 C442.28512208 89.26013203 442.32045533 93.45002586 442.37719727 97.64013672 C442.43164299 101.68614072 442.46144668 105.73165391 442.47438622 109.77799606 C442.48360375 111.31937763 442.50160404 112.86073323 442.52865028 114.40190506 C442.56511117 116.56620947 442.56993877 118.72850283 442.56762695 120.89306641 C442.57873001 122.12328522 442.58983307 123.35350403 442.60127258 124.6210022 C441.7981608 129.13428457 440.19966041 130.76476204 437 134 C434.62609164 135.18695418 433.19755049 135.12075833 430.55029297 135.11352539 C429.62948944 135.11344986 428.70868591 135.11337433 427.75997925 135.11329651 C426.26617233 135.10555458 426.26617233 135.10555458 424.7421875 135.09765625 C423.72399933 135.0962413 422.70581116 135.09482635 421.6567688 135.09336853 C418.39614965 135.087759 415.13559849 135.07520488 411.875 135.0625 C409.66796974 135.05748623 407.46093841 135.05292311 405.25390625 135.04882812 C399.83589006 135.03863622 394.41802138 135.01906262 389 135 C389 141.93 389 148.86 389 156 C392.33480469 155.94199219 395.66960937 155.88398438 399.10546875 155.82421875 C402.33892438 155.78521376 405.57235371 155.75486011 408.8059082 155.7253418 C411.05147044 155.70021277 413.296951 155.66610385 415.54223633 155.62280273 C418.77185218 155.56208224 422.00038584 155.53377369 425.23046875 155.51171875 C426.23272995 155.48591232 427.23499115 155.4601059 428.2676239 155.43351746 C435.26384413 155.43070844 435.26384413 155.43070844 439.1105957 158.40551758 C442.12058663 162.53876136 442.70973541 165.93462812 442 171 C439.82491422 174.57335521 437.83144408 176.42634978 434 178 C431.81060791 178.24050903 431.81060791 178.24050903 429.41503906 178.22705078 C428.51440735 178.22689972 427.61377563 178.22674866 426.68585205 178.22659302 C425.24033966 178.21110916 425.24033966 178.21110916 423.765625 178.1953125 C422.77246277 178.1924826 421.77930054 178.18965271 420.75604248 178.18673706 C417.58723856 178.17555143 414.41871835 178.15044962 411.25 178.125 C409.1002645 178.11496812 406.95052457 178.10584263 404.80078125 178.09765625 C399.5336572 178.07731986 394.2671458 178.03816772 389 178 C389 184.6 389 191.2 389 198 C391.39636719 197.96519531 393.79273438 197.93039063 396.26171875 197.89453125 C398.59170339 197.87111139 400.92167473 197.85290871 403.25170898 197.83520508 C404.86667789 197.82015124 406.48160613 197.79970352 408.09643555 197.77368164 C410.42246555 197.73714714 412.74795341 197.72023985 415.07421875 197.70703125 C416.15107185 197.68380547 416.15107185 197.68380547 417.24967957 197.66011047 C422.64333914 197.65831404 425.48848056 198.998098 429.61076355 202.28392029 C431.50308074 204.62143967 431.39258149 206.13952737 431.41992188 209.12646484 C431.43583374 210.17119965 431.45174561 211.21593445 431.46813965 212.29232788 C431.46844177 213.98453964 431.46844177 213.98453964 431.46875 215.7109375 C431.47636353 216.87122467 431.48397705 218.03151184 431.49182129 219.22695923 C431.50263449 221.68318529 431.50547048 224.13945737 431.50097656 226.59570312 C431.50000552 230.35364623 431.54159076 234.10954002 431.5859375 237.8671875 C431.59114526 240.2525999 431.59383268 242.63801941 431.59375 245.0234375 C431.61014526 246.14753021 431.62654053 247.27162292 431.64343262 248.42977905 C431.57427145 256.24147344 431.57427145 256.24147344 428.58789062 260.18603516 C424.43354339 263.09799741 421.0335943 263.70528289 416 263 C412.45167626 260.84015077 410.44139959 258.87201068 409 255 C408.8316496 252.28105045 408.76705425 249.66896045 408.8046875 246.953125 C408.80893234 245.79632233 408.80893234 245.79632233 408.81326294 244.6161499 C408.82442987 242.16060668 408.84952771 239.7054324 408.875 237.25 C408.88503432 235.58203653 408.89415939 233.91406732 408.90234375 232.24609375 C408.92265363 228.16380709 408.96180786 224.082315 409 220 C402.4 220 395.8 220 389 220 C389 241.12 389 262.24 389 284 C393.85074219 283.95359375 398.70148438 283.9071875 403.69921875 283.859375 C406.77541208 283.83893264 409.85152145 283.81967674 412.92773438 283.8046875 C417.80868967 283.7807916 422.68934433 283.7525472 427.57006836 283.69824219 C431.50582482 283.65472618 435.44125882 283.63085082 439.37723732 283.62049103 C440.87755216 283.61310989 442.37784969 283.59869597 443.87802696 283.57707977 C445.98246531 283.54796738 448.08557767 283.54404698 450.19018555 283.54589844 C451.38709518 283.53701599 452.58400482 283.52813354 453.81718445 283.51898193 C457.63497552 284.09596368 459.27166717 285.32308046 462 288 C463.23680696 290.47361392 463.14687766 292.15403776 463.17700195 294.92114258 C463.18983719 295.94593216 463.20267242 296.97072174 463.21589661 298.02656555 C463.22697701 299.69370857 463.22697701 299.69370857 463.23828125 301.39453125 C463.246353 302.53403732 463.25442474 303.6735434 463.26274109 304.84757996 C463.27658987 307.26271031 463.28730846 309.6778603 463.29516602 312.09301758 C463.31238115 315.78699824 463.35626194 319.48008471 463.40039062 323.17382812 C463.41051706 325.51822257 463.41903331 327.86262464 463.42578125 330.20703125 C463.44328934 331.31238724 463.46079742 332.41774323 463.47883606 333.55659485 C463.45711082 341.23689665 463.45711082 341.23689665 461.09838867 345.17456055 C457.50343204 348.30190095 455.24068229 348.12221528 450.53076172 348.11352539 C449.53545944 348.11374443 449.53545944 348.11374443 448.52005005 348.1139679 C446.32322947 348.11327031 444.1264933 348.10548514 441.9296875 348.09765625 C440.40796963 348.09579152 438.88625116 348.09436788 437.36453247 348.09336853 C433.35648953 348.08954767 429.34848274 348.07972104 425.3404541 348.06866455 C421.25171396 348.05844118 417.16296799 348.05386892 413.07421875 348.04882812 C405.04946072 348.0380984 397.02473902 348.02050507 389 348 C389 354.93 389 361.86 389 369 C391.45695312 368.95359375 393.91390625 368.9071875 396.4453125 368.859375 C398.83819516 368.82813511 401.23105466 368.80387274 403.62402344 368.78027344 C405.28070325 368.76021991 406.93731282 368.73296971 408.59375 368.69824219 C410.98194758 368.64944488 413.36920547 368.62696936 415.7578125 368.609375 C416.85973434 368.57840729 416.85973434 368.57840729 417.98391724 368.54681396 C423.13929606 368.54458974 426.04075748 369.73516172 430 373 C431.85726616 376.71453232 431.58501089 380.95579425 431 385 C428.80977082 387.82424288 427.16982793 389.41508603 424 391 C421.37372867 391.08667255 418.77437517 391.11560135 416.1484375 391.09765625 C415.37440582 391.0962413 414.60037415 391.09482635 413.80288696 391.09336853 C411.32688558 391.08776403 408.85097412 391.07521083 406.375 391.0625 C404.69791797 391.05748558 403.02083453 391.05292257 401.34375 391.04882812 C397.22913194 391.03779315 393.11458122 391.02052554 389 391 C388.94666504 391.65734131 388.89333008 392.31468262 388.83837891 392.99194336 C387.68678718 405.92894853 383.27674359 415.36185677 373.6875 424.25 C365.55362032 430.80077558 356.36661662 434 346 434 C346 444.23 346 454.46 346 465 C364.15 465 382.3 465 401 465 C401.33 463.35 401.66 461.7 402 460 C405.92391374 452.7267456 412.236305 447.94273595 419.796875 444.859375 C428.43793322 442.54104231 438.78956698 442.84006749 446.89453125 446.75 C454.81111847 451.45001467 460.06847811 458.20543432 463 467 C463.72295136 477.25558137 464.21477345 486.29931717 458 495 C456.9171875 496.60875 456.9171875 496.60875 455.8125 498.25 C447.76162679 506.12196492 440.06456449 508.285886 429.14477539 508.3190918 C423.32761493 508.216828 418.96697201 507.13269604 414 504 C413.37867188 503.649375 412.75734375 503.29875 412.1171875 502.9375 C407.05117313 499.77946507 403.70317246 495.28752416 401 490 C401 489.01 401 488.02 401 487 C400.13635834 487.01110306 399.27271667 487.02220612 398.38290405 487.03364563 C390.23211634 487.13395385 382.08153681 487.21001872 373.93027306 487.25906086 C369.73986797 487.28512208 365.54997414 487.32045533 361.35986328 487.37719727 C357.31385928 487.43164299 353.26834609 487.46144668 349.22200394 487.47438622 C347.68062237 487.48360375 346.13926677 487.50160404 344.59809494 487.52865028 C342.43379053 487.56511117 340.27149717 487.56993877 338.10693359 487.56762695 C336.87671478 487.57873001 335.64649597 487.58983307 334.3789978 487.60127258 C329.86571543 486.7981608 328.23523796 485.19966041 325 482 C323.81304582 479.62609164 323.87924167 478.19755049 323.88647461 475.55029297 C323.88655014 474.62948944 323.88662567 473.70868591 323.88670349 472.75997925 C323.89186478 471.76410797 323.89702606 470.76823669 323.90234375 469.7421875 C323.90446617 468.21490524 323.90446617 468.21490524 323.90663147 466.6567688 C323.912241 463.39614965 323.92479512 460.13559849 323.9375 456.875 C323.94251377 454.66796974 323.94707689 452.46093841 323.95117188 450.25390625 C323.96136378 444.83589006 323.98093738 439.41802138 324 434 C317.07 434 310.14 434 303 434 C303.05800781 437.33480469 303.11601562 440.66960937 303.17578125 444.10546875 C303.21478624 447.33892438 303.24513989 450.57235371 303.2746582 453.8059082 C303.29978723 456.05147044 303.33389615 458.296951 303.37719727 460.54223633 C303.43791776 463.77185218 303.46622631 467.00038584 303.48828125 470.23046875 C303.51408768 471.23272995 303.5398941 472.23499115 303.56648254 473.2676239 C303.56929156 480.26384413 303.56929156 480.26384413 300.59448242 484.1105957 C296.46123864 487.12058663 293.06537188 487.70973541 288 487 C284.42664479 484.82491422 282.57365022 482.83144408 281 479 C280.75949097 476.81060791 280.75949097 476.81060791 280.77294922 474.41503906 C280.77310028 473.51440735 280.77325134 472.61377563 280.77340698 471.68585205 C280.78889084 470.24033966 280.78889084 470.24033966 280.8046875 468.765625 C280.8075174 467.77246277 280.81034729 466.77930054 280.81326294 465.75604248 C280.82444857 462.58723856 280.84955038 459.41871835 280.875 456.25 C280.88503188 454.1002645 280.89415737 451.95052457 280.90234375 449.80078125 C280.92268014 444.5336572 280.96183228 439.2671458 281 434 C274.4 434 267.8 434 261 434 C261.03480469 436.39636719 261.06960938 438.79273438 261.10546875 441.26171875 C261.12888861 443.59170339 261.14709129 445.92167473 261.16479492 448.25170898 C261.17984876 449.86667789 261.20029648 451.48160613 261.22631836 453.09643555 C261.26285286 455.42246555 261.27976015 457.74795341 261.29296875 460.07421875 C261.30845261 460.79212082 261.32393646 461.51002289 261.33988953 462.24967957 C261.34168596 467.64333914 260.001902 470.48848056 256.71607971 474.61076355 C254.37856033 476.50308074 252.86047263 476.39258149 249.87353516 476.41992188 C248.82880035 476.43583374 247.78406555 476.45174561 246.70767212 476.46813965 C245.01546036 476.46844177 245.01546036 476.46844177 243.2890625 476.46875 C242.12877533 476.47636353 240.96848816 476.48397705 239.77304077 476.49182129 C237.31681471 476.50263449 234.86054263 476.50547048 232.40429688 476.50097656 C228.64635377 476.50000552 224.89045998 476.54159076 221.1328125 476.5859375 C218.7474001 476.59114526 216.36198059 476.59383268 213.9765625 476.59375 C212.29042343 476.6183429 212.29042343 476.6183429 210.57022095 476.64343262 C202.75852656 476.57427145 202.75852656 476.57427145 198.81396484 473.58789062 C195.90200259 469.43354339 195.29471711 466.0335943 196 461 C198.15984923 457.45167626 200.12798932 455.44139959 204 454 C206.71894955 453.8316496 209.33103955 453.76705425 212.046875 453.8046875 C213.20367767 453.80893234 213.20367767 453.80893234 214.3838501 453.81326294 C216.83939332 453.82442987 219.2945676 453.84952771 221.75 453.875 C223.41796347 453.88503432 225.08593268 453.89415939 226.75390625 453.90234375 C230.83619291 453.92265363 234.917685 453.96180786 239 454 C239 447.4 239 440.8 239 434 C217.88 434 196.76 434 175 434 C175.04640625 438.85074219 175.0928125 443.70148438 175.140625 448.69921875 C175.16106736 451.77541208 175.18032326 454.85152145 175.1953125 457.92773438 C175.2192084 462.80868967 175.2474528 467.68934433 175.30175781 472.57006836 C175.34527382 476.50582482 175.36914918 480.44125882 175.37950897 484.37723732 C175.38689011 485.87755216 175.40130403 487.37784969 175.42292023 488.87802696 C175.45203262 490.98246531 175.45595302 493.08557767 175.45410156 495.19018555 C175.46298401 496.38709518 175.47186646 497.58400482 175.48101807 498.81718445 C174.90403632 502.63497552 173.67691954 504.27166717 171 507 C168.52638608 508.23680696 166.84596224 508.14687766 164.07885742 508.17700195 C162.54167305 508.19625481 162.54167305 508.19625481 160.97343445 508.21589661 C159.30629143 508.22697701 159.30629143 508.22697701 157.60546875 508.23828125 C156.46596268 508.246353 155.3264566 508.25442474 154.15242004 508.26274109 C151.73728969 508.27658987 149.3221397 508.28730846 146.90698242 508.29516602 C143.21300176 508.31238115 139.51991529 508.35626194 135.82617188 508.40039062 C133.48177743 508.41051706 131.13737536 508.41903331 128.79296875 508.42578125 C127.68761276 508.44328934 126.58225677 508.46079742 125.44340515 508.47883606 C117.76310335 508.45711082 117.76310335 508.45711082 113.82543945 506.09838867 C110.69809905 502.50343204 110.87778472 500.24068229 110.88647461 495.53076172 C110.88632858 494.86722687 110.88618256 494.20369202 110.8860321 493.52005005 C110.88672969 491.32322947 110.89451486 489.1264933 110.90234375 486.9296875 C110.90420848 485.40796963 110.90563212 483.88625116 110.90663147 482.36453247 C110.91045233 478.35648953 110.92027896 474.34848274 110.93133545 470.3404541 C110.94155882 466.25171396 110.94613108 462.16296799 110.95117188 458.07421875 C110.9619016 450.04946072 110.97949493 442.02473902 111 434 C104.07 434 97.14 434 90 434 C90.04640625 436.45695312 90.0928125 438.91390625 90.140625 441.4453125 C90.17186489 443.83819516 90.19612726 446.23105466 90.21972656 448.62402344 C90.23978009 450.28070325 90.26703029 451.93731282 90.30175781 453.59375 C90.35055512 455.98194758 90.37303064 458.36920547 90.390625 460.7578125 C90.41127014 461.49242706 90.43191528 462.22704163 90.45318604 462.98391724 C90.45541026 468.13929606 89.26483828 471.04075748 86 475 C82.28546768 476.85726616 78.04420575 476.58501089 74 476 C71.17575712 473.80977082 69.58491397 472.16982793 68 469 C67.91332745 466.37372867 67.88439865 463.77437517 67.90234375 461.1484375 C67.9037587 460.37440582 67.90517365 459.60037415 67.90663147 458.80288696 C67.91223597 456.32688558 67.92478917 453.85097412 67.9375 451.375 C67.94251442 449.69791797 67.94707743 448.02083453 67.95117188 446.34375 C67.96220685 442.22913194 67.97947446 438.11458122 68 434 C67.01398804 433.91999756 67.01398804 433.91999756 66.00805664 433.83837891 C53.07105147 432.68678718 43.63814323 428.27674359 34.75 418.6875 C28.19922442 410.55362032 25 401.36661662 25 391 C14.77 391 4.54 391 -6 391 C-6 409.15 -6 427.3 -6 446 C-4.35 446.33 -2.7 446.66 -1 447 C6.2732544 450.92391374 11.05726405 457.236305 14.140625 464.796875 C16.45895769 473.43793322 16.15993251 483.78956698 12.25 491.89453125 C7.54998533 499.81111847 0.79456568 505.06847811 -8 508 C-18.25558137 508.72295136 -27.29931717 509.21477345 -36 503 C-37.60875 501.9171875 -37.60875 501.9171875 -39.25 500.8125 C-47.12196492 492.76162679 -49.285886 485.06456449 -49.3190918 474.14477539 C-49.216828 468.32761493 -48.13269604 463.96697201 -45 459 C-44.4740625 458.06800781 -44.4740625 458.06800781 -43.9375 457.1171875 C-40.77946507 452.05117313 -36.28752416 448.70317246 -31 446 C-30.01 446 -29.02 446 -28 446 C-28.01110306 445.13635834 -28.02220612 444.27271667 -28.03364563 443.38290405 C-28.13395385 435.23211634 -28.21001872 427.08153681 -28.25906086 418.93027306 C-28.28512208 414.73986797 -28.32045533 410.54997414 -28.37719727 406.35986328 C-28.43164299 402.31385928 -28.46144668 398.26834609 -28.47438622 394.22200394 C-28.48360375 392.68062237 -28.50160404 391.13926677 -28.52865028 389.59809494 C-28.56511117 387.43379053 -28.56993877 385.27149717 -28.56762695 383.10693359 C-28.57873001 381.87671478 -28.58983307 380.64649597 -28.60127258 379.3789978 C-27.7981608 374.86571543 -26.19966041 373.23523796 -23 370 C-20.62609164 368.81304582 -19.19755049 368.87924167 -16.55029297 368.88647461 C-15.16908768 368.88658791 -15.16908768 368.88658791 -13.75997925 368.88670349 C-12.26617233 368.89444542 -12.26617233 368.89444542 -10.7421875 368.90234375 C-9.21490524 368.90446617 -9.21490524 368.90446617 -7.6567688 368.90663147 C-4.39614965 368.912241 -1.13559849 368.92479512 2.125 368.9375 C4.33203026 368.94251377 6.53906159 368.94707689 8.74609375 368.95117188 C14.16410994 368.96136378 19.58197862 368.98093738 25 369 C25 362.07 25 355.14 25 348 C21.66519531 348.05800781 18.33039063 348.11601562 14.89453125 348.17578125 C11.66107562 348.21478624 8.42764629 348.24513989 5.1940918 348.2746582 C2.94852956 348.29978723 0.703049 348.33389615 -1.54223633 348.37719727 C-4.77185218 348.43791776 -8.00038584 348.46622631 -11.23046875 348.48828125 C-12.23272995 348.51408768 -13.23499115 348.5398941 -14.2676239 348.56648254 C-21.26384413 348.56929156 -21.26384413 348.56929156 -25.1105957 345.59448242 C-28.12058663 341.46123864 -28.70973541 338.06537188 -28 333 C-25.82491422 329.42664479 -23.83144408 327.57365022 -20 326 C-17.81060791 325.75949097 -17.81060791 325.75949097 -15.41503906 325.77294922 C-14.51440735 325.77310028 -13.61377563 325.77325134 -12.68585205 325.77340698 C-11.72217712 325.78372955 -10.7585022 325.79405212 -9.765625 325.8046875 C-8.27588165 325.80893234 -8.27588165 325.80893234 -6.75604248 325.81326294 C-3.58723856 325.82444857 -0.41871835 325.84955038 2.75 325.875 C4.8997355 325.88503188 7.04947543 325.89415737 9.19921875 325.90234375 C14.4663428 325.92268014 19.7328542 325.96183228 25 326 C25 319.4 25 312.8 25 306 C22.60363281 306.03480469 20.20726563 306.06960938 17.73828125 306.10546875 C15.40829661 306.12888861 13.07832527 306.14709129 10.74829102 306.16479492 C9.13332211 306.17984876 7.51839387 306.20029648 5.90356445 306.22631836 C3.57753445 306.26285286 1.25204659 306.27976015 -1.07421875 306.29296875 C-2.15107185 306.31619453 -2.15107185 306.31619453 -3.24967957 306.33988953 C-8.64333914 306.34168596 -11.48848056 305.001902 -15.61076355 301.71607971 C-17.50308074 299.37856033 -17.39258149 297.86047263 -17.41992188 294.87353516 C-17.43583374 293.82880035 -17.45174561 292.78406555 -17.46813965 291.70767212 C-17.46844177 290.01546036 -17.46844177 290.01546036 -17.46875 288.2890625 C-17.47636353 287.12877533 -17.48397705 285.96848816 -17.49182129 284.77304077 C-17.50263449 282.31681471 -17.50547048 279.86054263 -17.50097656 277.40429688 C-17.50000552 273.64635377 -17.54159076 269.89045998 -17.5859375 266.1328125 C-17.59114526 263.7474001 -17.59383268 261.36198059 -17.59375 258.9765625 C-17.61014526 257.85246979 -17.62654053 256.72837708 -17.64343262 255.57022095 C-17.57427145 247.75852656 -17.57427145 247.75852656 -14.58789062 243.81396484 C-10.45991182 240.92048536 -7.00901714 240.15432178 -2 241 C1.52787301 242.95657197 3.70285021 245.10855063 5 249 C5.08494728 251.65894107 5.11594796 254.29085377 5.09765625 256.94921875 C5.0962413 257.72183548 5.09482635 258.49445221 5.09336853 259.29048157 C5.08777466 261.75619389 5.07522333 264.22181515 5.0625 266.6875 C5.05748421 268.36002473 5.05292144 270.03255088 5.04882812 271.70507812 C5.03865847 275.80344866 5.01908194 279.90162248 5 284 C11.6 284 18.2 284 25 284 C25 262.88 25 241.76 25 220 C17.72388672 220.06960937 17.72388672 220.06960937 10.30078125 220.140625 C7.22458792 220.16106736 4.14847855 220.18032326 1.07226562 220.1953125 C-3.80868967 220.2192084 -8.68934433 220.2474528 -13.57006836 220.30175781 C-17.50582482 220.34527382 -21.44125882 220.36914918 -25.37723732 220.37950897 C-26.87755216 220.38689011 -28.37784969 220.40130403 -29.87802696 220.42292023 C-31.98246531 220.45203262 -34.08557767 220.45595302 -36.19018555 220.45410156 C-37.38709518 220.46298401 -38.58400482 220.47186646 -39.81718445 220.48101807 C-43.63497552 219.90403632 -45.27166717 218.67691954 -48 216 C-49.23680696 213.52638608 -49.14687766 211.84596224 -49.17700195 209.07885742 C-49.18983719 208.05406784 -49.20267242 207.02927826 -49.21589661 205.97343445 C-49.22328354 204.86200577 -49.23067047 203.75057709 -49.23828125 202.60546875 C-49.246353 201.46596268 -49.25442474 200.3264566 -49.26274109 199.15242004 C-49.27658987 196.73728969 -49.28730846 194.3221397 -49.29516602 191.90698242 C-49.31238115 188.21300176 -49.35626194 184.51991529 -49.40039062 180.82617188 C-49.41051706 178.48177743 -49.41903331 176.13737536 -49.42578125 173.79296875 C-49.44328934 172.68761276 -49.46079742 171.58225677 -49.47883606 170.44340515 C-49.45711082 162.76310335 -49.45711082 162.76310335 -47.09838867 158.82543945 C-43.50343204 155.69809905 -41.24068229 155.87778472 -36.53076172 155.88647461 C-35.53545944 155.88625557 -35.53545944 155.88625557 -34.52005005 155.8860321 C-32.32322947 155.88672969 -30.1264933 155.89451486 -27.9296875 155.90234375 C-26.40796963 155.90420848 -24.88625116 155.90563212 -23.36453247 155.90663147 C-19.35648953 155.91045233 -15.34848274 155.92027896 -11.3404541 155.93133545 C-7.25171396 155.94155882 -3.16296799 155.94613108 0.92578125 155.95117188 C8.95053928 155.9619016 16.97526098 155.97949493 25 156 C25 149.07 25 142.14 25 135 C21.31457031 135.06960937 21.31457031 135.06960937 17.5546875 135.140625 C15.16180484 135.17186489 12.76894534 135.19612726 10.37597656 135.21972656 C8.71929675 135.23978009 7.06268718 135.26703029 5.40625 135.30175781 C3.01805242 135.35055512 0.63079453 135.37303064 -1.7578125 135.390625 C-2.85973434 135.42159271 -2.85973434 135.42159271 -3.98391724 135.45318604 C-9.13929606 135.45541026 -12.04075748 134.26483828 -16 131 C-17.85726616 127.28546768 -17.58501089 123.04420575 -17 119 C-14.80977082 116.17575712 -13.16982793 114.58491397 -10 113 C-7.37372867 112.91332745 -4.77437517 112.88439865 -2.1484375 112.90234375 C-1.37440582 112.9037587 -0.60037415 112.90517365 0.19711304 112.90663147 C2.67311442 112.91223597 5.14902588 112.92478917 7.625 112.9375 C9.30208203 112.94251442 10.97916547 112.94707743 12.65625 112.95117188 C16.77086806 112.96220685 20.88541878 112.97947446 25 113 C25.05333496 112.34265869 25.10666992 111.68531738 25.16162109 111.00805664 C26.31321282 98.07105147 30.72325641 88.63814323 40.3125 79.75 C48.44637968 73.19922442 57.63338338 70 68 70 C68 59.77 68 49.54 68 39 C49.85 39 31.7 39 13 39 C12.67 40.65 12.34 42.3 12 44 C8.07608626 51.2732544 1.763695 56.05726405 -5.796875 59.140625 C-14.43793322 61.45895769 -24.78956698 61.15993251 -32.89453125 57.25 C-40.81111847 52.54998533 -46.06847811 45.79456568 -49 37 C-49.72295136 26.74441863 -50.21477345 17.70068283 -44 9 C-43.278125 7.9275 -42.55625 6.855 -41.8125 5.75 C-30.88465237 -4.93500658 -13.35535028 -8.42329146 0 0 Z M-25 21 C-27.32826375 24.21522137 -27.39711181 27.10830425 -27 31 C-25.72311154 33.80915461 -24.68900183 35.50106764 -22.1875 37.3125 C-18.13938379 38.58476509 -15.12012891 38.50914951 -11.25 36.75 C-8.83119625 34.8687082 -7.91208095 33.90207573 -7 31 C-6.50723463 26.36800553 -7.12974158 23.69033225 -10 20 C-14.98424831 16.39071674 -20.34986731 17.38323013 -25 21 Z M423 21 C420.67173625 24.21522137 420.60288819 27.10830425 421 31 C422.27688846 33.80915461 423.31099817 35.50106764 425.8125 37.3125 C429.86061621 38.58476509 432.87987109 38.50914951 436.75 36.75 C439.16880375 34.8687082 440.08791905 33.90207573 441 31 C441.49276537 26.36800553 440.87025842 23.69033225 438 20 C433.01575169 16.39071674 427.65013269 17.38323013 423 21 Z M51.75 100.5 C46.38031364 108.17098051 46.85287149 116.18572205 46.86628723 125.25924683 C46.86402167 126.38593816 46.86175612 127.51262949 46.85942191 128.67346299 C46.853097 132.44491677 46.85391031 136.21633447 46.85473633 139.98779297 C46.85228688 142.69340145 46.84836944 145.3990074 46.84455872 148.10461426 C46.8362648 154.68870321 46.83350446 161.27278321 46.83294634 167.85687695 C46.83247064 173.20989522 46.83041318 178.56291055 46.82724571 183.91592789 C46.81844302 199.10213922 46.8138258 214.28834349 46.81457619 229.47455738 C46.81461614 230.29264583 46.8146561 231.11073428 46.81469727 231.95361328 C46.81473815 232.77270365 46.81477903 233.59179403 46.81482115 234.43570532 C46.81522764 247.71143773 46.80565635 260.98714179 46.7915589 274.26286601 C46.77718852 287.90351278 46.77028906 301.54414573 46.77115268 315.18480027 C46.77148439 322.83931624 46.76874848 330.49380247 46.75797462 338.14831161 C46.74886098 344.6648684 46.74670151 351.18138196 46.75348405 357.69794236 C46.75674475 361.0205923 46.75573122 364.34309178 46.7481308 367.66574478 C46.74041456 371.27283244 46.74505348 374.87970291 46.75276184 378.48678589 C46.74761828 379.52969721 46.74247471 380.57260853 46.73717529 381.64712322 C46.77811588 390.32719636 47.34590625 398.05354197 53 405 C61.0200476 412.21804284 68.86883839 412.14885552 79.22164917 412.13371277 C80.35635875 412.13597833 81.49106833 412.13824388 82.66016304 412.14057809 C86.46469585 412.1469113 90.26919297 412.14608916 94.07373047 412.14526367 C96.80051814 412.14771217 99.5273033 412.15162984 102.25408936 412.15544128 C108.89345946 412.16374032 115.53282068 412.16649578 122.17219554 412.16705366 C127.5695827 412.16752914 132.96696694 412.16958546 138.36435318 412.17275429 C153.67221337 412.1815585 168.98006655 412.18617398 184.28792928 412.18542381 C185.11281985 412.18538386 185.93771041 412.1853439 186.78759766 412.18530273 C188.02644678 412.18524141 188.02644678 412.18524141 189.29032315 412.18517885 C202.67672556 412.18477236 216.06309984 412.19434343 229.44949411 412.2084411 C243.19971558 412.22280751 256.94992334 412.22971115 270.70015252 412.22884732 C278.41780862 412.22851547 286.13543523 412.23125771 293.85308456 412.24202538 C300.42349284 412.25113381 306.99385826 412.25330277 313.56427012 412.24651595 C316.91514254 412.24325258 320.26586566 412.2442759 323.61674118 412.2518692 C327.25269555 412.25957498 330.88843389 412.25495346 334.52438354 412.24723816 C336.10581581 412.2549535 336.10581581 412.2549535 337.7191962 412.26282471 C346.17331703 412.22317726 353.15272112 411.44669911 360 406 C367.44591982 397.72675576 367.14943013 389.37094675 367.13371277 378.74075317 C367.13597833 377.61406184 367.13824388 376.48737051 367.14057809 375.32653701 C367.146903 371.55508323 367.14608969 367.78366553 367.14526367 364.01220703 C367.14771312 361.30659855 367.15163056 358.6009926 367.15544128 355.89538574 C367.1637352 349.31129679 367.16649554 342.72721679 367.16705366 336.14312305 C367.16752936 330.79010478 367.16958682 325.43708945 367.17275429 320.08407211 C367.18155698 304.89786078 367.1861742 289.71165651 367.18542381 274.52544262 C367.18538386 273.70735417 367.1853439 272.88926572 367.18530273 272.04638672 C367.18526185 271.22729635 367.18522097 270.40820597 367.18517885 269.56429468 C367.18477236 256.28856227 367.19434365 243.01285821 367.2084411 229.73713399 C367.22281148 216.09648722 367.22971094 202.45585427 367.22884732 188.81519973 C367.22851561 181.16068376 367.23125152 173.50619753 367.24202538 165.85168839 C367.25113902 159.3351316 367.25329849 152.81861804 367.24651595 146.30205764 C367.24325525 142.9794077 367.24426878 139.65690822 367.2518692 136.33425522 C367.25958544 132.72716756 367.25494652 129.12029709 367.24723816 125.51321411 C367.2549535 123.94884713 367.2549535 123.94884713 367.26282471 122.35287678 C367.22188412 113.67280364 366.65409375 105.94645803 361 99 C352.9799524 91.78195716 345.13116161 91.85114448 334.77835083 91.86628723 C333.64364125 91.86402167 332.50893167 91.86175612 331.33983696 91.85942191 C327.53530415 91.8530887 323.73080703 91.85391084 319.92626953 91.85473633 C317.19948186 91.85228783 314.4726967 91.84837016 311.74591064 91.84455872 C305.10654054 91.83625968 298.46717932 91.83350422 291.82780446 91.83294634 C286.4304173 91.83247086 281.03303306 91.83041454 275.63564682 91.82724571 C260.32778663 91.8184415 245.01993345 91.81382602 229.71207072 91.81457619 C228.88718015 91.81461614 228.06228959 91.8146561 227.21240234 91.81469727 C225.97355322 91.81475859 225.97355322 91.81475859 224.70967685 91.81482115 C211.32327444 91.81522764 197.93690016 91.80565657 184.55050589 91.7915589 C170.80028442 91.77719249 157.05007666 91.77028885 143.29984748 91.77115268 C135.58219138 91.77148453 127.86456477 91.76874229 120.14691544 91.75797462 C113.57650716 91.74886619 107.00614174 91.74669723 100.43572988 91.75348405 C97.08485746 91.75674742 93.73413434 91.7557241 90.38325882 91.7481308 C86.74730445 91.74042502 83.11156611 91.74504654 79.47561646 91.75276184 C78.42132828 91.74761828 77.3670401 91.74247471 76.2808038 91.73717529 C66.60530621 91.78255065 58.56707699 92.92547001 51.75 100.5 Z M-25 469 C-27.32826375 472.21522137 -27.39711181 475.10830425 -27 479 C-25.72311154 481.80915461 -24.68900183 483.50106764 -22.1875 485.3125 C-18.13938379 486.58476509 -15.12012891 486.50914951 -11.25 484.75 C-8.83119625 482.8687082 -7.91208095 481.90207573 -7 479 C-6.50723463 474.36800553 -7.12974158 471.69033225 -10 468 C-14.98424831 464.39071674 -20.34986731 465.38323013 -25 469 Z M423 469 C420.67173625 472.21522137 420.60288819 475.10830425 421 479 C422.27688846 481.80915461 423.31099817 483.50106764 425.8125 485.3125 C429.86061621 486.58476509 432.87987109 486.50914951 436.75 484.75 C439.16880375 482.8687082 440.08791905 481.90207573 441 479 C441.49276537 474.36800553 440.87025842 471.69033225 438 468 C433.01575169 464.39071674 427.65013269 465.38323013 423 469 Z " fill="#424242" transform="translate(49,4)"/>
<path d="M0 0 C0.72434777 -0.00367669 1.44869555 -0.00735338 2.19499326 -0.01114148 C4.63466159 -0.02219975 7.07428737 -0.02602578 9.51397705 -0.02983093 C11.25821061 -0.03609398 13.00244284 -0.04274064 14.74667358 -0.04974365 C19.49473582 -0.06716848 24.24278798 -0.07770953 28.99087429 -0.08594918 C31.95619063 -0.09109637 34.92150381 -0.09717224 37.88681793 -0.10346031 C47.16128875 -0.12251684 56.43575158 -0.13674679 65.71023822 -0.14507228 C76.42210743 -0.15484632 87.13377009 -0.18116826 97.84556651 -0.22157317 C106.12079316 -0.25171791 114.39596055 -0.26653961 122.67124104 -0.26985329 C127.61564491 -0.27220573 132.55982823 -0.2811912 137.50417328 -0.30631447 C142.15648358 -0.32957137 146.80842776 -0.33383804 151.4607811 -0.32355309 C153.16758567 -0.32305703 154.87440811 -0.32939809 156.58115768 -0.34310913 C158.91343106 -0.36079563 161.2443859 -0.35373898 163.57666016 -0.34057617 C164.88116497 -0.34296453 166.18566978 -0.34535288 167.52970505 -0.34781361 C171.67544556 0.23639248 173.83581234 1.49394336 177.04229736 4.14717102 C178.3703764 7.40096465 178.9183224 10.22862927 179.38604736 13.69404602 C180.69513813 22.60593315 183.73088334 29.8411984 190.91729736 35.58467102 C196.80092877 39.52559394 202.2455972 41.08182583 209.22979736 42.02217102 C215.52735851 42.96044402 215.52735851 42.96044402 218.22979736 45.64717102 C221.19690697 49.739736 221.17284968 52.03778228 221.18946838 57.10487366 C221.19314507 57.82922143 221.19682176 58.55356921 221.20060986 59.29986691 C221.21166813 61.73953525 221.21549416 64.17916103 221.21929932 66.61885071 C221.22556237 68.36308427 221.23220903 70.10731649 221.23921204 71.85154724 C221.25663686 76.59960948 221.26717791 81.34766164 221.27541757 86.09574795 C221.28056476 89.06106428 221.28664063 92.02637747 221.2929287 94.99169159 C221.31198522 104.26616241 221.32621517 113.54062524 221.33454067 122.81511188 C221.3443147 133.52698109 221.37063664 144.23864375 221.41104156 154.95044017 C221.44118629 163.22566682 221.45600799 171.50083421 221.45932168 179.7761147 C221.46167411 184.72051857 221.47065958 189.66470189 221.49578285 194.60904694 C221.51903975 199.26135724 221.52330642 203.91330142 221.51302147 208.56565475 C221.51252541 210.27245933 221.51886647 211.97928177 221.53257751 213.68603134 C221.55026401 216.01830471 221.54320736 218.34925956 221.53004456 220.68153381 C221.53243291 221.98603863 221.53482126 223.29054344 221.53728199 224.6345787 C220.9530759 228.78031922 219.69552502 230.940686 217.04229736 234.14717102 C213.78850374 235.47525005 210.96083911 236.02319606 207.49542236 236.49092102 C198.58353523 237.80001179 191.34826999 240.835757 185.60479736 248.02217102 C181.66387444 253.90580242 180.10764255 259.35047085 179.16729736 266.33467102 C178.22902436 272.63223217 178.22902436 272.63223217 175.54229736 275.33467102 C171.44973239 278.30178063 169.1516861 278.27772333 164.08459473 278.29434204 C163.36024695 278.29801873 162.63589918 278.30169542 161.88960147 278.30548352 C159.44993313 278.31654179 157.01030735 278.32036782 154.57061768 278.32417297 C152.82638411 278.33043603 151.08215189 278.33708268 149.33792114 278.34408569 C144.5898589 278.36151052 139.84180674 278.37205157 135.09372044 278.38029122 C132.1284041 278.38543842 129.16309091 278.39151429 126.19777679 278.39780235 C116.92330598 278.41685888 107.64884315 278.43108883 98.37435651 278.43941432 C87.66248729 278.44918836 76.95082463 278.4755103 66.23902822 278.51591522 C57.96380157 278.54605995 49.68863418 278.56088165 41.41335368 278.56419533 C36.46894982 278.56654777 31.5247665 278.57553324 26.58042145 278.60065651 C21.92811114 278.62391341 17.27616696 278.62818008 12.62381363 278.61789513 C10.91700906 278.61739907 9.21018661 278.62374013 7.50343704 278.63745117 C5.17116367 278.65513767 2.84020883 278.64808102 0.50793457 278.63491821 C-0.79657024 278.63730657 -2.10107506 278.63969492 -3.44511032 278.64215565 C-7.59085083 278.05794956 -9.75121762 276.80039868 -12.95770264 274.14717102 C-14.28578167 270.89337739 -14.83372768 268.06571277 -15.30145264 264.60029602 C-16.6105434 255.68840889 -19.64628861 248.45314364 -26.83270264 242.70967102 C-32.71633404 238.7687481 -38.16100247 237.21251621 -45.14520264 236.27217102 C-51.44276378 235.33389802 -51.44276378 235.33389802 -54.14520264 232.64717102 C-57.11231225 228.55460604 -57.08825495 226.25655976 -57.10487366 221.18946838 C-57.10855035 220.46512061 -57.11222703 219.74077283 -57.11601514 218.99447513 C-57.12707341 216.55480679 -57.13089944 214.11518101 -57.13470459 211.67549133 C-57.14096764 209.93125777 -57.1476143 208.18702555 -57.15461731 206.4427948 C-57.17204213 201.69473256 -57.18258319 196.9466804 -57.19082284 192.19859409 C-57.19597003 189.23327776 -57.2020459 186.26796457 -57.20833397 183.30265045 C-57.22739049 174.02817964 -57.24162044 164.7537168 -57.24994594 155.47923017 C-57.25971997 144.76736095 -57.28604192 134.05569829 -57.32644683 123.34390187 C-57.35659156 115.06867523 -57.37141327 106.79350784 -57.37472695 98.51822734 C-57.37707939 93.57382347 -57.38606486 88.62964016 -57.41118813 83.6852951 C-57.43444502 79.0329848 -57.4387117 74.38104062 -57.42842674 69.72868729 C-57.42793068 68.02188271 -57.43427174 66.31506027 -57.44798279 64.6083107 C-57.46566928 62.27603733 -57.45861264 59.94508248 -57.44544983 57.61280823 C-57.44783818 56.30830341 -57.45022654 55.0037986 -57.45268726 53.65976334 C-56.86848117 49.51402282 -55.61093029 47.35365604 -52.95770264 44.14717102 C-49.70390901 42.81909199 -46.87624438 42.27114598 -43.41082764 41.80342102 C-34.4989405 40.49433026 -27.26367526 37.45858504 -21.52020264 30.27217102 C-17.57927972 24.38853962 -16.02304782 18.94387119 -15.08270264 11.95967102 C-14.14442964 5.66210988 -14.14442964 5.66210988 -11.45770264 2.95967102 C-7.36513766 -0.00743859 -5.06709138 0.01661871 0 0 Z M7.04229736 22.14717102 C6.76709763 22.83641663 6.49189789 23.52566223 6.20835876 24.23579407 C5.84764786 25.13854065 5.48693695 26.04128723 5.11529541 26.97138977 C4.75759567 27.86688538 4.39989594 28.76238098 4.03135681 29.68501282 C-1.25982046 42.85683535 -9.06816324 52.67658783 -21.95770264 59.14717102 C-25.15299794 60.3758426 -28.33942564 61.45025109 -31.62176514 62.42060852 C-33.89446733 62.92887308 -33.89446733 62.92887308 -34.95770264 64.14717102 C-35.05433236 66.08345402 -35.07957408 68.02331365 -35.07795715 69.96200562 C-35.07933182 71.22550339 -35.08070648 72.48900116 -35.0821228 73.79078674 C-35.07858319 75.20393395 -35.07494837 76.61708092 -35.07122803 78.03022766 C-35.07094616 79.50818886 -35.07110387 80.98615021 -35.07167053 82.46411133 C-35.07195854 86.4887293 -35.06606134 90.51331774 -35.05909657 94.53792882 C-35.05286352 98.73933467 -35.05225928 102.94074112 -35.05107117 107.14215088 C-35.04795771 115.10363359 -35.03974412 123.06510264 -35.02972168 131.02657932 C-35.01856099 140.08809691 -35.0130502 149.14961514 -35.00802624 158.21113789 C-34.99756152 176.85649003 -34.9799618 195.50182943 -34.95770264 214.14717102 C-33.92383423 214.55997063 -33.92383423 214.55997063 -32.86907959 214.98110962 C-31.96633301 215.34182053 -31.06358643 215.70253143 -30.13348389 216.07417297 C-29.23798828 216.43187271 -28.34249268 216.78957245 -27.41986084 217.15811157 C-14.24803831 222.44928884 -4.42828583 230.25763162 2.04229736 243.14717102 C3.27096895 246.34246633 4.34537743 249.52889403 5.31573486 252.81123352 C5.82399942 255.08393571 5.82399942 255.08393571 7.04229736 256.14717102 C8.97858037 256.24380075 10.91843999 256.26904246 12.85713196 256.26742554 C14.12062973 256.2688002 15.3841275 256.27017487 16.68591309 256.27159119 C18.09906029 256.26805157 19.51220726 256.26441676 20.925354 256.26069641 C22.40331521 256.26041455 23.88127655 256.26057226 25.35923767 256.26113892 C29.38385565 256.26142692 33.40844408 256.25552972 37.43305516 256.24856496 C41.63446101 256.24233191 45.83586746 256.24172766 50.03727722 256.24053955 C57.99875993 256.23742609 65.96022898 256.22921251 73.92170566 256.21919006 C82.98322325 256.20802938 92.04474148 256.20251859 101.10626423 256.19749463 C119.75161637 256.1870299 138.39695577 256.16943018 157.04229736 256.14717102 C157.45509697 255.11330261 157.45509697 255.11330261 157.87623596 254.05854797 C158.23694687 253.15580139 158.59765778 252.25305481 158.96929932 251.32295227 C159.32699905 250.42745667 159.68469879 249.53196106 160.05323792 248.60932922 C165.34441519 235.4375067 173.15275797 225.61775422 186.04229736 219.14717102 C189.23759267 217.91849944 192.42402037 216.84409095 195.70635986 215.87373352 C197.97906206 215.36546896 197.97906206 215.36546896 199.04229736 214.14717102 C199.13892709 212.21088802 199.1641688 210.2710284 199.16255188 208.33233643 C199.16392654 207.06883865 199.16530121 205.80534088 199.16671753 204.5035553 C199.16317792 203.09040809 199.1595431 201.67726112 199.15582275 200.26411438 C199.15554089 198.78615318 199.1556986 197.30819183 199.15626526 195.83023071 C199.15655326 191.80561274 199.15065607 187.7810243 199.1436913 183.75641322 C199.13745825 179.55500737 199.136854 175.35360092 199.13566589 171.15219116 C199.13255243 163.19070845 199.12433885 155.2292394 199.1143164 147.26776272 C199.10315572 138.20624513 199.09764493 129.1447269 199.09262097 120.08320415 C199.08215625 101.43785202 199.06455652 82.79251261 199.04229736 64.14717102 C198.35305176 63.87197128 197.66380615 63.59677155 196.95367432 63.31323242 C196.05092773 62.95252151 195.14818115 62.59181061 194.21807861 62.22016907 C193.32258301 61.86246933 192.4270874 61.50476959 191.50445557 61.13623047 C178.33263304 55.8450532 168.51288056 48.03671042 162.04229736 35.14717102 C160.81362578 31.95187572 159.7392173 28.76544801 158.76885986 25.48310852 C158.26059531 23.21040633 158.26059531 23.21040633 157.04229736 22.14717102 C155.10601436 22.05054129 153.16615474 22.02529958 151.22746277 22.0269165 C149.963965 22.02554184 148.70046722 22.02416718 147.39868164 22.02275085 C145.98553443 22.02629047 144.57238746 22.02992528 143.15924072 22.03364563 C141.68127952 22.03392749 140.20331818 22.03376978 138.72535706 22.03320312 C134.70073908 22.03291512 130.67615065 22.03881232 126.65153956 22.04577708 C122.45013372 22.05201014 118.24872726 22.05261438 114.0473175 22.05380249 C106.08583479 22.05691595 98.12436575 22.06512953 90.16288906 22.07515198 C81.10137147 22.08631266 72.03985324 22.09182345 62.97833049 22.09684741 C44.33297836 22.10731214 25.68763896 22.12491186 7.04229736 22.14717102 Z " fill="#BFBFBF" transform="translate(173.95770263671875,116.85282897949219)"/>
<path d="M0 0 C1.0202124 0.49246216 1.0202124 0.49246216 2.06103516 0.99487305 C5.63797213 2.81330825 8.36276692 4.32714107 10.25 7.9375 C10.91367922 11.33885602 10.8569482 14.52755468 10.25 17.9375 C8.05977082 20.76174288 6.41982793 22.35258603 3.25 23.9375 C-3.25088543 24.4699001 -7.081064 23.22948257 -12.75 20.1875 C-33.60505741 9.68254201 -58.55933396 7.75391033 -80.92626953 14.60400391 C-87.23693033 16.71985622 -93.40369663 19.11013889 -99.25 22.3125 C-103.69591567 24.37667513 -105.89580492 24.56384775 -110.75 23.9375 C-114.0170944 22.48545804 -116.01465938 21.38001927 -117.66796875 18.13671875 C-118.86771719 14.39204938 -118.7949327 12.12685924 -117.875 8.25 C-110.70775608 -2.92246846 -91.88371798 -7.09796099 -79.63500977 -9.90844727 C-52.60657318 -15.73615229 -24.72050181 -12.04152921 0 0 Z " fill="#FC6358" transform="translate(309.75,204.0625)"/>
<path d="M0 0 C4.09707447 3.25664894 4.09707447 3.25664894 5.4375 5.9375 C5.94291498 11.24435731 5.95303035 14.66864172 2.4375 18.9375 C-0.39684577 21.14199115 -3.5398409 21.46474177 -7.09375 21.3984375 C-11.52052501 20.57191938 -15.38163253 18.36317409 -19.40625 16.40625 C-30.20604053 11.3806049 -42.76316814 11.54839023 -54.0390625 15.00390625 C-56.51960373 15.92162971 -58.86614617 16.9818892 -61.25 18.125 C-65.70582172 20.17786072 -68.66764655 20.65969149 -73.5625 19.9375 C-76.57361078 18.163563 -78.97442473 16.11365054 -80.5625 12.9375 C-81.03823634 8.18013665 -81.13185527 5.93877997 -78.75 1.75 C-60.46099864 -17.20873944 -19.94171283 -12.44519671 0 0 Z " fill="#FC6358" transform="translate(294.5625,245.0625)"/>
<path d="M0 0 C5.65842186 3.35748683 9.01834623 8.14105438 11.0546875 14.30859375 C12.61328751 20.65089687 11.70385218 25.48921562 8.90234375 31.26171875 C5.99765338 35.84316916 1.60911022 39.38856832 -3.4375 41.375 C-10.81953986 42.2386623 -17.72157656 42.50233474 -23.82421875 37.86328125 C-29.33731269 32.77735197 -32.05274241 28.22257589 -32.8125 20.625 C-32.62001392 14.71454509 -30.68736936 8.96608178 -26.7890625 4.4765625 C-19.38125262 -2.15488303 -9.29654974 -4.24177174 0 0 Z " fill="#FC6358" transform="translate(266.4375,278.625)"/>
<path d="M0 0 C7.26 0 14.52 0 22 0 C22 17.82 22 35.64 22 54 C14.74 54 7.48 54 0 54 C0 36.18 0 18.36 0 0 Z " fill="#B9B9B9" transform="translate(181,437)"/>
<path d="M0 0 C17.82 0 35.64 0 54 0 C54 7.26 54 14.52 54 22 C36.18 22 18.36 22 0 22 C0 14.74 0 7.48 0 0 Z " fill="#B9B9B9" transform="translate(437,309)"/>
<path d="M0 0 C17.82 0 35.64 0 54 0 C54 7.26 54 14.52 54 22 C36.18 22 18.36 22 0 22 C0 14.74 0 7.48 0 0 Z " fill="#B9B9B9" transform="translate(21,181)"/>
<path d="M0 0 C7.26 0 14.52 0 22 0 C22 17.82 22 35.64 22 54 C14.74 54 7.48 54 0 54 C0 36.18 0 18.36 0 0 Z " fill="#B9B9B9" transform="translate(309,21)"/>
<path d="M0 0 C3.02508145 1.73602105 5.41790069 3.83580137 7 7 C7.68128376 13.81283762 7.68128376 13.81283762 5.953125 16.82421875 C2.82207185 20.62752744 1.13366332 21.88663367 -3.75 22.375 C-7.10058068 22.35058775 -8.84894532 21.75601354 -11.4375 19.625 C-14.88331435 16.0951414 -15.39555836 14.0716348 -15.359375 9.10546875 C-14.72418186 5.38406547 -12.66020984 3.59687151 -10 1 C-6.77140153 -0.61429923 -3.49006347 -0.59570657 0 0 Z " fill="#424242" transform="translate(388,373)"/>
<path d="M0 0 C3.02508145 1.73602105 5.41790069 3.83580137 7 7 C7.68128376 13.81283762 7.68128376 13.81283762 5.953125 16.82421875 C2.82207185 20.62752744 1.13366332 21.88663367 -3.75 22.375 C-7.10058068 22.35058775 -8.84894532 21.75601354 -11.4375 19.625 C-14.88331435 16.0951414 -15.39555836 14.0716348 -15.359375 9.10546875 C-14.72418186 5.38406547 -12.66020984 3.59687151 -10 1 C-6.77140153 -0.61429923 -3.49006347 -0.59570657 0 0 Z " fill="#424242" transform="translate(132,373)"/>
<path d="M0 0 C3.02508145 1.73602105 5.41790069 3.83580137 7 7 C7.68128376 13.81283762 7.68128376 13.81283762 5.953125 16.82421875 C2.82207185 20.62752744 1.13366332 21.88663367 -3.75 22.375 C-7.10058068 22.35058775 -8.84894532 21.75601354 -11.4375 19.625 C-14.88331435 16.0951414 -15.39555836 14.0716348 -15.359375 9.10546875 C-14.72418186 5.38406547 -12.66020984 3.59687151 -10 1 C-6.77140153 -0.61429923 -3.49006347 -0.59570657 0 0 Z " fill="#424242" transform="translate(388,117)"/>
<path d="M0 0 C3.02508145 1.73602105 5.41790069 3.83580137 7 7 C7.68128376 13.81283762 7.68128376 13.81283762 5.953125 16.82421875 C2.82207185 20.62752744 1.13366332 21.88663367 -3.75 22.375 C-7.10058068 22.35058775 -8.84894532 21.75601354 -11.4375 19.625 C-14.88331435 16.0951414 -15.39555836 14.0716348 -15.359375 9.10546875 C-14.72418186 5.38406547 -12.66020984 3.59687151 -10 1 C-6.77140153 -0.61429923 -3.49006347 -0.59570657 0 0 Z " fill="#424242" transform="translate(132,117)"/>
</svg>
