<?xml version="1.0" encoding="UTF-8"?>
<svg version="1.1" xmlns="http://www.w3.org/2000/svg" width="512" height="512">
<path d="M0 0 C1.01790619 0.00215515 2.03581238 0.0043103 3.08456421 0.00653076 C17.69363523 0.05620146 32.02575853 0.30709809 46.375 3.3125 C47.34985352 3.51117676 48.32470703 3.70985352 49.32910156 3.91455078 C97.7109774 14.03517194 141.69928269 35.9516877 177.375 70.3125 C178.3640332 71.26068604 178.3640332 71.26068604 179.37304688 72.22802734 C188.86130305 81.37247479 197.6012044 90.66984009 205.375 101.3125 C206.23306152 102.46355017 207.09113451 103.61459177 207.94921875 104.765625 C213.98736829 112.95680614 219.34595521 121.47054105 224.375 130.3125 C224.73948242 130.94430176 225.10396484 131.57610352 225.47949219 132.22705078 C247.08534998 169.97532572 256.85198095 212.74189997 256.6875 255.9375 C256.68534485 256.95540619 256.6831897 257.97331238 256.68096924 259.02206421 C256.63129854 273.63113523 256.38040191 287.96325853 253.375 302.3125 C253.07698486 303.77478027 253.07698486 303.77478027 252.77294922 305.26660156 C242.65232806 353.6484774 220.7358123 397.63678269 186.375 433.3125 C185.74287598 433.97185547 185.11075195 434.63121094 184.45947266 435.31054688 C175.31502521 444.79880305 166.01765991 453.5387044 155.375 461.3125 C154.22394983 462.17056152 153.07290823 463.02863451 151.921875 463.88671875 C143.73224019 469.92427396 135.22961724 475.30707302 126.375 480.3125 C125.66778809 480.7146875 124.96057617 481.116875 124.23193359 481.53125 C101.09654164 494.5566741 75.92537591 503.30551461 49.9375 508.625 C49.21860596 508.77235596 48.49971191 508.91971191 47.7590332 509.0715332 C33.08339502 511.86090125 18.55831162 512.66142619 3.64770508 512.62817383 C0.70811513 512.6250221 -2.2304558 512.64854926 -5.16992188 512.67382812 C-18.54306192 512.71848737 -31.43916711 511.51301542 -44.625 509.3125 C-46.33055054 509.03031616 -46.33055054 509.03031616 -48.07055664 508.74243164 C-91.33802759 500.97044532 -132.38793216 480.98345309 -165.625 452.3125 C-166.37007813 451.67828125 -167.11515625 451.0440625 -167.8828125 450.390625 C-181.38779833 438.57948485 -194.05918743 425.82889772 -204.625 411.3125 C-205.48149066 410.16255169 -206.33826433 409.01281411 -207.1953125 407.86328125 C-213.23534209 399.67315742 -218.61867614 391.16870382 -223.625 382.3125 C-224.0271875 381.60528809 -224.429375 380.89807617 -224.84375 380.16943359 C-237.8691741 357.03404164 -246.61801461 331.86287591 -251.9375 305.875 C-252.08485596 305.15610596 -252.23221191 304.43721191 -252.3840332 303.6965332 C-255.35789088 288.05024391 -255.99800362 272.57681954 -255.9375 256.6875 C-255.93534485 255.66959381 -255.9331897 254.65168762 -255.93096924 253.60293579 C-255.88129854 238.99386477 -255.63040191 224.66174147 -252.625 210.3125 C-252.42632324 209.33764648 -252.22764648 208.36279297 -252.02294922 207.35839844 C-241.90232806 158.9765226 -219.9858123 114.98821731 -185.625 79.3125 C-184.99287598 78.65314453 -184.36075195 77.99378906 -183.70947266 77.31445312 C-174.56502521 67.82619695 -165.26765991 59.0862956 -154.625 51.3125 C-153.47394983 50.45443848 -152.32290823 49.59636549 -151.171875 48.73828125 C-142.98224019 42.70072604 -134.47961724 37.31792698 -125.625 32.3125 C-124.91778809 31.9103125 -124.21057617 31.508125 -123.48193359 31.09375 C-100.34654164 18.0683259 -75.17537591 9.31948539 -49.1875 4 C-48.46860596 3.85264404 -47.74971191 3.70528809 -47.0090332 3.5534668 C-31.36274391 0.57960912 -15.88931954 -0.06050362 0 0 Z " fill="#EBEFF0" transform="translate(255.625,-0.3125)"/>
<path d="M0 0 C1.01790619 0.00215515 2.03581238 0.0043103 3.08456421 0.00653076 C17.69363523 0.05620146 32.02575853 0.30709809 46.375 3.3125 C47.34985352 3.51117676 48.32470703 3.70985352 49.32910156 3.91455078 C97.7109774 14.03517194 141.69928269 35.9516877 177.375 70.3125 C178.3640332 71.26068604 178.3640332 71.26068604 179.37304688 72.22802734 C188.86130305 81.37247479 197.6012044 90.66984009 205.375 101.3125 C206.23306152 102.46355017 207.09113451 103.61459177 207.94921875 104.765625 C213.98736829 112.95680614 219.34595521 121.47054105 224.375 130.3125 C224.73948242 130.94430176 225.10396484 131.57610352 225.47949219 132.22705078 C247.08534998 169.97532572 256.85198095 212.74189997 256.6875 255.9375 C256.68534485 256.95540619 256.6831897 257.97331238 256.68096924 259.02206421 C256.63129854 273.63113523 256.38040191 287.96325853 253.375 302.3125 C253.07698486 303.77478027 253.07698486 303.77478027 252.77294922 305.26660156 C242.65232806 353.6484774 220.7358123 397.63678269 186.375 433.3125 C185.74287598 433.97185547 185.11075195 434.63121094 184.45947266 435.31054688 C175.31502521 444.79880305 166.01765991 453.5387044 155.375 461.3125 C154.22394983 462.17056152 153.07290823 463.02863451 151.921875 463.88671875 C143.73224019 469.92427396 135.22961724 475.30707302 126.375 480.3125 C125.66778809 480.7146875 124.96057617 481.116875 124.23193359 481.53125 C101.09654164 494.5566741 75.92537591 503.30551461 49.9375 508.625 C49.21860596 508.77235596 48.49971191 508.91971191 47.7590332 509.0715332 C33.08339502 511.86090125 18.55831162 512.66142619 3.64770508 512.62817383 C0.70811513 512.6250221 -2.2304558 512.64854926 -5.16992188 512.67382812 C-18.54306192 512.71848737 -31.43916711 511.51301542 -44.625 509.3125 C-46.33055054 509.03031616 -46.33055054 509.03031616 -48.07055664 508.74243164 C-91.33802759 500.97044532 -132.38793216 480.98345309 -165.625 452.3125 C-166.37007813 451.67828125 -167.11515625 451.0440625 -167.8828125 450.390625 C-181.38779833 438.57948485 -194.05918743 425.82889772 -204.625 411.3125 C-205.48149066 410.16255169 -206.33826433 409.01281411 -207.1953125 407.86328125 C-213.23534209 399.67315742 -218.61867614 391.16870382 -223.625 382.3125 C-224.0271875 381.60528809 -224.429375 380.89807617 -224.84375 380.16943359 C-237.8691741 357.03404164 -246.61801461 331.86287591 -251.9375 305.875 C-252.08485596 305.15610596 -252.23221191 304.43721191 -252.3840332 303.6965332 C-255.35789088 288.05024391 -255.99800362 272.57681954 -255.9375 256.6875 C-255.93534485 255.66959381 -255.9331897 254.65168762 -255.93096924 253.60293579 C-255.88129854 238.99386477 -255.63040191 224.66174147 -252.625 210.3125 C-252.42632324 209.33764648 -252.22764648 208.36279297 -252.02294922 207.35839844 C-241.90232806 158.9765226 -219.9858123 114.98821731 -185.625 79.3125 C-184.99287598 78.65314453 -184.36075195 77.99378906 -183.70947266 77.31445312 C-174.56502521 67.82619695 -165.26765991 59.0862956 -154.625 51.3125 C-153.47394983 50.45443848 -152.32290823 49.59636549 -151.171875 48.73828125 C-142.98224019 42.70072604 -134.47961724 37.31792698 -125.625 32.3125 C-124.91778809 31.9103125 -124.21057617 31.508125 -123.48193359 31.09375 C-100.34654164 18.0683259 -75.17537591 9.31948539 -49.1875 4 C-48.46860596 3.85264404 -47.74971191 3.70528809 -47.0090332 3.5534668 C-31.36274391 0.57960912 -15.88931954 -0.06050362 0 0 Z M-134.625 135.3125 C-135.13256836 135.78010742 -135.64013672 136.24771484 -136.16308594 136.72949219 C-162.90297014 161.67354804 -180.3586335 195.28941681 -189.625 230.3125 C-189.84800781 231.13492188 -190.07101563 231.95734375 -190.30078125 232.8046875 C-190.83544909 234.96784746 -191.25277996 237.11531765 -191.625 239.3125 C-191.80933594 240.385 -191.99367187 241.4575 -192.18359375 242.5625 C-198.88814654 287.69107603 -183.80436389 333.13528919 -156.92626953 369.43188477 C-152.00859279 375.90511357 -146.65160622 381.95908249 -141.03710938 387.83300781 C-140.1006544 388.8141484 -139.16957769 389.80045247 -138.24414062 390.79199219 C-116.76755422 413.76800176 -87.6474 431.12332342 -57.625 440.3125 C-56.96483887 440.52213379 -56.30467773 440.73176758 -55.62451172 440.94775391 C-27.96525467 449.59642731 3.83102083 451.34224826 32.375 446.3125 C33.20821777 446.17247559 34.04143555 446.03245117 34.89990234 445.88818359 C83.9944801 437.35577457 129.25151436 408.73311585 158.375 368.3125 C158.79587891 367.73064941 159.21675781 367.14879883 159.65039062 366.54931641 C174.56458174 345.6728853 186.12122651 321.5451316 190.98535156 296.27148438 C191.37088037 294.33321172 191.82189463 292.40834028 192.2734375 290.484375 C201.18277097 250.10629486 186.53319172 205.81436607 165.3125 171.625 C136.9099712 127.43260995 92.94034952 98.1716056 42.375 85.3125 C-22.17324276 71.33620899 -86.57488019 90.96934443 -134.625 135.3125 Z " fill="#1ABC9C" transform="translate(255.625,-0.3125)"/>
<path d="M0 0 C0.73092865 -0.00067474 1.4618573 -0.00134949 2.2149353 -0.00204468 C56.19588908 0.07675318 104.29749347 21.42452834 142.625 59.125 C149.17880583 65.71505977 154.98433513 72.73127402 160.4375 80.25 C161.0550415 81.09304687 161.0550415 81.09304687 161.68505859 81.953125 C179.2564052 106.22593963 189.42079814 133.10836961 195.4375 162.25 C195.58590332 162.96124023 195.73430664 163.67248047 195.88720703 164.40527344 C197.31076759 171.65766052 197.5339073 178.97375175 197.546875 186.33984375 C197.55024872 187.0615979 197.55362244 187.78335205 197.55709839 188.52697754 C197.5824714 195.76845568 197.52313701 203.00906111 197.4375 210.25 C197.1075 210.25 196.7775 210.25 196.4375 210.25 C196.40309814 209.66847168 196.36869629 209.08694336 196.33325195 208.48779297 C195.39816238 193.66843547 193.34403198 179.58224473 189.4375 165.25 C189.2317334 164.48945313 189.0259668 163.72890625 188.81396484 162.9453125 C175.43743364 115.17654023 141.40121047 73.49487485 98.4375 49.25 C50.86047571 23.43943341 -2.95967174 17.09922411 -55.046875 32.16796875 C-104.28650563 47.3045417 -145.32771346 82.62377785 -169.8125 127.625 C-177.22700028 141.75268056 -182.49021428 156.85842212 -186.5625 172.25 C-186.78550781 173.07242188 -187.00851563 173.89484375 -187.23828125 174.7421875 C-190.4114483 187.58019158 -190.94382984 201.09511872 -191.5625 214.25 C-191.8925 214.25 -192.2225 214.25 -192.5625 214.25 C-192.63809925 209.04373152 -192.69176565 203.83779991 -192.72729492 198.63110352 C-192.74214538 196.86932799 -192.76243109 195.10758776 -192.78881836 193.34594727 C-193.02002197 177.48356637 -191.56274594 162.08720601 -187.3125 146.75 C-187.10197998 145.977771 -186.89145996 145.20554199 -186.67456055 144.40991211 C-179.01331343 117.15307501 -166.12263028 91.73867543 -147.5625 70.25 C-146.8921875 69.47011719 -146.221875 68.69023438 -145.53125 67.88671875 C-143.25166563 65.29740825 -140.9219649 62.76676256 -138.5625 60.25 C-138.10278809 59.75628906 -137.64307617 59.26257813 -137.16943359 58.75390625 C-102.08476089 21.37375679 -51.05767964 0.0423596 0 0 Z " fill="#8E9192" transform="translate(253.5625,57.75)"/>
<path d="M0 0 C4.07099614 1.06075252 6.7967982 3.16273789 9.21875 6.578125 C10.07594152 9.26363007 10.15854107 11.77567281 10.21875 14.578125 C10.404375 15.7125 10.59 16.846875 10.78125 18.015625 C11.11608842 20.7421664 11.40294361 23.40036708 11.53125 26.140625 C11.58732422 27.19443359 11.58732422 27.19443359 11.64453125 28.26953125 C10.53766479 34.27098148 5.16055139 39.11882619 1.21875 43.578125 C0.05302511 44.90984094 -1.11233128 46.24187953 -2.27734375 47.57421875 C-2.86370605 48.24308105 -3.45006836 48.91194336 -4.05419922 49.60107422 C-6.67113663 52.59682756 -9.2587209 55.61733931 -11.84375 58.640625 C-12.83463542 59.79817708 -13.82552083 60.95572917 -14.81640625 62.11328125 C-15.30512207 62.68449707 -15.79383789 63.25571289 -16.29736328 63.84423828 C-18.79020524 66.75706546 -21.28587766 69.66746561 -23.78125 72.578125 C-24.7812634 73.74478018 -25.78126341 74.91144684 -26.78125 76.078125 C-32.78125 83.078125 -32.78125 83.078125 -34.28173828 84.82861328 C-35.28021795 85.99356041 -36.27859061 87.15859926 -37.27685547 88.32373047 C-40.30900087 91.8623876 -43.34386642 95.39865591 -46.38574219 98.92895508 C-47.39469307 100.10622645 -48.39802541 101.28833774 -49.39550781 102.4753418 C-51.75497537 105.27672024 -54.13566032 107.96836554 -56.7578125 110.52734375 C-61.63413138 115.56162789 -64.2666532 119.04452299 -64.25366211 126.06811523 C-64.15823178 128.28214663 -64.0257179 130.49145499 -63.88671875 132.703125 C-63.71052499 139.17661431 -65.94859801 142.26035925 -69.90625 147.265625 C-77.11802043 153.06639687 -83.52796228 155.46407808 -92.78125 154.578125 C-92.92240234 155.5530188 -92.92240234 155.5530188 -93.06640625 156.54760742 C-94.01995247 160.59008324 -95.59794648 164.25025602 -97.21875 168.06640625 C-97.57106186 168.90620529 -97.92337372 169.74600433 -98.28636169 170.61125183 C-99.44653683 173.37308579 -100.61357864 176.13195284 -101.78125 178.890625 C-102.58887584 180.805883 -103.39624577 182.72124894 -104.20336914 184.63671875 C-105.87915781 188.61132583 -107.55812 192.58457503 -109.23876953 196.55712891 C-111.32356846 201.48839776 -113.39449513 206.42533485 -115.45980835 211.36479187 C-117.00477171 215.05711473 -118.55597717 218.74679284 -120.10864258 222.43588257 C-120.84668966 224.1925588 -121.58238113 225.95022665 -122.31567383 227.70889282 C-123.33765507 230.15786117 -124.36881151 232.60276357 -125.40234375 235.046875 C-125.70160263 235.76989304 -126.00086151 236.49291107 -126.30918884 237.23783875 C-129.0873331 243.75752279 -129.0873331 243.75752279 -131.78125 245.578125 C-135.34375 245.453125 -135.34375 245.453125 -138.78125 244.578125 C-140.78125 241.578125 -140.78125 241.578125 -140.46875 238.640625 C-139.78125 235.578125 -139.78125 235.578125 -139.03125 233.390625 C-138.94875 232.7925 -138.86625 232.194375 -138.78125 231.578125 C-139.255625 231.145 -139.73 230.711875 -140.21875 230.265625 C-141.78125 228.578125 -141.78125 228.578125 -142.11010742 225.5625 C-141.69556374 220.53996636 -140.09836139 216.7179469 -138.08203125 212.140625 C-137.69521683 211.23497299 -137.3084024 210.32932098 -136.90986633 209.39622498 C-135.64932345 206.45176765 -134.3716004 203.5151069 -133.09375 200.578125 C-132.22117897 198.54752074 -131.34993032 196.51634774 -130.47998047 194.48461914 C-128.73840576 190.41995245 -126.99127357 186.35775052 -125.23974609 182.29736328 C-122.18138076 175.19697899 -119.18691816 168.0704275 -116.20834351 160.9362793 C-114.95680924 157.9394159 -113.70055052 154.94453234 -112.4453125 151.94921875 C-109.88408632 145.82824312 -107.33103947 139.70387261 -104.78125 133.578125 C-104.018125 133.8875 -103.255 134.196875 -102.46875 134.515625 C-95.38537161 137.31603041 -87.33355737 138.11900432 -80 135.63671875 C-73.36111714 132.10704603 -69.771794 127.43589302 -66.78125 120.578125 C-65.87847414 113.56737914 -65.76181326 106.36734721 -69.51953125 100.18359375 C-73.34988506 95.30967606 -78.42882927 92.46843219 -83.78125 89.578125 C-82.21892979 85.89856209 -79.94540918 83.41296707 -77.21875 80.515625 C-73.84079445 76.87885728 -70.58828736 73.19288517 -67.46875 69.328125 C-62.27916961 62.9051056 -56.84884444 56.70164521 -51.42773438 50.47460938 C-48.84487591 47.49957311 -46.28068086 44.5086844 -43.71875 41.515625 C-43.22785889 40.94223389 -42.73696777 40.36884277 -42.23120117 39.77807617 C-41.24239797 38.62281982 -40.25370951 37.46746524 -39.26513672 36.31201172 C-37.7725944 34.56801114 -36.27907373 32.82485396 -34.78515625 31.08203125 C-34.28918945 30.50332275 -33.79322266 29.92461426 -33.28222656 29.32836914 C-32.2861262 28.16684613 -31.28938701 27.00587064 -30.29199219 25.84545898 C-27.71303614 22.84301031 -25.14865641 19.82970607 -22.60546875 16.796875 C-22.08017578 16.17425781 -21.55488281 15.55164063 -21.01367188 14.91015625 C-20.02210813 13.7343196 -19.034743 12.55492208 -18.05273438 11.37109375 C-7.92679468 -0.59722426 -7.92679468 -0.59722426 0 0 Z " fill="#A5A7A7" transform="translate(345.78125,142.421875)"/>
<path d="M0 0 C4.08077162 1.06329965 6.77784587 3.16952515 9.21875 6.578125 C10.7690744 10.60577188 10.69828433 13.39164831 9.08203125 17.390625 C6.8527765 21.20419287 4.22283419 24.30119935 1.28125 27.578125 C0.10635151 28.9097864 -1.06811817 30.24182625 -2.2421875 31.57421875 C-2.83483398 32.24308105 -3.42748047 32.91194336 -4.03808594 33.60107422 C-6.67129223 36.58758747 -9.25855663 39.61256186 -11.84375 42.640625 C-12.83322582 43.79696701 -13.82280921 44.95321698 -14.8125 46.109375 C-15.30105469 46.68042969 -15.78960937 47.25148437 -16.29296875 47.83984375 C-17.79797049 49.59765418 -19.30492703 51.35376946 -20.8125 53.109375 C-25.65475183 58.74944918 -30.48500014 64.39885467 -35.28125 70.078125 C-39.56809321 75.15420364 -43.87758049 80.2102395 -48.20849609 85.2487793 C-50.86234571 88.3362899 -53.5067718 91.43115062 -56.13671875 94.5390625 C-56.68400635 95.18367432 -57.23129395 95.82828613 -57.79516602 96.49243164 C-58.8490837 97.73416675 -59.90046144 98.97806323 -60.94897461 100.22436523 C-64.55642186 104.46571093 -64.55642186 104.46571093 -66.78125 105.578125 C-67.1215625 104.98644531 -67.461875 104.39476562 -67.8125 103.78515625 C-71.39365227 97.94673513 -74.77575993 94.76654083 -80.78125 91.578125 C-81.77125 90.918125 -82.76125 90.258125 -83.78125 89.578125 C-82.21892979 85.89856209 -79.94540918 83.41296707 -77.21875 80.515625 C-73.84079445 76.87885728 -70.58828736 73.19288517 -67.46875 69.328125 C-62.27916961 62.9051056 -56.84884444 56.70164521 -51.42773438 50.47460938 C-48.84487591 47.49957311 -46.28068086 44.5086844 -43.71875 41.515625 C-43.22785889 40.94223389 -42.73696777 40.36884277 -42.23120117 39.77807617 C-41.24239797 38.62281982 -40.25370951 37.46746524 -39.26513672 36.31201172 C-37.7725944 34.56801114 -36.27907373 32.82485396 -34.78515625 31.08203125 C-34.28918945 30.50332275 -33.79322266 29.92461426 -33.28222656 29.32836914 C-32.2861262 28.16684613 -31.28938701 27.00587064 -30.29199219 25.84545898 C-27.71303614 22.84301031 -25.14865641 19.82970607 -22.60546875 16.796875 C-22.08017578 16.17425781 -21.55488281 15.55164063 -21.01367188 14.91015625 C-20.02210813 13.7343196 -19.034743 12.55492208 -18.05273438 11.37109375 C-7.92679468 -0.59722426 -7.92679468 -0.59722426 0 0 Z " fill="#202D39" transform="translate(345.78125,142.421875)"/>
<path d="M0 0 C1.07894531 0.67289063 2.15789062 1.34578125 3.26953125 2.0390625 C3.88900635 2.42263916 4.50848145 2.80621582 5.14672852 3.20141602 C13.23964652 8.27912007 21.14493674 13.66348214 29.07641602 18.98876953 C36.58795142 24.02893408 44.16899347 28.92763567 51.87109375 33.671875 C56.00821683 36.23870319 60.06253106 38.91740404 64.08203125 41.6640625 C63.38078125 42.1590625 62.67953125 42.6540625 61.95703125 43.1640625 C55.93119352 48.4039214 52.50978371 54.11105485 50.08203125 61.6640625 C46.05579001 60.22424512 42.78470184 58.27883559 39.25 55.8828125 C38.70098526 55.51309326 38.15197052 55.14337402 37.58631897 54.76245117 C36.41624222 53.97415943 35.24748536 53.18390555 34.07995605 52.3918457 C31.03426043 50.32633383 27.97830908 48.27613818 24.921875 46.2265625 C24.02367538 45.62382507 24.02367538 45.62382507 23.10733032 45.00891113 C18.56887558 41.97107892 13.98244706 39.02677668 9.33203125 36.1640625 C4.15462841 32.96179857 -1.00351953 29.73568293 -6.10546875 26.4140625 C-6.7180957 26.02541016 -7.33072266 25.63675781 -7.96191406 25.23632812 C-12.65192742 22.15155105 -17.07840107 18.7409139 -18.6171875 13.1015625 C-18.594976 8.48157129 -18.40650762 5.52639033 -15.10546875 2.1015625 C-10.54185758 -1.87610353 -5.5054191 -2.52055332 0 0 Z " fill="#202D39" transform="translate(180.91796875,192.3359375)"/>
<path d="M0 0 C5.46875072 3.39081435 9.33287104 8.27488799 11.26171875 14.40234375 C12.14648892 22.11381425 12.10332992 28.96060877 7.75 35.5703125 C3.37319346 40.95803499 -2.155927 44.98711633 -9.17578125 45.80078125 C-10.35140625 45.79304688 -11.52703125 45.7853125 -12.73828125 45.77734375 C-13.91390625 45.78507812 -15.08953125 45.7928125 -16.30078125 45.80078125 C-22.98309036 45.02624088 -28.2921686 41.30060345 -32.73828125 36.40234375 C-37.35532835 29.70017861 -37.70927254 22.31041712 -36.73828125 14.40234375 C-34.65326811 6.82720727 -29.23756358 2.84370352 -23.05078125 -1.47265625 C-15.36674913 -4.08232754 -7.34736545 -3.32465329 0 0 Z " fill="#FDFDFD" transform="translate(268.73828125,234.59765625)"/>
<path d="M0 0 C1.10601562 0.02900391 1.10601562 0.02900391 2.234375 0.05859375 C4.67680626 0.66920156 5.6490475 1.66263548 7.25 3.5625 C1.18638384 11.09893249 -5.07150681 18.44000829 -11.421875 25.734375 C-14.56941579 29.34984287 -17.6953653 32.98330557 -20.8125 36.625 C-21.30339111 37.19839111 -21.79428223 37.77178223 -22.30004883 38.36254883 C-23.28885203 39.51780518 -24.27754049 40.67315976 -25.26611328 41.82861328 C-27.75895524 44.74144046 -30.25462766 47.65184061 -32.75 50.5625 C-33.7500134 51.72915518 -34.75001341 52.89582184 -35.75 54.0625 C-41.75 61.0625 -41.75 61.0625 -43.25195312 62.81469727 C-44.24555008 63.97394769 -45.23904078 65.1332892 -46.23242188 66.29272461 C-48.82949595 69.32363974 -51.42874713 72.35265069 -54.03125 75.37890625 C-54.57007813 76.00603516 -55.10890625 76.63316406 -55.6640625 77.27929688 C-56.68941633 78.47259659 -57.71541414 79.66534338 -58.7421875 80.85742188 C-61.47774322 84.04260623 -64.14754545 87.26646676 -66.75 90.5625 C-69.7219385 89.43798273 -72.08440687 88.33956209 -74.75 86.5625 C-77.78452373 86.94181547 -79.12561021 87.81290681 -81.75 89.5625 C-80.18767979 85.88293709 -77.91415918 83.39734207 -75.1875 80.5 C-71.80954445 76.86323228 -68.55703736 73.17726017 -65.4375 69.3125 C-60.24791961 62.8894806 -54.81759444 56.68602021 -49.39648438 50.45898438 C-46.81362591 47.48394811 -44.24943086 44.4930594 -41.6875 41.5 C-41.19660889 40.92660889 -40.70571777 40.35321777 -40.19995117 39.76245117 C-39.21114797 38.60719482 -38.22245951 37.45184024 -37.23388672 36.29638672 C-35.7413444 34.55238614 -34.24782373 32.80922896 -32.75390625 31.06640625 C-32.25793945 30.48769775 -31.76197266 29.90898926 -31.25097656 29.31274414 C-30.2548762 28.15122113 -29.25813701 26.99024564 -28.26074219 25.82983398 C-25.68178614 22.82738531 -23.11740641 19.81408107 -20.57421875 16.78125 C-20.04892578 16.15863281 -19.52363281 15.53601563 -18.98242188 14.89453125 C-17.99085813 13.7186946 -17.003493 12.53929708 -16.02148438 11.35546875 C-6.11151118 -0.35758842 -6.11151118 -0.35758842 0 0 Z " fill="#354A5E" transform="translate(343.75,142.4375)"/>
<path d="M0 0 C1.11955078 0.46019531 1.11955078 0.46019531 2.26171875 0.9296875 C5.45578093 2.17815118 8.69471622 3.0926672 12 4 C7.82386421 15.16102265 3.24041793 26.14036118 -1.375 37.125 C-1.76551544 38.05521973 -2.15603088 38.98543945 -2.55838013 39.94384766 C-4.97426655 45.69708779 -7.39552789 51.44804646 -9.81951904 57.19787598 C-10.96625922 59.91990905 -12.11064713 62.64291921 -13.25439453 65.36621094 C-14.98440882 69.48347248 -16.72230698 73.59731256 -18.46685791 77.70843506 C-19.11054865 79.22810863 -19.7518118 80.74881289 -20.39056396 82.27056885 C-21.27296464 84.37090478 -22.16449649 86.46712188 -23.05859375 88.5625 C-23.55673584 89.73941406 -24.05487793 90.91632813 -24.56811523 92.12890625 C-26.68265386 96.36879955 -26.68265386 96.36879955 -29 98 C-32.625 97.8125 -32.625 97.8125 -36 97 C-37.80670465 93.3865907 -37.5068328 89.67225655 -36.34780884 85.84814453 C-35.39334977 83.38913224 -34.36413087 80.9764368 -33.30078125 78.5625 C-32.91396683 77.65684799 -32.5271524 76.75119598 -32.12861633 75.81809998 C-30.86807345 72.87364265 -29.5903504 69.9369819 -28.3125 67 C-27.43992897 64.96939574 -26.56868032 62.93822274 -25.69873047 60.90649414 C-23.95715576 56.84182745 -22.21002357 52.77962552 -20.45849609 48.71923828 C-17.40013076 41.61885399 -14.40566816 34.4923025 -11.42709351 27.3581543 C-10.17555924 24.3612909 -8.91930052 21.36640734 -7.6640625 18.37109375 C-5.10283632 12.25011812 -2.54978947 6.12574761 0 0 Z " fill="#C03C2E" transform="translate(241,276)"/>
<path d="M0 0 C1.07894531 0.67289063 2.15789062 1.34578125 3.26953125 2.0390625 C3.88900635 2.42263916 4.50848145 2.80621582 5.14672852 3.20141602 C13.23539687 8.27645373 21.13843663 13.65589092 29.06323242 18.98217773 C36.12067886 23.72162617 43.22091264 28.36770957 50.50170898 32.75952148 C53.34787319 34.4917083 55.87346449 36.14787394 58.08203125 38.6640625 C56.93734375 39.5303125 56.93734375 39.5303125 55.76953125 40.4140625 C53.42002208 42.38109343 51.7887962 44.14882994 50.08203125 46.6640625 C46.71985506 45.4026017 43.75636092 43.9687341 40.73046875 42.0390625 C39.89233643 41.50611572 39.0542041 40.97316895 38.19067383 40.42407227 C37.28857178 39.84326904 36.38646973 39.26246582 35.45703125 38.6640625 C34.50787842 38.0568335 33.55872559 37.44960449 32.58081055 36.82397461 C23.49274296 30.98253576 14.50242603 24.99465489 5.53466797 18.97070312 C4.46361816 18.25205078 3.39256836 17.53339844 2.2890625 16.79296875 C1.25861816 16.09961426 0.22817383 15.40625977 -0.83349609 14.69189453 C-4.80900849 12.07826417 -8.87162111 9.61638766 -12.9621582 7.18725586 C-13.60757568 6.68460205 -14.25299316 6.18194824 -14.91796875 5.6640625 C-14.91796875 2.6640625 -14.91796875 2.6640625 -13.60546875 1.0390625 C-9.46472204 -2.33487926 -4.65909544 -2.13307984 0 0 Z " fill="#364A5F" transform="translate(180.91796875,192.3359375)"/>
<path d="M0 0 C0.52424561 0.35118896 1.04849121 0.70237793 1.58862305 1.06420898 C7.63568843 5.10637205 13.71735896 9.09329252 19.8125 13.0625 C20.80934814 13.71226807 21.80619629 14.36203613 22.83325195 15.03149414 C27.72721428 18.22057824 32.62350921 21.40602737 37.5234375 24.5859375 C38.3887207 25.14764648 39.25400391 25.70935547 40.14550781 26.28808594 C41.82139578 27.37551382 43.49781618 28.46212166 45.17480469 29.54785156 C48.74138002 31.86110935 52.29569085 34.18603109 55.8046875 36.5859375 C56.87976563 37.32070312 57.95484375 38.05546875 59.0625 38.8125 C59.96097656 39.43769531 60.85945313 40.06289062 61.78515625 40.70703125 C64.00436907 42.25207755 64.00436907 42.25207755 67 42 C67.08636719 42.7734375 67.17273438 43.546875 67.26171875 44.34375 C68.45138108 53.16253128 70.71312743 58.71312743 77 65 C75.68 68.3 74.36 71.6 73 75 C70.84059036 71.76088554 69.00047372 68.96926251 68.99951172 64.97021484 C68.98797962 61.41294757 68.86794158 58.92599483 66.3684082 56.25927734 C64.04328178 54.60086241 61.66940142 53.1632282 59.1875 51.75 C57.34717101 50.63100599 55.50734072 49.51119145 53.66796875 48.390625 C52.72356934 47.82923828 51.77916992 47.26785156 50.80615234 46.68945312 C46.46207225 44.0740856 42.23603159 41.28568784 38 38.5 C36.35099489 37.42465413 34.70125056 36.35044098 33.05078125 35.27734375 C32.22787598 34.74222168 31.4049707 34.20709961 30.55712891 33.65576172 C27.8913315 31.92963627 25.21794963 30.2157609 22.54296875 28.50390625 C21.64642578 27.92769531 20.74988281 27.35148437 19.82617188 26.7578125 C18.12319551 25.66367225 16.41764203 24.57352796 14.70898438 23.48828125 C2.22411691 15.44823382 2.22411691 15.44823382 0 11 C-0.13765648 7.33283144 -0.04266244 3.66896978 0 0 Z " fill="#A4A7A7" transform="translate(165,211)"/>
<path d="M0 0 C0.33 0 0.66 0 1 0 C1.06058594 0.74765625 1.12117188 1.4953125 1.18359375 2.265625 C1.26738281 3.25046875 1.35117187 4.2353125 1.4375 5.25 C1.51871094 6.22453125 1.59992187 7.1990625 1.68359375 8.203125 C1.89840337 10.88535816 1.89840337 10.88535816 2.59765625 12.921875 C3.20398232 16.05357858 2.49277887 18.85974247 2 22 C1.75126993 24.97599805 1.59337912 27.95535356 1.4375 30.9375 C1.39431641 31.71673828 1.35113281 32.49597656 1.30664062 33.29882812 C1.20171923 35.19907117 1.1004755 37.09951669 1 39 C0.67 39 0.34 39 0 39 C0 26.13 0 13.26 0 0 Z " fill="#93AEAA" transform="translate(61,233)"/>
</svg>
