<?xml version="1.0" encoding="UTF-8"?>
<svg version="1.1" xmlns="http://www.w3.org/2000/svg" width="512" height="512">
<path d="M0 0 C3.28782046 1.5640451 5.50042698 3.24355008 8.09431458 5.82015991 C9.30374725 7.0146299 9.30374725 7.0146299 10.53761292 8.23323059 C11.85087807 9.54549873 11.85087807 9.54549873 13.19067383 10.88427734 C14.11945343 11.80473343 15.04823303 12.72518951 16.00515747 13.67353821 C18.54902007 16.19548197 21.08630342 18.72394465 23.6217711 21.25432539 C25.20541902 22.83432898 26.79035699 24.41302672 28.37573814 25.99129105 C33.9042424 31.49531733 39.42701741 37.00502589 44.94506836 42.51953125 C50.09340402 47.66422502 55.25474338 52.79561812 60.42212087 57.92117918 C64.85647616 62.32089933 69.28121821 66.7301339 73.69863909 71.14685595 C76.3380121 73.78543432 78.98124887 76.41984583 81.63437843 79.04459763 C84.58898006 81.96829707 87.52339891 84.9114648 90.45629883 87.85693359 C91.34193008 88.72773056 92.22756134 89.59852753 93.14002991 90.49571228 C93.93221924 91.29766525 94.72440857 92.09961823 95.54060364 92.9258728 C96.23689282 93.62015066 96.93318201 94.31442852 97.65057087 95.0297451 C99 97 99 97 98.7780416 98.90601802 C97.86065666 101.37502164 96.7606039 102.61430307 94.90076351 104.4739666 C94.2348941 105.14704255 93.5690247 105.8201185 92.88297743 106.51359069 C92.14428515 107.24490868 91.40559288 107.97622667 90.64451599 108.72970581 C89.86526404 109.51293217 89.08601209 110.29615853 88.28314644 111.10311902 C85.65868194 113.73724134 83.02358447 116.360464 80.38842773 118.98388672 C78.50902479 120.86571656 76.63021821 122.74812487 74.75212097 124.6312561 C70.17109331 129.22178208 65.5820456 133.80420945 60.99020123 138.38391291 C55.640878 143.71961899 50.29919018 149.06294174 44.95773006 154.4065174 C35.42234005 163.94509917 25.87953406 173.47622764 16.33276367 183.00341797 C7.07570887 192.24149193 -2.17539023 201.48547782 -11.42016602 210.73583984 C-21.4873789 220.80911794 -31.55771473 230.87925384 -41.63363498 240.94382298 C-42.70941572 242.01839645 -43.78519581 243.09297056 -44.86097527 244.16754532 C-45.39026375 244.69623027 -45.91955224 245.22491521 -46.46487977 245.76962092 C-50.18729553 249.48816419 -53.90757922 253.20883236 -57.62710762 256.93026352 C-62.16611444 261.47139816 -66.70880285 266.00881297 -71.25610209 270.54164444 C-73.57447293 272.85279706 -75.89072487 275.16600205 -78.20373535 277.48252106 C-80.71643331 279.99845123 -83.23522381 282.50812255 -85.75563049 285.0163269 C-86.47870771 285.74318345 -87.20178494 286.47003999 -87.94677359 287.2189225 C-102.71901719 301.86523186 -116.43703912 304.43478747 -136.765625 306.2890625 C-137.92447205 306.39721283 -139.08331909 306.50536316 -140.27728271 306.61679077 C-142.70388111 306.84217415 -145.13066265 307.06559391 -147.55761719 307.28710938 C-151.25514416 307.62547074 -154.95178926 307.97249641 -158.6484375 308.3203125 C-161.02078543 308.53958145 -163.39317977 308.75834884 -165.765625 308.9765625 C-166.85957581 309.07965729 -167.95352661 309.18275208 -169.08062744 309.28897095 C-192.00416245 311.35617504 -192.00416245 311.35617504 -201.3125 303.9375 C-207.39299994 297.94333576 -210.22635069 292.49033331 -210.29702759 283.78730774 C-210.28924286 282.98866806 -210.28145813 282.19002838 -210.2734375 281.3671875 C-210.26863373 280.50631027 -210.26382996 279.64543304 -210.25888062 278.75846863 C-210.09604026 267.77025041 -209.03456757 256.84567028 -207.97363281 245.91430664 C-207.621898 242.28045255 -207.28653447 238.64534245 -206.953125 235.00976562 C-206.73272246 232.66918103 -206.51140182 230.32868266 -206.2890625 227.98828125 C-206.19001617 226.91628983 -206.09096985 225.8442984 -205.98892212 224.73982239 C-204.45568175 209.15646164 -200.11317458 199.45617293 -188.79959106 188.318573 C-187.9900047 187.50556893 -187.18041834 186.69256487 -186.34629905 185.85492432 C-183.6518814 183.15395838 -180.94349413 180.46746804 -178.23486328 177.78076172 C-176.29113868 175.84039909 -174.35044628 173.89701387 -172.40962219 171.95375061 C-168.24026628 167.7823049 -164.06369335 163.6182021 -159.88202286 159.45910263 C-153.8361707 153.44586231 -147.80149239 147.42150855 -141.7694187 141.39445044 C-131.98072212 131.61449215 -122.18314033 121.84348604 -112.37988281 112.078125 C-102.86117993 102.59618023 -93.34671866 93.1100121 -83.83789062 83.61816406 C-83.25102884 83.03235317 -82.66416705 82.44654227 -82.05952157 81.84297954 C-79.11521445 78.90389285 -76.1709901 75.96472326 -73.22680688 73.02551246 C-48.83068805 48.67080998 -24.42011299 24.33064327 0 0 Z " fill="#000000" transform="translate(285,92)"/>
<path d="M0 0 C1.10669232 -0.00307895 1.10669232 -0.00307895 2.23574206 -0.0062201 C4.72753712 -0.01191007 7.21927725 -0.0104304 9.71107769 -0.00901413 C11.50780431 -0.01159662 13.30453035 -0.01460945 15.1012556 -0.01801753 C20.05398292 -0.02610438 25.00669576 -0.02787804 29.95942891 -0.028615 C35.29492307 -0.03046262 40.63040966 -0.03800844 45.96589947 -0.04475021 C57.63930509 -0.05834574 69.31270729 -0.06436007 80.98611951 -0.06876087 C88.27101321 -0.07152108 95.55590558 -0.07575801 102.84079838 -0.08026505 C122.99919362 -0.09245901 143.15758779 -0.10275826 163.31598663 -0.10614014 C165.25213229 -0.10646949 165.25213229 -0.10646949 167.227392 -0.10680549 C169.1682424 -0.10713291 169.1682424 -0.10713291 171.1483019 -0.10746694 C173.77035733 -0.10791041 176.39241276 -0.10835697 179.01446819 -0.10880661 C180.31510587 -0.10902804 181.61574354 -0.10924947 182.95579448 -0.10947761 C204.03890909 -0.11342707 225.12198917 -0.13088504 246.20509044 -0.15416613 C267.83591314 -0.17785983 289.46671849 -0.19034107 311.09755439 -0.19150805 C323.24850067 -0.1924259 335.39940196 -0.19820576 347.55033588 -0.21632767 C357.89557484 -0.23170189 368.2407549 -0.23686496 378.5860031 -0.22858956 C383.86668149 -0.22467363 389.14724118 -0.22565857 394.42790508 -0.23964691 C399.25962325 -0.25232927 404.09113281 -0.2512384 408.92285045 -0.2390562 C410.6731944 -0.23708934 412.42355284 -0.24022294 414.17387638 -0.24890056 C416.54929332 -0.25993402 418.92396637 -0.25254718 421.29936218 -0.24050903 C421.98223717 -0.24810423 422.66511216 -0.25569942 423.36868033 -0.26352477 C427.9044277 -0.21374841 430.97517788 0.77941279 434.8384428 3.13142776 C438.72293078 7.23172063 440.57914888 10.84099811 441.2134428 16.44392776 C440.74679518 21.03262937 439.51058853 24.372446 436.8384428 28.13142776 C431.41954119 32.44443109 427.52119594 33.25637506 420.71370697 33.26564884 C419.97988803 33.26800107 419.24606909 33.2703533 418.49001321 33.27277681 C416.01172543 33.27947543 413.53348998 33.27900833 411.0551939 33.27859879 C409.2681421 33.28189687 407.48109105 33.28562232 405.69404095 33.28974026 C400.76797976 33.29977463 395.84193074 33.30347936 390.91586077 33.30612957 C385.60895717 33.31002836 380.30206325 33.31960697 374.99516582 33.32834244 C362.17164814 33.34811861 349.34812966 33.35817439 336.52460054 33.36707023 C330.48917593 33.37145112 324.4537522 33.37681843 318.41832829 33.3820591 C298.36116277 33.3990723 278.3039978 33.41356727 258.24682617 33.42080784 C253.04014173 33.4227178 247.8334573 33.42463813 242.62677288 33.42659378 C241.33264106 33.42707752 240.03850923 33.42756126 238.7051613 33.42805966 C217.73331743 33.43636289 196.76153055 33.46170436 175.78971157 33.49417446 C154.26962066 33.52722242 132.74955873 33.54525454 111.2294423 33.54845208 C99.1421316 33.55061924 87.054904 33.55939807 74.96761799 33.58491325 C64.67512592 33.60658931 54.38273714 33.61468591 44.09022484 33.60494647 C38.83761601 33.60039285 33.58522042 33.60234974 28.33264065 33.62170792 C23.52420414 33.63927639 18.71613744 33.63839328 13.90769734 33.62281062 C12.1680824 33.62042494 10.42844228 33.62480768 8.68886594 33.63663927 C-7.62658179 33.74073487 -7.62658179 33.74073487 -14.1615572 29.13142776 C-18.33070376 23.89326926 -19.70883144 19.80817354 -19.1615572 13.13142776 C-17.35163108 7.85903429 -14.92703338 4.18622019 -10.1615572 1.13142776 C-6.69471517 -0.02418624 -3.6049291 -0.00924602 0 0 Z " fill="#000000" transform="translate(45.1615571975708,452.8685722351074)"/>
<path d="M0 0 C3.66821269 2.95083081 7.06586431 6.10315272 10.39941406 9.41845703 C12.11621875 11.11483604 13.86459952 12.77424827 15.6171875 14.43359375 C28.99960416 27.24797216 38.77910621 41.63549529 39.29272461 60.80981445 C39.48972516 82.00561496 31.18241841 96.36687058 16.69140625 111.26171875 C15.46258161 112.50943385 14.23222594 113.75564386 13 115 C12.48421387 115.52416504 11.96842773 116.04833008 11.43701172 116.58837891 C8.98056229 119.08226643 6.50560635 121.555506 4 124 C0.64516562 122.54190191 -1.55011664 120.69713436 -4.12554932 118.11495972 C-4.93880676 117.3044516 -5.75206421 116.49394348 -6.58996582 115.65887451 C-7.47325562 114.76839417 -8.35654541 113.87791382 -9.26660156 112.96044922 C-10.21256265 112.0139238 -11.15896473 111.06783893 -12.10577393 110.12216187 C-14.67193618 107.55657326 -17.23188665 104.98486641 -19.79076862 102.41201925 C-22.46710097 99.72318166 -25.1491008 97.04000938 -27.83050537 94.35623169 C-32.90595783 89.27456387 -37.97629063 84.18781945 -43.04480529 79.09923279 C-48.81592905 73.30575182 -54.59273507 67.51795103 -60.37002611 61.7306211 C-72.25301957 49.82672435 -84.12885446 37.91571235 -96 26 C-95.04515948 24.88156116 -94.08968374 23.76366461 -93.13394165 22.64599609 C-92.60192957 22.02340912 -92.06991749 21.40082214 -91.52178383 20.7593689 C-82.6148325 10.46183988 -72.79719336 -0.71834374 -60 -6 C-58.46279297 -6.63615234 -58.46279297 -6.63615234 -56.89453125 -7.28515625 C-37.93278403 -13.84285312 -16.60264897 -10.99446377 0 0 Z " fill="#000000" transform="translate(404,44)"/>
</svg>
