<?xml version="1.0" encoding="UTF-8"?>
<svg version="1.1" xmlns="http://www.w3.org/2000/svg" width="512" height="512">
<path d="M0 0 C1.10214844 -0.020625 2.20429688 -0.04125 3.33984375 -0.0625 C4.40074219 -0.06765625 5.46164063 -0.0728125 6.5546875 -0.078125 C7.52647949 -0.0874707 8.49827148 -0.09681641 9.49951172 -0.10644531 C12.73265233 0.33249697 13.97679553 0.76956112 16.125 3.25 C17.14739148 8.94052481 17.10690336 14.06460806 16.51961803 19.790905 C16.44201751 20.61709021 16.36441698 21.44327541 16.28446493 22.29449654 C16.02276298 25.05777186 15.74857472 27.81966145 15.47441101 30.58172607 C15.28208663 32.58465957 15.09053169 34.58766708 14.89967948 36.5907414 C14.37331293 42.09144911 13.83598819 47.59103953 13.2968632 53.09050941 C12.71719058 59.0232401 12.14764888 64.95694429 11.57684326 70.89053345 C10.58630516 81.17235393 9.58931171 91.45353314 8.58765221 101.73427582 C7.53648023 112.52323246 6.48859465 123.31249932 5.44519997 134.102211 C5.38026318 134.77368412 5.31532639 135.44515724 5.24842182 136.13697803 C4.98482163 138.86280663 4.72124364 141.58863737 4.45769573 144.31447102 C1.98531551 169.88569278 -0.49655815 195.45598488 -2.98323026 221.02582038 C-5.19125154 243.73080593 -7.39293269 266.43639681 -9.58862305 289.14257812 C-9.72955304 290.59994502 -9.87048304 292.05731191 -10.01141308 293.51467881 C-10.08108647 294.23518055 -10.15075987 294.95568229 -10.22254459 295.69801742 C-10.57329098 299.32512127 -10.92404499 302.95222438 -11.27480793 306.57932663 C-11.37861195 307.6527405 -11.37861195 307.6527405 -11.48451303 308.7478395 C-13.32033171 327.73096572 -15.16026419 346.7136931 -17.00160378 365.69628453 C-17.06713863 366.37189295 -17.13267348 367.04750136 -17.20019424 367.74358275 C-17.46371524 370.46023134 -17.72723741 373.17687982 -17.99078215 375.89352611 C-18.90652279 385.33322804 -19.82092929 394.77305833 -20.73447881 404.21297255 C-21.91228126 416.38319471 -23.09304366 428.55312487 -24.27846424 440.72260758 C-24.84986058 446.58912491 -25.41996675 452.45575964 -25.98648643 458.32275009 C-26.50547874 463.6970407 -27.02833097 469.07094149 -27.55422833 474.44456068 C-27.74348179 476.38516324 -27.9313537 478.32590116 -28.11767808 480.26678714 C-28.88842085 488.28848206 -29.65987876 496.31722214 -30.75197124 504.30247879 C-30.87285852 505.20240216 -30.9937458 506.10232554 -31.11829633 507.02951932 C-32.09010809 509.88121585 -33.30161325 510.75409018 -35.875 512.25 C-39.85234908 512.86958892 -43.85453604 512.71357612 -47.875 512.6875 C-48.968125 512.70748047 -50.06125 512.72746094 -51.1875 512.74804688 C-52.239375 512.74740234 -53.29125 512.74675781 -54.375 512.74609375 C-55.3340625 512.74794678 -56.293125 512.7497998 -57.28125 512.75170898 C-60.69420167 512.09154185 -61.72730022 510.95516815 -63.875 508.25 C-65.65677554 497.43701592 -63.1747703 485.01337838 -62.11088562 474.1631012 C-61.91859649 472.15140789 -61.72688704 470.13965911 -61.535703 468.12786049 C-61.01163586 462.63125067 -60.47927198 457.1354721 -59.94545662 451.63980162 C-59.37005513 445.70098555 -58.80235748 439.76143222 -58.23361206 433.82197571 C-57.11951342 422.20099626 -55.99806755 410.58073506 -54.87373813 398.96074177 C-53.96017557 389.5186378 -53.04891447 380.0763143 -52.13926125 370.63383293 C-52.00837793 369.27534023 -51.87749327 367.91684766 -51.74660728 366.55835522 C-51.64914688 365.54679121 -51.64914688 365.54679121 -51.54971759 364.51479156 C-51.48462328 363.83916462 -51.41952897 363.16353769 -51.35246211 362.46743721 C-51.25465538 361.45226239 -51.25465538 361.45226239 -51.15487275 360.41657899 C-49.32250285 341.39843436 -47.48730899 322.38056394 -45.64631939 303.36325169 C-45.54234122 302.28914768 -45.54234122 302.28914768 -45.43626249 301.19334461 C-45.0849476 297.56430713 -44.73360822 293.93527202 -44.3822607 290.30623771 C-44.31248613 289.58554017 -44.24271156 288.86484263 -44.1708226 288.12230577 C-44.0297217 286.664886 -43.8886193 285.20746637 -43.7475154 283.75004689 C-41.54992888 261.05110854 -39.36212989 238.35124511 -37.18188477 215.65063477 C-34.730716 190.1293146 -32.27184017 164.60875345 -29.80181438 139.08925098 C-29.53858025 136.36932195 -29.275374 133.64939021 -29.01218605 130.92945671 C-28.91497735 129.92492446 -28.91497735 129.92492446 -28.81580483 128.90009863 C-27.83758368 118.7896896 -26.86543937 108.67870795 -25.89639854 98.56741524 C-24.79499201 87.07501009 -23.68540169 75.58342699 -22.56552394 64.09280635 C-21.99428661 58.2292352 -21.42679086 52.36536476 -20.86926079 46.50047302 C-20.35902115 41.13406034 -19.83821042 35.76878378 -19.30888329 30.40422117 C-19.1190763 28.46144421 -18.9331721 26.51828126 -18.75152632 24.57472426 C-18.50433788 21.93607628 -18.24304155 19.29919252 -17.9781599 16.66227055 C-17.87687511 15.52628916 -17.87687511 15.52628916 -17.77354416 14.36735865 C-17.26294617 9.4841867 -16.12200142 5.6351628 -13.875 1.25 C-9.77746223 -0.79876888 -4.50346243 0.02092201 0 0 Z " fill="#000000" transform="translate(167.875,-0.25)"/>
<path d="M0 0 C1.093125 -0.01998047 2.18625 -0.03996094 3.3125 -0.06054688 C4.364375 -0.05990234 5.41625 -0.05925781 6.5 -0.05859375 C7.4590625 -0.06044678 8.418125 -0.0622998 9.40625 -0.06420898 C12.81793662 0.59571346 13.82040831 1.75909487 16 4.4375 C16.75827491 7.19944763 16.75827491 7.19944763 17.12582207 10.45874023 C17.2733888 11.71137665 17.42095554 12.96401306 17.57299399 14.25460815 C17.71682829 15.6487516 17.85911106 17.04305582 18 18.4375 C18.15737537 19.90368682 18.31504615 21.36984195 18.47298646 22.83596802 C19.00893816 27.92021694 19.49793807 33.0087066 19.98684692 38.09765625 C20.17804673 40.0631923 20.36952233 42.02870154 20.56124771 43.9941864 C21.08407513 49.36240001 21.60294036 54.73099011 22.12110877 60.09965515 C22.68185458 65.90226995 23.24627268 71.70452775 23.81018066 77.50683594 C24.91298348 88.86061319 26.01223868 100.21473118 27.11006393 111.56899071 C28.00252525 120.79917286 28.89597907 130.02925841 29.7901268 139.25927734 C30.04798664 141.92119809 30.30584084 144.58311939 30.56369293 147.24504089 C30.62780415 147.90688792 30.69191537 148.56873495 30.75796936 149.25063795 C32.55961803 167.8502583 34.35984048 186.45001624 36.15722847 205.05004883 C36.25874778 206.10059513 36.25874778 206.10059513 36.36231799 207.17236459 C36.70530467 210.72169832 37.04828162 214.27103298 37.39125682 217.82036781 C37.45936737 218.52521757 37.52747791 219.23006733 37.59765241 219.95627618 C37.73538812 221.38165028 37.8731229 222.80702447 38.01085677 224.23239875 C40.15448015 246.41582938 42.30348419 268.59873323 44.45654297 290.78125 C46.8781233 315.73032243 49.29515188 340.67983025 51.70582473 365.62995911 C52.98138113 378.83093005 54.25906018 392.03168929 55.54211807 405.23193359 C56.63412034 416.46696204 57.72147705 427.70242812 58.80283679 438.9384861 C59.35439061 444.66810659 59.90808564 450.39749833 60.46764755 456.12634277 C60.98037315 461.37623715 61.48684394 466.62669699 61.98845576 471.87766457 C62.17044564 473.77138297 62.35467326 475.66488802 62.54143561 477.55814171 C65.40854541 506.66196654 65.40854541 506.66196654 62.13971531 510.7824707 C59.42831851 512.87968481 57.90210284 512.94016703 54.5 512.93359375 C53.448125 512.93423828 52.39625 512.93488281 51.3125 512.93554688 C50.219375 512.91556641 49.12625 512.89558594 48 512.875 C46.906875 512.88208984 45.81375 512.88917969 44.6875 512.89648438 C35.56014495 512.82377873 35.56014495 512.82377873 32 509.4375 C31.24329633 507.00116235 31.24329633 507.00116235 30.87697124 503.99512196 C30.72938094 502.8246191 30.58179065 501.65411624 30.42972791 500.4481436 C30.28414985 499.1115147 30.14102352 497.77461711 30 496.4375 C29.92217494 495.73141365 29.84434988 495.0253273 29.76416649 494.2978444 C29.11533698 488.37520391 28.5399159 482.44606651 27.96846008 476.51554871 C27.77246063 474.50947253 27.57614647 472.50342708 27.37954682 470.49740964 C26.84296862 465.01277995 26.31093161 459.52771802 25.77968919 454.04256928 C25.20496678 448.11663742 24.62605356 442.1911147 24.04772949 436.26553345 C22.91673781 424.66970049 21.78982311 413.07347417 20.66463081 401.47707727 C20.53429238 400.13379194 20.40395318 398.79050669 20.27361321 397.44722152 C20.2088928 396.78020891 20.14417239 396.11319629 20.07749075 395.42597118 C19.35877947 388.0196733 18.63879133 380.61349963 17.91875267 373.2073307 C15.743365 350.83040273 13.5691061 328.4533659 11.39980793 306.07584667 C11.33052031 305.3611194 11.26123269 304.64639213 11.18984545 303.91000645 C10.83869513 300.2877451 10.48755412 296.66548285 10.13641308 293.0432206 C9.9954831 291.58944199 9.85455309 290.13566337 9.71362305 288.68188477 C9.60888916 287.6014721 9.60888916 287.6014721 9.50203943 286.49923291 C7.3060093 263.84596679 5.10315322 241.19337296 2.89526367 218.54125977 C0.41314531 193.07565063 -2.06299607 167.6094696 -4.53088027 142.14247686 C-4.79396491 139.42784594 -5.05707384 136.71321737 -5.32019997 133.99859047 C-5.38498246 133.33020638 -5.44976496 132.66182228 -5.51651056 131.97318412 C-6.55911041 121.21780028 -7.60742342 110.46298066 -8.6577496 99.70834891 C-9.71257919 88.90602904 -10.76071368 78.10307555 -11.80250796 67.29949071 C-12.36704834 61.44696941 -12.93444502 55.59476187 -13.50947762 49.74326134 C-14.03564118 44.3883312 -14.5537036 39.0326817 -15.06528685 33.67633954 C-15.25190486 31.73753845 -15.44150414 29.79902155 -15.63436397 27.8608314 C-15.89590929 25.22792677 -16.14659979 22.5942026 -16.39461803 19.95999432 C-16.47207759 19.2066189 -16.54953714 18.45324349 -16.62934396 17.67703852 C-17.07781354 12.7498754 -16.8771149 8.31835655 -16 3.4375 C-11.9312916 -1.23284554 -5.70523453 -0.03700329 0 0 Z " fill="#000000" transform="translate(344,-0.4375)"/>
<path d="M0 0 C63.36 0 126.72 0 192 0 C194.65497437 18.58482057 196.22010114 37.31106198 198 56 C130.68 56 63.36 56 -6 56 C-1 4 -1 4 0 0 Z " fill="#000000" transform="translate(160,420)"/>
<path d="M0 0 C57.42 0 114.84 0 174 0 C179 48 179 48 179 56 C118.28 56 57.56 56 -5 56 C-3.96044059 37.28793067 -1.96188956 18.63795084 0 0 Z " fill="#000000" transform="translate(169,324)"/>
<path d="M0 0 C51.48 0 102.96 0 156 0 C161 51 161 51 161 56 C106.22 56 51.44 56 -5 56 C-3.56263676 37.31427793 -1.86479161 18.64791609 0 0 Z " fill="#000000" transform="translate(178,228)"/>
<path d="M0 0 C44.88 0 89.76 0 136 0 C144.39576613 16.79153226 140.26911654 37.30645868 142 56 C93.16 56 44.32 56 -6 56 C-1 3 -1 3 0 0 Z " fill="#000000" transform="translate(188,132)"/>
<path d="M0 0 C38.94 0 77.88 0 118 0 C119.33183632 10.65469059 120.5903593 21.25852994 121.625 31.9375 C121.76033557 33.28190921 121.89575214 34.62631026 122.03125 35.97070312 C122.15757812 37.26814453 122.28390625 38.56558594 122.4140625 39.90234375 C122.5270166 41.05210693 122.6399707 42.20187012 122.75634766 43.38647461 C123.03925922 47.58224018 123 51.79470718 123 56 C80.76 56 38.52 56 -5 56 C-5 45.87345519 -5 45.87345519 -4.64868164 42.20214844 C-4.57182632 41.37809509 -4.49497101 40.55404175 -4.41578674 39.70501709 C-4.33142868 38.8484552 -4.24707062 37.99189331 -4.16015625 37.109375 C-4.07374374 36.20173401 -3.98733124 35.29409302 -3.89830017 34.35894775 C-3.71621719 32.45622509 -3.53207303 30.55369864 -3.34594727 28.65136719 C-3.06197439 25.74461987 -2.78538025 22.83723803 -2.50976562 19.9296875 C-2.33116284 18.0728749 -2.15214102 16.21610255 -1.97265625 14.359375 C-1.89032242 13.49471619 -1.80798859 12.63005737 -1.72315979 11.73919678 C-1.64315231 10.92775208 -1.56314484 10.11630737 -1.48071289 9.28027344 C-1.41187393 8.57239685 -1.34303497 7.86452026 -1.27210999 7.13519287 C-0.96669643 4.73867354 -0.47379736 2.36898679 0 0 Z " fill="#000000" transform="translate(197,36)"/>
<path d="M0 0 C0.90073242 0.02618408 1.80146484 0.05236816 2.72949219 0.0793457 C4.19902344 0.10351562 4.19902344 0.10351562 5.69824219 0.12817383 C7.22191406 0.19101562 7.22191406 0.19101562 8.77636719 0.25512695 C9.80761719 0.27768555 10.83886719 0.30024414 11.90136719 0.32348633 C14.44450784 0.38235532 16.98469831 0.46452631 19.52636719 0.56762695 C18.11640792 19.26161111 16.38227326 37.91372529 14.52636719 56.56762695 C11.11014931 56.71302648 7.69472728 56.8017242 4.27636719 56.88012695 C3.30828125 56.92202148 2.34019531 56.96391602 1.34277344 57.00708008 C-5.73953007 57.12918876 -5.73953007 57.12918876 -9.14941406 54.52075195 C-10.80157103 50.83629572 -10.79834171 47.92589617 -10.41113281 44.00512695 C-10.35094971 43.25078369 -10.2907666 42.49644043 -10.22875977 41.71923828 C-10.08418919 39.99778067 -9.92730402 38.27733046 -9.76074219 36.55786133 C-9.43370739 33.15180508 -9.15121807 29.74291019 -8.86425781 26.33325195 C-8.63273009 23.80694772 -8.39835677 21.28090266 -8.16113281 18.75512695 C-8.05599365 17.53301514 -7.95085449 16.31090332 -7.8425293 15.05175781 C-7.66572632 13.31744507 -7.66572632 13.31744507 -7.48535156 11.5480957 C-7.38697998 10.51579834 -7.2886084 9.48350098 -7.18725586 8.41992188 C-6.12014019 4.15474489 -4.47777283 1.02751893 0 0 Z " fill="#000000" transform="translate(86.4736328125,323.432373046875)"/>
<path d="M0 0 C3.582906 -0.14533755 7.16505417 -0.23407931 10.75 -0.3125 C11.76578125 -0.35439453 12.7815625 -0.39628906 13.828125 -0.43945312 C14.8078125 -0.45556641 15.7875 -0.47167969 16.796875 -0.48828125 C18.14797363 -0.52755737 18.14797363 -0.52755737 19.52636719 -0.56762695 C22 0 22 0 24.24609375 1.98217773 C26.54020793 5.92949753 26.89249316 9.27848604 27.265625 13.7734375 C27.34874939 14.6154068 27.43187378 15.4573761 27.51751709 16.32485962 C27.77790762 19.00698144 28.01385404 21.69064693 28.25 24.375 C28.42296493 26.17202139 28.59742903 27.96889915 28.7734375 29.765625 C29.22626083 34.50809081 29.67314708 39.2470022 30 44 C30.09764648 45.23830566 30.19529297 46.47661133 30.29589844 47.75244141 C30 51 30 51 28.671875 53.91796875 C24.48533871 57.18028431 20.39105552 56.53498243 15.25 56.3125 C14.26644531 56.28994141 13.28289062 56.26738281 12.26953125 56.24414062 C9.8448053 56.18528805 7.42318017 56.10313431 5 56 C4.28524511 48.66790183 3.57346839 41.33551896 2.86376953 34.00292969 C2.6219442 31.50807127 2.37943508 29.01327903 2.13623047 26.51855469 C1.78694094 22.9344164 1.44010446 19.35004796 1.09375 15.765625 C0.9843811 14.64883362 0.87501221 13.53204224 0.7623291 12.38140869 C0.66222534 11.34063171 0.56212158 10.29985474 0.45898438 9.22753906 C0.37015991 8.31264709 0.28133545 7.39775513 0.18981934 6.45513916 C0.02388272 4.30890115 0 2.15264315 0 0 Z " fill="#000000" transform="translate(406,324)"/>
<path d="M0 0 C3.4165052 -0.08724706 6.83272313 -0.14047325 10.25 -0.1875 C11.70212891 -0.22520508 11.70212891 -0.22520508 13.18359375 -0.26367188 C14.58544922 -0.27817383 14.58544922 -0.27817383 16.015625 -0.29296875 C16.87446289 -0.3086792 17.73330078 -0.32438965 18.61816406 -0.34057617 C21.60688974 0.08677851 22.89298654 0.84387064 25 3 C25.7644043 5.30712891 25.7644043 5.30712891 26.13671875 8.1015625 C26.28286621 9.17180664 26.42901367 10.24205078 26.57958984 11.34472656 C26.7183252 12.5509668 26.85706055 13.75720703 27 15 C27.07784729 15.65754272 27.15569458 16.31508545 27.23590088 16.99255371 C27.74685785 21.35756045 28.1922239 25.7260181 28.59741211 30.10205078 C28.74189291 31.62885695 28.89435844 33.15492675 29.05444336 34.68017578 C29.28921888 36.91828966 29.5006825 39.15754507 29.70703125 41.3984375 C29.78186234 42.07353363 29.85669342 42.74862976 29.93379211 43.44418335 C30.32690485 48.12881044 29.51273883 51.0436776 27 55 C24.59940183 56.20029908 23.10639351 56.11459743 20.4296875 56.09765625 C19.53378906 56.09443359 18.63789063 56.09121094 17.71484375 56.08789062 C16.30912109 56.07532227 16.30912109 56.07532227 14.875 56.0625 C13.93011719 56.05798828 12.98523438 56.05347656 12.01171875 56.04882812 C9.67441613 56.03702357 7.33723939 56.02055759 5 56 C4.28289673 49.15033795 3.57141127 42.30010883 2.86376953 35.44946289 C2.62254082 33.12055346 2.38004147 30.79177527 2.13623047 28.46313477 C1.7853665 25.1098777 1.43912245 21.75617032 1.09375 18.40234375 C0.9843811 17.36665756 0.87501221 16.33097137 0.7623291 15.26390076 C0.23968555 10.14475437 -0.12619853 5.14574509 0 0 Z " fill="#000000" transform="translate(397,228)"/>
<path d="M0 0 C3.582906 -0.14533755 7.16505417 -0.23407931 10.75 -0.3125 C11.76578125 -0.35439453 12.7815625 -0.39628906 13.828125 -0.43945312 C14.8078125 -0.45556641 15.7875 -0.47167969 16.796875 -0.48828125 C18.14797363 -0.52755737 18.14797363 -0.52755737 19.52636719 -0.56762695 C22 0 22 0 24.26196289 2.15283203 C26.19027838 5.31170479 26.66553205 7.37837979 27.01171875 11.04296875 C27.12966797 12.19990234 27.24761719 13.35683594 27.36914062 14.54882812 C27.47419922 15.74958984 27.57925781 16.95035156 27.6875 18.1875 C27.86249023 19.95963867 27.86249023 19.95963867 28.04101562 21.76757812 C28.26894632 24.09195607 28.48941685 26.41707936 28.7019043 28.74291992 C29.04035152 32.44089241 29.41477077 36.13445077 29.796875 39.828125 C30.71019736 49.59364873 30.71019736 49.59364873 28.6171875 53.73828125 C24.62752434 57.18606478 20.9039696 56.58281509 15.8125 56.375 C14.88501953 56.36082031 13.95753906 56.34664062 13.00195312 56.33203125 C6.18236958 56.18236958 6.18236958 56.18236958 5 55 C4.75983929 53.3934843 4.5809657 51.77774538 4.42749023 50.16064453 C4.32746201 49.12932404 4.22743378 48.09800354 4.12437439 47.03543091 C4.02016678 45.91256683 3.91595917 44.78970276 3.80859375 43.6328125 C3.69902847 42.48714813 3.5894632 41.34148376 3.47657776 40.16110229 C3.24507598 37.7317856 3.01572428 35.30226322 2.78833008 32.87255859 C2.43962174 29.1476644 2.0846674 25.42340788 1.72851562 21.69921875 C1.50484143 19.34378481 1.28152237 16.98831712 1.05859375 14.6328125 C0.95236191 13.51399689 0.84613007 12.39518127 0.73667908 11.24246216 C0.63980301 10.20483734 0.54292694 9.16721252 0.44311523 8.09814453 C0.35730698 7.18404816 0.27149872 6.26995178 0.18309021 5.32815552 C0 3 0 3 0 0 Z " fill="#000000" transform="translate(378,36)"/>
<path d="M0 0 C0.94101563 0.00322266 1.88203125 0.00644531 2.8515625 0.00976562 C3.83640625 0.01814453 4.82125 0.02652344 5.8359375 0.03515625 C6.82851562 0.03966797 7.82109375 0.04417969 8.84375 0.04882812 C11.2995391 0.0606348 13.75520854 0.07710225 16.2109375 0.09765625 C15.59729127 12.66869619 14.47791564 25.14625357 13.1484375 37.66015625 C12.95993634 39.46155194 12.77178356 41.26298412 12.58398438 43.06445312 C12.13029821 47.40928334 11.67196692 51.75359935 11.2109375 56.09765625 C7.96123981 56.21403661 4.7120792 56.28496206 1.4609375 56.34765625 C0.08035156 56.39792969 0.08035156 56.39792969 -1.328125 56.44921875 C-8.08277454 56.54711222 -8.08277454 56.54711222 -11.3671875 54.45703125 C-14.65847383 48.99566602 -13.72721527 43.00733532 -13.1171875 36.9375 C-12.99256134 35.63625938 -12.99256134 35.63625938 -12.86541748 34.30873108 C-12.68776243 32.48203397 -12.50598086 30.65573401 -12.3203125 28.82983398 C-12.03975921 26.04207922 -11.78093513 23.25285784 -11.5234375 20.46289062 C-11.34767229 18.68346306 -11.17063189 16.90416089 -10.9921875 15.125 C-10.87946503 13.87951637 -10.87946503 13.87951637 -10.76446533 12.60887146 C-10.28409336 8.0928218 -9.65603842 4.79428478 -6.7890625 1.09765625 C-4.33631109 -0.12871945 -2.7384844 -0.01649689 0 0 Z " fill="#000000" transform="translate(98.7890625,227.90234375)"/>
<path d="M0 0 C3.41637953 -0.11632513 6.83224897 -0.18728897 10.25 -0.25 C11.70212891 -0.30027344 11.70212891 -0.30027344 13.18359375 -0.3515625 C20.28881088 -0.44956549 20.28881088 -0.44956549 23.6015625 1.64453125 C25.30065392 4.50640869 25.74773245 6.62637519 26.125 9.9375 C26.269375 11.17242187 26.41375 12.40734375 26.5625 13.6796875 C26.70901323 15.11972265 26.85479406 16.55983244 27 18 C27.18735508 19.71095338 27.37486271 21.42189005 27.5625 23.1328125 C30.37850419 49.68302262 30.37850419 49.68302262 27.6171875 54.32421875 C23.51288996 56.95219434 19.50821569 56.42326836 14.75 56.25 C13.34621094 56.22292969 13.34621094 56.22292969 11.9140625 56.1953125 C9.60832985 56.14825673 7.30469055 56.08253713 5 56 C3.56860097 45.74409025 2.37077443 35.49579753 1.375 25.1875 C1.23969717 23.84699371 1.10428069 22.50649889 0.96875 21.16601562 C0.28000707 14.08531663 -0.20799965 7.11505859 0 0 Z " fill="#000000" transform="translate(388,132)"/>
<path d="M0 0 C0.98291016 0.00966797 1.96582031 0.01933594 2.97851562 0.02929688 C4.00267578 0.05443359 5.02683594 0.07957031 6.08203125 0.10546875 C7.63567383 0.12577148 7.63567383 0.12577148 9.22070312 0.14648438 C11.77916824 0.18185486 14.33658905 0.23121331 16.89453125 0.29296875 C16.34377248 6.37619313 15.79239953 12.45936143 15.24047852 18.54248047 C15.05313869 20.60822069 14.86596132 22.67397565 14.67895508 24.73974609 C14.40880239 27.72367257 14.13804892 30.70754404 13.8671875 33.69140625 C13.78485367 34.60223969 13.70251984 35.51307312 13.61769104 36.45150757 C13.45867752 38.20080642 13.29793501 39.94994915 13.13528442 41.69891357 C12.96803711 43.50096151 12.80551414 45.30345166 12.646698 47.10626221 C12.56404694 48.00528259 12.48139587 48.90430298 12.39624023 49.83056641 C12.28758888 51.04445541 12.28758888 51.04445541 12.17674255 52.28286743 C11.89453125 54.29296875 11.89453125 54.29296875 10.89453125 56.29296875 C7.64500377 56.43843658 4.39631412 56.52708555 1.14453125 56.60546875 C0.22414063 56.64736328 -0.69625 56.68925781 -1.64453125 56.73242188 C-8.34863971 56.85387312 -8.34863971 56.85387312 -11.74609375 54.3359375 C-13.59744838 50.19166952 -13.46141135 46.71297454 -13.10546875 42.29296875 C-13.01813477 41.13780762 -12.93080078 39.98264648 -12.84082031 38.79248047 C-12.56484698 35.46108807 -12.26093768 32.13539189 -11.93359375 28.80883789 C-11.73061199 26.73193438 -11.5387728 24.65419682 -11.34765625 22.57617188 C-9.72739954 5.47900801 -9.72739954 5.47900801 -6.85668945 1.60986328 C-4.48050809 -0.1769933 -2.95111579 -0.05117542 0 0 Z " fill="#000000" transform="translate(117.10546875,35.70703125)"/>
<path d="M0 0 C3.58305992 -0.11627503 7.16563417 -0.1872736 10.75 -0.25 C11.76578125 -0.28351563 12.7815625 -0.31703125 13.828125 -0.3515625 C14.8078125 -0.36445313 15.7875 -0.37734375 16.796875 -0.390625 C17.69760742 -0.41157227 18.59833984 -0.43251953 19.52636719 -0.45410156 C22.87297019 0.16025706 23.98120767 1.29211294 26 4 C26.71362305 6.66625977 26.71362305 6.66625977 27.01171875 9.69140625 C27.12966797 10.80193359 27.24761719 11.91246094 27.36914062 13.05664062 C27.47419922 14.21357422 27.57925781 15.37050781 27.6875 16.5625 C27.86249023 18.25729492 27.86249023 18.25729492 28.04101562 19.98632812 C28.38098362 23.32262417 28.69460171 26.66037841 29 30 C29.09643799 31.02416016 29.19287598 32.04832031 29.29223633 33.10351562 C30.80854045 49.37604765 30.80854045 49.37604765 28.62109375 53.76953125 C24.60912134 57.18359421 20.8357754 56.54399538 15.75 56.3125 C14.81414062 56.28994141 13.87828125 56.26738281 12.9140625 56.24414062 C10.60774326 56.18530595 8.30469162 56.10317146 6 56 C3.93812597 44.29615921 2.93433241 32.514761 1.875 20.6875 C1.69177417 18.67509668 1.50818321 16.66272656 1.32421875 14.65039062 C0.87860469 9.76729951 0.43792486 4.88378645 0 0 Z " fill="#000000" transform="translate(415,420)"/>
<path d="M0 0 C0.94101563 0.00322266 1.88203125 0.00644531 2.8515625 0.00976562 C3.83640625 0.01814453 4.82125 0.02652344 5.8359375 0.03515625 C6.82851562 0.03966797 7.82109375 0.04417969 8.84375 0.04882812 C11.29954208 0.06063482 13.75519984 0.07794936 16.2109375 0.09765625 C16.31742145 6.74814288 16.04381498 13.25204852 15.37109375 19.8671875 C15.28468124 20.7512175 15.19826874 21.6352475 15.10923767 22.54606628 C14.92742383 24.39576623 14.74328282 26.24523882 14.55688477 28.09448242 C14.27245895 30.91987685 13.99601549 33.74597005 13.72070312 36.57226562 C13.5421324 38.37895234 13.36311184 40.18559467 13.18359375 41.9921875 C13.10125992 42.83183548 13.01892609 43.67148346 12.93409729 44.53657532 C12.53758117 48.4428668 12.08341666 52.26194884 11.2109375 56.09765625 C7.96123981 56.21403661 4.7120792 56.28496206 1.4609375 56.34765625 C0.08035156 56.39792969 0.08035156 56.39792969 -1.328125 56.44921875 C-2.21757813 56.46210938 -3.10703125 56.475 -4.0234375 56.48828125 C-5.24885254 56.51970215 -5.24885254 56.51970215 -6.49902344 56.55175781 C-9.71837248 55.91337943 -10.85647038 54.71734964 -12.7890625 52.09765625 C-13.22583008 49.42138672 -13.22583008 49.42138672 -13.12109375 46.33984375 C-13.0845166 45.18709961 -13.04793945 44.03435547 -13.01025391 42.84667969 C-12.66367871 36.97249791 -12.24317564 31.11317245 -11.67211914 25.25683594 C-11.47484103 23.20474954 -11.29671115 21.15153096 -11.11914062 19.09765625 C-9.96566102 6.56891849 -9.96566102 6.56891849 -6.7890625 1.09765625 C-4.33631109 -0.12871945 -2.7384844 -0.01649689 0 0 Z " fill="#000000" transform="translate(107.7890625,131.90234375)"/>
<path d="M0 0 C0.98291016 0.00966797 1.96582031 0.01933594 2.97851562 0.02929688 C4.00267578 0.05443359 5.02683594 0.07957031 6.08203125 0.10546875 C7.63567383 0.12577148 7.63567383 0.12577148 9.22070312 0.14648438 C11.77916824 0.18185486 14.33658905 0.23121331 16.89453125 0.29296875 C16.20505173 7.62573489 15.51080556 14.95803847 14.81323242 22.29003906 C14.57645458 24.7847265 14.34077102 27.27951805 14.10620117 29.77441406 C13.76898745 33.3590031 13.42784945 36.94320018 13.0859375 40.52734375 C12.98172989 41.64413513 12.87752228 42.76092651 12.77015686 43.91156006 C12.67012863 44.95233704 12.5701004 45.99311401 12.46704102 47.06542969 C12.38043716 47.98032166 12.29383331 48.89521362 12.2046051 49.83782959 C11.92379256 52.06128011 11.49293144 54.13602942 10.89453125 56.29296875 C7.64500377 56.43843658 4.39631412 56.52708555 1.14453125 56.60546875 C0.22414063 56.64736328 -0.69625 56.68925781 -1.64453125 56.73242188 C-8.29831511 56.85296144 -8.29831511 56.85296144 -11.74609375 54.4609375 C-15.35481399 46.05096015 -12.81340296 35.43395723 -11.93359375 26.5480957 C-11.72915245 24.46706999 -11.53800411 22.3850912 -11.34765625 20.30273438 C-11.21824293 18.95955858 -11.08806203 17.61645647 -10.95703125 16.2734375 C-10.84182129 15.07614014 -10.72661133 13.87884277 -10.60791016 12.64526367 C-9.50493966 5.28623166 -8.20662757 -0.14231146 0 0 Z " fill="#000000" transform="translate(80.10546875,419.70703125)"/>
</svg>
