<?xml version="1.0" encoding="UTF-8"?>
<svg version="1.1" xmlns="http://www.w3.org/2000/svg" width="512" height="512">
<path d="M0 0 C12.86594544 11.00706696 20.82825935 26.2124448 23 43 C24.24073206 61.34656264 20.36715498 79.62945722 8.03955078 93.88720703 C-4.75910613 107.9140402 -20.83438516 117.15135697 -40.05078125 118.16015625 C-60.34457546 118.67935232 -77.65693557 111.98736301 -92.375 98.125 C-104.4933596 85.24127032 -110.69553255 68.51844345 -111.375 51 C-110.51102062 31.12847431 -102.74419436 14.30561002 -88.5 0.4375 C-79.52683357 -7.3610967 -68.6721061 -12.73962553 -57 -15 C-55.2984375 -15.3403125 -55.2984375 -15.3403125 -53.5625 -15.6875 C-33.61348752 -17.43741338 -15.5121703 -12.87229795 0 0 Z " fill="#FF7235" transform="translate(300,205)"/>
<path d="M0 0 C3.94090823 2.59366751 5.77919269 6.07508176 7.1875 10.5 C8.03068833 16.40231834 6.63090974 20.75320242 3.1875 25.5 C0.01558657 28.69397891 -3.38874495 31.58130198 -6.8125 34.5 C-12.77382068 39.98096633 -17.78185174 46.17031922 -22.8125 52.5 C-23.59625 53.45519531 -24.38 54.41039062 -25.1875 55.39453125 C-56.12180171 94.01283418 -72.31099166 143.58984642 -72.1875 192.8125 C-72.18695618 193.63638214 -72.18641235 194.46026428 -72.18585205 195.30911255 C-72.00348931 255.85281232 -46.95713792 312.41680822 -4.3125 355.125 C-2.81535019 356.58625923 -1.3154358 358.04469244 0.1875 359.5 C4.7054925 363.89376406 6.84488758 366.47359032 7.5625 372.8125 C7.03511416 377.99846073 5.58573482 382.28194344 1.6796875 385.89453125 C-2.19021941 388.44146998 -5.83726048 388.96305613 -10.40625 389.03125 C-18.95201864 387.14452186 -24.67063331 380.11374787 -30.5625 374.125 C-31.2959967 373.38552124 -31.2959967 373.38552124 -32.04431152 372.63110352 C-39.58870224 365.0143905 -46.56182935 357.21915584 -52.8125 348.5 C-53.66269038 347.35444913 -54.51428501 346.20993929 -55.3671875 345.06640625 C-61.41588059 336.87446644 -66.77884662 328.34751627 -71.8125 319.5 C-72.15522949 318.90106934 -72.49795898 318.30213867 -72.85107422 317.68505859 C-84.77928695 296.65508853 -93.40479815 273.46061742 -98.625 249.875 C-98.89896606 248.64571777 -98.89896606 248.64571777 -99.1784668 247.39160156 C-102.85221864 229.62862958 -104.36833312 211.98833847 -104.25 193.875 C-104.24695862 192.87797058 -104.24391724 191.88094116 -104.24078369 190.85369873 C-104.16714151 174.44851292 -103.2025833 158.59902572 -99.8125 142.5 C-99.59819336 141.46875 -99.38388672 140.4375 -99.16308594 139.375 C-90.32142045 98.19111419 -71.33838766 59.40153709 -43.8125 27.5 C-43.16667969 26.74332031 -42.52085938 25.98664063 -41.85546875 25.20703125 C-36.80202919 19.43857347 -31.43980003 13.96517187 -26.0625 8.5 C-24.96228516 7.36763916 -24.96228516 7.36763916 -23.83984375 6.21240234 C-23.13472656 5.50293457 -22.42960937 4.7934668 -21.703125 4.0625 C-21.07438477 3.42441406 -20.44564453 2.78632812 -19.79785156 2.12890625 C-14.20237706 -2.46197002 -6.48149818 -3.1501475 0 0 Z " fill="#FF9965" transform="translate(103.8125,62.5)"/>
<path d="M0 0 C5.72894883 2.70464451 9.75231866 6.36625833 14.11865234 10.90454102 C14.81812988 11.61908447 15.51760742 12.33362793 16.23828125 13.06982422 C21.57620038 18.57939457 26.49887612 24.26220326 31.18115234 30.34204102 C31.94169922 31.2740332 32.70224609 32.20602539 33.48583984 33.16625977 C56.75520412 62.19720785 72.97282008 97.72777548 80.99365234 133.96704102 C81.26761841 135.19632324 81.26761841 135.19632324 81.54711914 136.45043945 C85.24641011 154.33689574 86.70757711 172.04253457 86.55615234 190.27954102 C86.55149963 191.28529175 86.54684692 192.29104248 86.54205322 193.32727051 C86.46339464 207.84943163 86.10234132 222.07213873 83.18115234 236.34204102 C82.89111328 237.83695068 82.89111328 237.83695068 82.59521484 239.36206055 C73.41593979 285.81797498 52.48669374 328.61517699 20.18115234 363.34204102 C18.98894022 364.71295731 17.80123235 366.08780725 16.61865234 367.46704102 C3.45979818 382.44509161 3.45979818 382.44509161 -6.31884766 383.84204102 C-11.38274315 383.11862737 -15.66686637 381.66883311 -19.21337891 377.83422852 C-22.15415906 373.36590531 -22.80106738 368.57169738 -21.81884766 363.34204102 C-19.56550508 357.1298848 -14.98750632 353.29552341 -10.31884766 348.84204102 C-2.75670452 341.45137163 4.00134874 333.91136869 10.18115234 325.34204102 C10.94427734 324.30047852 11.70740234 323.25891602 12.49365234 322.18579102 C39.94002325 283.68463183 54.67541052 238.24688465 54.55615234 190.96704102 C54.55560852 190.14565643 54.5550647 189.32427185 54.55450439 188.47799683 C54.3871973 133.06655505 33.67222481 80.64927107 -3.65087891 39.72875977 C-6.2339384 36.88506724 -8.74486839 33.98322072 -11.25634766 31.07641602 C-12.95352295 29.14183282 -12.95352295 29.14183282 -15.56884766 26.77954102 C-18.69803539 23.38958764 -20.68824669 20.03764486 -20.91650391 15.32641602 C-20.5342821 10.44143488 -19.06552754 7.10135456 -15.81884766 3.34204102 C-11.01596358 -0.49549911 -6.06772346 -2.19496842 0 0 Z " fill="#FF1D54" transform="translate(425.81884765625,64.657958984375)"/>
<path d="M0 0 C4.34731225 2.2146685 7.48432837 4.80721395 10 9 C11.39881754 14.08748022 11.47898072 18.15571947 9.22436523 23.04980469 C6.56432873 27.28676811 2.68026936 30.52980594 -0.9375 33.9375 C-13.88802808 46.53514268 -23.77679631 59.93691173 -32 76 C-32.31807617 76.61697754 -32.63615234 77.23395508 -32.96386719 77.86962891 C-52.14546173 115.58140544 -55.24780493 159.75672532 -42.65625 200.0390625 C-33.59310035 227.70945689 -17.96247898 254.07746275 4.5625 272.9375 C8.3666861 276.17224452 10.51323019 279.03512933 11.34375 284.09375 C11.70696167 289.39664032 10.55730703 293.01601081 7.4765625 297.3359375 C4.68733887 300.47934826 1.99249333 301.71223588 -2.13671875 302.30859375 C-8.88351888 302.68659783 -13.25478351 300.40740718 -18.27368164 296.00610352 C-20.83532958 293.56936386 -23.33303333 291.08280879 -25.8125 288.5625 C-27.14861328 287.21007202 -27.14861328 287.21007202 -28.51171875 285.83032227 C-34.93763096 279.24835555 -40.85521322 272.64581357 -46 265 C-46.45745605 264.33274902 -46.91491211 263.66549805 -47.38623047 262.97802734 C-76.48956823 220.15085323 -88.89438668 167.841541 -79.49609375 116.578125 C-79.33238281 115.72734375 -79.16867188 114.8765625 -79 114 C-78.83371094 113.13117188 -78.66742188 112.26234375 -78.49609375 111.3671875 C-74.61251157 91.86297476 -67.5772052 73.41062339 -58 56 C-57.48832275 55.06945801 -57.48832275 55.06945801 -56.96630859 54.12011719 C-46.75227371 35.82334115 -24.16457839 -2.9791946 0 0 Z " fill="#FF7234" transform="translate(143,105)"/>
<path d="M0 0 C9.36115109 3.87357976 15.61819732 12.51943453 21.7890625 20.23828125 C23.15439313 21.94373841 24.54104806 23.63265979 25.9609375 25.29296875 C48.24082242 51.71054658 61.7319675 86.98495568 66 121 C66.0942627 121.74564209 66.18852539 122.49128418 66.28564453 123.25952148 C71.81497509 171.97005522 58.83322116 221.45284819 30 261 C29.34378662 261.91652344 29.34378662 261.91652344 28.67431641 262.8515625 C23.0869261 270.59418042 16.78633699 277.47631989 10.0625 284.25 C8.96095581 285.36000366 8.96095581 285.36000366 7.8371582 286.49243164 C3.2194919 291.0471855 -0.06609772 294.26875744 -6.8125 294.375 C-11.75262706 294.24403934 -15.34027298 293.4273634 -19 290 C-22.19526336 285.99206851 -23.33677193 282.10667137 -23.1875 277 C-22.14006303 270.20721571 -17.7904494 266.63844048 -12.9921875 262.1015625 C16.36303632 233.82955727 33.92212683 192.63470854 35.203125 152.01953125 C35.86103631 108.50994085 21.92627083 66.05463156 -8.61474609 34.32226562 C-10.98815568 31.94373621 -13.39416669 29.62035747 -15.85546875 27.33203125 C-20.02076875 22.80255202 -20.45378904 18.37656394 -20.3125 12.43359375 C-19.6738061 7.45976503 -16.95638377 4.8652996 -13.375 1.625 C-8.7750338 -0.58979854 -5.0174396 -0.76822042 0 0 Z " fill="#BE2950" transform="translate(384,109)"/>
<path d="M0 0 C3.94090823 2.59366751 5.77919269 6.07508176 7.1875 10.5 C8.02844984 16.38664889 6.55937195 20.72794394 3.1875 25.5 C1.36286385 27.30361499 -0.55871326 28.91230943 -2.5390625 30.54296875 C-20.77393116 46.23999486 -32.16362439 70.42841947 -34.03491211 94.34228516 C-35.1716462 122.87064389 -28.01382213 147.3638474 -9.5234375 169.6171875 C-7.40231864 171.87278651 -5.29137893 173.90335801 -2.9765625 175.9453125 C-2.30117432 176.54545166 -1.62578613 177.14559082 -0.92993164 177.76391602 C0.40559775 178.93284141 1.75996841 180.08070147 3.13500977 181.20288086 C7.61645537 185.09805555 9.13750521 188.28048598 10.09594727 194.13525391 C10.27783146 198.83320128 8.92170625 202.60556817 5.75 206.0703125 C1.4342643 209.84658124 -1.95256939 210.60339598 -7.58203125 210.828125 C-13.03171571 210.02642011 -16.95043484 206.76968334 -20.875 203.125 C-21.73867187 202.32578125 -22.60234375 201.5265625 -23.4921875 200.703125 C-25.97784643 198.3430044 -28.42124436 195.95588417 -30.8125 193.5 C-31.32345215 193.0153125 -31.8344043 192.530625 -32.36083984 192.03125 C-36.80812562 187.76145285 -40.36990253 183.27137628 -43.75 178.125 C-44.26578613 177.34044434 -44.78157227 176.55588867 -45.31298828 175.74755859 C-59.30343649 153.99190995 -66.2632684 129.8473569 -66.1875 104 C-66.18695618 103.29890106 -66.18641235 102.59780212 -66.18585205 101.87545776 C-66.14383141 90.04933564 -65.1355844 78.8897692 -61.8125 67.5 C-61.60882813 66.78424805 -61.40515625 66.06849609 -61.1953125 65.33105469 C-56.11964353 48.07534675 -47.51044686 32.13575264 -35.8125 18.5 C-35.36229492 17.97293457 -34.91208984 17.44586914 -34.44824219 16.90283203 C-13.9818951 -6.8550544 -13.9818951 -6.8550544 0 0 Z " fill="#FF9965" transform="translate(190.8125,151.5)"/>
<path d="M0 0 C25.52821258 15.068377 41.2368312 45.93787392 48.45361328 73.66845703 C50.81486057 83.67528017 51.45723231 93.43386717 51.42578125 103.69921875 C51.42490509 104.40098236 51.42402893 105.10274597 51.42312622 105.82577515 C51.30432395 134.78105428 42.26463575 162.44765655 24.05078125 185.19921875 C23.60186523 185.7602832 23.15294922 186.32134766 22.69042969 186.89941406 C8.03774541 205.04129941 8.03774541 205.04129941 -1.94921875 209.19921875 C-7.56702713 209.65226781 -11.13054669 209.41166679 -15.94921875 206.19921875 C-19.67503565 202.51368095 -21.74165171 199.31640259 -22.26171875 194.01171875 C-21.54207832 185.23210554 -16.93536784 180.97027769 -10.46484375 175.3984375 C6.2660902 160.77186015 16.28852215 137.984583 19.05078125 116.19921875 C20.80840479 85.80303017 13.54031757 59.43395509 -6.94921875 36.19921875 C-10.45440626 32.50544045 -14.10491437 28.9884598 -17.82421875 25.51171875 C-21.0330354 22.01977122 -21.83490245 19.45669808 -22.26171875 14.76171875 C-21.78649053 9.3441171 -20.01995293 5.92076409 -15.94921875 2.38671875 C-11.13339361 -1.12482042 -5.6330674 -2.31418601 0 0 Z " fill="#FF1D54" transform="translate(335.94921875,151.80078125)"/>
<path d="M0 0 C17.39495009 0 30.84824474 4.61454218 44 16 C44.67933594 16.58394531 45.35867188 17.16789062 46.05859375 17.76953125 C58.16203232 28.97641882 65.13214283 45.16709561 66.23828125 61.5234375 C66.60243989 80.42135441 61.53153274 97.98920991 48.18701172 111.94091797 C38.28867343 121.87298143 26.78591495 128.93646335 13 132 C8.71 132 4.42 132 0 132 C0 88.44 0 44.88 0 0 Z " fill="#FF1F54" transform="translate(257,190)"/>
</svg>
