<?xml version="1.0" encoding="UTF-8"?>
<svg version="1.1" xmlns="http://www.w3.org/2000/svg" width="512" height="512">
<path d="M0 0 C0.98226562 0.61875 0.98226562 0.61875 1.984375 1.25 C2.68046875 1.6625 3.3765625 2.075 4.09375 2.5 C10.87439465 6.98644157 14.3875948 13.2580495 17.359375 20.6875 C19.15347837 30.91388919 18.34941443 40.80875128 12.296875 49.5 C8.0592457 54.72042114 2.95875084 58.26281208 -3.015625 61.25 C-3.015625 82.7 -3.015625 104.15 -3.015625 126.25 C1.604375 127.57 6.224375 128.89 10.984375 130.25 C26.122381 137.66453355 36.8269903 148.77990564 43.29296875 164.4140625 C48.59247453 180.07419376 47.591637 197.59541239 40.44140625 212.45703125 C32.50893135 226.88796385 21.40585573 236.44017132 5.984375 242.25 C5.324375 242.25 4.664375 242.25 3.984375 242.25 C3.984375 306.93 3.984375 371.61 3.984375 438.25 C52.6151345 438.17085411 52.6151345 438.17085411 101.24584961 438.06982422 C110.66320801 438.06079102 110.66320801 438.06079102 115.07545471 438.05911255 C118.14925539 438.0572534 121.22298661 438.04977493 124.29676819 438.03884888 C128.22456653 438.02507331 132.15226467 438.0210283 136.08008492 438.02385545 C137.51721385 438.02326476 138.95434649 438.01933295 140.39145458 438.01156974 C153.58110353 437.94366246 164.11673899 439.16777343 174.25390625 448.29296875 C181.53105525 455.92114906 185.11289383 464.67932584 184.984375 475.25 C184.17517004 485.4517625 180.24832014 493.98605486 172.984375 501.25 C166.04394943 506.1059689 159.5244564 509.49383811 150.90723228 509.51006222 C149.7043983 509.51712781 148.50156432 509.5241934 147.26228082 509.5314731 C145.94945709 509.52905802 144.63663337 509.52664293 143.2840271 509.52415466 C141.86846688 509.52860902 140.45290915 509.53392372 139.03735507 509.54002339 C135.15191786 509.55419037 131.2665607 509.55586693 127.38110137 509.55542648 C123.18869231 509.55707586 118.99631611 509.57014471 114.80392456 509.58161926 C105.63847764 509.60445991 96.4730539 509.61238899 87.30758238 509.61744571 C81.5823059 509.62070407 75.85703614 509.62722743 70.13176346 509.6344471 C54.27359166 509.65401247 38.41542609 509.67041683 22.55724144 509.67332363 C21.54261264 509.6735112 20.52798384 509.67369877 19.48260871 509.67389202 C17.42578737 509.67425827 15.36896603 509.67462197 13.31214468 509.67498314 C12.2911633 509.67516595 11.27018193 509.67534876 10.21826172 509.67553711 C8.6849156 509.67580793 8.6849156 509.67580793 7.12059279 509.67608423 C-9.43821818 509.67962485 -25.99689901 509.70664053 -42.55566485 509.744035 C-59.56486637 509.78213858 -76.57400336 509.80148126 -93.5832485 509.80178314 C-103.12985021 509.80236728 -112.67629672 509.81083105 -122.22285843 509.83978081 C-130.35299915 509.86432221 -138.48292807 509.87155903 -146.61309583 509.85653328 C-150.75847464 509.84937542 -154.90343544 509.85017285 -159.04876709 509.87294388 C-162.85017234 509.89362485 -166.65084066 509.89084967 -170.45223872 509.87006903 C-172.46520927 509.86495483 -174.47819719 509.88428356 -176.49107039 509.90473074 C-187.19588761 509.80643425 -197.28074833 507.11949977 -205.1953125 499.51953125 C-212.21250997 490.77062196 -215.79882679 480.91831809 -214.78515625 469.69921875 C-213.27599615 460.09139749 -208.91699096 451.1187682 -201.015625 445.25 C-192.88755303 440.42122606 -186.11295264 438.12175605 -176.63748169 438.12974548 C-175.37813372 438.12836799 -174.11878574 438.12699049 -172.82127571 438.12557125 C-171.43309634 438.12911741 -170.0449172 438.1327553 -168.65673828 438.13647461 C-167.16417379 438.13678116 -165.67160915 438.13664709 -164.17904472 438.13610935 C-160.19104161 438.13588409 -156.20306865 438.14166952 -152.21507263 438.14871979 C-148.46947131 438.15442519 -144.72387723 438.15468348 -140.97827148 438.15539551 C-130.03238535 438.16063765 -119.08650479 438.17459885 -108.140625 438.1875 C-83.679375 438.208125 -59.218125 438.22875 -34.015625 438.25 C-34.015625 373.57 -34.015625 308.89 -34.015625 242.25 C-36.985625 241.26 -39.955625 240.27 -43.015625 239.25 C-58.5516781 231.66718586 -68.36541002 219.16726384 -74.140625 203.125 C-78.90472714 187.47152155 -76.66467363 170.69482579 -69.51171875 156.203125 C-61.37606684 142.3235068 -49.13252165 132.29850747 -33.62890625 128.05859375 C-32.38536377 127.71497803 -31.14182129 127.3713623 -29.8605957 127.01733398 C-28.92175537 126.76411377 -27.98291504 126.51089355 -27.015625 126.25 C-26.78355718 117.8790349 -26.60607124 109.50942017 -26.49750328 101.1360302 C-26.44538396 97.24740612 -26.37475525 93.36098732 -26.26123047 89.47363281 C-26.1522792 85.71923459 -26.09272922 81.9669512 -26.06685257 78.2110939 C-26.04842387 76.78109549 -26.01242916 75.35120866 -25.95832443 73.92211533 C-25.79865841 69.52859106 -25.79218451 65.48967974 -27.015625 61.25 C-29.37075615 58.93606182 -31.46635622 57.7153737 -34.48403931 56.40213013 C-40.57437545 53.63040497 -43.97579647 47.99910568 -46.453125 42 C-49.66788786 31.92429304 -48.67894638 22.67833512 -44.015625 13.25 C-39.80342871 5.86265271 -33.74244019 0.87189193 -25.69140625 -1.890625 C-17.24652021 -3.86498731 -7.78905568 -4.21663165 0 0 Z " fill="#7B849B" transform="translate(271.015625,2.75)"/>
<path d="M0 0 C2.43660373 -0.00071796 4.87320207 -0.00286584 7.30980444 -0.00549722 C15.83357229 -0.01468997 24.35732467 -0.01883865 32.88109732 -0.01804566 C40.79466961 -0.01744231 48.70817432 -0.02805992 56.62172949 -0.04378933 C63.45532092 -0.05688289 70.28889023 -0.062229 77.1224941 -0.06159025 C81.18750099 -0.06133637 85.25244723 -0.06412869 89.31744146 -0.0747683 C93.13108385 -0.08448337 96.94460784 -0.08450528 100.75825453 -0.07725167 C102.15096667 -0.07621099 103.54368635 -0.07853784 104.93638563 -0.08461213 C118.02627507 -0.1379826 128.49708973 1.15907978 138.55199575 10.21022582 C145.82914475 17.83840613 149.41098334 26.59658291 149.2824645 37.16725707 C148.47325955 47.36901957 144.54640965 55.90331193 137.2824645 63.16725707 C129.81996836 68.38850018 123.25921895 71.42123773 114.03115225 71.4077661 C112.96990592 71.41032938 112.96990592 71.41032938 111.88722026 71.41294444 C109.52879199 71.41622511 107.1706515 71.40525934 104.81224966 71.39430785 C103.11680499 71.39374343 101.42135982 71.3940609 99.72591543 71.39519286 C95.13133297 71.39576616 90.53685515 71.38401545 85.94229698 71.37004495 C81.13767195 71.35753389 76.33304447 71.35636679 71.52840567 71.35399413 C62.43376197 71.34778047 53.33916642 71.33137118 44.24454391 71.31129515 C33.88910673 71.28893262 23.53366724 71.27794183 13.17821193 71.26790428 C-8.12039741 71.24700487 -29.41896342 71.21183109 -50.7175355 71.16725707 C-50.37150782 70.35325942 -50.02548014 69.53926177 -49.66896677 68.70059752 C-49.2165008 67.62748824 -48.76403482 66.55437896 -48.29785776 65.44875121 C-47.84870508 64.38725356 -47.3995524 63.32575591 -46.93678904 62.23209167 C-40.02027167 44.84605914 -42.63569574 24.36227675 -48.7175355 7.16725707 C-49.38678728 5.16812063 -50.05388298 3.16825927 -50.7175355 1.16725707 C-33.82504406 -0.04896534 -16.92548827 0.00280838 0 0 Z " fill="#5D6A85" transform="translate(306.71753549575806,440.8327429294586)"/>
<path d="M0 0 C2.92552992 1.50715069 4.60287768 4.02543904 6.50585938 6.62426758 C6.9422876 7.20950195 7.37871582 7.79473633 7.82836914 8.39770508 C38.41169148 49.9206381 52.87205907 100.46721386 45.50195312 151.95629883 C45.27885772 153.28393197 45.05082146 154.61074243 44.81835938 155.93676758 C44.69477051 156.66557129 44.57118164 157.394375 44.44384766 158.14526367 C38.50016218 192.12873568 23.50297945 223.92965265 0.81835938 249.93676758 C-5.08628459 249.2162476 -8.93413272 243.7420935 -12.93774414 239.73657227 C-14.49093214 238.18996247 -16.06652052 236.66892807 -17.64453125 235.14770508 C-18.63362604 234.16740976 -19.62130666 233.1856851 -20.60742188 232.20239258 C-21.95960815 230.86869629 -21.95960815 230.86869629 -23.33911133 229.50805664 C-25.18164062 226.93676758 -25.18164062 226.93676758 -25.06103516 224.23754883 C-24.01714725 221.50639958 -22.69280877 219.86676655 -20.74414062 217.68676758 C4.57252369 187.02597735 13.01554226 145.47345531 9.52539062 106.68041992 C6.21221253 78.91474056 -4.87720486 50.05735451 -23.81054688 29.15551758 C-25.18164062 26.93676758 -25.18164062 26.93676758 -25.06542969 24.6315918 C-23.8956067 21.06460116 -22.04595291 19.26682561 -19.41210938 16.60083008 C-18.93469803 16.11722015 -18.45728668 15.63361023 -17.96540833 15.13534546 C-16.95745109 14.12030781 -15.94436186 13.11034365 -14.92651367 12.10522461 C-13.36868024 10.56131131 -11.83640802 8.994823 -10.3046875 7.42504883 C-9.32111301 6.44052362 -8.33613337 5.45739978 -7.34960938 4.47583008 C-6.4552417 3.5807373 -5.56087402 2.68564453 -4.6394043 1.76342773 C-2.18164062 -0.06323242 -2.18164062 -0.06323242 0 0 Z " fill="#837DD1" transform="translate(419.181640625,63.063232421875)"/>
<path d="M0 0 C5.90464396 0.72051998 9.7524921 6.19467408 13.75610352 10.20019531 C15.30929152 11.74680511 16.8848799 13.26783951 18.46289062 14.7890625 C19.45198541 15.76935781 20.43966603 16.75108248 21.42578125 17.734375 C22.32723877 18.62350586 23.22869629 19.51263672 24.1574707 20.42871094 C26 23 26 23 25.90673828 25.66040039 C24.66309398 28.86929737 22.77158254 31.05107544 20.5625 33.6875 C-4.32225941 64.81371372 -12.48079658 106.49486277 -8.5390625 145.48828125 C-4.95372403 173.20581474 6.74601568 199.96863524 24.4453125 221.51171875 C26 224 26 224 25.89526367 225.828125 C23.91727457 230.62664995 19.38576448 234.13135027 15.74487305 237.75610352 C14.18915052 239.31085051 12.65599133 240.88571953 11.12304688 242.46289062 C10.13932369 243.45181854 9.1543391 244.43949363 8.16796875 245.42578125 C7.27360107 246.32723877 6.3792334 247.22869629 5.45776367 248.1574707 C3 250 3 250 0.82763672 249.94384766 C-2.21150377 248.3743423 -4.03364308 245.73277747 -6.0625 243.0625 C-6.77877563 242.12966187 -6.77877563 242.12966187 -7.50952148 241.17797852 C-38.62083068 199.79305763 -51.72037496 147.61905441 -44.47827148 96.38061523 C-38.77695204 60.42303747 -23.33911738 27.81969292 0 0 Z " fill="#A29CDE" transform="translate(92,63)"/>
<path d="M0 0 C2.64 0.33 5.28 0.66 8 1 C9.51550787 1.07914269 11.03321035 1.13031032 12.55078125 1.1328125 C13.72350586 1.13474609 13.72350586 1.13474609 14.91992188 1.13671875 C15.70947266 1.13285156 16.49902344 1.12898437 17.3125 1.125 C18.47942383 1.13080078 18.47942383 1.13080078 19.66992188 1.13671875 C25.88267183 1.12652556 31.75100292 0.56809064 38 0 C38 65.01 38 130.02 38 197 C25.46 197 12.92 197 0 197 C0 131.99 0 66.98 0 0 Z " fill="#B6B8BD" transform="translate(237,245)"/>
<path d="M0 0 C5.90464396 0.72051998 9.7524921 6.19467408 13.75610352 10.20019531 C15.30929152 11.74680511 16.8848799 13.26783951 18.46289062 14.7890625 C19.45198541 15.76935781 20.43966603 16.75108248 21.42578125 17.734375 C22.32723877 18.62350586 23.22869629 19.51263672 24.1574707 20.42871094 C26 23 26 23 25.86523438 25.67016602 C24.86761942 28.35646385 23.63200603 30.71172637 22.1875 33.1875 C12.1054341 51.30145093 9.0681712 71.4646976 14.0234375 91.65625 C16.58979685 100.44346442 19.77637664 108.30638262 24.9609375 115.87890625 C26 118 26 118 25.86303711 119.80517578 C23.96638463 124.62862863 19.37861937 128.13846371 15.74487305 131.75610352 C14.18915052 133.31085051 12.65599133 134.88571953 11.12304688 136.46289062 C10.13932369 137.45181854 9.1543391 138.43949363 8.16796875 139.42578125 C6.82641724 140.77796753 6.82641724 140.77796753 5.45776367 142.1574707 C3 144 3 144 0.8112793 143.95703125 C-2.20840653 142.3615105 -3.65195692 139.52529974 -5.375 136.6875 C-5.7678418 136.05448975 -6.16068359 135.42147949 -6.56542969 134.76928711 C-12.93931155 124.35104409 -17.60032614 113.73008038 -21 102 C-21.32226562 100.92105469 -21.64453125 99.84210938 -21.9765625 98.73046875 C-29.5053709 68.50969112 -22.72284862 36.31540115 -7 10 C-4.76567018 6.58726182 -2.45346777 3.25851188 0 0 Z " fill="#A29CDE" transform="translate(145,116)"/>
<path d="M0 0 C1.74825721 2.15475757 3.25182103 4.24113326 4.75 6.5625 C5.19174561 7.23998291 5.63349121 7.91746582 6.08862305 8.61547852 C23.11640231 35.34250834 28.77255837 67.99100049 21.90454102 99.03393555 C17.84660635 115.43016217 10.84357633 130.95343977 0 144 C-5.90464396 143.27948002 -9.7524921 137.80532592 -13.75610352 133.79980469 C-15.30929152 132.25319489 -16.8848799 130.73216049 -18.46289062 129.2109375 C-19.45198541 128.23064219 -20.43966603 127.24891752 -21.42578125 126.265625 C-22.77796753 124.93192871 -22.77796753 124.93192871 -24.1574707 123.57128906 C-26 121 -26 121 -25.86303711 118.30737305 C-24.92008592 115.7863457 -23.7517007 113.79569924 -22.25 111.5625 C-11.28799953 93.85465309 -9.48803735 72.55183773 -14.0234375 52.56640625 C-16.46309973 43.65675979 -19.73447236 35.75482239 -24.9609375 28.12109375 C-26 26 -26 26 -25.86523438 24.19262695 C-24.61764269 21.03105219 -22.58802659 19.19861171 -20.1953125 16.796875 C-19.71552948 16.3142218 -19.23574646 15.8315686 -18.74142456 15.33428955 C-17.72794931 14.31877727 -16.71069336 13.30702589 -15.68994141 12.29882812 C-14.12690362 10.75188402 -12.58054545 9.18955301 -11.03515625 7.625 C-10.04783579 6.63966134 -9.05958544 5.65525337 -8.0703125 4.671875 C-7.17070801 3.7756543 -6.27110352 2.87943359 -5.34423828 1.95605469 C-3 0 -3 0 0 0 Z " fill="#827DD1" transform="translate(367,116)"/>
<path d="M0 0 C0.74121094 0.75152344 1.48242188 1.50304687 2.24609375 2.27734375 C2.89449219 2.91542969 3.54289062 3.55351562 4.2109375 4.2109375 C15.17030329 15.74584985 18.77036283 30.27179298 18.66577148 45.72265625 C18.21045063 61.3470427 12.12543052 74.84640965 1.40234375 86.25 C-11.24517937 98.1414212 -25.67908049 102.48083571 -42.75390625 102.27734375 C-42.45939575 101.4409436 -42.45939575 101.4409436 -42.15893555 100.58764648 C-41.24279234 97.9668254 -40.3399495 95.34175211 -39.44140625 92.71484375 C-38.95111938 91.28676392 -38.95111938 91.28676392 -38.45092773 89.82983398 C-36.55524372 84.15708899 -35.20126755 78.75071723 -34.31640625 72.83984375 C-33.2667466 66.83526896 -33.2667466 66.83526896 -30.9765625 64.34375 C-28.87890625 62.90234375 -28.87890625 62.90234375 -26.7578125 61.66796875 C-22.21163769 58.51311839 -19.81029961 52.59068856 -18.75390625 47.27734375 C-17.75537539 39.94527432 -19.6171849 34.35832413 -23.75390625 28.27734375 C-26.45261518 25.40996551 -29.32672204 23.00697163 -32.83984375 21.2109375 C-35.97759199 18.04117142 -36.11171876 14.06757806 -36.81640625 9.77734375 C-37.14283434 7.96560293 -37.47224307 6.15439651 -37.8046875 4.34375 C-37.96275879 3.47121582 -38.12083008 2.59868164 -38.28369141 1.69970703 C-39.03652158 -2.17858008 -40.10122843 -5.94646669 -41.23828125 -9.7265625 C-41.75390625 -11.72265625 -41.75390625 -11.72265625 -41.75390625 -14.72265625 C-25.95622246 -17.62355836 -11.30033987 -10.86640682 0 0 Z " fill="#5D6A85" transform="translate(298.75390625,144.72265625)"/>
<path d="M0 0 C6.27 0.66 12.54 1.32 19 2 C19 66.02 19 130.04 19 196 C12.73 196 6.46 196 0 196 C0 131.32 0 66.64 0 0 Z " fill="#CED0D5" transform="translate(237,245)"/>
<path d="M0 0 C0.65484375 0.4125 1.3096875 0.825 1.984375 1.25 C2.68046875 1.6625 3.3765625 2.075 4.09375 2.5 C10.87439465 6.98644157 14.3875948 13.2580495 17.359375 20.6875 C19.15347837 30.91388919 18.34941443 40.80875128 12.296875 49.5 C7.64289604 55.20487743 2.19958209 59.44619823 -5.015625 61.25 C-5.62535156 61.4253125 -6.23507812 61.600625 -6.86328125 61.78125 C-15.93992447 63.7580144 -25.84746812 62.48048219 -33.703125 57.5625 C-41.51151776 51.90345577 -45.78752731 45.72567389 -48.015625 36.25 C-49.30233426 26.20578992 -47.02290936 17.29725309 -41.328125 8.9375 C-31.78223665 -2.80201421 -13.61149587 -7.36862934 0 0 Z " fill="#7A849A" transform="translate(271.015625,2.75)"/>
<path d="M0 0 C6.45445432 3.97954373 11.34363294 10.2698281 13.5 17.5 C14.71830013 25.63215339 11.95277729 32.41203785 7.8125 39.3125 C1.34794191 45.42762251 -5.89169585 47.86609396 -14.64453125 47.78515625 C-20.99779634 47.15069886 -25.823994 43.66790456 -30.5 39.5 C-34.52698874 33.54250256 -37.53890247 27.239972 -37.01171875 19.94140625 C-35.22462742 11.41520717 -30.54983215 5.43348095 -23.5 0.5 C-17.50659893 -3.39114056 -6.42165136 -2.85687639 0 0 Z " fill="#FCF5C5" transform="translate(267.5,165.5)"/>
<path d="M0 0 C2.97 0.495 2.97 0.495 6 1 C7.85257608 1.08736142 9.70787273 1.13027632 11.5625 1.125 C12.47128906 1.12757812 13.38007813 1.13015625 14.31640625 1.1328125 C17.40968093 1.0458159 17.40968093 1.0458159 22 0 C22 22.11 22 44.22 22 67 C14.74 67 7.48 67 0 67 C0 44.89 0 22.78 0 0 Z " fill="#CED0D5" transform="translate(245,63)"/>
<path d="M0 0 C9.0923146 -0.66125924 16.04184687 2.56804793 23.14453125 8.16796875 C29.7697333 14.70948403 32.99110559 23.1334756 33.3125 32.3125 C33.09541837 41.63424065 30.48524384 49.20871094 24 56 C16.58973777 62.65592415 9.75277232 64.26757836 0 65 C0.32613281 64.32195312 0.65226562 63.64390625 0.98828125 62.9453125 C1.42527344 62.01460937 1.86226563 61.08390625 2.3125 60.125 C2.74175781 59.22007813 3.17101562 58.31515625 3.61328125 57.3828125 C7.00680664 49.1045224 8.46850145 41.89198345 8.3125 32.9375 C8.31572266 32.00873047 8.31894531 31.07996094 8.32226562 30.12304688 C8.25407669 21.28947987 6.72051193 13.87931812 2.875 5.9375 C2.33617187 4.81214844 1.79734375 3.68679687 1.2421875 2.52734375 C0.83226562 1.69332031 0.42234375 0.85929687 0 0 Z " fill="#5D6A86" transform="translate(256,0)"/>
<path d="M0 0 C0 22.11 0 44.22 0 67 C-3.63 66.67 -7.26 66.34 -11 66 C-11 44.88 -11 23.76 -11 2 C-1 0 -1 0 0 0 Z " fill="#B6B8BD" transform="translate(267,63)"/>
<path d="M0 0 C4.08998175 1.80720124 6.66247347 4.19069751 9 8 C9.63561884 12.36987955 9.31573154 14.4229734 7.1875 18.3125 C4.9074753 21.11367321 3.34717449 22.80363219 -0.3046875 23.3359375 C-4.57276853 23.40080195 -7.24596584 23.43985326 -11 21.25 C-13.93966354 17.94287852 -14.83471951 16.09498324 -15.5 11.6875 C-14.83398123 6.77561156 -12.58855833 4.29106127 -9 1 C-5.93570224 -0.53214888 -3.3834358 -0.22938548 0 0 Z " fill="#FBF4C4" transform="translate(353,465)"/>
<path d="M0 0 C4.08998175 1.80720124 6.66247347 4.19069751 9 8 C9.63561884 12.36987955 9.31573154 14.4229734 7.1875 18.3125 C4.9074753 21.11367321 3.34717449 22.80363219 -0.3046875 23.3359375 C-4.57276853 23.40080195 -7.24596584 23.43985326 -11 21.25 C-13.93966354 17.94287852 -14.83471951 16.09498324 -15.5 11.6875 C-14.83398123 6.77561156 -12.58855833 4.29106127 -9 1 C-5.93570224 -0.53214888 -3.3834358 -0.22938548 0 0 Z " fill="#FBF5C4" transform="translate(165,465)"/>
<path d="M0 0 C3.70390021 2.02666238 5.65363011 3.48044516 8 7 C8.60362041 11.18614674 8.41698873 14.93436214 6.875 18.875 C4.43593407 21.63927472 2.48994652 22.79194159 -1 24 C-5.31352253 24 -8.03359663 23.26295003 -11.375 20.625 C-14.68158911 17.31841089 -14.9383693 15.76422062 -15.3125 11.125 C-15.27127929 7.92156198 -14.99623604 6.99381636 -13.25 4.125 C-8.9815747 0.09370944 -5.92884333 -0.61332862 0 0 Z " fill="#FCF5C5" transform="translate(228,465)"/>
<path d="M0 0 C3.70390021 2.02666238 5.65363011 3.48044516 8 7 C8.54613601 10.39179204 8.53660917 13.60689554 8 17 C5.75 20 5.75 20 3 22 C2.38125 22.45375 1.7625 22.9075 1.125 23.375 C-2.25503945 24.36912925 -4.60868249 23.87706487 -8 23 C-11.29591243 21.04686671 -13.46819689 19.61323512 -14.69921875 15.87890625 C-15.49395669 10.81138367 -15.05943066 7.28320293 -12 3 C-8.12763025 -0.22697479 -4.95346182 -0.60831987 0 0 Z " fill="#FBF5C4" transform="translate(416,465)"/>
<path d="M0 0 C4.05902667 1.5611641 7.06099411 3.01426566 9 7 C9.51009142 12.3559599 9.4708491 15.66143863 6 20 C2.20062081 23.38729901 -0.63614516 23.56109792 -5.5859375 23.4296875 C-9.25566441 22.77649986 -10.84144922 20.92448816 -13 18 C-14.74221711 14.51556578 -14.58675154 10.80112955 -14 7 C-10.57407555 0.81288271 -6.81957483 -0.45463832 0 0 Z " fill="#FCF5C4" transform="translate(290,465)"/>
<path d="M0 0 C3.79964399 1.31526138 5.54575268 2.38456815 7.9375 5.625 C9.33527386 10.06498756 9.43846584 13.55383285 8 18 C5.26270189 21.43916942 3.81754674 22.64868506 -0.4453125 23.47265625 C-5.14805522 23.74639799 -7.29365949 23.56218938 -11.0625 20.5625 C-11.701875 19.716875 -12.34125 18.87125 -13 18 C-13.33 17.67 -13.66 17.34 -14 17 C-14.53798008 12.91903684 -14.93436984 8.75020022 -12.953125 5.0390625 C-8.89925233 0.15056898 -6.21349039 -0.41423269 0 0 Z " fill="#FCF6C5" transform="translate(102,465)"/>
<path d="M0 0 C0 0.66 0 1.32 0 2 C-1.43359375 3.41235352 -1.43359375 3.41235352 -3.4375 5.06640625 C-8.20722345 9.12214332 -12.59989333 13.4878254 -17 17.9375 C-17.77472656 18.71673828 -18.54945313 19.49597656 -19.34765625 20.29882812 C-21.23410757 22.1969242 -23.11816245 24.09733149 -25 26 C-25.33 25.01 -25.66 24.02 -26 23 C-22.78896247 19.7148879 -19.56825616 16.43968961 -16.33813477 13.17333984 C-15.24035716 12.06046191 -14.14528533 10.94490824 -13.05297852 9.82666016 C-11.48374331 8.22109676 -9.90507543 6.6253616 -8.32421875 5.03125 C-7.83660568 4.52815308 -7.34899261 4.02505615 -6.84660339 3.50671387 C-3.34161512 0 -3.34161512 0 0 0 Z " fill="#B187E0" transform="translate(367,116)"/>
</svg>
