<?xml version="1.0" encoding="UTF-8"?>
<svg version="1.1" xmlns="http://www.w3.org/2000/svg" width="512" height="512">
<path d="M0 0 C0 166.98 0 333.96 0 506 C-83.49 506 -166.98 506 -253 506 C-255.64 498.74 -258.28 491.48 -261 484 C-321.72 483.67 -382.44 483.34 -445 483 C-445.99 486.63 -446.98 490.26 -448 494 C-449.65 497.96 -451.3 501.92 -453 506 C-472.47 506 -491.94 506 -512 506 C-510.92959579 501.71838317 -509.09488616 498.6561801 -506.75 495 C-506.31034912 494.30575928 -505.87069824 493.61151855 -505.41772461 492.89624023 C-500.20150391 484.68741784 -494.88071658 476.54523974 -489.56542969 468.40039062 C-487.2664489 464.87519114 -484.97489957 461.34522329 -482.6875 457.8125 C-482.25953125 457.1515332 -481.8315625 456.49056641 -481.390625 455.80957031 C-476.39140443 448.07594947 -471.43604355 440.314104 -466.48120117 432.55200195 C-463.36330876 427.67170536 -460.24112393 422.799516 -457 418 C-457.97839844 417.78085937 -458.95679688 417.56171875 -459.96484375 417.3359375 C-472.90996554 414.27068336 -482.02373671 409.06384908 -490 398 C-494.95748796 389.5740864 -496.30013388 381.54554006 -496.26742554 371.90022278 C-496.27195665 370.91025651 -496.27648776 369.92029024 -496.28115618 368.900325 C-496.29377291 365.59732033 -496.29218155 362.29448112 -496.29052734 358.99145508 C-496.29651434 356.61730742 -496.30332028 354.24316171 -496.31088257 351.86901855 C-496.32670144 346.09719493 -496.33299027 340.32542114 -496.33410732 334.55357692 C-496.33505987 329.85803046 -496.33918046 325.1624974 -496.34550858 320.46695518 C-496.36311077 307.13304778 -496.3723492 293.79917249 -496.37084763 280.46525339 C-496.37076772 279.7473521 -496.3706878 279.0294508 -496.37060547 278.28979492 C-496.37052371 277.57100958 -496.37044195 276.85222424 -496.37035771 276.11165752 C-496.36954538 264.47144538 -496.38867224 252.83136282 -496.4168822 241.19118813 C-496.4456676 229.2183815 -496.45941935 217.24563794 -496.45769465 205.27279586 C-496.45703263 198.55932821 -496.46283503 191.8460167 -496.48405075 185.1325779 C-496.5034712 178.81482791 -496.50353128 172.49736388 -496.48901749 166.17960358 C-496.48693296 163.86780821 -496.49160889 161.55599476 -496.5037384 159.24423027 C-496.58298753 143.08677171 -496.35986472 128.72663345 -485 116 C-475.96360423 107.40964204 -466.42416273 103.81355506 -454.07421875 103.90234375 C-452.95283257 103.90446617 -452.95283257 103.90446617 -451.80879211 103.90663147 C-449.43498635 103.91220236 -447.06127697 103.9247494 -444.6875 103.9375 C-443.07226699 103.94251877 -441.4570325 103.94708101 -439.84179688 103.95117188 C-435.89449445 103.96216225 -431.94726353 103.97940668 -428 104 C-427.90585815 102.58086304 -427.90585815 102.58086304 -427.80981445 101.13305664 C-427.68159302 99.25928345 -427.68159302 99.25928345 -427.55078125 97.34765625 C-427.46739502 96.11281494 -427.38400879 94.87797363 -427.2980957 93.60571289 C-426.14910755 79.70775548 -426.14910755 79.70775548 -421 75 C-417.43789679 73.2852258 -414.59818039 72.74812934 -410.66238403 72.73930359 C-409.60544342 72.73221878 -408.54850281 72.72513397 -407.45953369 72.71783447 C-405.73570465 72.7215506 -405.73570465 72.7215506 -403.97705078 72.7253418 C-402.75861481 72.72023087 -401.54017883 72.71511993 -400.28482056 72.70985413 C-396.94996013 72.69834647 -393.6153485 72.69588289 -390.28048563 72.69841743 C-387.49234703 72.6994889 -384.70423123 72.69459918 -381.91609752 72.689812 C-375.3354864 72.67872452 -368.75493235 72.67827489 -362.17431641 72.68432617 C-355.39588203 72.69036376 -348.61765535 72.67805881 -341.83925641 72.6567561 C-336.0106309 72.63911489 -330.18207135 72.63314277 -324.35342014 72.63639385 C-320.87621275 72.63820312 -317.39915347 72.6356065 -313.92197037 72.62167931 C-310.04181078 72.60671914 -306.16191366 72.61609315 -302.28173828 72.62768555 C-301.13656738 72.62004181 -299.99139648 72.61239807 -298.81152344 72.60452271 C-292.77632481 72.6443623 -288.28934001 72.98736766 -283 76 C-280.31097805 79.35384968 -279.5460189 82.29821988 -279.05078125 86.51953125 C-278.92509766 87.54111328 -278.79941406 88.56269531 -278.66992188 89.61523438 C-278.49299805 91.19788086 -278.49299805 91.19788086 -278.3125 92.8125 C-278.18294922 93.88693359 -278.05339844 94.96136719 -277.91992188 96.06835938 C-277.60278316 98.711182 -277.29652444 101.35479857 -277 104 C-276.02764404 103.97905273 -275.05528809 103.95810547 -274.0534668 103.93652344 C-270.39509203 103.86331768 -266.73677989 103.81791256 -263.07788086 103.78027344 C-261.50387635 103.76033916 -259.92994411 103.73318129 -258.35620117 103.69824219 C-243.83254081 103.3842171 -232.15175046 105.60474504 -221.0625 115.77734375 C-214.59270532 122.59572651 -209.88871359 131.79351481 -209.86577892 141.31895542 C-209.86132108 142.18053464 -209.85686324 143.04211385 -209.85227031 143.92980152 C-209.85254685 145.34266584 -209.85254685 145.34266584 -209.85282898 146.78407288 C-209.84915229 147.78836678 -209.8454756 148.79266069 -209.8416875 149.82738775 C-209.83064816 153.20272002 -209.82680636 156.57802151 -209.82299805 159.95336914 C-209.81673354 162.36957904 -209.81008675 164.78578797 -209.80308533 167.20199585 C-209.78385678 174.46036068 -209.77325639 181.71872297 -209.76435754 188.97710553 C-209.75997119 192.39811824 -209.75460523 195.81912942 -209.74936867 199.24014091 C-209.73235719 210.61775548 -209.71786449 221.99536909 -209.71061993 233.37299442 C-209.70871014 236.32442794 -209.70678979 239.27586144 -209.70483398 242.22729492 C-209.70435024 242.96082935 -209.7038665 243.69436378 -209.7033681 244.45012652 C-209.69507326 256.32473168 -209.66974525 268.19923593 -209.63725331 280.07379705 C-209.60414153 292.27472271 -209.5861674 304.47559716 -209.58297569 316.67656797 C-209.58081425 323.52305481 -209.57211973 330.36939454 -209.54651451 337.21583748 C-209.52246945 343.65988717 -209.51900766 350.10374434 -209.52927589 356.54783249 C-209.52977096 358.90884595 -209.52345921 361.26987249 -209.50971985 363.63084602 C-209.49196691 366.86322569 -209.49912457 370.09466032 -209.51225281 373.32704163 C-209.50128356 374.25333612 -209.49031432 375.17963061 -209.47901267 376.13399464 C-209.588205 387.32992409 -213.98705056 397.51428795 -221.58984375 405.71484375 C-229.37338698 412.91233196 -238.82049014 415.84866029 -249 418 C-248.46375 418.79277344 -247.9275 419.58554687 -247.375 420.40234375 C-241.1444947 429.66022337 -235.11162453 439.03839917 -229.10864258 448.44506836 C-223.29620962 457.55000652 -217.41890751 466.61111792 -211.52148438 475.66113281 C-208.53674094 480.24936165 -205.56807042 484.84801776 -202.6003418 489.44726562 C-202.18437744 490.09115234 -201.76841309 490.73503906 -201.33984375 491.3984375 C-200.98269287 491.95192871 -200.62554199 492.50541992 -200.25756836 493.07568359 C-198.52335791 495.72935215 -196.75944029 498.3630123 -195 501 C-194.99635437 500.01107758 -194.99270874 499.02215515 -194.98895264 498.00326538 C-194.95198077 488.67490305 -194.89418417 479.34687018 -194.81609726 470.01875877 C-194.77662016 465.22326684 -194.74443282 460.4279586 -194.72900391 455.63232422 C-194.71383885 451.00258083 -194.67939604 446.37334244 -194.63169098 441.74382401 C-194.61687562 439.97927876 -194.60895889 438.21466141 -194.60811615 436.45005417 C-194.60574515 433.97445855 -194.57865659 431.50025701 -194.54589844 429.02490234 C-194.5509288 428.29841492 -194.55595917 427.57192749 -194.56114197 426.82342529 C-194.45740039 421.74267883 -193.2825905 418.85411028 -190 415 C-141.72833288 382.81888859 -74.01532365 411 -16 411 C-16 290.55 -16 170.1 -16 46 C-32.83 46 -49.66 46 -67 46 C-67 66.79 -67 87.58 -67 109 C-64.36 109 -61.72 109 -59 109 C-53.29379407 110.00867277 -49.84106336 112.66372695 -46.2265625 117.0859375 C-42.92800139 122.23337362 -42.68055204 126.79507145 -42.6640625 132.73828125 C-42.6574057 133.57787888 -42.6507489 134.4174765 -42.64389038 135.28251648 C-42.63378971 137.05510273 -42.62907256 138.8277268 -42.62939453 140.6003418 C-42.62503086 143.2934538 -42.58871178 145.98491298 -42.55078125 148.67773438 C-42.54491038 150.40624444 -42.5409428 152.13476223 -42.5390625 153.86328125 C-42.52469147 154.65938309 -42.51032043 155.45548492 -42.49551392 156.27571106 C-42.5458921 162.53130458 -44.12345799 167.80247827 -48.37661743 172.53022766 C-54.19140862 177.74890179 -60.21103606 178.29796877 -67.63232422 178.2746582 C-68.47866425 178.27976913 -69.32500427 178.28488007 -70.19699097 178.29014587 C-72.98296261 178.30399748 -75.7686856 178.30308834 -78.5546875 178.30078125 C-80.49992972 178.30467082 -82.44517109 178.30900603 -84.39041138 178.31376648 C-88.46391556 178.32121932 -92.53733306 178.32094434 -96.61083984 178.31567383 C-101.81819696 178.30988268 -107.02519799 178.32680625 -112.23249626 178.3500185 C-116.2492173 178.36478643 -120.26585321 178.36562334 -124.28259659 178.36250877 C-126.20184153 178.36302052 -128.12109142 178.36823059 -130.04030991 178.37832069 C-132.7300674 178.3907262 -135.41913931 178.38386876 -138.10888672 178.37231445 C-138.89356323 178.37995819 -139.67823975 178.38760193 -140.48669434 178.39547729 C-146.5409631 178.33830425 -152.1915538 177.28796196 -157.0234375 173.3515625 C-157.46945312 172.78179687 -157.91546875 172.21203125 -158.375 171.625 C-159.06722656 170.77808594 -159.06722656 170.77808594 -159.7734375 169.9140625 C-163.07199861 164.76662638 -163.31944796 160.20492855 -163.3359375 154.26171875 C-163.3425943 153.42212112 -163.3492511 152.5825235 -163.35610962 151.71748352 C-163.36621029 149.94489727 -163.37092744 148.1722732 -163.37060547 146.3996582 C-163.37496914 143.7065462 -163.41128822 141.01508702 -163.44921875 138.32226562 C-163.45508962 136.59375556 -163.4590572 134.86523777 -163.4609375 133.13671875 C-163.47530853 132.34061691 -163.48967957 131.54451508 -163.50448608 130.72428894 C-163.4541079 124.46869542 -161.87654201 119.19752173 -157.62338257 114.46977234 C-151.62784795 109.08888412 -146.9890177 109 -139 109 C-139 88.21 -139 67.42 -139 46 C-147.58 46 -156.16 46 -165 46 C-173.92151364 42.65443238 -177.18500886 39.91034258 -182 32 C-184.0157881 25.95263571 -184.12077772 18.57559092 -181.5 12.6875 C-150.65044211 -39.52782944 -60.64763681 0 0 0 Z M-123 46 C-123 66.79 -123 87.58 -123 109 C-109.8 109 -96.6 109 -83 109 C-83 88.21 -83 67.42 -83 46 C-96.2 46 -109.4 46 -123 46 Z M-421 417 C-429.05362023 433.6382035 -429.05362023 433.6382035 -433 451 C-380.2 451 -327.4 451 -273 451 C-275.35434796 443.07148639 -275.35434796 443.07148639 -278.0078125 435.28125 C-278.35457031 434.32992188 -278.70132813 433.37859375 -279.05859375 432.3984375 C-279.41050781 431.44195312 -279.76242187 430.48546875 -280.125 429.5 C-280.66447266 428.01886719 -280.66447266 428.01886719 -281.21484375 426.5078125 C-282.92931993 421.67840898 -282.92931993 421.67840898 -285 417 C-329.88 417 -374.76 417 -421 417 Z " fill="#D94A54" transform="translate(512,3)"/>
<path d="M0 0 C0 166.98 0 333.96 0 506 C-83.49 506 -166.98 506 -253 506 C-262.12068966 480.91810345 -262.12068966 480.91810345 -266.1953125 468.24804688 C-267.8351214 463.23036717 -269.64564452 458.43537253 -271.84863281 453.64135742 C-274.26206542 448.10468919 -276.31575111 442.41584112 -278.42871094 436.7590332 C-279.25788227 434.54141891 -280.09354605 432.32632244 -280.9296875 430.11132812 C-281.45872185 428.70066648 -281.98738169 427.28986431 -282.515625 425.87890625 C-282.76556213 425.21750137 -283.01549927 424.5560965 -283.27301025 423.87464905 C-285 419.229625 -285 419.229625 -285 417 C-280.16240424 416.72635435 -275.32937451 416.52776107 -270.48583984 416.39575195 C-268.8421378 416.34070359 -267.19896798 416.26582784 -265.55712891 416.17016602 C-251.9661182 415.39860591 -251.9661182 415.39860591 -247.25463867 419.23608398 C-245.17907047 422.06300447 -243.56346513 424.86484656 -242 428 C-241.17753148 429.29982938 -240.34231828 430.5917847 -239.48828125 431.87109375 C-238.75937263 433.05766246 -238.03416442 434.24651153 -237.3125 435.4375 C-233.58276015 441.49340049 -229.76471799 447.48311163 -225.875 453.4375 C-220.10231628 462.27871128 -214.40208655 471.16471378 -208.73193359 480.07202148 C-205.45716621 485.20545196 -202.14385681 490.30809721 -198.76098633 495.37109375 C-198.05299393 496.43126709 -197.34500153 497.49144043 -196.61555481 498.58374023 C-196.08242172 499.38110596 -195.54928864 500.17847168 -195 501 C-194.99635437 500.01107758 -194.99270874 499.02215515 -194.98895264 498.00326538 C-194.95198077 488.67490305 -194.89418417 479.34687018 -194.81609726 470.01875877 C-194.77662016 465.22326684 -194.74443282 460.4279586 -194.72900391 455.63232422 C-194.71383885 451.00258083 -194.67939604 446.37334244 -194.63169098 441.74382401 C-194.61687562 439.97927876 -194.60895889 438.21466141 -194.60811615 436.45005417 C-194.60574515 433.97445855 -194.57865659 431.50025701 -194.54589844 429.02490234 C-194.55344398 427.9351712 -194.55344398 427.9351712 -194.56114197 426.82342529 C-194.45740039 421.74267883 -193.2825905 418.85411028 -190 415 C-141.72833288 382.81888859 -74.01532365 411 -16 411 C-16 290.55 -16 170.1 -16 46 C-32.83 46 -49.66 46 -67 46 C-67 66.79 -67 87.58 -67 109 C-64.36 109 -61.72 109 -59 109 C-53.29379407 110.00867277 -49.84106336 112.66372695 -46.2265625 117.0859375 C-42.92800139 122.23337362 -42.68055204 126.79507145 -42.6640625 132.73828125 C-42.6540773 133.99767769 -42.6540773 133.99767769 -42.64389038 135.28251648 C-42.63378971 137.05510273 -42.62907256 138.8277268 -42.62939453 140.6003418 C-42.62503086 143.2934538 -42.58871178 145.98491298 -42.55078125 148.67773438 C-42.54491038 150.40624444 -42.5409428 152.13476223 -42.5390625 153.86328125 C-42.52469147 154.65938309 -42.51032043 155.45548492 -42.49551392 156.27571106 C-42.5458921 162.53130458 -44.12345799 167.80247827 -48.37661743 172.53022766 C-54.19140862 177.74890179 -60.21103606 178.29796877 -67.63232422 178.2746582 C-68.47866425 178.27976913 -69.32500427 178.28488007 -70.19699097 178.29014587 C-72.98296261 178.30399748 -75.7686856 178.30308834 -78.5546875 178.30078125 C-80.49992972 178.30467082 -82.44517109 178.30900603 -84.39041138 178.31376648 C-88.46391556 178.32121932 -92.53733306 178.32094434 -96.61083984 178.31567383 C-101.81819696 178.30988268 -107.02519799 178.32680625 -112.23249626 178.3500185 C-116.2492173 178.36478643 -120.26585321 178.36562334 -124.28259659 178.36250877 C-126.20184153 178.36302052 -128.12109142 178.36823059 -130.04030991 178.37832069 C-132.7300674 178.3907262 -135.41913931 178.38386876 -138.10888672 178.37231445 C-138.89356323 178.37995819 -139.67823975 178.38760193 -140.48669434 178.39547729 C-146.5409631 178.33830425 -152.1915538 177.28796196 -157.0234375 173.3515625 C-157.69246094 172.49691406 -157.69246094 172.49691406 -158.375 171.625 C-159.06722656 170.77808594 -159.06722656 170.77808594 -159.7734375 169.9140625 C-163.07199861 164.76662638 -163.31944796 160.20492855 -163.3359375 154.26171875 C-163.3459227 153.00232231 -163.3459227 153.00232231 -163.35610962 151.71748352 C-163.36621029 149.94489727 -163.37092744 148.1722732 -163.37060547 146.3996582 C-163.37496914 143.7065462 -163.41128822 141.01508702 -163.44921875 138.32226562 C-163.45508962 136.59375556 -163.4590572 134.86523777 -163.4609375 133.13671875 C-163.47530853 132.34061691 -163.48967957 131.54451508 -163.50448608 130.72428894 C-163.4541079 124.46869542 -161.87654201 119.19752173 -157.62338257 114.46977234 C-151.62784795 109.08888412 -146.9890177 109 -139 109 C-139 88.21 -139 67.42 -139 46 C-147.58 46 -156.16 46 -165 46 C-173.92151364 42.65443238 -177.18500886 39.91034258 -182 32 C-184.0157881 25.95263571 -184.12077772 18.57559092 -181.5 12.6875 C-150.65044211 -39.52782944 -60.64763681 0 0 0 Z M-123 46 C-123 66.79 -123 87.58 -123 109 C-109.8 109 -96.6 109 -83 109 C-83 88.21 -83 67.42 -83 46 C-96.2 46 -109.4 46 -123 46 Z " fill="#8F9BA5" transform="translate(512,3)"/>
<path d="M0 0 C1.15693359 0.00322266 2.31386719 0.00644531 3.50585938 0.00976562 C4.70404297 0.01814453 5.90222656 0.02652344 7.13671875 0.03515625 C8.96299805 0.04192383 8.96299805 0.04192383 10.82617188 0.04882812 C13.82557101 0.06059047 16.82486964 0.07702799 19.82421875 0.09765625 C16.95985552 1.58032363 14.40191023 2.48804803 11.26171875 3.22265625 C2.42404132 5.83349153 -5.27369342 11.54951985 -9.859375 19.59692383 C-15.30154608 29.93523213 -15.8228982 39.36154928 -15.92578125 50.78515625 C-15.95400089 52.37307853 -15.98393647 53.96097128 -16.015625 55.54882812 C-16.08877253 59.39838338 -16.13877673 63.2475909 -16.17578125 67.09765625 C-15.66789062 66.68773437 -15.16 66.2778125 -14.63671875 65.85546875 C-13.94835938 65.31664062 -13.26 64.7778125 -12.55078125 64.22265625 C-11.87789062 63.68898437 -11.205 63.1553125 -10.51171875 62.60546875 C-5.26078661 59.21607108 -0.03405722 58.79667425 6.07348633 58.79125977 C6.87920578 58.78293625 7.68492523 58.77461273 8.51506042 58.76603699 C11.16634012 58.74203394 13.81737332 58.73317673 16.46875 58.7265625 C18.32191538 58.71758868 20.17508006 58.70846671 22.02824402 58.69920349 C25.90922807 58.6827372 29.7901261 58.6750177 33.67114258 58.67211914 C38.62750694 58.6667383 43.5830552 58.62906046 48.53918934 58.58337498 C52.36637781 58.55353237 56.19337145 58.54639402 60.02066612 58.54539299 C61.84700953 58.54120487 63.67335427 58.52882751 65.49958229 58.50787544 C84.34373323 58.30888533 84.34373323 58.30888533 92.56770325 65.65504456 C100.77444834 74.16911181 100.29919307 85.03060269 100.29296875 96.15625 C100.30008449 97.71127084 100.30778551 99.26628911 100.31604004 100.82130432 C100.32942739 104.06819981 100.33107933 107.31485236 100.32519531 110.56176758 C100.31929948 114.69861207 100.34991158 118.83428285 100.39031219 122.97090054 C100.41630532 126.17879895 100.41905629 129.38641885 100.41542053 132.59440804 C100.41710043 134.11847957 100.42663276 135.64256556 100.44456482 137.16653252 C100.55555505 147.76211114 99.24710638 155.41108644 92.63671875 163.91015625 C82.73952568 171.60797308 73.47207117 171.81477103 61.41015625 171.69140625 C59.62757447 171.6896921 57.84499018 171.68976392 56.06240845 171.69152832 C52.34213867 171.6898821 48.6224766 171.67131032 44.90234375 171.63964844 C40.15014803 171.59991521 35.39874421 171.59561442 30.6464138 171.60311127 C26.97106764 171.60618994 23.29589724 171.59402954 19.62059402 171.57698059 C17.86883268 171.56998506 16.11705144 171.56682184 14.36527634 171.56767273 C11.91291453 171.56586169 9.46147772 171.54437186 7.00927734 171.51757812 C6.29634018 171.52050873 5.58340302 171.52343933 4.84886169 171.52645874 C-4.01314067 171.37812804 -8.38668133 168.75523951 -15.17578125 163.09765625 C-15.17578125 180.91765625 -15.17578125 198.73765625 -15.17578125 217.09765625 C-12.53578125 214.78765625 -9.89578125 212.47765625 -7.17578125 210.09765625 C0.2524291 206.19469827 8.48968995 205.78625125 16.63671875 207.7890625 C25.57537023 211.04567485 31.40029133 216.34952944 35.71875 224.8359375 C38.61364065 233.37739932 38.11254538 243.76573364 34.21484375 251.91796875 C29.56432921 259.20725839 23.17851504 264.17447455 14.9140625 266.67578125 C6.79033503 268.31571128 -0.07122368 267.22329996 -7.17578125 263.09765625 C-8.61669643 262.072667 -10.04045098 261.02309195 -11.4453125 259.94921875 C-12.14889893 259.41377441 -12.85248535 258.87833008 -13.57739258 258.32666016 C-14.10486084 257.92108887 -14.6323291 257.51551758 -15.17578125 257.09765625 C-16.28073472 279.92506909 -16.28073472 279.92506909 -5.17578125 299.09765625 C-5.17578125 299.75765625 -5.17578125 300.41765625 -5.17578125 301.09765625 C-4.30179688 301.51724609 -4.30179688 301.51724609 -3.41015625 301.9453125 C-1.30810303 303.02941338 0.60496859 304.22910397 2.57421875 305.53515625 C6.5119408 308.03694206 10.4129447 309.60097398 14.82421875 311.09765625 C14.82421875 311.42765625 14.82421875 311.75765625 14.82421875 312.09765625 C21.42421875 312.42765625 28.02421875 312.75765625 34.82421875 313.09765625 C31.77336767 324.28411021 27.78673575 335.20073451 23.82421875 346.09765625 C76.62421875 346.42765625 129.42421875 346.75765625 183.82421875 347.09765625 C189.67675667 361.14374727 189.67675667 361.14374727 192.13671875 368.16015625 C192.40033203 368.89169922 192.66394531 369.62324219 192.93554688 370.37695312 C194.00452996 373.40620129 194.82421875 375.86094642 194.82421875 379.09765625 C134.10421875 379.09765625 73.38421875 379.09765625 10.82421875 379.09765625 C9.83421875 382.72765625 8.84421875 386.35765625 7.82421875 390.09765625 C6.17421875 394.05765625 4.52421875 398.01765625 2.82421875 402.09765625 C-16.64578125 402.09765625 -36.11578125 402.09765625 -56.17578125 402.09765625 C-55.10537704 397.81603942 -53.27066741 394.75383635 -50.92578125 391.09765625 C-50.48613037 390.40341553 -50.04647949 389.7091748 -49.59350586 388.99389648 C-44.37728516 380.78507409 -39.05649783 372.64289599 -33.74121094 364.49804688 C-31.44223015 360.97284739 -29.15068082 357.44287954 -26.86328125 353.91015625 C-26.4353125 353.24918945 -26.00734375 352.58822266 -25.56640625 351.90722656 C-20.56718568 344.17360572 -15.6118248 336.41176025 -10.65698242 328.6496582 C-7.53909001 323.76936161 -4.41690518 318.89717225 -1.17578125 314.09765625 C-2.15417969 313.87851562 -3.13257813 313.659375 -4.140625 313.43359375 C-17.08574679 310.36833961 -26.19951796 305.16150533 -34.17578125 294.09765625 C-39.13326921 285.67174265 -40.47591513 277.64319631 -40.44320679 267.99787903 C-40.4477379 267.00791276 -40.45226901 266.01794649 -40.45693743 264.99798125 C-40.46955416 261.69497658 -40.4679628 258.39213737 -40.46630859 255.08911133 C-40.47229559 252.71496367 -40.47910153 250.34081796 -40.48666382 247.9666748 C-40.50248269 242.19485118 -40.50877152 236.42307739 -40.50988857 230.65123317 C-40.51084112 225.95568671 -40.51496171 221.26015365 -40.52128983 216.56461143 C-40.53889202 203.23070403 -40.54813045 189.89682874 -40.54662888 176.56290964 C-40.54654897 175.84500835 -40.54646905 175.12710705 -40.54638672 174.38745117 C-40.54630496 173.66866583 -40.5462232 172.94988049 -40.54613896 172.20931377 C-40.54532663 160.56910163 -40.56445349 148.92901907 -40.59266345 137.28884438 C-40.62144885 125.31603775 -40.6352006 113.34329419 -40.6334759 101.37045211 C-40.63281388 94.65698446 -40.63861628 87.94367295 -40.659832 81.23023415 C-40.67925245 74.91248416 -40.67931253 68.59502013 -40.66479874 62.27725983 C-40.66271421 59.96546446 -40.66739014 57.65365101 -40.67951965 55.34188652 C-40.75876878 39.18442796 -40.53564597 24.8242897 -29.17578125 12.09765625 C-20.81632763 4.15082649 -11.54425398 -0.05686825 0 0 Z " fill="#D82F3D" transform="translate(56.17578125,106.90234375)"/>
<path d="M0 0 C0.6952469 -0.0034177 1.3904938 -0.0068354 2.10680878 -0.01035666 C4.42410032 -0.01691752 6.74021972 0.0050089 9.05740356 0.0269165 C10.72329175 0.02804538 12.38918194 0.02741034 14.05506897 0.02514648 C18.56920753 0.02399997 23.08291996 0.04749915 27.59695959 0.07544231 C32.31748634 0.10046633 37.03802311 0.10279876 41.75860596 0.10754395 C50.69394879 0.11997077 59.6290956 0.15278845 68.56435215 0.1929419 C80.64118589 0.24603369 92.71807333 0.26760745 104.79499435 0.29095078 C123.81766948 0.32855004 142.83993097 0.40824279 161.86257935 0.48101807 C161.86257935 31.50101807 161.86257935 62.52101807 161.86257935 94.48101807 C164.50257935 94.48101807 167.14257935 94.48101807 169.86257935 94.48101807 C169.86257935 94.81101807 169.86257935 95.14101807 169.86257935 95.48101807 C88.68257935 95.48101807 7.50257935 95.48101807 -76.13742065 95.48101807 C-85.25811031 70.39912151 -85.25811031 70.39912151 -89.33273315 57.72906494 C-90.97254205 52.71138524 -92.78306517 47.91639059 -94.98605347 43.12237549 C-97.39948607 37.58570726 -99.45317176 31.89685918 -101.56613159 26.24005127 C-102.39530292 24.02243698 -103.2309667 21.80734051 -104.06710815 19.59234619 C-104.59614251 18.18168454 -105.12480234 16.77088237 -105.65304565 15.35992432 C-105.90298279 14.69851944 -106.15291992 14.03711456 -106.41043091 13.35566711 C-108.13742065 8.71064306 -108.13742065 8.71064306 -108.13742065 6.48101807 C-103.29982489 6.20737242 -98.46679516 6.00877914 -93.6232605 5.87677002 C-91.97955846 5.82172166 -90.33638863 5.7468459 -88.69454956 5.65118408 C-75.10353885 4.87962397 -75.10353885 4.87962397 -70.39205933 8.71710205 C-68.31649113 11.54402254 -66.70088579 14.34586462 -65.13742065 17.48101807 C-64.31495213 18.78084744 -63.47973893 20.07280277 -62.6257019 21.35211182 C-61.89679329 22.53868052 -61.17158508 23.7275296 -60.44992065 24.91851807 C-56.72018081 30.97441856 -52.90213865 36.96412969 -49.01242065 42.91851807 C-43.23973693 51.75972934 -37.53950721 60.64573185 -31.86935425 69.55303955 C-28.59458686 74.68647003 -25.28127746 79.78911527 -21.89840698 84.85211182 C-21.19041458 85.91228516 -20.48242218 86.9724585 -19.75297546 88.0647583 C-19.21984238 88.86212402 -18.68670929 89.65948975 -18.13742065 90.48101807 C-18.13377502 89.49209564 -18.13012939 88.50317322 -18.12637329 87.48428345 C-18.08940142 78.15592112 -18.03160482 68.82788824 -17.95351791 59.49977684 C-17.91404081 54.70428491 -17.88185348 49.90897667 -17.86642456 45.11334229 C-17.8512595 40.4835989 -17.81681669 35.8543605 -17.76911163 31.22484207 C-17.75429627 29.46029682 -17.74637955 27.69567948 -17.7455368 25.93107224 C-17.74316581 23.45547662 -17.71607724 20.98127508 -17.68331909 18.50592041 C-17.69086464 17.41618927 -17.69086464 17.41618927 -17.69856262 16.30444336 C-17.59482105 11.22369689 -16.42001116 8.33512835 -13.13742065 4.48101807 C-8.63892466 0.91297342 -5.71267954 -0.01697676 0 0 Z " fill="#B8C0CA" transform="translate(335.1374206542969,413.51898193359375)"/>
<path d="M0 0 C0.73977585 0.036129 1.4795517 0.072258 2.241745 0.10948181 C3.01153183 0.11938644 3.78131866 0.12929108 4.57443237 0.13949585 C7.02150517 0.17853406 9.46400924 0.26631276 11.90971375 0.35557556 C13.57306017 0.39070414 15.23647729 0.42264048 16.89994812 0.45127869 C20.96745064 0.52825836 25.03155911 0.64894834 29.09721375 0.79307556 C26.04636267 11.97952952 22.05973074 22.89615382 18.09721375 33.79307556 C70.89721375 34.12307556 123.69721375 34.45307556 178.09721375 34.79307556 C183.94975167 48.83916658 183.94975167 48.83916658 186.40971375 55.85557556 C186.67332703 56.58711853 186.93694031 57.3186615 187.20854187 58.07237244 C188.27752495 61.1016206 189.09721375 63.55636573 189.09721375 66.79307556 C128.37721375 66.79307556 67.65721375 66.79307556 5.09721375 66.79307556 C4.10721375 70.42307556 3.11721375 74.05307556 2.09721375 77.79307556 C-0.37778625 83.73307556 -0.37778625 83.73307556 -2.90278625 89.79307556 C-22.37278625 89.79307556 -41.84278625 89.79307556 -61.90278625 89.79307556 C-60.83238205 85.51145873 -58.99767242 82.44925566 -56.65278625 78.79307556 C-56.21313538 78.09883484 -55.7734845 77.40459412 -55.32051086 76.6893158 C-50.10429017 68.4804934 -44.78350284 60.3383153 -39.46821594 52.19346619 C-37.1692349 48.66826631 -34.87779292 45.13822985 -32.59028625 41.60557556 C-32.16159241 40.94388367 -31.73289856 40.28219177 -31.29121399 39.60044861 C-28.45688652 35.21780009 -25.64277057 30.82257344 -22.83638 26.42198181 C-22.11738662 25.29527235 -21.39839247 24.16856336 -20.67939758 23.04185486 C-19.27466333 20.84028977 -17.87259961 18.63709608 -16.47187805 16.43296814 C-15.49795105 14.90579163 -15.49795105 14.90579163 -14.50434875 13.34776306 C-13.93023254 12.44525818 -13.35611633 11.5427533 -12.76460266 10.61289978 C-12.15020325 9.68235779 -11.53580383 8.7518158 -10.90278625 7.79307556 C-10.38283836 6.86310005 -10.38283836 6.86310005 -9.85238647 5.91433716 C-7.20924398 1.54780472 -5.42493222 -0.00409547 0 0 Z " fill="#C6865C" transform="translate(61.90278625488281,419.20692443847656)"/>
<path d="M0 0 C0.7619165 -0.00700928 1.52383301 -0.01401855 2.30883789 -0.02124023 C4.80710161 -0.03872986 7.30421663 -0.0272317 9.80249023 -0.01367188 C11.54931351 -0.01636913 13.29613533 -0.02025349 15.04295349 -0.02526855 C18.69528568 -0.0311511 22.34722532 -0.02263998 25.99951172 -0.00390625 C30.67249774 0.01889973 35.34456555 0.00574225 40.01751804 -0.01819611 C43.62158587 -0.03267344 47.22543717 -0.02803956 50.82951164 -0.01768494 C52.5522364 -0.01502387 54.27498106 -0.01826555 55.99768257 -0.02760315 C58.4078366 -0.03780293 60.81651773 -0.0222224 63.2265625 0 C63.93270187 -0.00809692 64.63884125 -0.01619385 65.36637878 -0.02453613 C70.37035451 0.06061333 73.17613159 1.41482796 77.04858398 4.51757812 C81.35608147 9.29075101 82.17175662 12.54154417 82.22558594 18.8815918 C82.24483879 20.85460518 82.24483879 20.85460518 82.26448059 22.86747742 C82.27265004 24.30683006 82.28009338 25.74618698 82.28686523 27.18554688 C82.29094076 27.91199213 82.29501629 28.63843739 82.29921532 29.38689613 C82.32006515 33.23457173 82.33436957 37.08221181 82.34375 40.92993164 C82.35479132 44.88981532 82.38916721 48.84913349 82.4289217 52.80881786 C82.45516537 55.86561574 82.46344882 58.92228069 82.46703148 61.97918129 C82.47188022 63.43792843 82.4834451 64.89667032 82.50206947 66.35530663 C82.59717369 74.2997607 82.57091077 80.71386851 78.04858398 87.51757812 C73.68076737 91.62067858 69.28117087 91.66979618 63.55126953 91.67871094 C62.40927094 91.68615829 62.40927094 91.68615829 61.24420166 91.6937561 C58.72455949 91.7083653 56.2049803 91.71517792 53.68530273 91.72070312 C51.93276467 91.72645594 50.18022663 91.73221366 48.4276886 91.73797607 C44.75159411 91.74848276 41.07552146 91.75432749 37.39941406 91.7578125 C32.69511534 91.76329418 27.99110649 91.78731658 23.28689861 91.81578445 C19.66572738 91.8344338 16.04462562 91.83961767 12.42341042 91.84114838 C10.68950632 91.84417064 8.95560332 91.85218478 7.22174644 91.86533356 C4.79230252 91.88244104 2.36356221 91.88050248 -0.06591797 91.87402344 C-0.77834152 91.88323822 -1.49076508 91.892453 -2.22477722 91.90194702 C-6.86638151 91.86328621 -10.00557498 90.94900873 -13.95141602 88.51757812 C-18.36837766 83.74248446 -19.07593229 80.34140699 -19.12841797 73.95410156 C-19.13498917 73.29191116 -19.14156036 72.62972076 -19.14833069 71.94746399 C-19.16803043 69.75729248 -19.17971979 67.56718949 -19.18969727 65.37695312 C-19.19377279 64.6271946 -19.19784832 63.87743607 -19.20204735 63.10495758 C-19.22289555 59.13524147 -19.23720173 55.16555977 -19.24658203 51.19580078 C-19.25763419 47.10579096 -19.29202326 43.01632703 -19.33175373 38.92650986 C-19.35796383 35.77281722 -19.3662778 32.61925369 -19.36986351 29.46546173 C-19.37471943 27.95844086 -19.38630507 26.45142537 -19.4049015 24.94451141 C-19.57973523 9.83627852 -19.57973523 9.83627852 -14.95141602 4.51757812 C-9.89910834 1.08796758 -6.14439722 -0.07065707 0 0 Z " fill="#D3EDF9" transform="translate(63.951416015625,175.482421875)"/>
<path d="M0 0 C0.76177048 -0.00540298 1.52354095 -0.01080597 2.30839539 -0.01637268 C4.81211895 -0.02882157 7.31468388 -0.0123955 9.81835938 0.00561523 C11.56661031 0.00546016 13.31486159 0.00396971 15.06311035 0.00120544 C18.721428 -0.00017682 22.37935277 0.0123505 26.03759766 0.03515625 C30.71834358 0.06354044 35.39843706 0.06080129 40.07923126 0.04806614 C43.68757667 0.04109911 47.29577224 0.04890992 50.90409851 0.06132317 C52.62960739 0.06582772 54.35513241 0.06618319 56.0806427 0.06225777 C58.49550141 0.05933545 60.90947245 0.07590034 63.32421875 0.09765625 C64.38578438 0.09090378 64.38578438 0.09090378 65.46879578 0.08401489 C70.08665586 0.15286713 73.235404 1.08340504 77.16210938 3.50170898 C81.43355768 8.23493549 82.28792135 10.74314727 82.32324219 17.05932617 C82.33068954 18.06943253 82.33068954 18.06943253 82.33828735 19.09994507 C82.35291833 21.33283504 82.35971363 23.5656539 82.36523438 25.79858398 C82.37098649 27.35076906 82.37674422 28.90295412 82.38250732 30.45513916 C82.39302095 33.71350435 82.39886077 36.97184484 82.40234375 40.23022461 C82.40781941 44.39760841 82.43182576 48.56466398 82.4603157 52.73194504 C82.47897956 55.94050027 82.48414974 59.14897717 82.48567963 62.35758209 C82.48869988 63.89332111 82.49670721 65.42905895 82.50986481 66.96474457 C82.52699905 69.1189178 82.52502725 71.27229917 82.51855469 73.42651367 C82.52402313 75.26279327 82.52402313 75.26279327 82.52960205 77.13616943 C81.90994334 82.81107413 79.49544552 86.84545661 75.16210938 90.50170898 C71.56759905 91.69987909 68.25714363 91.68856271 64.51293945 91.72631836 C63.7353125 91.73770844 62.95768555 91.74909851 62.15649414 91.76083374 C54.02759672 91.87142009 45.89780148 91.91890112 37.76831055 91.96166992 C33.91434152 91.9839378 30.06134195 92.02569759 26.20776367 92.0847168 C21.54872873 92.15592547 16.89060546 92.19251911 12.23105431 92.20478821 C10.45963124 92.21516789 8.68823459 92.23754262 6.91712379 92.27238464 C-8.66941916 92.5631349 -8.66941916 92.5631349 -13.92504883 88.14428711 C-17.80933394 83.96103506 -17.97054632 80.30918149 -18.01489258 74.73876953 C-18.02146378 74.0554657 -18.02803497 73.37216187 -18.0348053 72.66815186 C-18.05450557 70.40824265 -18.06619345 68.14839979 -18.07617188 65.88842773 C-18.0802474 65.11535593 -18.08432293 64.34228413 -18.08852196 63.5457859 C-18.10936863 59.45402927 -18.12367646 55.36230604 -18.13305664 51.27050781 C-18.144119 47.05037127 -18.17852038 42.8307623 -18.21822834 38.61081219 C-18.24440694 35.36022479 -18.25274954 32.1097629 -18.25633812 28.85907936 C-18.2612008 27.30378468 -18.27280581 25.74849548 -18.29137611 24.19330406 C-18.31579592 22.01272442 -18.31479833 19.83350731 -18.30786133 17.65283203 C-18.31372757 16.41389694 -18.31959381 15.17496185 -18.32563782 13.89848328 C-17.55016793 8.49794746 -15.17202253 5.63452776 -11.07775879 2.1580658 C-7.27281987 0.21282106 -4.17431331 -0.05702492 0 0 Z " fill="#D3EEFA" transform="translate(190.837890625,175.498291015625)"/>
<path d="M0 0 C0.02578125 0.74765625 0.0515625 1.4953125 0.078125 2.265625 C0.33277781 8.29983417 0.33277781 8.29983417 2.75 13.6875 C5.46228009 15.26966339 6.90816241 15.47566732 10 15 C10.99 14.34 11.98 13.68 13 13 C13.66 8.71 14.32 4.42 15 0 C28.2 0 41.4 0 55 0 C55.495 4.95 55.495 4.95 56 10 C56.495 11.98 56.495 11.98 57 14 C62.38578467 15.23852387 62.38578467 15.23852387 67.4375 13.75 C69.89019367 9.43325914 69.83133377 4.89132072 70 0 C76.13439944 -0.38339996 81.61425842 -0.23144495 87 3 C91.20403718 6.77524403 94.58757533 11.11329895 95.20144653 16.8984375 C95.29722791 19.18039026 95.32960059 21.4543117 95.3359375 23.73828125 C95.3459227 24.99767769 95.3459227 24.99767769 95.35610962 26.28251648 C95.36621029 28.05510273 95.37092744 29.8277268 95.37060547 31.6003418 C95.37496914 34.2934538 95.41128822 36.98491298 95.44921875 39.67773438 C95.45508962 41.40624444 95.4590572 43.13476223 95.4609375 44.86328125 C95.47530853 45.65938309 95.48967957 46.45548492 95.50448608 47.27571106 C95.4541079 53.53130458 93.87654201 58.80247827 89.62338257 63.53022766 C83.80859138 68.74890179 77.78896394 69.29796877 70.36767578 69.2746582 C69.09816574 69.2823246 69.09816574 69.2823246 67.80300903 69.29014587 C65.01703739 69.30399748 62.2313144 69.30308834 59.4453125 69.30078125 C57.50007028 69.30467082 55.55482891 69.30900603 53.60958862 69.31376648 C49.53608444 69.32121932 45.46266694 69.32094434 41.38916016 69.31567383 C36.18180304 69.30988268 30.97480201 69.32680625 25.76750374 69.3500185 C21.7507827 69.36478643 17.73414679 69.36562334 13.71740341 69.36250877 C11.79815847 69.36302052 9.87890858 69.36823059 7.95969009 69.37832069 C5.2699326 69.3907262 2.58086069 69.38386876 -0.10888672 69.37231445 C-1.28590149 69.38378006 -1.28590149 69.38378006 -2.48669434 69.39547729 C-8.5409631 69.33830425 -14.1915538 68.28796196 -19.0234375 64.3515625 C-19.46945312 63.78179687 -19.91546875 63.21203125 -20.375 62.625 C-20.83648437 62.06039062 -21.29796875 61.49578125 -21.7734375 60.9140625 C-25.07199861 55.76662638 -25.31944796 51.20492855 -25.3359375 45.26171875 C-25.3459227 44.00232231 -25.3459227 44.00232231 -25.35610962 42.71748352 C-25.36621029 40.94489727 -25.37092744 39.1722732 -25.37060547 37.3996582 C-25.37496914 34.7065462 -25.41128822 32.01508702 -25.44921875 29.32226562 C-25.45508962 27.59375556 -25.4590572 25.86523777 -25.4609375 24.13671875 C-25.47530853 23.34061691 -25.48967957 22.54451508 -25.50448608 21.72428894 C-25.4541079 15.46869542 -23.87654201 10.19752173 -19.62338257 5.46977234 C-13.60675927 0.06995739 -7.67615566 -0.30704623 0 0 Z " fill="#80A6C5" transform="translate(374,112)"/>
<path d="M0 0 C1.05694061 -0.00708481 2.11388123 -0.01416962 3.20285034 -0.02146912 C4.92667938 -0.01775299 4.92667938 -0.01775299 6.68533325 -0.01396179 C8.51298721 -0.02162819 8.51298721 -0.02162819 10.37756348 -0.02944946 C13.7124239 -0.04095712 17.04703553 -0.04342069 20.3818984 -0.04088616 C23.170037 -0.03981469 25.95815281 -0.04470441 28.74628651 -0.04949158 C35.32689764 -0.06057907 41.90745168 -0.0610287 48.48806763 -0.05497742 C55.266502 -0.04893983 62.04472868 -0.06124478 68.82312763 -0.08254749 C74.65175313 -0.1001887 80.48031269 -0.10616082 86.30896389 -0.10290974 C89.78617128 -0.10110047 93.26323056 -0.10369709 96.74041367 -0.11762428 C100.62057325 -0.13258445 104.50047037 -0.12321044 108.38064575 -0.11161804 C109.52581665 -0.11926178 110.67098755 -0.12690552 111.8508606 -0.13478088 C117.85073912 -0.09517444 122.48144931 0.08595992 127.66238403 3.26069641 C130.66238403 8.26069641 130.66238403 8.26069641 133.66238403 31.26069641 C83.83238403 31.26069641 34.00238403 31.26069641 -17.33761597 31.26069641 C-15.61054173 7.08165711 -15.61054173 7.08165711 -10.33761597 2.26069641 C-6.77551275 0.54592221 -3.93579636 0.00882575 0 0 Z " fill="#B8C0CA" transform="translate(101.33761596679688,75.73930358886719)"/>
<path d="M0 0 C4.83759576 -0.27364565 9.67062549 -0.47223893 14.51416016 -0.60424805 C16.1578622 -0.65929641 17.80103202 -0.73417216 19.44287109 -0.82983398 C33.0338818 -1.60139409 33.0338818 -1.60139409 37.74536133 2.23608398 C39.82092953 5.06300447 41.43653487 7.86484656 43 11 C43.82246852 12.29982938 44.65768172 13.5917847 45.51171875 14.87109375 C46.24062737 16.05766246 46.96583558 17.24651153 47.6875 18.4375 C51.41724206 24.49340409 55.23540833 30.48302677 59.125 36.4375 C64.9027742 45.29016348 70.61835154 54.18138704 76.30322266 63.09399414 C79.18421862 67.60953018 82.06767572 72.12155409 85.015625 76.59375 C85.44456055 77.24746582 85.87349609 77.90118164 86.31542969 78.57470703 C87.40306343 80.22767719 88.49805188 81.87580189 89.59375 83.5234375 C91 86 91 86 91 89 C71.53 89 52.06 89 32 89 C22.87931034 63.91810345 22.87931034 63.91810345 18.8046875 51.24804688 C17.1648786 46.23036717 15.35435548 41.43537253 13.15136719 36.64135742 C10.73793458 31.10468919 8.68424889 25.41584112 6.57128906 19.7590332 C5.74211773 17.54141891 4.90645395 15.32632244 4.0703125 13.11132812 C3.54127815 11.70066648 3.01261831 10.28986431 2.484375 8.87890625 C2.23443787 8.21750137 1.98450073 7.5560965 1.72698975 6.87464905 C0 2.229625 0 2.229625 0 0 Z " fill="#919CA6" transform="translate(227,420)"/>
<path d="M0 0 C0.73977585 0.036129 1.4795517 0.072258 2.241745 0.10948181 C3.01153183 0.11938644 3.78131866 0.12929108 4.57443237 0.13949585 C7.02150517 0.17853406 9.46400924 0.26631276 11.90971375 0.35557556 C13.57306017 0.39070414 15.23647729 0.42264048 16.89994812 0.45127869 C20.96745064 0.52825836 25.03155911 0.64894834 29.09721375 0.79307556 C27.15530667 8.34188455 24.84715188 15.66562491 22.15971375 22.98057556 C21.82520203 23.91321228 21.49069031 24.845849 21.14604187 25.80674744 C19.38910724 30.62393043 17.45285221 35.18179401 15.09501648 39.7308197 C13.1108926 43.83160131 11.63260329 48.13387346 10.09721375 52.41807556 C9.74618591 53.38793396 9.39515808 54.35779236 9.03349304 55.35704041 C6.79323345 61.6239308 4.79808843 67.87407814 3.179245 74.33213806 C1.52669867 79.61789995 -0.77276042 84.68101355 -2.90278625 89.79307556 C-22.37278625 89.79307556 -41.84278625 89.79307556 -61.90278625 89.79307556 C-60.83238205 85.51145873 -58.99767242 82.44925566 -56.65278625 78.79307556 C-56.21313538 78.09883484 -55.7734845 77.40459412 -55.32051086 76.6893158 C-50.10429017 68.4804934 -44.78350284 60.3383153 -39.46821594 52.19346619 C-37.1692349 48.66826631 -34.87779292 45.13822985 -32.59028625 41.60557556 C-32.16159241 40.94388367 -31.73289856 40.28219177 -31.29121399 39.60044861 C-28.45688652 35.21780009 -25.64277057 30.82257344 -22.83638 26.42198181 C-22.11738662 25.29527235 -21.39839247 24.16856336 -20.67939758 23.04185486 C-19.27466333 20.84028977 -17.87259961 18.63709608 -16.47187805 16.43296814 C-15.49795105 14.90579163 -15.49795105 14.90579163 -14.50434875 13.34776306 C-13.93023254 12.44525818 -13.35611633 11.5427533 -12.76460266 10.61289978 C-12.15020325 9.68235779 -11.53580383 8.7518158 -10.90278625 7.79307556 C-10.38283836 6.86310005 -10.38283836 6.86310005 -9.85238647 5.91433716 C-7.20924398 1.54780472 -5.42493222 -0.00409547 0 0 Z " fill="#919CA6" transform="translate(61.90278625488281,419.20692443847656)"/>
<path d="M0 0 C0.80703369 -0.00511093 1.61406738 -0.01022186 2.44555664 -0.01548767 C5.11254301 -0.02938251 7.7792708 -0.02842644 10.44628906 -0.02612305 C12.30470882 -0.03001114 14.16312769 -0.03434605 16.02154541 -0.03910828 C19.91868976 -0.04657107 23.81574352 -0.04627959 27.71289062 -0.04101562 C32.69386929 -0.03523276 37.67447469 -0.05212305 42.65539169 -0.0753603 C46.49540354 -0.09013544 50.3353264 -0.09096399 54.17536163 -0.08785057 C56.0108743 -0.08836227 57.84639214 -0.09357154 59.68187714 -0.10366249 C62.25690994 -0.11607767 64.83122759 -0.10920422 67.40625 -0.09765625 C68.15666565 -0.10529999 68.9070813 -0.11294373 69.68023682 -0.12081909 C76.77307912 -0.05094406 83.20264636 1.85188068 88.57910156 6.68481445 C94.14329935 13.0820701 96.07538479 19.61501359 96.12304688 27.91992188 C96.13049423 28.90860764 96.13049423 28.90860764 96.13809204 29.91726685 C96.15266488 32.09239764 96.15950884 34.26745541 96.16503906 36.44262695 C96.17079621 37.9623464 96.17655387 39.48206584 96.18231201 41.00178528 C96.19280931 44.18853085 96.19865973 47.3752513 96.20214844 50.56201172 C96.20761884 54.62591408 96.2316208 58.68947898 96.26012039 62.75327587 C96.27883964 65.89417965 96.28395737 69.03500381 96.28548431 72.17595863 C96.28849241 73.67293446 96.29645793 75.16990951 96.30966949 76.66683006 C96.40136024 87.85802761 95.93897407 97.03078294 87.93066406 105.5480957 C81.50586363 111.1825437 74.63169873 112.41822946 66.32275391 112.4675293 C65.55794708 112.47570679 64.79314026 112.48388428 64.00515747 112.49230957 C61.47772996 112.51708951 58.95035848 112.53366346 56.42285156 112.5480957 C55.12316877 112.55608122 55.12316877 112.55608122 53.79722977 112.56422806 C49.20809058 112.59093166 44.61897829 112.61031265 40.02978516 112.62475586 C36.24503295 112.63807387 32.46082259 112.66589071 28.67626953 112.70678711 C24.0939327 112.75629575 19.51208578 112.7808993 14.92949295 112.78798294 C13.19048333 112.79466553 11.45148336 112.80980896 9.71262741 112.83387375 C-0.85195325 112.97170298 -9.97678377 112.86604476 -18.16372681 105.31381226 C-26.65334795 96.6377286 -26.52516814 86.83446187 -26.54199219 75.3840332 C-26.55165223 73.83237441 -26.56174606 72.28071825 -26.57225037 70.72906494 C-26.59014943 67.48459551 -26.595778 64.24036488 -26.59399414 60.99584961 C-26.59368993 56.86908799 -26.63460506 52.74388262 -26.68631077 48.61748886 C-26.71992097 45.4137897 -26.72574422 42.21045672 -26.72416496 39.00659943 C-26.72766942 37.48694761 -26.74073546 35.96728259 -26.76416206 34.44780731 C-26.90164388 24.60875965 -25.85027331 16.52939814 -20.03808594 8.2746582 C-17.53815334 5.87380249 -15.05589462 3.9729392 -12.03808594 2.2746582 C-11.50407166 1.92792557 -10.97005737 1.58119293 -10.41986084 1.22395325 C-6.98893035 -0.14349978 -3.63820545 -0.01188293 0 0 Z M-13.38172913 17.07969666 C-15.31616462 20.81104667 -15.53923052 23.20637033 -15.53979492 27.39404297 C-15.54519791 28.07939117 -15.55060089 28.76473938 -15.5561676 29.47085571 C-15.56860046 31.71970789 -15.55220387 33.96726615 -15.53417969 36.21606445 C-15.53433479 37.78734911 -15.53582557 39.35863415 -15.53858948 40.92991638 C-15.53997096 44.21582036 -15.52745662 47.5012865 -15.50463867 50.78710938 C-15.47623097 54.99267115 -15.47900089 59.19750722 -15.49172878 63.4031229 C-15.49869256 66.64513823 -15.49088916 69.88698663 -15.47847176 73.12898064 C-15.47396568 74.6794769 -15.47361307 76.22999113 -15.47753716 77.78048897 C-15.48045696 79.94892078 -15.4639083 82.11636161 -15.44213867 84.28466797 C-15.43673569 85.51677505 -15.4313327 86.74888214 -15.42576599 88.01832581 C-14.82026605 93.10424408 -12.86812085 95.41714806 -9.35292053 99.04870605 C-5.44081165 101.67573523 -2.55475432 101.97286308 1.99926758 101.88989258 C2.78215149 101.89544159 3.5650354 101.9009906 4.37164307 101.90670776 C6.94533556 101.91846619 9.51725245 101.89427151 12.09082031 101.8684082 C13.88630595 101.86669616 15.68179408 101.86676374 17.47727966 101.86853027 C21.23403954 101.86687926 24.99020107 101.84822011 28.74682617 101.81665039 C33.55772204 101.77694477 38.36783582 101.77260981 43.17886448 101.78011322 C46.88412111 101.78318506 50.58920251 101.77105526 54.29441643 101.75398254 C56.06819497 101.74696131 57.84199336 101.74382695 59.6157856 101.74467468 C62.09553956 101.74287344 64.5743625 101.72146545 67.05395508 101.69458008 C67.78396225 101.69751068 68.51396942 101.70044128 69.26609802 101.70346069 C73.6755638 101.62983567 76.43973687 100.94947465 79.96191406 98.2746582 C84.35664111 93.39162815 85.08662319 90.07774208 85.13891602 83.60351562 C85.14548721 82.92996536 85.15205841 82.2564151 85.15882874 81.56245422 C85.17852745 79.33501061 85.19021656 77.10763431 85.20019531 74.88012695 C85.20427084 74.11808771 85.20834637 73.35604847 85.21254539 72.57091713 C85.23339145 68.53751523 85.24769952 64.50414721 85.25708008 60.47070312 C85.26814205 56.31109726 85.30254312 52.1520267 85.34225178 47.99260998 C85.3684325 44.78834559 85.37677316 41.58420851 85.38036156 38.37984657 C85.38522373 36.84688005 85.39682729 35.31391908 85.41539955 33.78105736 C85.43982392 31.63160476 85.43882101 29.48353409 85.43188477 27.33398438 C85.44068413 25.50222908 85.44068413 25.50222908 85.44966125 23.63346863 C84.74621233 18.78925501 82.54146171 15.66274553 78.89941406 12.4621582 C74.87158492 9.99348873 71.02780836 10.11473362 66.46459961 10.09765625 C65.70326721 10.09108505 64.94193481 10.08451385 64.15753174 10.07774353 C61.63789774 10.05803227 59.11832327 10.04635307 56.59863281 10.03637695 C55.73730051 10.03230143 54.87596821 10.0282259 53.98853493 10.02402687 C49.42994044 10.00317583 44.87137598 9.98886969 40.31274414 9.97949219 C35.60835896 9.96842711 30.9044467 9.9340235 26.20022869 9.89432049 C22.5790571 9.86815691 18.95799829 9.85980062 15.33674049 9.85621071 C13.60282 9.85134442 11.86890455 9.83972915 10.13507652 9.82117271 C7.70547518 9.79678508 5.27709876 9.79774508 2.84741211 9.8046875 C2.13498856 9.79187744 1.422565 9.77906738 0.68855286 9.76586914 C-5.81689662 9.83342909 -9.29143233 12.18413924 -13.38172913 17.07969666 Z " fill="#D73140" transform="translate(188.0380859375,165.725341796875)"/>
<path d="M0 0 C1.31541779 -0.01283524 2.63083557 -0.02567047 3.9861145 -0.03889465 C5.43068057 -0.04706468 6.87525091 -0.05450791 8.31982422 -0.0612793 C9.04718655 -0.06535482 9.77454887 -0.06943035 10.52395248 -0.07362938 C14.37810736 -0.09450023 18.2322266 -0.10879425 22.08642578 -0.11816406 C26.05418532 -0.12919602 30.02137899 -0.16355489 33.98893929 -0.20333576 C37.05002835 -0.22958274 40.11098468 -0.23786328 43.17217636 -0.24144554 C44.63371451 -0.24629525 46.09524738 -0.25786293 47.55667496 -0.27648354 C55.49471406 -0.3712909 61.97632875 -0.39538977 68.74951172 4.17700195 C73.83497081 10.35464018 74.29593419 18.22523591 75.49951172 25.92700195 C75.720961 27.26704572 75.94360779 28.60689217 76.16748047 29.9465332 C77.74951172 39.60576748 77.74951172 39.60576748 77.74951172 43.17700195 C44.74951172 43.17700195 11.74951172 43.17700195 -22.25048828 43.17700195 C-21.59048828 38.88700195 -20.93048828 34.59700195 -20.25048828 30.17700195 C-20.00427734 28.52829102 -19.75806641 26.87958008 -19.50439453 25.1809082 C-19.27454108 23.7003438 -19.04408977 22.21987206 -18.81298828 20.73950195 C-18.7040625 19.98991211 -18.59513672 19.24032227 -18.48291016 18.46801758 C-17.22954221 10.5808016 -14.63286527 5.92983588 -8.25048828 1.17700195 C-5.45445421 -0.22101508 -3.12807133 0.0265077 0 0 Z " fill="#4F5860" transform="translate(131.25048828125,376.822998046875)"/>
<path d="M0 0 C1.051875 0.556875 2.10375 1.11375 3.1875 1.6875 C9.6454109 6.99733786 13.49433289 14.20946947 14.37109375 22.515625 C14.54397846 32.23784746 13.53931453 38.86199635 7.015625 46.24609375 C0.52322269 52.51978038 -6.41751959 56.09064877 -15.5 56.5 C-24.52594327 56.09319692 -31.55069657 52.54817565 -38.015625 46.3125 C-44.37547426 38.90102212 -45.84183702 31.21005313 -45.48046875 21.58984375 C-44.3169585 12.89662492 -39.75994674 6.41948822 -33 1 C-22.89172755 -5.95076177 -10.56044462 -6.16025936 0 0 Z " fill="#D82F3D" transform="translate(270,318)"/>
<path d="M0 0 C1.30508011 -0.00960754 2.61016022 -0.01921509 3.95478821 -0.02911377 C5.38676784 -0.033962 6.8187495 -0.03824076 8.25073242 -0.04199219 C9.71563214 -0.04774413 11.18053184 -0.05350186 12.64543152 -0.05926514 C15.71967927 -0.06977689 18.79390086 -0.07561813 21.86816406 -0.07910156 C25.80248606 -0.08458098 29.73646104 -0.10859607 33.67067432 -0.13707352 C36.69818623 -0.15572386 39.72561505 -0.1609068 42.75317955 -0.16243744 C44.20322246 -0.16546006 45.65326404 -0.17347545 47.1032505 -0.18662262 C49.13516998 -0.20372818 51.16723257 -0.19995154 53.19921875 -0.1953125 C54.35456619 -0.19895813 55.50991364 -0.20260376 56.70027161 -0.20635986 C60.15970466 0.20461323 62.00756705 1.10772224 64.79370117 3.16113281 C66.92108255 5.87537802 67.72279679 7.68506051 68.23120117 11.09863281 C67.66649411 15.05158226 66.31937946 17.08936192 63.79370117 20.16113281 C59.93678001 22.99319315 57.19371857 23.5420303 52.44628906 23.56518555 C50.55391258 23.58421181 50.55391258 23.58421181 48.62330627 23.60362244 C47.25432165 23.60157078 45.88533815 23.59858258 44.51635742 23.59472656 C43.10297902 23.59929123 41.68960284 23.60459765 40.27622986 23.61061096 C37.31817594 23.61953119 34.36039215 23.61713176 31.40234375 23.60717773 C27.62158343 23.59569162 23.84175762 23.6158982 20.06112003 23.64509487 C17.14332713 23.66348906 14.22575683 23.66315808 11.30792046 23.65745735 C9.91453173 23.65730451 8.52112755 23.66331776 7.12779427 23.67574883 C-6.44230379 23.77976614 -6.44230379 23.77976614 -11.20629883 19.16113281 C-13.88750959 15.13931667 -14.01974218 11.8887689 -13.20629883 7.16113281 C-9.89993767 1.2244323 -6.48468488 0.03840326 0 0 Z " fill="#EBBC6A" transform="translate(132.206298828125,128.8388671875)"/>
<path d="M0 0 C7.92 0 15.84 0 24 0 C22.36261515 4.36635961 20.72629733 8.72937894 19.0546875 13.08203125 C14.36548886 25.38107398 9.99043562 37.74669176 5.91943359 50.26489258 C5.56574707 51.34794678 5.21206055 52.43100098 4.84765625 53.546875 C4.53836182 54.50432617 4.22906738 55.46177734 3.91040039 56.44824219 C3 59 3 59 1 63 C-8.57 63 -18.14 63 -28 63 C-24.62505379 52.87516136 -24.62505379 52.87516136 -23.01049805 49.42089844 C-22.6496965 48.64268738 -22.28889496 47.86447632 -21.91716003 47.06268311 C-21.53586441 46.25309143 -21.15456879 45.44349976 -20.76171875 44.609375 C-20.35846878 43.74290344 -19.95521881 42.87643188 -19.53974915 41.98370361 C-18.2602272 39.23698023 -16.97404658 36.49343899 -15.6875 33.75 C-14.83613462 31.92599305 -13.98521959 30.10177583 -13.13476562 28.27734375 C-11.50132758 24.77438529 -9.86562053 21.27250213 -8.22802734 17.77148438 C-5.46368586 11.85757362 -2.72915737 5.93024081 0 0 Z " fill="#B8C0CA" transform="translate(58,446)"/>
<path d="M0 0 C7.59 0 15.18 0 23 0 C28.78348073 11.35948232 34.13562664 22.82662459 39.25 34.5 C40.29482068 36.87873753 41.34083896 39.25693136 42.38909912 41.63415527 C43.03240359 43.09357707 43.67372854 44.55387394 44.31256104 46.01525879 C46.14466568 50.17816378 48.11015439 54.22812756 50.25189209 58.24157715 C51 60 51 60 51 63 C41.43 63 31.86 63 22 63 C17.38172917 50.46469345 12.88780679 37.92684328 8.79101562 25.2109375 C6.85968455 19.29142799 4.63000257 13.64218667 2 8 C0.66114739 4.92063899 0 3.36246468 0 0 Z " fill="#B8C0CA" transform="translate(237,446)"/>
<path d="M0 0 C1.42260384 -0.01270432 1.42260384 -0.01270432 2.87394714 -0.02566528 C6.00993244 -0.04907005 9.1454281 -0.05005661 12.28149414 -0.04882812 C14.46098528 -0.05592747 16.64047455 -0.06362614 18.81996155 -0.07189941 C23.38881628 -0.08535215 27.95749818 -0.08690933 32.52636719 -0.08105469 C38.38220853 -0.07515726 44.23722117 -0.1057489 50.09290218 -0.14617157 C54.59420746 -0.17201641 59.09531234 -0.17492889 63.59668159 -0.17127991 C65.75566249 -0.17297409 67.91465236 -0.18264519 70.07356071 -0.20042419 C73.09257407 -0.22255033 76.10989885 -0.21294384 79.12890625 -0.1953125 C80.02101807 -0.20857574 80.91312988 -0.22183899 81.83227539 -0.23550415 C86.25662786 -0.1754425 88.08710745 0.01007664 91.72291565 2.75915527 C93.62915039 5.41992188 93.62915039 5.41992188 93.62915039 8.60742188 C92.62915039 11.41992188 92.62915039 11.41992188 89.62915039 13.41992188 C87.70664978 13.67439747 87.70664978 13.67439747 85.4921875 13.68061829 C84.65098358 13.68770309 83.80977966 13.6947879 82.94308472 13.7020874 C81.56372238 13.69837128 81.56372238 13.69837128 80.15649414 13.69458008 C79.18551788 13.69969101 78.21454163 13.70480194 77.21414185 13.71006775 C73.99824901 13.72399046 70.78256981 13.72300512 67.56665039 13.72070312 C65.33609944 13.72458823 63.10554924 13.72892252 60.875 13.73368835 C56.19764814 13.74115608 51.52037175 13.74085501 46.84301758 13.7355957 C40.84030898 13.72979667 34.83790849 13.74674004 28.83525085 13.76994038 C24.22853785 13.78464948 19.62189956 13.78555333 15.01516724 13.78243065 C12.80151763 13.78294516 10.58786398 13.78820712 8.37423706 13.79824257 C5.28322122 13.81053653 2.19281228 13.80385786 -0.89819336 13.79223633 C-1.81776825 13.79988007 -2.73734314 13.8075238 -3.68478394 13.81539917 C-4.94658981 13.8048777 -4.94658981 13.8048777 -6.23388672 13.79414368 C-6.96465927 13.79431142 -7.69543182 13.79447916 -8.448349 13.79465199 C-10.96700059 13.30372128 -11.84561873 12.45795044 -13.37084961 10.41992188 C-13.80834961 6.91992188 -13.80834961 6.91992188 -13.37084961 3.41992188 C-9.84543546 -0.71888844 -5.00579263 -0.01640689 0 0 Z " fill="#505860" transform="translate(119.370849609375,323.580078125)"/>
<path d="M0 0 C0.83975876 -0.00990463 1.67951752 -0.01980927 2.54472351 -0.03001404 C3.46272736 -0.02551239 4.3807312 -0.02101074 5.32655334 -0.01637268 C6.29592331 -0.02323593 7.26529327 -0.03009918 8.26403809 -0.03717041 C11.47521016 -0.05550365 14.6858967 -0.05159151 17.89710999 -0.0459137 C20.12526611 -0.05047243 22.35342083 -0.05577708 24.58157349 -0.0617981 C29.25476284 -0.07074209 33.92778143 -0.06829145 38.60096741 -0.05836487 C44.59471191 -0.046875 50.5878673 -0.06708084 56.58153439 -0.09628201 C61.18401851 -0.11461346 65.78636069 -0.1143576 70.38887215 -0.10864449 C72.59890634 -0.10849089 74.80894993 -0.11456667 77.01894951 -0.12693596 C80.10753888 -0.14178578 83.19502999 -0.13121257 86.28358459 -0.11402893 C87.65755402 -0.12853088 87.65755402 -0.12853088 89.0592804 -0.14332581 C95.22125509 -0.07140646 95.22125509 -0.07140646 98.46890259 2.22763062 C99.86976624 4.38768005 99.86976624 4.38768005 99.86976624 7.45018005 C98.67059516 10.97274508 98.13160101 11.65521483 94.86976624 13.38768005 C91.74195048 13.8339114 88.63803098 13.79725373 85.48304749 13.77586365 C84.05803421 13.78374908 84.05803421 13.78374908 82.60423279 13.79179382 C79.46341011 13.80499947 76.32309409 13.79625358 73.18226624 13.78611755 C71.00038048 13.78813812 68.81849538 13.79104942 66.63661194 13.79481506 C62.06354849 13.79923919 57.49066082 13.79280438 52.9176178 13.77879333 C47.05289723 13.76170155 41.18858852 13.77154224 35.32388306 13.78951073 C30.81834301 13.80034608 26.31290077 13.79690333 21.80735779 13.78912735 C19.64477998 13.78712466 17.48219333 13.78958701 15.31962585 13.79656601 C12.29833927 13.80417624 9.27772169 13.79258193 6.25648499 13.77586365 C5.36077789 13.78193634 4.4650708 13.78800903 3.54222107 13.79426575 C-0.02493092 13.75765767 -2.47959574 13.71957031 -5.68955994 12.08216858 C-7.13023376 10.38768005 -7.13023376 10.38768005 -7.56773376 6.88768005 C-7.13023376 3.38768005 -7.13023376 3.38768005 -5.86102962 1.69316006 C-3.73475159 0.08938141 -2.64343077 0.00880533 0 0 Z " fill="#4F5860" transform="translate(113.13023376464844,301.61231994628906)"/>
<path d="M0 0 C5.28 0 10.56 0 16 0 C16.02270111 8.15458645 16.04100134 16.30914782 16.05181217 24.46375751 C16.05700396 28.25132241 16.06403333 32.03886433 16.07543945 35.82641602 C16.08640123 39.4898469 16.09230464 43.15325586 16.09487724 46.81670189 C16.09670777 48.2059482 16.10028161 49.59519348 16.10573006 50.98443031 C16.18972716 73.31455319 16.18972716 73.31455319 12.75 78.1875 C10 80 10 80 7.4375 80.5625 C4.26189019 79.82966697 3.04727693 78.48597913 1 76 C-0.49282393 73.01435214 -0.11916977 70.31016282 -0.11352539 66.97998047 C-0.11367142 66.25792419 -0.11381744 65.53586792 -0.1139679 64.79193115 C-0.11327007 62.40031959 -0.10548375 60.00878549 -0.09765625 57.6171875 C-0.09579161 55.96094811 -0.09436792 54.30470816 -0.09336853 52.64846802 C-0.08954699 48.28532392 -0.07971978 43.922213 -0.06866455 39.55908203 C-0.05844264 35.10840301 -0.05386924 30.65771863 -0.04882812 26.20703125 C-0.0380972 17.47133722 -0.02050332 8.73567656 0 0 Z " fill="#4D5961" transform="translate(429,48)"/>
<path d="M0 0 C1.39456452 0.00667256 2.78911118 0.01863093 4.18359375 0.03515625 C4.89451172 0.03966797 5.60542969 0.04417969 6.33789062 0.04882812 C8.09899388 0.06064761 9.86005411 0.07858362 11.62109375 0.09765625 C11.66742793 9.6769589 11.70296846 19.256223 11.72471809 28.83561325 C11.73515665 33.28367826 11.7493172 37.73166661 11.77197266 42.1796875 C11.79369842 46.47202559 11.80566183 50.76428994 11.81084824 55.05667877 C11.81454447 56.69454357 11.82176224 58.33240432 11.83255386 59.97023773 C11.8470653 62.26377597 11.84907185 64.5570092 11.84814453 66.85058594 C11.85258575 68.15630554 11.85702698 69.46202515 11.86160278 70.80731201 C11.63450613 73.91416476 11.38962406 75.57736142 9.62109375 78.09765625 C6.62109375 80.09765625 6.62109375 80.09765625 3.12109375 79.97265625 C-0.37890625 79.09765625 -0.37890625 79.09765625 -2.0552063 77.3444519 C-6.45617708 69.87441913 -4.52457295 57.64773182 -4.51171875 49.27734375 C-4.51239394 47.88298526 -4.51336576 46.48862689 -4.51461792 45.0942688 C-4.51607986 42.19825092 -4.51398595 39.30226421 -4.50927734 36.40625 C-4.50352721 32.68827329 -4.5069015 28.97036794 -4.51284981 25.25239372 C-4.51645085 22.38548232 -4.51531988 19.51858808 -4.51272202 16.65167618 C-4.51205423 15.27928789 -4.51287602 13.90689805 -4.51520157 12.53451157 C-4.51772625 10.62961607 -4.51319952 8.72471509 -4.50830078 6.81982422 C-4.50750519 5.73603485 -4.50670959 4.65224548 -4.50588989 3.53561401 C-4.30790767 -0.26544479 -3.92930216 0.11356365 0 0 Z " fill="#4D5961" transform="translate(377.37890625,47.90234375)"/>
<path d="M0 0 C4.86322152 4.20005495 8.40989941 7.905974 9.0625 14.5625 C8.58037015 20.44448412 6.53730801 24.6335204 2.3125 28.75 C-2.64430355 31.89333883 -6.32413624 32.89481261 -12.25 32.375 C-17.68584759 30.48909369 -21.01811108 27.0070232 -24.25 22.375 C-25.98265462 17.17703613 -25.69519351 12.8342454 -24.125 7.6875 C-21.77104171 3.52884035 -19.07353589 0.27784142 -14.33203125 -1.23828125 C-9.14860769 -2.20105598 -4.77590718 -2.38795359 0 0 Z " fill="#EBBB6A" transform="translate(72.25,328.625)"/>
<path d="M0 0 C3.73561731 3.21436838 7.41044791 6.57377201 7.92578125 11.66796875 C8.09675915 18.1921256 7.72953231 22.1004057 3.6875 27.3125 C-1.6171229 31.42628919 -5.59944424 32.86275047 -12.3125 32.3125 C-17.92185358 30.64140225 -21.63316952 27.79556545 -24.46484375 22.66015625 C-26.07081005 18.21229566 -26.07875191 13.9454861 -25.3125 9.3125 C-23.13461093 4.8760593 -20.39814574 2.07031087 -16.3125 -0.6875 C-10.70666014 -2.43205597 -5.26487209 -2.68210465 0 0 Z " fill="#EBBB6A" transform="translate(263.3125,328.6875)"/>
<path d="M0 0 C1.21171875 0.00322266 2.4234375 0.00644531 3.671875 0.00976562 C4.94289063 0.01814453 6.21390625 0.02652344 7.5234375 0.03515625 C8.8021875 0.03966797 10.0809375 0.04417969 11.3984375 0.04882812 C14.56515042 0.06064422 17.73177106 0.0771181 20.8984375 0.09765625 C19.69767578 1.46083984 19.69767578 1.46083984 18.47265625 2.8515625 C16.51630208 5.20787628 15.24458855 6.96509316 14.7109375 10.03515625 C14.57558594 10.78539063 14.44023438 11.535625 14.30078125 12.30859375 C13.44597046 18.23417536 12.64767072 24.15730718 11.8984375 30.09765625 C2.9884375 30.09765625 -5.9215625 30.09765625 -15.1015625 30.09765625 C-13.71559759 6.53625274 -13.71559759 6.53625274 -8.1015625 1.09765625 C-5.33538687 -0.28543156 -3.0913825 -0.01444571 0 0 Z " fill="#909BA5" transform="translate(99.1015625,76.90234375)"/>
<path d="M0 0 C3.58552881 1.63687185 4.79315055 2.68972583 7 6 C7.57091285 10.97509769 7.54264082 13.03725016 5.0625 17.4375 C1.62695683 20.31213816 -0.37478514 21.10141006 -4.77734375 21.28515625 C-7.71327042 20.90849079 -9.80344512 19.82938134 -11.890625 17.71875 C-14.10374925 14.28996595 -14.62148671 11.00893079 -14 7 C-10.88670943 0.42482649 -6.93648626 -1.10102957 0 0 Z " fill="#E6E7EC" transform="translate(270,129)"/>
<path d="M0 0 C3.58552881 1.63687185 4.79315055 2.68972583 7 6 C7.57091285 10.97509769 7.54264082 13.03725016 5.0625 17.4375 C1.62695683 20.31213816 -0.37478514 21.10141006 -4.77734375 21.28515625 C-7.71327042 20.90849079 -9.80344512 19.82938134 -11.890625 17.71875 C-14.10374925 14.28996595 -14.62148671 11.00893079 -14 7 C-10.88670943 0.42482649 -6.93648626 -1.10102957 0 0 Z " fill="#E6E7EC" transform="translate(55,129)"/>
</svg>
