<?xml version="1.0" encoding="UTF-8"?>
<svg version="1.1" xmlns="http://www.w3.org/2000/svg" width="512" height="512">
<path d="M0 0 C2.51933406 2.78130021 3.08795861 5.52544602 4.015625 9.13671875 C4.35078125 10.40902344 4.6859375 11.68132813 5.03125 12.9921875 C5.27359375 13.96800781 5.5159375 14.94382812 5.765625 15.94921875 C14.73028951 15.31810043 23.64801596 14.45072053 32.578125 13.44921875 C53.04411306 11.22999913 53.04411306 11.22999913 62.765625 10.94921875 C63.7959082 10.91666992 64.82619141 10.88412109 65.88769531 10.85058594 C69.43032784 10.75215186 72.97203713 10.68960452 76.515625 10.63671875 C77.66047363 10.60682861 78.80532227 10.57693848 79.98486328 10.54614258 C81.60110596 10.53490356 81.60110596 10.53490356 83.25 10.5234375 C84.21647461 10.50885498 85.18294922 10.49427246 86.17871094 10.47924805 C88.765625 10.94921875 88.765625 10.94921875 91.0793457 12.32910156 C93.73439754 16.45448397 93.31701237 20.49232811 93.26171875 25.296875 C93.26317398 26.30511826 93.26462921 27.31336151 93.26612854 28.35215759 C93.26446998 30.48130181 93.25291361 32.61045807 93.23217773 34.73950195 C93.2031999 38.00328299 93.21157462 41.26544232 93.22460938 44.52929688 C93.21837269 46.59766416 93.2099823 48.66602632 93.19921875 50.734375 C93.20215439 51.71253677 93.20509003 52.69069855 93.20811462 53.69850159 C93.19543045 54.60631882 93.18274628 55.51413605 93.16967773 56.44946289 C93.16427475 57.2479213 93.15887177 58.0463797 93.15330505 58.86903381 C92.66602922 61.48362241 91.85168332 62.3412781 89.765625 63.94921875 C86.66737175 64.98196983 84.43442155 65.10352976 81.18359375 65.16015625 C80.03777832 65.18658203 78.89196289 65.21300781 77.71142578 65.24023438 C76.47118652 65.26794922 75.23094727 65.29566406 73.953125 65.32421875 C56.12920477 65.81926514 38.41976656 67.40446001 20.765625 69.94921875 C23.49365182 81.86782111 26.49822669 93.68933274 29.6875 105.4921875 C30.15610443 107.23441701 30.62446194 108.97671295 31.09259033 110.71907043 C32.31685496 115.27332147 33.54421064 119.8267334 34.77233887 124.37994385 C35.99577502 128.91754777 37.21659965 133.45585388 38.4375 137.99414062 C38.91930964 139.78484141 39.40112115 141.57554169 39.88293457 143.36624146 C40.35945847 145.13738957 40.8359803 146.90853825 41.3125 148.6796875 C41.66313759 149.98291269 41.66313759 149.98291269 42.02085876 151.31246567 C42.25273392 152.17428577 42.48460907 153.03610588 42.72351074 153.92404175 C43.06796612 155.20429324 43.06796612 155.20429324 43.41938019 156.5104084 C43.87505113 158.20414508 44.33067414 159.89789465 44.78624725 161.59165764 C45.86878354 165.61636538 46.95185805 169.64092611 48.03637695 173.6651001 C49.00615504 177.26409864 49.97351016 180.86373935 50.93888092 184.4639225 C51.45549366 186.38812476 51.97463147 188.31164852 52.49383545 190.2351532 C52.79654358 191.36580704 53.09925171 192.49646088 53.41113281 193.66137695 C53.8064621 195.13173149 53.8064621 195.13173149 54.20977783 196.63179016 C54.765625 198.94921875 54.765625 198.94921875 54.765625 200.94921875 C55.425625 200.61921875 56.085625 200.28921875 56.765625 199.94921875 C61.41541402 199.39616014 66.08973377 199.16840115 70.765625 198.94921875 C71.50554687 198.91376953 72.24546875 198.87832031 73.0078125 198.84179688 C75.28131265 198.74674439 77.55321738 198.68641513 79.828125 198.63671875 C80.54170166 198.60698975 81.25527832 198.57726074 81.99047852 198.54663086 C85.25200052 198.50991506 87.54504425 198.83591618 90.45629883 200.33129883 C93.982607 204.32882526 93.48342924 208.09523894 93.4296875 213.26171875 C93.43447113 214.26759033 93.43925476 215.27346191 93.44418335 216.30981445 C93.44758315 218.434749 93.43837521 220.55973578 93.41748047 222.68457031 C93.390717 225.93803478 93.41722658 229.18804915 93.44921875 232.44140625 C93.44591467 234.50651804 93.43950847 236.57162767 93.4296875 238.63671875 C93.43980865 239.60971924 93.44992981 240.58271973 93.46035767 241.58520508 C93.34419038 248.2758467 93.34419038 248.2758467 90.5144043 251.56933594 C87.72954548 252.96733061 86.19936243 253.42360616 83.12109375 253.33984375 C82.27998047 253.32695312 81.43886719 253.3140625 80.57226562 253.30078125 C79.27579102 253.25050781 79.27579102 253.25050781 77.953125 253.19921875 C77.06947266 253.18117188 76.18582031 253.163125 75.27539062 253.14453125 C73.10499957 253.09760388 70.93516981 253.02586606 68.765625 252.94921875 C69.24902344 254.09390625 69.24902344 254.09390625 69.7421875 255.26171875 C70.95931155 258.45783077 71.19019619 260.55264927 70.765625 263.94921875 C69.16608542 267.00588769 67.60458384 268.59980893 64.40499878 269.93237305 C61.2932933 270.89857386 58.16878222 271.73707748 55.01171875 272.54296875 C53.84165787 272.85697632 52.67159698 273.17098389 51.46607971 273.49450684 C47.7160815 274.4965865 43.95997905 275.47319342 40.203125 276.44921875 C37.73197868 277.10510331 35.26126994 277.76263886 32.79101562 278.421875 C27.99798127 279.69806643 23.20171287 280.9606599 18.40185547 282.2109375 C14.24812186 283.29372258 10.10129223 284.3966206 5.96142578 285.53125 C5.09034683 285.76791382 4.21926788 286.00457764 3.3217926 286.24841309 C1.74653629 286.67742139 0.17275404 287.11190227 -1.39906311 287.55334473 C-5.43460048 288.64432473 -9.05308381 289.30622923 -13.234375 288.94921875 C-17.21040325 286.10919857 -18.40730919 282.35991002 -20.234375 277.94921875 C-33.62209789 284.7944852 -33.62209789 284.7944852 -46.234375 292.94921875 C-44.996875 294.46515625 -44.996875 294.46515625 -43.734375 296.01171875 C-41.88196937 298.66257508 -41.19335993 300.13720447 -40.484375 303.38671875 C-43.01269778 315.39625196 -60.63978941 327.69831146 -69.31298828 336.43286133 C-71.60218748 338.73996981 -73.882534 341.05532863 -76.15576172 343.37817383 C-78.91918508 346.20179597 -81.69706006 349.01040262 -84.48588562 351.80893135 C-85.54035291 352.87193627 -86.58969374 353.94005315 -87.63362122 355.01341057 C-89.09286262 356.5116094 -90.56998116 357.98971648 -92.05273438 359.46459961 C-92.8865564 360.3087291 -93.72037842 361.15285858 -94.57946777 362.02256775 C-97.87318306 364.41279811 -100.19395666 364.82663643 -104.234375 364.94921875 C-107.484375 363.07421875 -107.484375 363.07421875 -110.234375 360.94921875 C-111.224375 360.61921875 -112.214375 360.28921875 -113.234375 359.94921875 C-118.65918824 368.77358163 -123.78678839 377.58312459 -128.234375 386.94921875 C-127.161875 387.03171875 -126.089375 387.11421875 -124.984375 387.19921875 C-121.234375 387.94921875 -121.234375 387.94921875 -118.796875 389.44921875 C-115.87462378 394.1248207 -116.88397387 399.24773965 -117.95056152 404.42687988 C-118.96218398 408.62986516 -120.10461592 412.79673525 -121.25 416.96484375 C-121.66703838 418.5092481 -122.08342959 420.05382735 -122.49920654 421.59857178 C-123.36948173 424.82136854 -124.24796385 428.04178307 -125.13232422 431.26074219 C-126.26258779 435.37761383 -127.37134689 439.49992344 -128.47397232 443.62427139 C-129.3281847 446.80948097 -130.19405301 449.99143218 -131.0634079 453.17253876 C-131.47690695 454.69133053 -131.88673066 456.21112808 -132.29273224 457.73194122 C-132.86201507 459.85762451 -133.44697807 461.97838428 -134.03613281 464.09863281 C-134.36478333 465.30392639 -134.69343384 466.50921997 -135.03204346 467.7510376 C-136.30712123 471.14272246 -137.7436947 473.33288524 -140.234375 475.94921875 C-142.48828125 476.47265625 -142.48828125 476.47265625 -144.796875 476.32421875 C-145.94349609 476.27394531 -145.94349609 476.27394531 -147.11328125 476.22265625 C-149.234375 475.94921875 -149.234375 475.94921875 -152.234375 474.94921875 C-152.23848389 475.53413086 -152.24259277 476.11904297 -152.24682617 476.72167969 C-152.27980161 479.38187441 -152.35044407 482.0397903 -152.421875 484.69921875 C-152.43057617 486.07980469 -152.43057617 486.07980469 -152.43945312 487.48828125 C-152.48295898 488.82246094 -152.48295898 488.82246094 -152.52734375 490.18359375 C-152.5430542 491.00053711 -152.55876465 491.81748047 -152.57495117 492.65917969 C-153.59322675 496.19543476 -155.0486157 497.1444545 -158.234375 498.94921875 C-161.47884846 499.52100389 -164.66513614 499.51007965 -167.953125 499.48046875 C-168.88862183 499.48429565 -169.82411865 499.48812256 -170.78796387 499.49206543 C-172.76148559 499.49478163 -174.73504348 499.48744094 -176.70849609 499.47070312 C-179.72445145 499.44928921 -182.73802474 499.47051459 -185.75390625 499.49609375 C-187.67448441 499.49345042 -189.59506109 499.48832534 -191.515625 499.48046875 C-192.41470581 499.48856567 -193.31378662 499.4966626 -194.2401123 499.50500488 C-198.26515963 499.44490089 -200.7150159 499.22914646 -204.30908203 497.29199219 C-206.76113079 494.30824125 -206.82951119 492.76568454 -206.7578125 488.93359375 C-206.74041016 487.17982422 -206.74041016 487.17982422 -206.72265625 485.390625 C-206.68527344 484.17246094 -206.64789063 482.95429688 -206.609375 481.69921875 C-206.59519531 480.49652344 -206.58101562 479.29382813 -206.56640625 478.0546875 C-206.46586459 471.94845729 -206.15064739 465.98760402 -205.234375 459.94921875 C-205.81118011 459.86180923 -206.38798523 459.77439972 -206.98226929 459.68434143 C-216.47486969 458.10975941 -225.68237357 455.54440281 -234.9609375 453.0390625 C-236.79420347 452.54745082 -238.62756952 452.05621217 -240.46102905 451.56532288 C-245.28591801 450.27234985 -250.1093412 448.9739884 -254.93249512 447.67456055 C-258.77374498 446.64059355 -262.61598857 445.61035136 -266.45830154 444.58034325 C-289.40015244 438.43031856 -312.32598385 432.22272447 -335.234375 425.94921875 C-337.1371855 437.26378013 -338.56090095 448.49715338 -339.359375 459.94921875 C-339.48421265 461.73066284 -339.48421265 461.73066284 -339.61157227 463.5480957 C-339.97530412 469.03491745 -340.27351523 474.51021529 -340.40234375 480.0078125 C-340.4286084 480.92369141 -340.45487305 481.83957031 -340.48193359 482.78320312 C-340.52382117 484.46248566 -340.54520836 486.14246484 -340.54150391 487.82226562 C-340.63315651 491.4915576 -341.01481226 493.64208057 -343.16674805 496.65234375 C-347.4442062 499.85507565 -350.74076757 499.65498853 -355.953125 499.578125 C-357.35637024 499.58174294 -357.35637024 499.58174294 -358.78796387 499.58543396 C-360.76151783 499.58445653 -362.73509955 499.57108765 -364.70849609 499.54614258 C-367.72458287 499.51183015 -370.73773912 499.52548971 -373.75390625 499.54492188 C-375.6744916 499.53802316 -377.59506941 499.52835055 -379.515625 499.515625 C-380.41470581 499.52058487 -381.31378662 499.52554474 -382.2401123 499.53065491 C-386.22110089 499.45599119 -388.72888683 499.21273501 -392.3046875 497.34863281 C-394.9119268 494.10673658 -394.85162805 492.12952582 -394.828125 487.9921875 C-394.82938889 487.3049762 -394.83065277 486.61776489 -394.83195496 485.909729 C-394.82672989 483.65092371 -394.78239685 481.39499158 -394.734375 479.13671875 C-394.71679029 477.5619349 -394.69962412 475.98714633 -394.68286133 474.41235352 C-394.36183268 453.1209708 -392.27915155 431.86157412 -388.234375 410.94921875 C-389.32105469 410.78486328 -389.32105469 410.78486328 -390.4296875 410.6171875 C-395.81518411 409.73396606 -400.5415257 408.91312357 -405.234375 405.94921875 C-407.45688736 401.50419402 -406.63725446 395.69252712 -405.24047852 391.05249023 C-404.79040907 389.72202042 -404.3308682 388.39472742 -403.86328125 387.0703125 C-396.12203686 363.18848407 -394.05678155 341.14312549 -394.29516602 316.04858398 C-394.30427505 314.86806961 -394.31338409 313.68755524 -394.32276917 312.4712677 C-394.34664229 310.24053888 -394.38691119 308.00990726 -394.44590759 305.77983093 C-394.46117996 304.78981583 -394.47645233 303.79980072 -394.4921875 302.77978516 C-394.5142627 301.9152774 -394.53633789 301.05076965 -394.55908203 300.1600647 C-394.15641422 297.41840403 -393.42260404 296.59962002 -391.234375 294.94921875 C-390.244375 294.61921875 -389.254375 294.28921875 -388.234375 293.94921875 C-387.904375 289.32921875 -387.574375 284.70921875 -387.234375 279.94921875 C-388.884375 279.61921875 -390.534375 279.28921875 -392.234375 278.94921875 C-394.30161214 275.84836304 -394.47934923 275.21990194 -394.4296875 271.71875 C-394.42324219 270.91630859 -394.41679687 270.11386719 -394.41015625 269.28710938 C-394.39339844 268.45373047 -394.37664062 267.62035156 -394.359375 266.76171875 C-394.35035156 265.91673828 -394.34132813 265.07175781 -394.33203125 264.20117188 C-394.30848203 262.11706632 -394.27261147 260.03310658 -394.234375 257.94921875 C-394.81405029 257.97016602 -395.39372559 257.99111328 -395.9909668 258.01269531 C-398.63442424 258.09618682 -401.2776038 258.14798028 -403.921875 258.19921875 C-404.83388672 258.23273438 -405.74589844 258.26625 -406.68554688 258.30078125 C-407.57177734 258.31367188 -408.45800781 258.3265625 -409.37109375 258.33984375 C-410.18280029 258.36079102 -410.99450684 258.38173828 -411.83081055 258.40332031 C-415.30184554 257.74754326 -416.78454613 256.49211655 -419.234375 253.94921875 C-419.72847261 251.04741433 -419.89978995 248.73128685 -419.84960938 245.83178711 C-419.85515839 245.01672195 -419.8607074 244.2016568 -419.86642456 243.3618927 C-419.87822638 240.67034947 -419.85394357 237.9804877 -419.828125 235.2890625 C-419.82641413 233.41866635 -419.82647934 231.5482678 -419.82824707 229.6778717 C-419.82659359 225.7595422 -419.8078889 221.84178468 -419.77636719 217.92358398 C-419.73666198 212.89721029 -419.73232486 207.87158496 -419.73983002 202.84508419 C-419.74289692 198.98378117 -419.73078966 195.12264692 -419.71369934 191.26138496 C-419.70666104 189.40780254 -419.70354581 187.55420099 -419.70439148 185.70060539 C-419.70259704 183.11246926 -419.68124716 180.52523617 -419.65429688 177.93725586 C-419.65722748 177.16886383 -419.66015808 176.4004718 -419.66317749 175.60879517 C-419.59181095 171.17498237 -419.52269073 170.23753448 -416.234375 166.94921875 C-408.974375 166.94921875 -401.714375 166.94921875 -394.234375 166.94921875 C-394.234375 147.14921875 -394.234375 127.34921875 -394.234375 106.94921875 C-400.834375 106.94921875 -407.434375 106.94921875 -414.234375 106.94921875 C-419.234375 102.94921875 -419.234375 102.94921875 -419.85583496 99.29942322 C-419.87941029 97.81039635 -419.87537878 96.32077762 -419.84960938 94.83178711 C-419.85515839 94.01672195 -419.8607074 93.2016568 -419.86642456 92.3618927 C-419.87822638 89.67034947 -419.85394357 86.9804877 -419.828125 84.2890625 C-419.82641413 82.41866635 -419.82647934 80.5482678 -419.82824707 78.6778717 C-419.82659359 74.7595422 -419.8078889 70.84178468 -419.77636719 66.92358398 C-419.73666198 61.89721029 -419.73232486 56.87158496 -419.73983002 51.84508419 C-419.74289692 47.98378117 -419.73078966 44.12264692 -419.71369934 40.26138496 C-419.70666104 38.40780254 -419.70354581 36.55420099 -419.70439148 34.70060539 C-419.70259704 32.11246926 -419.68124716 29.52523617 -419.65429688 26.93725586 C-419.65722748 26.16886383 -419.66015808 25.4004718 -419.66317749 24.60879517 C-419.58053652 19.47453252 -419.58053652 19.47453252 -417.95812988 17.01246643 C-414.62669043 14.95756564 -411.27531626 14.82351536 -407.4329319 14.81779099 C-406.46376732 14.81394984 -405.49460275 14.8101087 -404.49606955 14.80615115 C-403.43402096 14.80701763 -402.37197236 14.80788412 -401.27774048 14.80877686 C-399.58224802 14.80432017 -399.58224802 14.80432017 -397.85250318 14.79977345 C-394.05091266 14.79107611 -390.2493536 14.78957733 -386.44775391 14.78808594 C-383.72786778 14.78399671 -381.00798497 14.77845469 -378.2881012 14.77304077 C-370.88941247 14.75946291 -363.49072916 14.75343381 -356.09203005 14.74903011 C-351.47271262 14.74626722 -346.85339728 14.74202982 -342.23408127 14.73752594 C-329.44531447 14.72533485 -316.65654935 14.71503466 -303.86777687 14.71165085 C-303.04939841 14.71143128 -302.23101995 14.71121172 -301.38784214 14.7109855 C-300.15733899 14.71065808 -300.15733899 14.71065808 -298.90197718 14.71032405 C-297.23966447 14.70988058 -295.57735177 14.70943402 -293.91503906 14.70898438 C-293.09047464 14.70876295 -292.26591022 14.70854152 -291.41635899 14.70831338 C-278.05109806 14.70436411 -264.68589161 14.68690547 -251.32065172 14.66362485 C-237.59988338 14.63991773 -223.87914238 14.62744932 -210.15835321 14.62628293 C-202.45412692 14.6253659 -194.74997166 14.61960644 -187.04576492 14.60146332 C-180.48658327 14.58607107 -173.92749459 14.58093673 -167.36829831 14.58920142 C-164.02167441 14.59311088 -160.67539021 14.59053556 -157.32876396 14.57814407 C-153.70067249 14.56549627 -150.07306446 14.57126275 -146.44497681 14.58172607 C-145.38738966 14.57366967 -144.32980251 14.56561327 -143.24016726 14.55731273 C-137.84372307 14.5938095 -133.85529697 14.81485245 -129.234375 17.94921875 C-127.54411363 21.32974149 -127.98992541 25.17182017 -127.91796875 28.89453125 C-127.89718765 29.77954315 -127.87640656 30.66455505 -127.85499573 31.5763855 C-127.78950902 34.40891616 -127.73061938 37.241541 -127.671875 40.07421875 C-127.62868894 41.99219732 -127.58507463 43.91016629 -127.54101562 45.828125 C-127.43382853 50.53505926 -127.3325586 55.24208842 -127.234375 59.94921875 C-126.35073776 59.51592758 -126.35073776 59.51592758 -125.44924927 59.07388306 C-115.46040605 54.18305192 -105.43350381 49.46913701 -95.109375 45.32421875 C-93.8404541 44.81084961 -93.8404541 44.81084961 -92.54589844 44.28710938 C-86.61854372 41.94921875 -86.61854372 41.94921875 -83.234375 41.94921875 C-83.57662109 40.66337891 -83.57662109 40.66337891 -83.92578125 39.3515625 C-86.91368352 27.46694674 -86.91368352 27.46694674 -85.234375 21.94921875 C-83.16788015 19.43059169 -81.4529881 18.46593864 -78.33081055 17.6340332 C-77.54593765 17.41957047 -76.76106476 17.20510773 -75.95240784 16.98414612 C-75.10057419 16.7625029 -74.24874054 16.54085968 -73.37109375 16.3125 C-72.47901718 16.07172226 -71.58694061 15.83094452 -70.66783142 15.58287048 C-67.75506216 14.79925123 -64.83867382 14.03019027 -61.921875 13.26171875 C-59.92149472 12.72770217 -57.92133262 12.19286764 -55.92138672 11.65722656 C-51.91521413 10.58564416 -47.90761064 9.51966271 -43.89892578 8.45751953 C-38.87736599 7.12451828 -33.86494445 5.76041569 -28.85546875 4.3828125 C-27.47379816 4.00514515 -26.09204669 3.62777356 -24.71020508 3.25073242 C-22.20489332 2.56662808 -19.7007525 1.87821612 -17.19799805 1.18481445 C-16.08851807 0.88534912 -14.97903809 0.58588379 -13.8359375 0.27734375 C-12.89057129 0.01856445 -11.94520508 -0.24021484 -10.97119141 -0.50683594 C-7.09657566 -1.27692014 -3.63064799 -1.70742012 0 0 Z M-73.2421875 94.69921875 C-74.47582031 95.240625 -74.47582031 95.240625 -75.734375 95.79296875 C-77.46476752 96.55516546 -79.19146231 97.32582096 -80.9140625 98.10546875 C-85.85111355 100.25201269 -89.74182486 101.62006457 -95.234375 100.94921875 C-96.224375 100.28921875 -97.214375 99.62921875 -98.234375 98.94921875 C-103.08699656 99.16979246 -107.6748407 100.57174772 -111.234375 103.94921875 C-111.66605029 105.97349583 -111.66605029 105.97349583 -111.77734375 108.20703125 C-112.38423435 111.32227775 -112.85081522 112.61472001 -115.26904297 114.72363281 C-118.05454117 116.40027939 -120.88572138 117.87686423 -123.796875 119.32421875 C-125.88311823 120.46819263 -127.96905279 121.61272957 -130.0546875 122.7578125 C-133.82589441 124.75918323 -137.59180029 126.54968146 -141.5390625 128.171875 C-148.4435565 131.29011411 -148.4435565 131.29011411 -153.234375 136.94921875 C-155.26385781 146.77292888 -154.26945836 157.05269772 -153.234375 166.94921875 C-152.61393311 166.96380127 -151.99349121 166.97838379 -151.35424805 166.9934082 C-148.54282867 167.06788463 -145.73259751 167.16454439 -142.921875 167.26171875 C-141.94541016 167.28427734 -140.96894531 167.30683594 -139.96289062 167.33007812 C-139.02509766 167.36552734 -138.08730469 167.40097656 -137.12109375 167.4375 C-136.25701904 167.46368408 -135.39294434 167.48986816 -134.50268555 167.5168457 C-132.234375 167.94921875 -132.234375 167.94921875 -130.37084961 168.97875977 C-128.50712119 172.21015656 -129.59935963 175.46431042 -130.1640625 178.98828125 C-131.77643289 192.97366774 -132.92636125 207.05342612 -124.24072266 218.96533203 C-119.2247769 225.1162627 -113.69520574 230.70124474 -107.921875 236.13671875 C-107.19965885 236.82154705 -107.19965885 236.82154705 -106.46285248 237.52021027 C-101.57635196 242.13832612 -96.58333713 246.63926926 -91.4362793 250.96557617 C-90.71981735 251.56947678 -90.00335541 252.17337738 -89.2651825 252.795578 C-87.31923587 254.15788591 -87.31923587 254.15788591 -85.15510559 253.75215149 C-82.09689661 252.4737129 -79.49528502 250.53230202 -76.796875 248.63671875 C-70.58111623 244.38662062 -64.20946112 240.49671915 -57.671875 236.76171875 C-56.84695557 236.28758545 -56.02203613 235.81345215 -55.17211914 235.32495117 C-47.99479563 231.25871086 -40.63283879 227.59115795 -33.234375 223.94921875 C-41.73382321 191.38827999 -50.37913625 158.86960791 -59.171875 126.38671875 C-59.39819107 125.55063332 -59.62450714 124.71454788 -59.85768127 123.85312653 C-62.64665209 113.5509393 -65.43889318 103.2496411 -68.234375 92.94921875 C-70.03482605 92.94921875 -71.62328187 93.97209206 -73.2421875 94.69921875 Z M-341.234375 106.94921875 C-341.234375 126.74921875 -341.234375 146.54921875 -341.234375 166.94921875 C-333.78875 167.11421875 -326.343125 167.27921875 -318.671875 167.44921875 C-316.33407959 167.52205078 -313.99628418 167.59488281 -311.58764648 167.66992188 C-309.71862452 167.69330341 -307.8495616 167.71368526 -305.98046875 167.73046875 C-305.02305786 167.77139648 -304.06564697 167.81232422 -303.07922363 167.85449219 C-297.87002073 167.87351029 -297.87002073 167.87351029 -293.39228821 165.50143433 C-292.24124074 164.16864476 -291.14114319 162.79085701 -290.08372498 161.38262939 C-287.97530126 158.60832448 -285.65101275 156.22356762 -283.1887207 153.75830078 C-282.26118484 152.82438507 -281.33364899 151.89046936 -280.37800598 150.92825317 C-279.38892475 149.93764413 -278.39963664 148.9472416 -277.41015625 147.95703125 C-276.37592107 146.91957533 -275.34175795 145.88204756 -274.30766296 144.8444519 C-272.1553564 142.68620113 -270.00103778 140.52998234 -267.84545898 138.375 C-265.08654414 135.61618746 -262.33461534 132.8505156 -259.58433247 130.08310127 C-257.45762863 127.94528389 -255.32640038 125.81202186 -253.19386864 123.68001938 C-252.17679249 122.66176565 -251.16133175 121.64189564 -250.14754677 120.62036514 C-248.73374051 119.1967561 -247.31294098 117.7801025 -245.8918457 116.36376953 C-245.08689163 115.55739044 -244.28193756 114.75101135 -243.45259094 113.92019653 C-240.28308472 111.10395749 -238.29015009 110.01132317 -234.046875 109.76171875 C-228.33389945 111.54117015 -225.1445101 115.5602916 -221.234375 119.94921875 C-217.21363609 118.55101585 -214.24747863 116.6574212 -210.921875 114.01171875 C-210.03886719 113.32207031 -209.15585938 112.63242188 -208.24609375 111.921875 C-207.58222656 111.27089844 -206.91835937 110.61992188 -206.234375 109.94921875 C-206.234375 108.95921875 -206.234375 107.96921875 -206.234375 106.94921875 C-250.784375 106.94921875 -295.334375 106.94921875 -341.234375 106.94921875 Z M-341.234375 257.94921875 C-341.234375 261.57921875 -341.234375 265.20921875 -341.234375 268.94921875 C-338.13844665 265.44049995 -336.49242877 262.45724476 -335.234375 257.94921875 C-337.214375 257.94921875 -339.194375 257.94921875 -341.234375 257.94921875 Z M-279.31640625 266.49609375 C-280.41775514 268.83009337 -281.38805776 271.16307297 -282.28857422 273.58139038 C-283.86013896 277.51582949 -286.07121146 281.06733285 -288.234375 284.69921875 C-295.88999701 298.50094153 -303.05648786 312.56433183 -308.984375 327.19921875 C-309.33193848 328.05112793 -309.67950195 328.90303711 -310.03759766 329.78076172 C-310.49851807 330.95469482 -310.49851807 330.95469482 -310.96875 332.15234375 C-311.37432129 333.18343262 -311.37432129 333.18343262 -311.78808594 334.23535156 C-312.46029223 336.04586165 -312.46029223 336.04586165 -311.234375 337.94921875 C-308.36115747 338.87715824 -305.52284022 339.68470038 -302.60302734 340.43945312 C-301.69728973 340.68037186 -300.79155212 340.92129059 -299.85836792 341.16950989 C-296.84764895 341.96831197 -293.83404234 342.75560943 -290.8203125 343.54296875 C-288.73081629 344.0951006 -286.64151398 344.64796671 -284.55239868 345.20153809 C-279.03641956 346.6611321 -273.51795645 348.11110784 -267.99890137 349.559021 C-262.4027899 351.02873839 -256.80885671 352.50669405 -251.21484375 353.984375 C-244.92184879 355.64656749 -238.62867101 357.30801185 -232.33358765 358.96228027 C-231.3716449 359.2152739 -230.40970215 359.46826752 -229.41860962 359.72892761 C-227.63242443 360.19858628 -225.8460899 360.66767757 -224.05957031 361.13606262 C-223.26046234 361.34627548 -222.46135437 361.55648834 -221.63803101 361.77307129 C-220.88737743 361.97040359 -220.13672386 362.1677359 -219.36332321 362.37104797 C-217.36231978 362.91447205 -215.38088412 363.50448183 -213.39639282 364.1048584 C-210.13574575 365.12121361 -210.13574575 365.12121361 -206.234375 364.94921875 C-206.09533977 351.88421605 -205.98873538 338.81938942 -205.92350197 325.75379753 C-205.89219261 319.68683614 -205.84972533 313.62038097 -205.78173828 307.55371094 C-205.71653416 301.69871167 -205.68066599 295.84419923 -205.66511154 289.9888649 C-205.65402728 287.7552944 -205.63238198 285.52175048 -205.59999466 283.2883873 C-205.55641884 280.15895827 -205.55044158 277.0315392 -205.55322266 273.90185547 C-205.531651 272.97900253 -205.51007935 272.0561496 -205.487854 271.10533142 C-205.53074662 266.64300649 -205.83283793 263.7672123 -208.90104675 260.38760376 C-211.90557046 257.85887084 -214.28184676 257.14184771 -218.2487793 256.98242188 C-219.99671028 256.89595398 -219.99671028 256.89595398 -221.779953 256.80773926 C-223.02690445 256.78223999 -224.2738559 256.75674072 -225.55859375 256.73046875 C-226.85577835 256.69626831 -228.15296295 256.66206787 -229.48945618 256.62683105 C-232.23228886 256.56399092 -234.97407945 256.52880127 -237.7175293 256.5078125 C-240.51625021 256.48147466 -243.30388012 256.39826357 -246.09936523 256.26171875 C-265.65204354 254.67884009 -265.65204354 254.67884009 -279.31640625 266.49609375 Z M-153.234375 317.94921875 C-152.904375 319.26921875 -152.574375 320.58921875 -152.234375 321.94921875 C-151.904375 320.95921875 -151.574375 319.96921875 -151.234375 318.94921875 C-151.894375 318.61921875 -152.554375 318.28921875 -153.234375 317.94921875 Z " fill="#010101" transform="translate(419.234375,7.05078125)"/>
<path d="M0 0 C0 7.26 0 14.52 0 22 C-1.93617188 22.10957031 -3.87234375 22.21914063 -5.8671875 22.33203125 C-19.02847761 23.10918047 -32.14909415 23.97913469 -45.25 25.5 C-46.27593262 25.61835205 -47.30186523 25.7367041 -48.35888672 25.85864258 C-54.95960506 26.6591737 -61.46825528 27.7654151 -68 29 C-69.5725855 29.27662888 -71.14549409 29.55142848 -72.71875 29.82421875 C-103.61240529 35.32251544 -133.87838554 44.52560837 -162.875 56.5 C-163.86717529 56.90903564 -164.85935059 57.31807129 -165.8815918 57.73950195 C-171.56584384 59.97792492 -171.56584384 59.97792492 -176 64 C-176 65.27875 -176 66.5575 -176 67.875 C-176.16796875 69.984375 -176.16796875 69.984375 -177 72 C-180.39578879 74.44721308 -183.91296674 76.08663189 -188 77 C-190.23046875 76.1796875 -190.23046875 76.1796875 -192 75 C-194.8009591 73.59952045 -196.89103341 73.79046038 -200 74 C-202.51032362 74.95263382 -202.51032362 74.95263382 -204.88671875 76.4296875 C-206.27443481 77.23841309 -206.27443481 77.23841309 -207.69018555 78.06347656 C-208.67929932 78.6612793 -209.66841309 79.25908203 -210.6875 79.875 C-211.72753174 80.49342773 -212.76756348 81.11185547 -213.83911133 81.74902344 C-231.14802939 92.16601105 -248.3183804 103.24369782 -264 116 C-265.23363281 116.96679688 -265.23363281 116.96679688 -266.4921875 117.953125 C-285.46743473 132.86657809 -304.3925728 149.2850554 -320.05078125 167.7109375 C-321.63305217 169.56907529 -323.23589641 171.4012055 -324.85546875 173.2265625 C-333.03394602 182.48194332 -340.67077459 192.05983728 -348 202 C-348.5038623 202.68288086 -349.00772461 203.36576172 -349.52685547 204.06933594 C-403.82594794 278.17620018 -429.88665597 365.01932487 -434 456 C-441.59 456 -449.18 456 -457 456 C-457.5723266 438.1147936 -455.55569763 420.76522487 -453.265625 403.06884766 C-453.02003379 401.15603522 -452.78307017 399.24212038 -452.546875 397.328125 C-444.02346312 328.825148 -417.34220791 260.64987055 -378 204 C-377.56220215 203.36529785 -377.1244043 202.7305957 -376.67333984 202.07666016 C-364.59253011 184.59117005 -351.46084091 168.08780856 -337.15234375 152.37109375 C-335.75647894 150.83336246 -334.37280903 149.2844377 -333.00390625 147.72265625 C-328.1685565 142.22918707 -323.10088031 136.99552651 -317.9375 131.8125 C-317.2767749 131.14718262 -316.6160498 130.48186523 -315.93530273 129.79638672 C-311.45283423 125.3278027 -306.79401918 121.12984966 -302 117 C-300.84358545 115.97821999 -299.68858892 114.95483241 -298.53515625 113.9296875 C-289.35287068 105.82689832 -279.81213788 98.32193622 -270 91 C-268.72912628 90.04172022 -267.4582916 89.08338867 -266.1875 88.125 C-244.23985317 71.68453315 -220.44055958 58.34461097 -196 46 C-195.12617676 45.55769043 -194.25235352 45.11538086 -193.35205078 44.65966797 C-164.85505783 30.3542534 -134.04795075 19.28059972 -103 12 C-102.13020508 11.7942334 -101.26041016 11.5884668 -100.36425781 11.37646484 C-67.30525202 3.64633677 -33.96901133 -0.59945314 0 0 Z " fill="#B6BEC8" transform="translate(497,34)"/>
<path d="M0 0 C0 7.26 0 14.52 0 22 C-2.14113281 22.21914062 -4.28226562 22.43828125 -6.48828125 22.6640625 C-40.13075524 26.21660475 -72.41777962 33.03120076 -103 48 C-103.76618652 48.37350586 -104.53237305 48.74701172 -105.32177734 49.13183594 C-125.48579285 59.07925127 -144.18305572 71.6747376 -160.734375 86.91796875 C-162.80892036 88.8244044 -164.92265931 90.6676561 -167.0625 92.5 C-175.23352053 99.65374488 -182.28455737 107.47786469 -189 116 C-189.79277344 116.98742187 -190.58554687 117.97484375 -191.40234375 118.9921875 C-225.94836074 162.7613907 -241.35063061 213.19379716 -246 268 C-253.26 268 -260.52 268 -268 268 C-268.89226677 229.92995119 -259.72751759 192.18537181 -243 158 C-242.35853027 156.68032227 -242.35853027 156.68032227 -241.70410156 155.33398438 C-231.93441688 135.43609447 -220.17046073 117.04827945 -206 100 C-205.30124756 99.14897705 -205.30124756 99.14897705 -204.58837891 98.28076172 C-194.65236993 86.2144079 -183.98286591 74.82194658 -171.68359375 65.12890625 C-168.86290525 62.89124215 -166.15964334 60.54370363 -163.4375 58.1875 C-119.18975825 21.39021348 -57.5514248 -1.42689483 0 0 Z " fill="#B6BEC8" transform="translate(497,222)"/>
<path d="M0 0 C3.30027875 1.44197958 5.47555514 3.22819177 8.01165771 5.77114868 C8.7996727 6.55641434 9.58768768 7.34167999 10.39958191 8.15074158 C11.25481949 9.01316971 12.11005707 9.87559784 12.99121094 10.76416016 C14.35271019 12.12522133 14.35271019 12.12522133 15.74171448 13.51377869 C18.22730138 15.99879203 20.70667578 18.48992124 23.18498135 20.98219347 C25.77723116 23.58695014 28.37515004 26.18603998 30.97247314 28.78573608 C35.88855432 33.70803215 40.79951523 38.63540403 45.7086575 43.56461942 C51.2984054 49.17672601 56.89383688 54.78315115 62.48975325 60.38910604 C73.99950528 71.91976028 85.50209796 83.45752914 97 95 C94.18116078 97.82562122 91.3618913 100.63543855 88.43359375 103.34765625 C76.58489567 114.36239795 64.9702345 125.20990119 55 138 C51.72992369 136.56523742 49.54666501 134.80343602 47.01957703 132.29373169 C45.84800804 131.1371254 45.84800804 131.1371254 44.652771 129.95715332 C43.80531311 129.11036011 42.95785522 128.26356689 42.0847168 127.39111328 C41.18519791 126.49991791 40.28567902 125.60872253 39.35890198 124.69052124 C36.89561707 122.24915147 34.43890897 119.80126721 31.98401618 117.35146189 C30.45062087 115.82171128 28.91593585 114.29326669 27.38080788 112.76525497 C22.02736833 107.43629192 16.67965746 102.1016487 11.33666992 96.76220703 C6.35192682 91.78110591 1.3541844 86.81331081 -3.64959842 81.85134327 C-7.94382823 77.59174975 -12.22844204 73.32264229 -16.50573796 69.04604518 C-19.06127595 66.49130177 -21.62067157 63.94072905 -24.1899662 61.39981461 C-27.05117358 58.56951197 -29.89218369 55.71974992 -32.73168945 52.86767578 C-34.01805801 51.60355865 -34.01805801 51.60355865 -35.33041382 50.31390381 C-36.09736069 49.5371933 -36.86430756 48.76048279 -37.65449524 47.9602356 C-38.66574447 46.95200336 -38.66574447 46.95200336 -39.69742298 45.92340279 C-41 44 -41 44 -40.78673077 41.85990715 C-39.85501419 39.65723962 -38.74243833 38.26447818 -37.125 36.5 C-36.48691406 35.80003906 -35.84882813 35.10007813 -35.19140625 34.37890625 C-34.46824219 33.59386719 -33.74507812 32.80882812 -33 32 C-32.22527344 31.12214844 -31.45054687 30.24429688 -30.65234375 29.33984375 C-21.22948155 18.7799846 -10.9615165 8.95615379 0 0 Z " fill="#C3845A" transform="translate(224,176)"/>
<path d="M0 0 C6.85544744 0.769489 13.44594662 2.49882348 20.125 4.1875 C21.36894531 4.49993652 22.61289063 4.81237305 23.89453125 5.13427734 C32.15900436 7.22906222 40.36481984 9.47722018 48.54736328 11.86987305 C54.33428978 13.55337321 60.14548018 15.07038136 66 16.5 C73.52512123 18.3405663 80.96885899 20.38343501 88.40625 22.54980469 C93.86076172 24.12863644 99.33118966 25.63609392 104.8203125 27.08984375 C105.49585175 27.26880692 106.17139099 27.44777008 106.86740112 27.63215637 C110.23039206 28.52150333 113.59471736 29.40551049 116.96044922 30.28442383 C118.80533936 30.77011841 118.80533936 30.77011841 120.6875 31.265625 C121.78449219 31.55211914 122.88148438 31.83861328 124.01171875 32.13378906 C126.76570993 32.93208651 129.3616083 33.88272188 132 35 C131.6596875 35.98871094 131.319375 36.97742188 130.96875 37.99609375 C127.30322105 48.96955423 124.39539077 60.07244545 121.6875 71.3125 C121.51105957 72.04250214 121.33461914 72.77250427 121.15283203 73.52462769 C118.80953033 83.20674433 118.80953033 83.20674433 117 93 C102.38068451 89.81335169 87.8296083 86.25374137 73.51367188 81.89526367 C67.39222998 80.05722327 61.20645449 78.52262956 55 77 C48.11697231 75.31138673 41.28028047 73.56439637 34.5 71.5 C25.66148182 68.81233345 16.70502877 66.63561067 7.73828125 64.421875 C2.83697915 63.21175706 -2.05587348 61.97471611 -6.9375 60.6875 C-8.10152344 60.38199219 -9.26554687 60.07648438 -10.46484375 59.76171875 C-13 59 -13 59 -14 58 C-14.25174509 53.04410752 -13.6655003 48.78301856 -12.4609375 43.984375 C-12.29941193 43.33450623 -12.13788635 42.68463745 -11.97146606 42.01507568 C-11.44835503 39.92431367 -10.91241539 37.83712683 -10.375 35.75 C-10.0110188 34.31316343 -9.64708674 32.87631441 -9.28320312 31.43945312 C-6.57382098 20.83258693 -3.52666305 10.36625199 0 0 Z " fill="#C4855B" transform="translate(100,359)"/>
<path d="M0 0 C0.21092285 0.82910889 0.4218457 1.65821777 0.63916016 2.51245117 C4.23586741 16.62313581 7.83912672 30.71803883 11.92041016 44.69799805 C13.82168591 51.25396491 15.48750082 57.85254566 17.10620117 64.4831543 C18.59699305 70.53247756 20.25947372 76.51811508 22 82.5 C24.25340939 90.24959999 26.31448666 98.02649036 28.23510742 105.86499023 C29.81640393 112.31758542 31.52670536 118.72680631 33.30078125 125.12890625 C34 128 34 128 34 131 C33.22213135 131.17015625 32.4442627 131.3403125 31.64282227 131.515625 C16.40022836 134.88074225 1.44363363 138.51490621 -13.36694336 143.50976562 C-14.33253174 143.83525391 -15.29812012 144.16074219 -16.29296875 144.49609375 C-17.1336792 144.78669678 -17.97438965 145.0772998 -18.84057617 145.37670898 C-21 146 -21 146 -24 146 C-26.71033965 137.8370947 -28.88947675 129.59912994 -30.9375 121.25 C-32.64692569 114.28384949 -34.40880596 107.36175689 -36.5 100.5 C-38.87851119 92.68996326 -40.82464839 84.79090023 -42.76953125 76.86328125 C-44.21156058 71.02860873 -45.74954379 65.24937979 -47.5 59.5 C-50.46331525 49.75187237 -52.84661599 39.8596411 -55.27050781 29.96630859 C-56.49831735 24.97370958 -57.74954632 19.98696765 -59 15 C-45.54922133 10.43049395 -32.05545084 6.33644086 -18.25 3 C-17.00774658 2.69763428 -15.76549316 2.39526855 -14.4855957 2.08374023 C-4.89549257 -0.17973355 -4.89549257 -0.17973355 0 0 Z " fill="#C4855B" transform="translate(424,79)"/>
<path d="M0 0 C44.55 0 89.1 0 135 0 C135 19.8 135 39.6 135 60 C90.45 60 45.9 60 0 60 C0 40.2 0 20.4 0 0 Z " fill="#B16E3D" transform="translate(78,38)"/>
<path d="M0 0 C7.59 0 15.18 0 23 0 C23.15849739 34.61655823 23.28370318 69.23298859 23.35745731 103.84983146 C23.36621145 107.94375218 23.37527179 112.03767217 23.38452148 116.1315918 C23.38635766 116.94656097 23.38819383 117.76153014 23.39008565 118.60119534 C23.42048147 131.76860604 23.47563812 144.93580114 23.54006957 158.10308426 C23.60570758 171.63053134 23.64444877 185.1578661 23.65861946 198.68546587 C23.66818784 207.02176666 23.69832253 215.35745788 23.75541527 223.69357086 C23.79263665 229.42278026 23.80355163 235.15167807 23.79450964 240.88099938 C23.79005948 244.17868559 23.80042665 247.47510077 23.83443832 250.77264404 C24.11437252 279.32996879 24.11437252 279.32996879 16 291 C12.00792594 292.50707319 9.21019629 291.77415551 5.1875 290.5625 C4.21167969 290.27503906 3.23585938 289.98757813 2.23046875 289.69140625 C1.12638672 289.34916016 1.12638672 289.34916016 0 289 C-0.0093457 288.37955811 -0.01869141 287.75911621 -0.02832031 287.11987305 C-0.08200995 284.30827323 -0.16565646 281.4983402 -0.25 278.6875 C-0.26417969 277.71103516 -0.27835938 276.73457031 -0.29296875 275.72851562 C-0.32519531 274.79072266 -0.35742188 273.85292969 -0.390625 272.88671875 C-0.41157227 272.02264404 -0.43251953 271.15856934 -0.45410156 270.26831055 C-0.81606922 267.85467033 -0.81606922 267.85467033 -2.85058594 266.25708008 C-5.06124355 264.86515865 -5.06124355 264.86515865 -8 264 C-8 259.05 -8 254.1 -8 249 C-6.02 248.01 -4.04 247.02 -2 246 C-0.86195579 243.72391157 -0.87041052 242.47150065 -0.8613348 239.94326591 C-0.85586036 239.0893353 -0.85038591 238.23540468 -0.84474558 237.35559738 C-0.84376747 236.41203168 -0.84278936 235.46846597 -0.84178162 234.49630737 C-0.83684364 233.49821175 -0.83190566 232.50011612 -0.82681805 231.47177517 C-0.81138208 228.10602244 -0.80306597 224.74028887 -0.79467773 221.37451172 C-0.785104 218.97030466 -0.77509422 216.56609931 -0.76467896 214.16189575 C-0.74319425 208.97484935 -0.7247606 203.7878015 -0.70907402 198.60073471 C-0.68638847 191.10105132 -0.65824383 183.60139628 -0.62875474 176.10173692 C-0.58106269 163.93486186 -0.53780289 151.76797522 -0.49731445 139.60107422 C-0.45796773 127.7801015 -0.41654349 115.95913909 -0.37231445 104.13818359 C-0.36959018 103.40988212 -0.36686591 102.68158065 -0.36405908 101.93120943 C-0.35037974 98.27763718 -0.33665944 94.62406509 -0.32291877 90.97049308 C-0.20892866 60.64701656 -0.10239734 30.32351802 0 0 Z " fill="#B6BDC7" transform="translate(40,38)"/>
<path d="M0 0 C8.848125 -0.0825 17.69625 -0.165 26.8125 -0.25 C31.00030151 -0.30462402 31.00030151 -0.30462402 35.27270508 -0.36035156 C37.47997263 -0.37203148 39.68724878 -0.38222494 41.89453125 -0.390625 C43.04514038 -0.41108887 44.19574951 -0.43155273 45.38122559 -0.45263672 C46.47721069 -0.45312012 47.5731958 -0.45360352 48.70239258 -0.45410156 C50.13135612 -0.46742523 50.13135612 -0.46742523 51.58918762 -0.48101807 C54 0 54 0 55.83110046 2.02838135 C56.40970573 3.00433258 56.40970573 3.00433258 57 4 C55.80117187 5.43666016 55.80117187 5.43666016 54.578125 6.90234375 C44.96793576 18.5157006 36.25508502 30.60747597 27.86376953 43.12255859 C27.00850848 44.39758755 26.14765435 45.66888581 25.28076172 46.93603516 C23.08494041 50.18415002 21.44216715 53.33388539 19.9375 56.9375 C18.968125 57.948125 17.99875 58.95875 17 60 C11.39 60 5.78 60 0 60 C0 40.2 0 20.4 0 0 Z " fill="#B06D3C" transform="translate(78,189)"/>
<path d="M0 0 C0.45746455 0.39517917 0.9149291 0.79035833 1.38625622 1.19751263 C4.58660541 3.95313248 7.80798585 6.65511238 11.12426758 9.27075195 C18.28514404 15.29660071 23.68062137 20.59248324 24.80059814 30.19841003 C25.05720158 35.21764176 24.92878131 40.17042551 24.6875 45.1875 C24.64115727 47.29271133 24.59542363 49.39793616 24.55029297 51.50317383 C24.06668169 65.40008929 22.20564359 77.21795957 13.23681641 88.36401367 C11.88679171 90.14974512 10.94606328 91.97575556 10 94 C8.51988629 93.69201674 7.04092675 93.378482 5.5625 93.0625 C4.32693359 92.80146484 4.32693359 92.80146484 3.06640625 92.53515625 C1 92 1 92 0 91 C-0.09520906 88.16959328 -0.12553631 85.36365007 -0.11352539 82.53295898 C-0.11367142 81.64523804 -0.11381744 80.75751709 -0.1139679 79.84289551 C-0.11326843 76.89393716 -0.10547448 73.94504113 -0.09765625 70.99609375 C-0.09579219 68.95728083 -0.09436823 66.91846746 -0.09336853 64.87965393 C-0.08954241 59.50215426 -0.07971132 54.12468142 -0.06866455 48.74719238 C-0.05845245 43.26440799 -0.05387134 37.78161928 -0.04882812 32.29882812 C-0.03808914 21.53254027 -0.02101159 10.76627236 0 0 Z " fill="#B5BDC7" transform="translate(228,286)"/>
<path d="M0 0 C7.59 0 15.18 0 23 0 C26.39043854 48.51066857 26.39043854 48.51066857 20.85693359 56.98242188 C15.40499406 62.74850117 8.65736543 66.07623702 1 68 C0.67 68 0.34 68 0 68 C0 45.56 0 23.12 0 0 Z " fill="#B5BDC7" transform="translate(228,38)"/>
<path d="M0 0 C3.3 0 6.6 0 10 0 C10 19.8 10 39.6 10 60 C6.7 60 3.4 60 0 60 C0 40.2 0 20.4 0 0 Z " fill="#B16E3D" transform="translate(15,189)"/>
<path d="M0 0 C3.3 0 6.6 0 10 0 C10 19.8 10 39.6 10 60 C6.7 60 3.4 60 0 60 C0 40.2 0 20.4 0 0 Z " fill="#B16E3D" transform="translate(15,38)"/>
<path d="M0 0 C3.3 0 6.6 0 10 0 C10 12.87 10 25.74 10 39 C5.05 41.475 5.05 41.475 0 44 C0 29.48 0 14.96 0 0 Z " fill="#AC6B3B" transform="translate(266,38)"/>
<path d="M0 0 C4.72899388 3.86917681 9.11269322 8.00302036 13.4375 12.3125 C13.98180664 12.85229492 14.52611328 13.39208984 15.08691406 13.94824219 C19 17.87627307 19 17.87627307 19 19 C8.11 19 -2.78 19 -14 19 C-7.25 8.875 -7.25 8.875 -3.625 4.4375 C-2.93664062 3.59058594 -2.24828125 2.74367187 -1.5390625 1.87109375 C-1.03117188 1.25363281 -0.52328125 0.63617188 0 0 Z " fill="#AF6C3C" transform="translate(172,230)"/>
<path d="M0 0 C1.32 0.66 2.64 1.32 4 2 C2.67963073 4.96013759 1.30040192 6.90381325 -1.09765625 9.07421875 C-2.0405249 9.93950195 -2.0405249 9.93950195 -3.00244141 10.82226562 C-3.68226074 11.43779297 -4.36208008 12.05332031 -5.0625 12.6875 C-11.2017448 18.34410419 -17.2200289 24.09893043 -23.125 30 C-23.82246338 30.69311279 -24.51992676 31.38622559 -25.23852539 32.1003418 C-29.37059284 36.24340012 -33.24692453 40.51033962 -37 45 C-38.32 44.67 -39.64 44.34 -41 44 C-40.43045162 40.23318786 -38.88765569 38.52194106 -36.21459961 35.87402344 C-35.01346779 34.67323151 -35.01346779 34.67323151 -33.78807068 33.44818115 C-32.91828079 32.59387512 -32.04849091 31.73956909 -31.15234375 30.859375 C-30.2659169 29.97719299 -29.37949005 29.09501099 -28.46620178 28.18609619 C-26.11236944 25.84621423 -23.75226246 23.51304602 -21.38885498 21.18286133 C-18.97711583 18.80185337 -16.57388521 16.41229147 -14.16992188 14.0234375 C-9.45441941 9.3410322 -4.73045844 4.66729272 0 0 Z " fill="#B17852" transform="translate(183,135)"/>
<path d="M0 0 C0 1.32 0 2.64 0 4 C-6.96580737 5.90621803 -13.92258671 7.77955288 -20.97045898 9.35742188 C-29.93249115 11.36695248 -38.66567385 13.94341915 -47.421875 16.71411133 C-48.83339844 17.15726685 -48.83339844 17.15726685 -50.2734375 17.609375 C-51.53293213 18.0110791 -51.53293213 18.0110791 -52.81787109 18.42089844 C-55 19 -55 19 -58 19 C-58 17.35 -58 15.7 -58 14 C-56.79988281 13.70867188 -55.59976562 13.41734375 -54.36328125 13.1171875 C-45.17239666 10.86441923 -36.03079052 8.49610399 -26.9375 5.875 C-26.05416992 5.62073242 -25.17083984 5.36646484 -24.26074219 5.10449219 C-20.65290408 4.06295588 -17.04752009 3.01399493 -13.4453125 1.953125 C-8.83776817 0.62954858 -4.85339212 -0.39351828 0 0 Z " fill="#B57A54" transform="translate(409,24)"/>
<path d="M0 0 C2.475 0.495 2.475 0.495 5 1 C4.58488159 2.40971069 4.58488159 2.40971069 4.16137695 3.84790039 C-1.20472228 22.11859925 -6.34740403 40.2948638 -10 59 C-11.65 58.67 -13.3 58.34 -15 58 C-13.4764355 49.49033484 -11.59000816 41.2671956 -9.05688477 33.00585938 C-6.74159548 25.35789149 -4.85590172 17.60860147 -2.9675293 9.84594727 C-2.72558838 8.85651123 -2.48364746 7.8670752 -2.234375 6.84765625 C-2.02006836 5.96086182 -1.80576172 5.07406738 -1.58496094 4.16040039 C-1 2 -1 2 0 0 Z " fill="#B87C55" transform="translate(45,344)"/>
<path d="M0 0 C0.66 0.66 1.32 1.32 2 2 C-3.43570302 7.4819737 -8.87675048 12.95859282 -14.32473564 18.42835999 C-16.85408592 20.96816272 -19.38153608 23.50979865 -21.90478516 26.05566406 C-24.80341887 28.98011644 -27.71004502 31.89650571 -30.6171875 34.8125 C-31.52556366 35.73119873 -32.43393982 36.64989746 -33.36984253 37.59643555 C-34.21056305 38.43730713 -35.05128357 39.27817871 -35.91748047 40.14453125 C-36.65916473 40.89065674 -37.400849 41.63678223 -38.16500854 42.40551758 C-40 44 -40 44 -42 44 C-40.57918195 39.64334798 -38.44390457 37.00113025 -35.3125 33.6875 C-32.37968324 30.55951003 -29.48966783 27.42521367 -26.75 24.125 C-18.92374018 15.1303649 -9.62515673 7.00242884 0 0 Z " fill="#AF7651" transform="translate(358,309)"/>
<path d="M0 0 C-1 2 -1 2 -3.08764648 2.75854492 C-4.00618408 2.99677979 -4.92472168 3.23501465 -5.87109375 3.48046875 C-7.42727417 3.89123657 -7.42727417 3.89123657 -9.01489258 4.31030273 C-10.14435303 4.59977783 -11.27381348 4.88925293 -12.4375 5.1875 C-14.80481071 5.80682089 -17.17199447 6.42662723 -19.5390625 7.046875 C-21.37839355 7.52543945 -21.37839355 7.52543945 -23.25488281 8.01367188 C-26.95614881 8.98845119 -30.64691338 9.99557269 -34.3359375 11.015625 C-35.50584229 11.33764893 -36.67574707 11.65967285 -37.88110352 11.99145508 C-40.13271563 12.61223038 -42.3832481 13.23693783 -44.63256836 13.8659668 C-45.65745361 14.14609619 -46.68233887 14.42622559 -47.73828125 14.71484375 C-49.08466675 15.08790649 -49.08466675 15.08790649 -50.45825195 15.46850586 C-53.04624563 16.00967023 -55.36418316 16.09751307 -58 16 C-55.66105524 13.3080518 -53.58943643 12.26977226 -50.23046875 11.1328125 C-49.26955322 10.80667969 -48.3086377 10.48054688 -47.31860352 10.14453125 C-46.28533936 9.80808594 -45.2520752 9.47164063 -44.1875 9.125 C-43.12394287 8.77566406 -42.06038574 8.42632812 -40.96459961 8.06640625 C-33.73010209 5.7460585 -26.46330727 3.71648116 -19.0625 2 C-18.18295654 1.79262207 -17.30341309 1.58524414 -16.3972168 1.37158203 C-10.81922397 0.14840827 -5.70909198 -0.18435009 0 0 Z " fill="#B07752" transform="translate(472,262)"/>
<path d="M0 0 C0.66 0 1.32 0 2 0 C1.16784918 5.7858957 -0.26460169 11.40021234 -1.6875 17.0625 C-1.95079102 18.1136499 -2.21408203 19.1647998 -2.48535156 20.24780273 C-4.91286737 29.83764201 -7.58878996 39.34759518 -10.36914062 48.84033203 C-11.25988104 51.88967016 -12.13052608 54.9445374 -13 58 C-13.66 58 -14.32 58 -15 58 C-14.45335141 49.8191211 -12.90164436 41.96372944 -11 34 C-10.73678955 32.89011719 -10.73678955 32.89011719 -10.46826172 31.7578125 C-7.82278883 20.76506235 -4.51066703 10.36988399 0 0 Z " fill="#B67B54" transform="translate(283,408)"/>
<path d="M0 0 C0 8.25 0 16.5 0 25 C-7.875 18.25 -7.875 18.25 -10.9375 15.125 C-11.52402344 14.52945313 -12.11054688 13.93390625 -12.71484375 13.3203125 C-13.13894531 12.88460937 -13.56304687 12.44890625 -14 12 C-12.47248076 7.93881113 -9.92595448 6.20601749 -6.4375 3.75 C-5.44621094 3.04359375 -4.45492187 2.3371875 -3.43359375 1.609375 C-1 0 -1 0 0 0 Z " fill="#B0B8C1" transform="translate(251,155)"/>
<path d="M0 0 C3.3 0 6.6 0 10 0 C10 5.28 10 10.56 10 16 C4.82421875 11.60546875 4.82421875 11.60546875 3 10 C2.4328125 9.5153125 1.865625 9.030625 1.28125 8.53125 C-0.86089345 5.97112734 -0.18038847 3.18686303 0 0 Z " fill="#AA693A" transform="translate(266,189)"/>
<path d="M0 0 C0.66 0 1.32 0 2 0 C1.05714286 6.91428571 1.05714286 6.91428571 -1 10 C-1.99 10.33 -2.98 10.66 -4 11 C-3.52269162 9.5410574 -3.04308958 8.08286504 -2.5625 6.625 C-2.29566406 5.81289063 -2.02882813 5.00078125 -1.75390625 4.1640625 C-1 2 -1 2 0 0 Z " fill="#AA734F" transform="translate(283,408)"/>
<path d="M0 0 C0.33 0.66 0.66 1.32 1 2 C-2.3 2.33 -5.6 2.66 -9 3 C-4.5 -1.5 -4.5 -1.5 0 0 Z " fill="#A9724E" transform="translate(423,275)"/>
<path d="M0 0 C0.33 0 0.66 0 1 0 C1.125 5.75 1.125 5.75 0 8 C-0.66 8 -1.32 8 -2 8 C-2.125 5.125 -2.125 5.125 -2 2 C-1.34 1.34 -0.68 0.68 0 0 Z " fill="#A46F4C" transform="translate(270,458)"/>
</svg>
