<?xml version="1.0" encoding="UTF-8"?>
<svg version="1.1" xmlns="http://www.w3.org/2000/svg" width="512" height="512">
<path d="M0 0 C19.8 0 39.6 0 60 0 C60 39.93 60 79.86 60 121 C69.9 121 79.8 121 90 121 C89.88398438 117.18308594 89.76796875 113.36617188 89.6484375 109.43359375 C89.57039675 105.72689114 89.50970927 102.02028082 89.45068359 98.31323242 C89.40046443 95.74152511 89.33227239 93.17010234 89.24560547 90.59936523 C89.1239533 86.89756131 89.06752142 83.19953501 89.0234375 79.49609375 C88.97182465 78.35103867 88.92021179 77.20598358 88.86703491 76.02622986 C88.86155131 68.18106497 88.86155131 68.18106497 92.17303467 64.74562073 C94.71231753 62.94958606 97.24721835 61.44197026 100 60 C101.13947363 59.2890131 102.27556235 58.57253414 103.40625 57.84765625 C135.94158901 39.07410836 171.61903837 30.53546432 209.0625 30.6875 C210.01565094 30.68965515 210.96880188 30.6918103 211.95083618 30.69403076 C225.82104908 30.7443975 239.39728197 31.03399381 253 34 C253.97372559 34.20931152 254.94745117 34.41862305 255.95068359 34.63427734 C281.33068834 40.24033435 306.10301729 49.20814336 327 65 C327.99 65.66 328.98 66.32 330 67 C330.38410217 69.66408938 330.38410217 69.66408938 330.39707661 73.12990856 C330.40921674 74.44629729 330.42135687 75.76268603 330.43386489 77.11896533 C330.4322149 78.59389288 330.43026741 80.06882013 330.42805481 81.54374695 C330.43651652 83.09966608 330.4462673 84.65557864 330.45720309 86.21148235 C330.48342807 90.50326811 330.49066473 94.79491169 330.49478734 99.08676803 C330.50237786 103.7093143 330.52704756 108.33177466 330.54927063 112.95426941 C330.5990923 124.12595761 330.62012729 135.29763368 330.63878945 146.46940991 C330.64832047 151.72693967 330.66126893 156.98446065 330.67401695 162.24198341 C330.71542225 179.71358277 330.75051376 197.18517252 330.76451588 214.65681744 C330.76542614 215.77574331 330.7663364 216.89466919 330.76727424 218.04750191 C330.76818453 219.16914784 330.76909483 220.29079376 330.7700327 221.44642895 C330.77188818 223.71941293 330.77375556 225.9923969 330.77563477 228.26538086 C330.77656137 229.39286607 330.77748797 230.52035127 330.77844264 231.6820027 C330.79464136 249.95175162 330.85488671 268.22107122 330.93393449 286.49064567 C331.01438733 305.23653245 331.05736531 323.98220258 331.06289595 342.72826415 C331.06689817 353.25808013 331.08721727 363.78731137 331.14899635 374.31696129 C331.20144575 383.28374687 331.21983058 392.2497829 331.19355337 401.21669783 C331.18117431 405.79322936 331.18505288 410.36823615 331.2324295 414.94457245 C331.27541838 419.13448458 331.27226337 423.32173471 331.23235079 427.51165388 C331.22603951 429.02721445 331.236648 430.54295946 331.26586816 432.05825146 C331.47049589 443.38031499 331.47049589 443.38031499 327.80936372 447.41288722 C325.27561765 449.21428895 322.79035041 450.63957312 320 452 C318.89914062 452.69867188 317.79828125 453.39734375 316.6640625 454.1171875 C288.0184302 470.68599796 255.14738734 480.91778661 221.8828125 481.23828125 C221.03623077 481.2480751 220.18964905 481.25786896 219.31741333 481.26795959 C181.03578734 481.6192815 145.41882987 476.41081186 111.0625 458.5625 C110.43754639 458.23983154 109.81259277 457.91716309 109.16870117 457.5847168 C107.86904046 456.88207456 106.59349651 456.1335869 105.34106445 455.34985352 C102.89716312 453.86341782 102.89716312 453.86341782 99.63354492 452.67944336 C95.47916183 450.66177789 92.39597517 449.03165644 90 445 C87.76762969 436.0943029 88.7868209 426.51820269 89.1875 417.4375 C89.25275274 414.87709919 89.31206071 412.31653952 89.36523438 409.75585938 C89.4970253 403.49680426 89.75113789 397.25983932 90 391 C80.1 391 70.2 391 60 391 C60 430.93 60 470.86 60 512 C40.2 512 20.4 512 0 512 C0 343.04 0 174.08 0 0 Z M60 151 C60 220.3 60 289.6 60 361 C69.9 361 79.8 361 90 361 C90 291.7 90 222.4 90 151 C80.1 151 70.2 151 60 151 Z " fill="#0F0F4D" transform="translate(91,0)"/>
<path d="M0 0 C0 9.9 0 19.8 0 30 C2.31 30 4.62 30 7 30 C20.12473874 32.599118 30.11273549 39.24943011 38 50 C44.60650112 60.82592042 46.56689659 71.80922009 44.4375 84.375 C41.83236827 94.37651972 36.50255753 104.90922562 28 111 C18.89817291 116.29886461 10.71032996 120 0 120 C0 129.9 0 139.8 0 150 C3.63 150.33 7.26 150.66 11 151 C24.06935757 155.30332505 34.37564804 162.69092653 40.875 175.0625 C45.74430185 185.73561618 46.98126054 197.76399804 43 209 C36.80654176 223.87459362 28.94924683 231.76412477 14 238 C8.79112083 239.78091288 5.75496205 240 0 240 C0 249.9 0 259.8 0 270 C2.31 270 4.62 270 7 270 C20.12473874 272.599118 30.11273549 279.24943011 38 290 C44.60650112 300.82592042 46.56689659 311.80922009 44.4375 324.375 C41.83236827 334.37651972 36.50255753 344.90922562 28 351 C18.89817291 356.29886461 10.71032996 360 0 360 C0 369.9 0 379.8 0 390 C-30.79662715 390.47746709 -63.88373615 384.41084256 -90 367 C-90.38410217 364.55276895 -90.38410217 364.55276895 -90.39707661 361.39828873 C-90.40921674 360.19971874 -90.42135687 359.00114876 -90.43386489 357.76625848 C-90.43221492 356.42427041 -90.43026744 355.08228267 -90.42805481 353.74029541 C-90.43651698 352.32390608 -90.44626788 350.90752396 -90.45720309 349.49115157 C-90.48342262 345.58508633 -90.49066419 341.67917733 -90.49478734 337.77303457 C-90.50237903 333.56563973 -90.52704889 329.35833923 -90.54927063 325.15100098 C-90.59908676 314.98340798 -90.62012622 304.81582834 -90.63878945 294.64813864 C-90.64832082 289.86317542 -90.66126917 285.07822184 -90.67401695 280.2932663 C-90.7154208 264.39236368 -90.75051299 248.49147162 -90.76451588 232.59051895 C-90.76542614 231.5722403 -90.7663364 230.55396164 -90.76727424 229.50482605 C-90.76818453 228.4840729 -90.76909483 227.46331975 -90.7700327 226.41163468 C-90.77188818 224.34310801 -90.77375556 222.27458134 -90.77563477 220.20605469 C-90.77656137 219.17998807 -90.77748797 218.15392146 -90.77844264 217.09676191 C-90.79464286 200.46881532 -90.85489222 183.84134033 -90.93393449 167.21358541 C-91.01438075 150.15255057 -91.05736484 133.09175375 -91.06289595 116.03052688 C-91.06689856 106.44695874 -91.08722478 96.864033 -91.14899635 87.28064728 C-91.20143696 79.12006228 -91.21983572 70.96030076 -91.19355337 62.79957369 C-91.1811712 58.63423862 -91.18506654 54.47057878 -91.2324295 50.30545807 C-91.27540231 46.49238007 -91.27228061 42.68222745 -91.23235079 38.86914203 C-91.22304334 36.8355443 -91.26307377 34.80190606 -91.30479938 32.76871514 C-91.14923598 24.12573357 -91.14923598 24.12573357 -87.85523164 20.89909315 C-85.2851439 19.3206575 -82.79584992 18.12241657 -80 17 C-78.45187578 16.27087573 -76.90478343 15.53955048 -75.359375 14.8046875 C-73.82733599 14.15100223 -72.29074799 13.50788515 -70.75 12.875 C-69.92862549 12.5344458 -69.10725098 12.1938916 -68.26098633 11.84301758 C-61.28952207 9.01003283 -54.32336317 6.76622288 -47 5 C-45.86304688 4.72542969 -44.72609375 4.45085937 -43.5546875 4.16796875 C-28.84006257 0.82672841 -15.02129382 -0.23288828 0 0 Z " fill="#404A80" transform="translate(301,61)"/>
<path d="M0 0 C19.8 0 39.6 0 60 0 C60 39.93 60 79.86 60 121 C69.9 121 79.8 121 90 121 C90 130.9 90 140.8 90 151 C80.1 151 70.2 151 60 151 C60 220.3 60 289.6 60 361 C69.9 361 79.8 361 90 361 C90 370.9 90 380.8 90 391 C80.1 391 70.2 391 60 391 C60 430.93 60 470.86 60 512 C40.2 512 20.4 512 0 512 C0 343.04 0 174.08 0 0 Z " fill="#CFCFE6" transform="translate(91,0)"/>
<path d="M0 0 C17.67447395 0 17.67447395 0 23.9375 0.75 C25.06841064 0.88414307 25.06841064 0.88414307 26.22216797 1.02099609 C44.78336177 3.40682369 76.29500309 9.29500309 90 23 C90.10654168 24.82380519 90.14213733 26.65177038 90.15098095 28.47866344 C90.15913899 29.67524238 90.16729702 30.87182131 90.17570227 32.10466021 C90.17975941 33.44958984 90.18370312 34.79451982 90.18754578 36.13945007 C90.19513419 37.55497051 90.20313508 38.97048878 90.21151572 40.38600475 C90.23326989 44.29429076 90.24853996 48.20257969 90.26265609 52.11089981 C90.27553321 55.4586174 90.29209318 58.80631282 90.30863335 62.15401401 C90.46475173 93.87818564 90.53965014 125.60286937 90.60025311 157.32734966 C90.60828228 161.45773535 90.61645053 165.58812072 90.62475586 169.71850586 C90.62681346 170.74513798 90.62887106 171.77177009 90.63099102 172.82951228 C90.66541817 189.46396428 90.73807399 206.09803125 90.82566347 222.73227908 C90.91478197 239.79777763 90.96617128 256.86307634 90.98155528 273.92880279 C90.99122269 283.51577293 91.01806961 293.10204965 91.08786583 302.68878746 C91.14727966 310.85302078 91.17309364 319.01646871 91.15452697 327.18091311 C91.1461213 331.34829256 91.15405861 335.51397689 91.205513 339.68108368 C91.25225183 343.49600849 91.25290503 347.3080563 91.21677623 351.12307069 C91.21185121 352.50340229 91.22388386 353.88391934 91.2545106 355.26391991 C91.34010069 359.3647286 91.2779335 363.08479018 90 367 C87.0125699 369.93857185 83.8620656 371.46281532 80 373 C79.14023849 373.38909426 78.28047697 373.77818852 77.39466208 374.17907351 C75.03896634 375.24114559 72.66005089 376.19324373 70.25 377.125 C69.37657959 377.4662793 68.50315918 377.80755859 67.60327148 378.15917969 C45.63729711 386.6052999 23.43731269 390 0 390 C0 380.1 0 370.2 0 360 C4.62 359.01 9.24 358.02 14 357 C28.40869077 351.56478892 34.91497758 344.34196391 41.3984375 330.9375 C45.95488154 320.64550448 44.86724169 308.50224229 41.32421875 298.109375 C36.96909746 287.88319051 29.28900224 279.48715623 19.13671875 274.83984375 C12.77731446 272.34026071 6.78991204 270.96998743 0 270 C0 260.1 0 250.2 0 240 C4.62 239.01 9.24 238.02 14 237 C28.40869077 231.56478892 34.91497758 224.34196391 41.3984375 210.9375 C45.95488154 200.64550448 44.86724169 188.50224229 41.32421875 178.109375 C37.01079805 167.98110692 29.33737383 159.48140218 19.27734375 154.83984375 C13.04514302 152.54151929 6.49717804 151.29943561 0 150 C0 140.1 0 130.2 0 120 C4.62 119.01 9.24 118.02 14 117 C28.40869077 111.56478892 34.91497758 104.34196391 41.3984375 90.9375 C45.95488154 80.64550448 44.86724169 68.50224229 41.32421875 58.109375 C36.96909746 47.88319051 29.28900224 39.48715623 19.13671875 34.83984375 C12.77731446 32.34026071 6.78991204 30.96998743 0 30 C0 20.1 0 10.2 0 0 Z " fill="#283365" transform="translate(301,61)"/>
<path d="M0 0 C0 9.9 0 19.8 0 30 C-2.578125 30.103125 -5.15625 30.20625 -7.8125 30.3125 C-36.66891822 31.79604569 -63.64145024 39.16806377 -89 53 C-89 166.52 -89 280.04 -89 397 C-72.80706529 405.09646736 -58.31096802 410.82149048 -41 415 C-39.79988281 415.30035156 -38.59976563 415.60070312 -37.36328125 415.91015625 C-25.07604565 418.6982519 -12.54304472 419.1551317 0 420 C0 429.9 0 439.8 0 450 C-34.64873284 450.98294278 -68.13949465 443.56224171 -98.9375 427.5625 C-99.56245361 427.23983154 -100.18740723 426.91716309 -100.83129883 426.5847168 C-102.09066359 425.90385997 -103.33369366 425.1919196 -104.55852407 424.45073402 C-106.40841985 423.35151911 -108.29866669 422.31985834 -110.20489651 421.32152188 C-115.13783465 418.55078424 -119.20580409 416.16845463 -121.20946777 410.69769645 C-121.67180159 406.61835139 -121.72214786 402.71070666 -121.63059998 398.61447144 C-121.6434436 397.05246331 -121.66196314 395.49049336 -121.68563992 393.92861187 C-121.73397913 389.65132959 -121.70154924 385.37793834 -121.65544355 381.10077262 C-121.619801 376.48296977 -121.6591875 371.86571527 -121.68894958 367.24795532 C-121.73516567 358.20849172 -121.7115891 349.17049929 -121.6635102 340.13109671 C-121.60966385 329.60420206 -121.62089626 319.07767678 -121.63375319 308.55068912 C-121.65407198 289.76901095 -121.60907809 270.9880402 -121.5300293 252.20654297 C-121.45332898 233.98165164 -121.4321091 215.75773321 -121.46850586 197.53271484 C-121.50808134 177.68400664 -121.51598848 157.83575301 -121.46959931 137.9870435 C-121.46470325 135.87085991 -121.45982781 133.75467627 -121.45497322 131.63849258 C-121.4525455 130.59729878 -121.45011778 129.55610497 -121.4476165 128.48335984 C-121.43252351 121.14519488 -121.43953679 113.80724028 -121.45464897 106.46908188 C-121.47222994 97.52791162 -121.45353944 88.58767608 -121.38868534 79.64670978 C-121.35643058 75.08442369 -121.34010009 70.52357378 -121.36701202 65.96121979 C-121.39116241 61.78434051 -121.36913287 57.61034544 -121.31022359 53.43383516 C-121.29697017 51.92327492 -121.30054875 50.41245368 -121.32265597 48.90199707 C-121.4738183 37.61936461 -121.4738183 37.61936461 -117.80772412 33.59122682 C-115.27449851 31.78993689 -112.78868546 30.36287722 -110 29 C-108.85786373 28.29329833 -107.72133539 27.57735051 -106.59375 26.84765625 C-84.69873837 14.21379221 -61.77297771 6.69121277 -37 2 C-36.2977832 1.86577637 -35.59556641 1.73155273 -34.87207031 1.59326172 C-23.28179593 -0.52953197 -11.74526672 -0.14590393 0 0 Z " fill="#273265" transform="translate(301,31)"/>
<path d="M0 0 C8.7532287 7.58413309 15.79245853 17.21301299 17.28125 28.9765625 C18.18973234 43.06770351 14.7985781 54.90770774 6.53515625 66.40625 C-0.85500793 74.57516266 -13.19174892 80.30263333 -24.078125 81.27734375 C-38.71309855 81.32792546 -49.72951068 77.71330039 -60.59375 67.6015625 C-64.12613446 63.83255898 -66.47935768 59.60354223 -68.71875 54.9765625 C-69.028125 54.35523438 -69.3375 53.73390625 -69.65625 53.09375 C-74.6221013 42.44581885 -73.75165031 29.94719207 -70.0390625 19.08203125 C-64.80337431 6.76732085 -55.01420078 -2.05293612 -42.71875 -7.0234375 C-28.23857264 -12.09149957 -12.11979647 -9.24724731 0 0 Z " fill="#FD3376" transform="translate(328.71875,100.0234375)"/>
<path d="M0 0 C8.7532287 7.58413309 15.79245853 17.21301299 17.28125 28.9765625 C18.18973234 43.06770351 14.7985781 54.90770774 6.53515625 66.40625 C-0.85500793 74.57516266 -13.19174892 80.30263333 -24.078125 81.27734375 C-37.08087636 81.32228413 -46.2231135 78.77848322 -56.71875 70.9765625 C-57.36714844 70.49832031 -58.01554687 70.02007812 -58.68359375 69.52734375 C-63.0463044 65.75819918 -65.50671128 61.04041812 -68.09375 55.9765625 C-68.44010498 55.29988525 -68.78645996 54.62320801 -69.14331055 53.92602539 C-74.4705005 42.92041687 -73.92889892 30.46592314 -70.0390625 19.08203125 C-64.80337431 6.76732085 -55.01420078 -2.05293612 -42.71875 -7.0234375 C-28.23857264 -12.09149957 -12.11979647 -9.24724731 0 0 Z " fill="#2EE4A7" transform="translate(328.71875,340.0234375)"/>
<path d="M0 0 C9.21027117 7.4224889 15.10091716 17.31824673 17 29 C18.12995145 42.98987512 14.43310041 55.04834798 6.25390625 66.4296875 C-1.13625793 74.59860016 -13.47299892 80.32607083 -24.359375 81.30078125 C-38.99434855 81.35136296 -50.01076068 77.73673789 -60.875 67.625 C-64.40738446 63.85599648 -66.76060768 59.62697973 -69 55 C-69.309375 54.37867188 -69.61875 53.75734375 -69.9375 53.1171875 C-74.9033513 42.46925635 -74.03290031 29.97062957 -70.3203125 19.10546875 C-65.47446139 7.70768287 -56.60594219 -0.92027292 -45.39453125 -6.03515625 C-30.10751411 -12.19485157 -13.46512156 -9.14964347 0 0 Z " fill="#FDDC33" transform="translate(329,220)"/>
<path d="M0 0 C0 9.9 0 19.8 0 30 C-2.64 30.99 -5.28 31.98 -8 33 C-11.09912041 35.63754928 -12.71335878 37.14007635 -14 41 C-14.41975017 46.45675219 -13.77852198 50.24962372 -11 55 C-7.64672915 57.68099674 -4.1627525 58.95931187 0 60 C0 69.9 0 79.8 0 90 C-13.17738776 90 -23.20273661 85.62732306 -32.875 76.625 C-36.40738446 72.85599648 -38.76060768 68.62697973 -41 64 C-41.309375 63.37867188 -41.61875 62.75734375 -41.9375 62.1171875 C-46.9033513 51.46925635 -46.03290031 38.97062957 -42.3203125 28.10546875 C-37.47133109 16.70032017 -28.61132938 8.1128132 -17.4140625 2.96484375 C-11.41816584 0.56842551 -6.60169555 0 0 0 Z " fill="#FD6566" transform="translate(301,91)"/>
<path d="M0 0 C0 9.9 0 19.8 0 30 C-2.64 30.99 -5.28 31.98 -8 33 C-11.09912041 35.63754928 -12.71335878 37.14007635 -14 41 C-14.41975017 46.45675219 -13.77852198 50.24962372 -11 55 C-7.64672915 57.68099674 -4.1627525 58.95931187 0 60 C0 69.9 0 79.8 0 90 C-11.63419552 90 -19.68398235 86.92505224 -29 80 C-29.64839844 79.52175781 -30.29679687 79.04351562 -30.96484375 78.55078125 C-35.3275544 74.78163668 -37.78796128 70.06385562 -40.375 65 C-40.72135498 64.32332275 -41.06770996 63.64664551 -41.42456055 62.94946289 C-46.7517505 51.94385437 -46.21014892 39.48936064 -42.3203125 28.10546875 C-37.47133109 16.70032017 -28.61132938 8.1128132 -17.4140625 2.96484375 C-11.41816584 0.56842551 -6.60169555 0 0 0 Z " fill="#7FFDD3" transform="translate(301,331)"/>
<path d="M0 0 C0 9.9 0 19.8 0 30 C-2.64 30.99 -5.28 31.98 -8 33 C-11.09912041 35.63754928 -12.71335878 37.14007635 -14 41 C-14.41975017 46.45675219 -13.77852198 50.24962372 -11 55 C-7.64672915 57.68099674 -4.1627525 58.95931187 0 60 C0 69.9 0 79.8 0 90 C-13.17738776 90 -23.20273661 85.62732306 -32.875 76.625 C-36.40738446 72.85599648 -38.76060768 68.62697973 -41 64 C-41.309375 63.37867188 -41.61875 62.75734375 -41.9375 62.1171875 C-46.9033513 51.46925635 -46.03290031 38.97062957 -42.3203125 28.10546875 C-37.47133109 16.70032017 -28.61132938 8.1128132 -17.4140625 2.96484375 C-11.41816584 0.56842551 -6.60169555 0 0 0 Z " fill="#FDEC98" transform="translate(301,211)"/>
<path d="M0 0 C9.9 0 19.8 0 30 0 C30 9.9 30 19.8 30 30 C20.1 30 10.2 30 0 30 C0 20.1 0 10.2 0 0 Z " fill="#7D8FB3" transform="translate(151,361)"/>
<path d="M0 0 C9.9 0 19.8 0 30 0 C30 9.9 30 19.8 30 30 C20.1 30 10.2 30 0 30 C0 20.1 0 10.2 0 0 Z " fill="#7D8FB3" transform="translate(151,121)"/>
<path d="M0 0 C7.52112676 1.25352113 7.52112676 1.25352113 11 4 C14.41198095 8.79521648 15.84380906 11.98786046 15 18 C13.53355037 22.61627931 11.69956258 25.94413719 7.5 28.5 C4 30 4 30 0 30 C0 20.1 0 10.2 0 0 Z " fill="#24B3B2" transform="translate(301,361)"/>
<path d="M0 0 C7.52112676 1.25352113 7.52112676 1.25352113 11 4 C14.41198095 8.79521648 15.84380906 11.98786046 15 18 C13.53355037 22.61627931 11.69956258 25.94413719 7.5 28.5 C4 30 4 30 0 30 C0 20.1 0 10.2 0 0 Z " fill="#FFBB33" transform="translate(301,241)"/>
<path d="M0 0 C6.72575706 1.12095951 9.34099344 1.71326123 13.3125 7.1875 C15.3545342 11.1465459 15.8355145 14.6243158 15 19 C13.52006107 23.30846126 11.38651555 26.05544208 7.5 28.4375 C4 30 4 30 0 30 C0 20.1 0 10.2 0 0 Z " fill="#CC295F" transform="translate(301,121)"/>
</svg>
