<?xml version="1.0" encoding="UTF-8"?>
<svg version="1.1" xmlns="http://www.w3.org/2000/svg" width="512" height="512">
<path d="M0 0 C0.86303238 -0.00701431 1.72606476 -0.01402863 2.61524963 -0.02125549 C5.38417843 -0.03866251 8.1528935 -0.04510744 10.921875 -0.046875 C11.86694916 -0.04754974 12.81202332 -0.04822449 13.78573608 -0.04891968 C27.31236066 -0.03354672 40.40983392 0.31475764 53.671875 3.203125 C54.49703613 3.36941406 55.32219727 3.53570312 56.17236328 3.70703125 C96.69591304 11.93516318 134.34617545 30.87294013 164.11474609 59.69726562 C165.21319136 60.75954383 166.31834421 61.81490737 167.42822266 62.86523438 C177.29837295 72.21890822 185.77547535 82.1391833 193.671875 93.203125 C194.11869629 93.82123047 194.56551758 94.43933594 195.02587891 95.07617188 C207.14172526 111.96409392 215.99856173 130.56696592 222.671875 150.203125 C222.95401855 151.03166992 223.23616211 151.86021484 223.52685547 152.71386719 C229.71860224 171.25626972 233.72215277 190.76350733 233.91015625 210.35546875 C233.9199501 211.2047847 233.92974396 212.05410065 233.93983459 212.92915344 C234.11460734 232.02549579 233.92325804 250.48603909 229.671875 269.203125 C229.45756836 270.14945801 229.24326172 271.09579102 229.02246094 272.07080078 C224.40883786 291.70388241 217.24470385 310.465796 207.671875 328.203125 C207.05828125 329.358125 206.4446875 330.513125 205.8125 331.703125 C191.52413513 357.68197022 171.25981577 381.31264569 147.38818359 398.93554688 C145.68619911 400.19254594 144.00142502 401.4703882 142.31640625 402.75 C132.12209518 410.37399467 121.06393285 417.00876674 109.390625 422.1171875 C99.41213097 426.54055863 93.58677225 431.8847853 86.97851562 440.53271484 C85.10153427 442.93224893 83.0522533 445.15517725 80.984375 447.390625 C77.9926934 450.68254705 75.14663077 454.04903807 72.359375 457.515625 C68.46931569 462.32897937 64.34315666 466.8507395 60.11621094 471.36425781 C56.19631232 475.57359516 52.55935829 479.96038264 48.95703125 484.4453125 C45.96713999 488.05362572 42.81800106 491.49532628 39.61914062 494.91845703 C36.98638319 497.73913632 34.51653816 500.62742312 32.109375 503.640625 C27.43379652 508.9227054 22.26805051 511.6994127 15.26953125 512.6796875 C7.32182554 513.00760587 1.01845905 512.15655646 -5.328125 507.203125 C-12.60854253 500.4387877 -18.88798454 492.65582792 -25.0859375 484.9140625 C-27.5671905 481.91408065 -30.17676807 479.05158849 -32.828125 476.203125 C-36.27976554 472.49452965 -39.59334794 468.71806423 -42.765625 464.765625 C-46.13159558 460.58074208 -49.65995766 456.62005973 -53.328125 452.703125 C-57.79265445 447.93429187 -62.02513024 443.04660545 -66.09765625 437.93359375 C-66.83371094 437.03253906 -67.56976563 436.13148438 -68.328125 435.203125 C-68.80330566 434.57003418 -69.27848633 433.93694336 -69.76806641 433.28466797 C-74.40896877 427.44061957 -79.29182947 424.84817262 -86.078125 421.953125 C-103.63189552 413.98519826 -118.76700315 403.78535199 -133.328125 391.203125 C-134.24980469 390.41164063 -135.17148438 389.62015625 -136.12109375 388.8046875 C-138.56952802 386.6481969 -140.95878141 384.44615464 -143.328125 382.203125 C-144.75705078 380.85347656 -144.75705078 380.85347656 -146.21484375 379.4765625 C-153.69662989 372.27567487 -160.12732525 364.51840897 -166.328125 356.203125 C-166.96596924 355.36442871 -166.96596924 355.36442871 -167.61669922 354.50878906 C-174.87282607 344.95112256 -180.80673329 334.84754924 -186.328125 324.203125 C-186.91424561 323.07994873 -186.91424561 323.07994873 -187.51220703 321.93408203 C-203.36924036 291.158262 -210.78475461 257.38202127 -210.703125 222.890625 C-210.70258118 222.01972229 -210.70203735 221.14881958 -210.70147705 220.25152588 C-210.59671019 183.54708413 -201.78252765 148.54408578 -184.328125 116.203125 C-183.71453125 115.048125 -183.1009375 113.893125 -182.46875 112.703125 C-172.19069789 94.01575752 -159.03634428 77.80245955 -144.078125 62.703125 C-143.32128418 61.93685791 -142.56444336 61.17059082 -141.78466797 60.38110352 C-130.84111801 49.50127671 -130.84111801 49.50127671 -124.640625 48.765625 C-121.60362414 49.16673832 -119.95579528 49.77765681 -117.328125 51.203125 C-114.04969206 49.12158028 -111.02207242 47.01373944 -108.328125 44.203125 C-107.80828022 42.14700599 -107.80828022 42.14700599 -108.078125 40.078125 C-108.328125 36.203125 -108.328125 36.203125 -106.3515625 33.76171875 C-102.83363273 30.78465932 -99.24144479 28.58388057 -95.203125 26.390625 C-94.01396484 25.742146 -94.01396484 25.742146 -92.80078125 25.08056641 C-64.66936693 10.03468989 -32.05385124 0.17490148 0 0 Z " fill="#383838" transform="translate(244.328125,-0.203125)"/>
<path d="M0 0 C0.86303238 -0.00701431 1.72606476 -0.01402863 2.61524963 -0.02125549 C5.38417843 -0.03866251 8.1528935 -0.04510744 10.921875 -0.046875 C11.86694916 -0.04754974 12.81202332 -0.04822449 13.78573608 -0.04891968 C27.31236066 -0.03354672 40.40983392 0.31475764 53.671875 3.203125 C54.49703613 3.36941406 55.32219727 3.53570312 56.17236328 3.70703125 C96.69591304 11.93516318 134.34617545 30.87294013 164.11474609 59.69726562 C165.21319136 60.75954383 166.31834421 61.81490737 167.42822266 62.86523438 C177.29837295 72.21890822 185.77547535 82.1391833 193.671875 93.203125 C194.11869629 93.82123047 194.56551758 94.43933594 195.02587891 95.07617188 C207.14172526 111.96409392 215.99856173 130.56696592 222.671875 150.203125 C222.95401855 151.03166992 223.23616211 151.86021484 223.52685547 152.71386719 C229.71860224 171.25626972 233.72215277 190.76350733 233.91015625 210.35546875 C233.9199501 211.2047847 233.92974396 212.05410065 233.93983459 212.92915344 C234.11460734 232.02549579 233.92325804 250.48603909 229.671875 269.203125 C229.45756836 270.14945801 229.24326172 271.09579102 229.02246094 272.07080078 C224.40883786 291.70388241 217.24470385 310.465796 207.671875 328.203125 C207.05828125 329.358125 206.4446875 330.513125 205.8125 331.703125 C191.52413513 357.68197022 171.25981577 381.31264569 147.38818359 398.93554688 C145.68619911 400.19254594 144.00142502 401.4703882 142.31640625 402.75 C132.12209518 410.37399467 121.06393285 417.00876674 109.390625 422.1171875 C99.41213097 426.54055863 93.58677225 431.8847853 86.97851562 440.53271484 C85.10153427 442.93224893 83.0522533 445.15517725 80.984375 447.390625 C77.9926934 450.68254705 75.14663077 454.04903807 72.359375 457.515625 C68.46931569 462.32897937 64.34315666 466.8507395 60.11621094 471.36425781 C56.19631232 475.57359516 52.55935829 479.96038264 48.95703125 484.4453125 C45.96713999 488.05362572 42.81800106 491.49532628 39.61914062 494.91845703 C36.98638319 497.73913632 34.51653816 500.62742312 32.109375 503.640625 C27.43379652 508.9227054 22.26805051 511.6994127 15.26953125 512.6796875 C7.32182554 513.00760587 1.01845905 512.15655646 -5.328125 507.203125 C-12.60854253 500.4387877 -18.88798454 492.65582792 -25.0859375 484.9140625 C-27.5671905 481.91408065 -30.17676807 479.05158849 -32.828125 476.203125 C-36.27976554 472.49452965 -39.59334794 468.71806423 -42.765625 464.765625 C-46.13159558 460.58074208 -49.65995766 456.62005973 -53.328125 452.703125 C-57.79265445 447.93429187 -62.02513024 443.04660545 -66.09765625 437.93359375 C-66.83371094 437.03253906 -67.56976563 436.13148438 -68.328125 435.203125 C-68.80330566 434.57003418 -69.27848633 433.93694336 -69.76806641 433.28466797 C-74.40896877 427.44061957 -79.29182947 424.84817262 -86.078125 421.953125 C-103.63189552 413.98519826 -118.76700315 403.78535199 -133.328125 391.203125 C-134.24980469 390.41164063 -135.17148438 389.62015625 -136.12109375 388.8046875 C-138.56952802 386.6481969 -140.95878141 384.44615464 -143.328125 382.203125 C-144.75705078 380.85347656 -144.75705078 380.85347656 -146.21484375 379.4765625 C-153.69662989 372.27567487 -160.12732525 364.51840897 -166.328125 356.203125 C-166.96596924 355.36442871 -166.96596924 355.36442871 -167.61669922 354.50878906 C-174.87282607 344.95112256 -180.80673329 334.84754924 -186.328125 324.203125 C-186.91424561 323.07994873 -186.91424561 323.07994873 -187.51220703 321.93408203 C-203.36924036 291.158262 -210.78475461 257.38202127 -210.703125 222.890625 C-210.70258118 222.01972229 -210.70203735 221.14881958 -210.70147705 220.25152588 C-210.59671019 183.54708413 -201.78252765 148.54408578 -184.328125 116.203125 C-183.71453125 115.048125 -183.1009375 113.893125 -182.46875 112.703125 C-172.19069789 94.01575752 -159.03634428 77.80245955 -144.078125 62.703125 C-143.32128418 61.93685791 -142.56444336 61.17059082 -141.78466797 60.38110352 C-130.84111801 49.50127671 -130.84111801 49.50127671 -124.640625 48.765625 C-121.60362414 49.16673832 -119.95579528 49.77765681 -117.328125 51.203125 C-114.04969206 49.12158028 -111.02207242 47.01373944 -108.328125 44.203125 C-107.80828022 42.14700599 -107.80828022 42.14700599 -108.078125 40.078125 C-108.328125 36.203125 -108.328125 36.203125 -106.3515625 33.76171875 C-102.83363273 30.78465932 -99.24144479 28.58388057 -95.203125 26.390625 C-94.01396484 25.742146 -94.01396484 25.742146 -92.80078125 25.08056641 C-64.66936693 10.03468989 -32.05385124 0.17490148 0 0 Z M-26.328125 46.203125 C-27.1428125 46.39648438 -27.9575 46.58984375 -28.796875 46.7890625 C-74.9237923 58.04291883 -115.35195619 86.59390242 -140.640625 126.828125 C-141.8863297 128.94347261 -143.1154764 131.06865573 -144.328125 133.203125 C-144.98167969 134.32460937 -145.63523437 135.44609375 -146.30859375 136.6015625 C-156.02441396 153.69003099 -161.66844408 171.96925117 -165.328125 191.203125 C-165.57433594 192.41226563 -165.82054687 193.62140625 -166.07421875 194.8671875 C-170.73765229 222.33320299 -167.97791359 253.09193236 -158.328125 279.203125 C-157.91046875 280.4509375 -157.4928125 281.69875 -157.0625 282.984375 C-149.16768203 306.08747264 -136.06392533 326.56431386 -119.328125 344.203125 C-118.27730968 345.44544405 -117.2343941 346.69453314 -116.203125 347.953125 C-112.92117115 351.79718144 -109.22503029 354.99538303 -105.328125 358.203125 C-104.34070313 359.028125 -103.35328125 359.853125 -102.3359375 360.703125 C-78.68536484 380.10674805 -49.63258841 394.25687925 -19.328125 399.203125 C-18.12414062 399.40679687 -16.92015625 399.61046875 -15.6796875 399.8203125 C3.00305497 402.64578176 23.08495051 402.5561364 41.671875 399.203125 C42.36909668 399.0901709 43.06631836 398.9772168 43.78466797 398.86083984 C87.06801234 391.77189921 129.35717006 365.65075602 155.16503906 330.15478516 C183.22005894 290.79570469 197.32406797 242.37504301 189.546875 194.015625 C189.00759854 191.05521504 188.36338705 188.13140293 187.671875 185.203125 C187.47851562 184.35314941 187.28515625 183.50317383 187.0859375 182.62744141 C176.48582334 137.1107475 148.46219911 95.98355894 108.734375 71.015625 C106.06375333 69.38198307 103.37271728 67.78619162 100.671875 66.203125 C100.0732666 65.84621582 99.4746582 65.48930664 98.85791016 65.12158203 C83.42097859 56.00501412 66.08492828 50.23629543 48.671875 46.203125 C47.310625 45.88408203 47.310625 45.88408203 45.921875 45.55859375 C23.6223054 40.71540598 -4.13090045 40.77188921 -26.328125 46.203125 Z " fill="#C55768" transform="translate(244.328125,-0.203125)"/>
<path d="M0 0 C1.5778125 0.84498047 1.5778125 0.84498047 3.1875 1.70703125 C38.81257795 21.5142035 64.97171927 56.42469117 77 95 C89.00252601 138.74045923 83.75833255 183.16952917 62 223 C56.56692616 232.33161537 50.07559611 240.8545543 43 249 C42.20851563 249.92554688 41.41703125 250.85109375 40.6015625 251.8046875 C34.91202218 258.2839432 28.83586472 263.75885952 22 269 C20.98292969 269.78632813 19.96585937 270.57265625 18.91796875 271.3828125 C3.67759901 283 3.67759901 283 -1 283 C-2.85873821 279.07071564 -4.70992725 275.13799181 -6.55419922 271.2019043 C-7.18266751 269.86336742 -7.81318926 268.52579269 -8.44580078 267.18920898 C-9.35470368 265.26795662 -10.2561678 263.34336622 -11.15625 261.41796875 C-11.70087891 260.26063232 -12.24550781 259.1032959 -12.80664062 257.91088867 C-14 255 -14 255 -14 252 C-13.154375 251.72027344 -12.30875 251.44054687 -11.4375 251.15234375 C0.19113125 247.04267975 6.17572648 242.52251058 11.87109375 231.55078125 C13.93038828 226.89777318 14.14678282 222.7239379 14.14044189 217.67684937 C14.14341302 216.93728079 14.14638414 216.19771222 14.1494453 215.43573248 C14.15812014 212.95632973 14.15963953 210.47697532 14.16113281 207.99755859 C14.16576194 206.22011207 14.17078673 204.44266654 14.17617798 202.66522217 C14.1892971 197.83436352 14.19574629 193.00351877 14.20018864 188.17264509 C14.20312088 185.1526785 14.20722604 182.13271569 14.21169281 179.11275101 C14.22536807 169.65887386 14.2350339 160.20500537 14.2388947 150.75111902 C14.24337201 139.84804675 14.26090464 128.94510007 14.2898953 118.04206598 C14.31153823 109.6087752 14.32160042 101.17551969 14.32293582 92.74220145 C14.32398221 87.70831767 14.32985449 82.67455194 14.34775543 77.64069748 C14.36428068 72.90139113 14.36637003 68.16229097 14.35761642 63.422966 C14.35684836 61.68882061 14.36115817 59.95466393 14.37107468 58.22054672 C14.44651898 44.19870851 13.3435613 33.83435902 3.40625 23.3125 C-4.88043225 15.49487523 -14.29576859 14.40840678 -25.27734375 14.48242188 C-26.56971954 14.4754126 -27.86209534 14.46840332 -29.19363403 14.46118164 C-32.7102856 14.44308204 -36.22646318 14.44995966 -39.7431221 14.46269798 C-43.4406579 14.47289566 -47.1381558 14.46341367 -50.83569336 14.45715332 C-57.04255382 14.44989645 -63.24922329 14.45941281 -69.45605469 14.47851562 C-76.610081 14.50028075 -83.76365116 14.49322798 -90.91766644 14.47121 C-97.08361786 14.45299978 -103.24943276 14.450525 -109.41540241 14.46096468 C-113.08771035 14.46716889 -116.75980458 14.4681208 -120.43209839 14.45481873 C-124.52922134 14.44101178 -128.62557025 14.46020108 -132.72265625 14.48242188 C-134.52465988 14.47027649 -134.52465988 14.47027649 -136.36306763 14.45788574 C-146.61537663 14.56051238 -154.62355894 16.87996653 -162.1796875 24.0078125 C-168.91618208 31.38037095 -172.31249383 38.57539315 -172.26742554 48.6395874 C-172.27422221 49.76375419 -172.27422221 49.76375419 -172.28115618 50.91063142 C-172.29377442 53.41151301 -172.29218149 55.91217611 -172.29052734 58.41308594 C-172.29651427 60.21053343 -172.30332019 62.00797836 -172.31088257 63.80541992 C-172.32853457 68.68162739 -172.33323766 73.55776464 -172.33451414 78.43400097 C-172.33593692 81.48313055 -172.34020896 84.53224234 -172.34550858 87.58136749 C-172.36400725 98.22645702 -172.37217952 108.87149649 -172.37060547 119.51660156 C-172.36940459 129.42659637 -172.39049677 139.33637319 -172.4220928 149.24631286 C-172.44828017 157.76457673 -172.45897171 166.28276952 -172.45769465 174.80107331 C-172.45718568 179.88414058 -172.46283289 184.96701416 -172.48405075 190.0500412 C-172.50347421 194.83375475 -172.50352954 199.61709067 -172.48901749 204.40081787 C-172.48693328 206.15109054 -172.49160703 207.90138709 -172.5037384 209.65161896 C-172.58678795 222.46928494 -171.31658501 233.37286216 -162 243 C-156.54562585 247.53845095 -150.81725017 250.16272691 -144 252 C-144.63801507 256.08924686 -145.97160182 259.43405441 -147.72265625 263.17578125 C-148.26083984 264.33271484 -148.79902344 265.48964844 -149.35351562 266.68164062 C-149.92305936 267.89198249 -150.49272231 269.10226826 -151.0625 270.3125 C-151.63656561 271.54208537 -152.2101385 272.77190091 -152.78320312 274.00195312 C-154.18397233 277.00360143 -155.58972509 280.00280905 -157 283 C-160.55013389 281.90006 -163.6610484 280.81495026 -166.734375 278.71484375 C-167.38599609 278.27108398 -168.03761719 277.82732422 -168.70898438 277.37011719 C-169.38251953 276.89735352 -170.05605469 276.42458984 -170.75 275.9375 C-171.45447266 275.44797852 -172.15894531 274.95845703 -172.88476562 274.45410156 C-177.83995245 270.95458603 -182.42653662 267.2092325 -186.83984375 263.0390625 C-188.85157275 261.14010674 -190.9303668 259.38578319 -193.0625 257.625 C-198.02382845 253.29130948 -201.96709594 248.18417752 -206 243 C-206.74378906 242.071875 -207.48757812 241.14375 -208.25390625 240.1875 C-218.02246411 227.68374594 -225.21639015 213.73144103 -231 199 C-231.26941406 198.31776367 -231.53882813 197.63552734 -231.81640625 196.93261719 C-246.64224824 158.48928053 -244.65997851 113.85635022 -228.07080078 76.33740234 C-209.55956829 35.93007452 -176.49970051 4.99314872 -135 -11 C-129.73011722 -12.89795202 -124.39772181 -14.50908473 -119 -16 C-118.19691406 -16.22300781 -117.39382812 -16.44601563 -116.56640625 -16.67578125 C-114.38508045 -17.21595834 -112.21595379 -17.62583075 -110 -18 C-109.00742188 -18.18433594 -108.01484375 -18.36867187 -106.9921875 -18.55859375 C-69.86682962 -24.37195972 -32.88087051 -18.09181826 0 0 Z " fill="#F8F8F8" transform="translate(335,80)"/>
<path d="M0 0 C0.86303238 -0.00701431 1.72606476 -0.01402863 2.61524963 -0.02125549 C5.38417843 -0.03866251 8.1528935 -0.04510744 10.921875 -0.046875 C11.86694916 -0.04754974 12.81202332 -0.04822449 13.78573608 -0.04891968 C27.31236066 -0.03354672 40.40983392 0.31475764 53.671875 3.203125 C54.49703613 3.36941406 55.32219727 3.53570312 56.17236328 3.70703125 C96.69591304 11.93516318 134.34617545 30.87294013 164.11474609 59.69726562 C165.21319136 60.75954383 166.31834421 61.81490737 167.42822266 62.86523438 C177.29837295 72.21890822 185.77547535 82.1391833 193.671875 93.203125 C194.11869629 93.82123047 194.56551758 94.43933594 195.02587891 95.07617188 C207.14172526 111.96409392 215.99856173 130.56696592 222.671875 150.203125 C222.95401855 151.03166992 223.23616211 151.86021484 223.52685547 152.71386719 C229.71860224 171.25626972 233.72215277 190.76350733 233.91015625 210.35546875 C233.9199501 211.2047847 233.92974396 212.05410065 233.93983459 212.92915344 C234.11460734 232.02549579 233.92325804 250.48603909 229.671875 269.203125 C229.45756836 270.14945801 229.24326172 271.09579102 229.02246094 272.07080078 C224.40883786 291.70388241 217.24470385 310.465796 207.671875 328.203125 C207.05828125 329.358125 206.4446875 330.513125 205.8125 331.703125 C191.52413513 357.68197022 171.25981577 381.31264569 147.38818359 398.93554688 C145.68619911 400.19254594 144.00142502 401.4703882 142.31640625 402.75 C132.12209518 410.37399467 121.06393285 417.00876674 109.390625 422.1171875 C99.41213097 426.54055863 93.58677225 431.8847853 86.97851562 440.53271484 C85.10153427 442.93224893 83.0522533 445.15517725 80.984375 447.390625 C77.9926934 450.68254705 75.14663077 454.04903807 72.359375 457.515625 C68.46931569 462.32897937 64.34315666 466.8507395 60.11621094 471.36425781 C56.19631232 475.57359516 52.55935829 479.96038264 48.95703125 484.4453125 C45.96713999 488.05362572 42.81800106 491.49532628 39.61914062 494.91845703 C36.98638319 497.73913632 34.51653816 500.62742312 32.109375 503.640625 C27.43379652 508.9227054 22.26805051 511.6994127 15.26953125 512.6796875 C7.32182554 513.00760587 1.01845905 512.15655646 -5.328125 507.203125 C-12.60854253 500.4387877 -18.88798454 492.65582792 -25.0859375 484.9140625 C-27.5671905 481.91408065 -30.17676807 479.05158849 -32.828125 476.203125 C-36.27976554 472.49452965 -39.59334794 468.71806423 -42.765625 464.765625 C-46.13159558 460.58074208 -49.65995766 456.62005973 -53.328125 452.703125 C-57.79265445 447.93429187 -62.02513024 443.04660545 -66.09765625 437.93359375 C-66.83371094 437.03253906 -67.56976563 436.13148438 -68.328125 435.203125 C-68.80330566 434.57003418 -69.27848633 433.93694336 -69.76806641 433.28466797 C-74.40896877 427.44061957 -79.29182947 424.84817262 -86.078125 421.953125 C-103.63189552 413.98519826 -118.76700315 403.78535199 -133.328125 391.203125 C-134.24980469 390.41164063 -135.17148438 389.62015625 -136.12109375 388.8046875 C-138.56952802 386.6481969 -140.95878141 384.44615464 -143.328125 382.203125 C-144.75705078 380.85347656 -144.75705078 380.85347656 -146.21484375 379.4765625 C-153.69662989 372.27567487 -160.12732525 364.51840897 -166.328125 356.203125 C-166.96596924 355.36442871 -166.96596924 355.36442871 -167.61669922 354.50878906 C-174.87282607 344.95112256 -180.80673329 334.84754924 -186.328125 324.203125 C-186.91424561 323.07994873 -186.91424561 323.07994873 -187.51220703 321.93408203 C-203.36924036 291.158262 -210.78475461 257.38202127 -210.703125 222.890625 C-210.70258118 222.01972229 -210.70203735 221.14881958 -210.70147705 220.25152588 C-210.59671019 183.54708413 -201.78252765 148.54408578 -184.328125 116.203125 C-183.71453125 115.048125 -183.1009375 113.893125 -182.46875 112.703125 C-172.19069789 94.01575752 -159.03634428 77.80245955 -144.078125 62.703125 C-143.32128418 61.93685791 -142.56444336 61.17059082 -141.78466797 60.38110352 C-130.94233318 49.60190252 -130.94233318 49.60190252 -124.640625 48.640625 C-120.8157911 49.2901251 -119.6522379 50.16390044 -117.328125 53.203125 C-115.87664597 56.10608305 -115.95573475 57.97574279 -116.328125 61.203125 C-119.28148251 65.54086885 -122.94353088 68.64721649 -126.90234375 72.046875 C-136.82212251 80.86445612 -145.52287178 90.47828197 -153.328125 101.203125 C-153.74126953 101.76660645 -154.15441406 102.33008789 -154.58007812 102.91064453 C-172.18328568 127.23013135 -183.18830793 154.96803497 -189.328125 184.203125 C-189.59713623 185.47712158 -189.59713623 185.47712158 -189.87158203 186.77685547 C-194.94444543 212.09079646 -193.51581083 239.06608035 -188.328125 264.203125 C-188.14620605 265.10305176 -187.96428711 266.00297852 -187.77685547 266.93017578 C-185.06290284 279.94696198 -180.65045521 292.04101299 -175.328125 304.203125 C-175.00440918 304.95223145 -174.68069336 305.70133789 -174.34716797 306.47314453 C-155.15649683 350.48388042 -118.82758837 387.24296434 -75.11328125 407.15625 C-65.78242203 411.43325648 -59.7477222 415.94935717 -53.328125 424.203125 C-51.87263441 425.99710178 -50.41429833 427.7887737 -48.953125 429.578125 C-47.85871094 430.93550781 -47.85871094 430.93550781 -46.7421875 432.3203125 C-43.55169106 436.13032281 -40.16815358 439.73836829 -36.7722168 443.36450195 C-32.84919776 447.57723623 -29.20908781 451.96716953 -25.60546875 456.45703125 C-23.10985953 459.46631647 -20.49045695 462.34249522 -17.828125 465.203125 C-13.54942528 469.80139566 -9.54576033 474.55812866 -5.6015625 479.44921875 C1.52215848 489.23491941 1.52215848 489.23491941 11.421875 494.578125 C18.80015491 493.72678501 22.84935077 486.65737803 27.18359375 481.23046875 C29.74571923 478.11328312 32.42100645 475.152125 35.171875 472.203125 C38.62394721 468.49494668 41.93712341 464.7180325 45.109375 460.765625 C48.95232979 455.98771162 53.04018829 451.51317516 57.22802734 447.04150391 C61.14648 442.83362718 64.78254014 438.44881932 68.3828125 433.96484375 C71.77114558 429.87687193 75.37609068 426.00778848 78.99609375 422.125 C81.52027809 419.46004499 81.52027809 419.46004499 82.99560547 417.45410156 C87.03540666 412.21716557 91.40892757 410.01753491 97.421875 407.453125 C112.76180939 400.51745935 126.70448615 391.94371103 139.671875 381.203125 C140.54585938 380.48141113 140.54585938 380.48141113 141.4375 379.74511719 C152.63476424 370.44397088 162.71004881 360.72547296 171.671875 349.203125 C172.10258301 348.65414551 172.53329102 348.10516602 172.97705078 347.53955078 C180.67066121 337.66677718 186.927336 327.31201361 192.671875 316.203125 C193.0234668 315.53651855 193.37505859 314.86991211 193.73730469 314.18310547 C203.7477421 295.02916327 210.63219086 273.59773324 213.671875 252.203125 C213.82112427 251.15922607 213.82112427 251.15922607 213.97338867 250.09423828 C218.74003989 210.55279679 213.14653067 170.02046992 195.671875 134.203125 C195.06588722 132.9260274 194.46040285 131.64869079 193.85546875 130.37109375 C190.30113479 122.9659843 186.29819244 115.98901114 181.671875 109.203125 C181.29659668 108.65124512 180.92131836 108.09936523 180.53466797 107.53076172 C175.67174533 100.42371503 170.62578292 93.72918114 164.73828125 87.421875 C162.89254816 85.44006707 161.15576826 83.40709284 159.421875 81.328125 C130.67137916 48.56440206 86.29445732 27.08655808 43.671875 20.203125 C42.45628906 19.99816406 41.24070312 19.79320313 39.98828125 19.58203125 C-4.11681209 13.24383647 -49.21391425 22.35861455 -87.89257812 43.98657227 C-97.43079907 49.20808543 -97.43079907 49.20808543 -103.328125 48.203125 C-107.01999042 45.61096417 -108.15696261 44.16163436 -108.953125 39.703125 C-108.15138186 35.21336344 -106.74962618 34.17893063 -103.328125 31.203125 C-100.70472214 29.43488426 -97.98215193 27.89994487 -95.203125 26.390625 C-94.01396484 25.742146 -94.01396484 25.742146 -92.80078125 25.08056641 C-64.66936693 10.03468989 -32.05385124 0.17490148 0 0 Z " fill="#373737" transform="translate(244.328125,-0.203125)"/>
<path d="M0 0 C50.82 0 101.64 0 154 0 C154 73 154 73 149 81 C142.3999323 86.534622 136.88111972 86.72065347 128.46875 86.64697266 C127.2319751 86.65573425 125.9952002 86.66449585 124.72094727 86.67352295 C121.34854596 86.69168758 117.97769002 86.68753296 114.6053772 86.67162752 C111.0643721 86.65890402 107.52342976 86.67072643 103.98242188 86.67855835 C98.03764086 86.6876363 92.09317117 86.67571616 86.1484375 86.65185547 C79.29083048 86.62464732 72.43396689 86.63346283 65.57637787 86.6609875 C59.67204203 86.68373089 53.76792906 86.68685329 47.86356354 86.67379415 C44.34438403 86.66602814 40.82555313 86.66487857 37.30639648 86.68147659 C33.3810573 86.6986996 29.4565403 86.67478031 25.53125 86.64697266 C23.79790405 86.66215439 23.79790405 86.66215439 22.02954102 86.67764282 C14.7801253 86.58269127 10.61790951 85.71101313 5 81 C-9.33720878 58.06046595 0 27.05139142 0 0 Z " fill="#4880C5" transform="translate(179,230)"/>
<path d="M0 0 C50.82 0 101.64 0 154 0 C154 22.44 154 44.88 154 68 C103.18 68 52.36 68 0 68 C0 45.56 0 23.12 0 0 Z " fill="#D5E5E6" transform="translate(179,145)"/>
<path d="M0 0 C1.09066772 -0.00852997 2.18133545 -0.01705994 3.30505371 -0.02584839 C5.09273666 -0.02448883 5.09273666 -0.02448883 6.91653442 -0.02310181 C8.80490021 -0.03317764 8.80490021 -0.03317764 10.73141479 -0.04345703 C14.18190344 -0.06111345 17.63229287 -0.06581225 21.08282232 -0.0670886 C23.23975625 -0.06851098 25.39666501 -0.07278222 27.55359268 -0.07808304 C35.0818161 -0.09658222 42.60996872 -0.10475381 50.13821411 -0.10317993 C57.15015836 -0.10197859 64.16179476 -0.12307944 71.17366111 -0.15466726 C77.19842882 -0.18083886 83.22309605 -0.19154686 89.24792016 -0.19026911 C92.84421178 -0.18975973 96.4402298 -0.1954295 100.03646469 -0.21662521 C104.04878454 -0.23962799 108.0604168 -0.23048143 112.07278442 -0.21841431 C113.2605246 -0.22965332 114.44826477 -0.24089233 115.67199707 -0.25247192 C124.12679465 -0.18777556 127.44464993 1.08802151 133.43655396 7.07992554 C135.62405396 10.26742554 135.62405396 10.26742554 136.62405396 17.26742554 C85.80405396 17.26742554 34.98405396 17.26742554 -17.37594604 17.26742554 C-16.24562114 9.35515117 -16.24562114 9.35515117 -13.06344604 5.95492554 C-12.17205933 4.97072632 -12.17205933 4.97072632 -11.26266479 3.96664429 C-7.67226033 0.7330502 -4.79201458 0.01695693 0 0 Z " fill="#4881C7" transform="translate(196.37594604492188,110.73257446289063)"/>
<path d="M0 0 C6.7343186 4.17527753 13.03489031 8.97142154 15.125 16.9375 C16.10073916 25.88738329 15.17550629 32.81264942 10.5625 40.5625 C4.82908135 46.14890791 -2.00344052 49.97108902 -10.0625 50.25 C-17.42432663 50.14120453 -23.94316924 46.78219537 -29.30078125 41.82421875 C-34.17962937 35.97686479 -36.73126796 28.9534393 -36.296875 21.3515625 C-34.9684362 13.74994049 -31.04452808 7.30519576 -25.046875 2.4609375 C-17.84744734 -2.3120164 -8.13710771 -2.96743148 0 0 Z " fill="#383839" transform="translate(231.875,249.0625)"/>
<path d="M0 0 C6.55952806 4.60585831 11.41133053 11.86923283 12.84375 19.81640625 C13.15252993 27.4201121 10.69608839 33.31416947 6.4375 39.5625 C0.61443432 45.44232071 -5.50417377 47.85742246 -13.75 48.0625 C-20.9840438 48.06161769 -26.17632169 46.4964805 -31.5625 41.5625 C-38.2755143 33.59767361 -39.24852503 26.80010435 -38.5625 16.5625 C-37.35109885 9.48791728 -32.99186478 4.99359508 -27.5625 0.5625 C-19.76654784 -4.52873406 -8.08937072 -4.41238403 0 0 Z " fill="#373838" transform="translate(303.5625,250.4375)"/>
<path d="M0 0 C30.36 0 60.72 0 92 0 C99 15 99 15 99 17 C64.02 17 29.04 17 -7 17 C-4 8 -4 8 0 0 Z " fill="#F6F6F6" transform="translate(210,333)"/>
<path d="M0 0 C40.92 0 81.84 0 124 0 C124.495 1.98 124.495 1.98 125 4 C118.83436011 6.90923147 112.66520323 9.21087109 106.125 11.125 C105.24440918 11.38434326 104.36381836 11.64368652 103.45654297 11.91088867 C69.4436018 21.75045882 31.66282863 18.13853107 -1 5 C-0.67 3.35 -0.34 1.7 0 0 Z " fill="#F7F7F7" transform="translate(194,367)"/>
<path d="M0 0 C3.67621591 2.55736759 4.81812098 4.14270564 5.75 8.53515625 C5.59607331 14.09305472 1.76145239 17.08033815 -2.01171875 20.76367188 C-2.95660156 21.64603516 -3.90148437 22.52839844 -4.875 23.4375 C-5.81214844 24.34693359 -6.74929687 25.25636719 -7.71484375 26.19335938 C-15.69321772 33.87900164 -15.69321772 33.87900164 -20.375 34.3125 C-24 34 -24 34 -26.375 32.4375 C-28.65353057 29.01970414 -29.2069511 27.139022 -29 23 C-27.17070808 19.86909652 -24.57900311 17.52293783 -22 15 C-20.82629581 13.80648357 -19.65458279 12.61100724 -18.484375 11.4140625 C-16.0035499 8.89218432 -13.51863448 6.37487325 -11.01171875 3.87890625 C-10.48022217 3.3485376 -9.94872559 2.81816895 -9.40112305 2.27172852 C-6.43156317 -0.42359077 -3.90062463 -0.45889702 0 0 Z " fill="#3A3A3A" transform="translate(259,162)"/>
<path d="M0 0 C2.5 2.125 2.5 2.125 4 5 C4.27907933 9.93040143 2.84157919 12.54796039 -0.25 16.1875 C-7.21204338 23.48915525 -7.21204338 23.48915525 -12.5 25 C-16 25 -16 25 -18.875 23.1875 C-21.35259731 20.63703218 -21.9185889 19.71284352 -22.3203125 16.1953125 C-21.67888456 9.7966777 -15.82757121 5.62466679 -11.3125 1.43359375 C-7.48844988 -1.54874968 -4.49597782 -1.41540043 0 0 Z " fill="#3D3E3E" transform="translate(218,163)"/>
<path d="M0 0 C3.06458538 2.04305692 3.82153128 3.44079802 4.9375 6.9375 C5.01327396 10.65042412 4.3135507 12.12800603 2 15 C-0.54229606 16.92863839 -1.78345018 17.00902291 -5 16.875 C-8.57231176 15.83307574 -9.93095202 15.10357196 -12 12 C-12.80730018 7.98821239 -12.61584485 5.02640809 -10.5 1.5 C-6.97359191 -0.61584485 -4.01178761 -0.80730018 0 0 Z " fill="#DBC34A" transform="translate(294,265)"/>
<path d="M0 0 C2.5 1.5 2.5 1.5 4 4 C4.791013 8.02098277 4.62153384 10.96411027 2.5 14.5 C-0.99002003 16.59401202 -4.09839751 16.87901716 -8 16 C-11.0625 13.9375 -11.0625 13.9375 -13 11 C-13.06886551 7.07466612 -12.55357459 4.86357636 -10.4375 1.5625 C-6.95679065 -0.66872394 -4.02224201 -0.79126072 0 0 Z " fill="#DCC34A" transform="translate(226,265)"/>
</svg>
